%TF.GenerationSoftware,KiCad,Pcbnew,(6.0.7)*%
%TF.CreationDate,2022-12-27T11:46:59-06:00*%
%TF.ProjectId,UKDAQ,554b4441-512e-46b6-9963-61645f706362,rev?*%
%TF.SameCoordinates,Original*%
%TF.FileFunction,Paste,Top*%
%TF.FilePolarity,Positive*%
%FSLAX46Y46*%
G04 Gerber Fmt 4.6, Leading zero omitted, Abs format (unit mm)*
G04 Created by KiCad (PCBNEW (6.0.7)) date 2022-12-27 11:46:59*
%MOMM*%
%LPD*%
G01*
G04 APERTURE LIST*
G04 Aperture macros list*
%AMRoundRect*
0 Rectangle with rounded corners*
0 $1 Rounding radius*
0 $2 $3 $4 $5 $6 $7 $8 $9 X,Y pos of 4 corners*
0 Add a 4 corners polygon primitive as box body*
4,1,4,$2,$3,$4,$5,$6,$7,$8,$9,$2,$3,0*
0 Add four circle primitives for the rounded corners*
1,1,$1+$1,$2,$3*
1,1,$1+$1,$4,$5*
1,1,$1+$1,$6,$7*
1,1,$1+$1,$8,$9*
0 Add four rect primitives between the rounded corners*
20,1,$1+$1,$2,$3,$4,$5,0*
20,1,$1+$1,$4,$5,$6,$7,0*
20,1,$1+$1,$6,$7,$8,$9,0*
20,1,$1+$1,$8,$9,$2,$3,0*%
%AMOutline5P*
0 Free polygon, 5 corners , with rotation*
0 The origin of the aperture is its center*
0 number of corners: always 5*
0 $1 to $10 corner X, Y*
0 $11 Rotation angle, in degrees counterclockwise*
0 create outline with 5 corners*
4,1,5,$1,$2,$3,$4,$5,$6,$7,$8,$9,$10,$1,$2,$11*%
%AMOutline6P*
0 Free polygon, 6 corners , with rotation*
0 The origin of the aperture is its center*
0 number of corners: always 6*
0 $1 to $12 corner X, Y*
0 $13 Rotation angle, in degrees counterclockwise*
0 create outline with 6 corners*
4,1,6,$1,$2,$3,$4,$5,$6,$7,$8,$9,$10,$11,$12,$1,$2,$13*%
%AMOutline7P*
0 Free polygon, 7 corners , with rotation*
0 The origin of the aperture is its center*
0 number of corners: always 7*
0 $1 to $14 corner X, Y*
0 $15 Rotation angle, in degrees counterclockwise*
0 create outline with 7 corners*
4,1,7,$1,$2,$3,$4,$5,$6,$7,$8,$9,$10,$11,$12,$13,$14,$1,$2,$15*%
%AMOutline8P*
0 Free polygon, 8 corners , with rotation*
0 The origin of the aperture is its center*
0 number of corners: always 8*
0 $1 to $16 corner X, Y*
0 $17 Rotation angle, in degrees counterclockwise*
0 create outline with 8 corners*
4,1,8,$1,$2,$3,$4,$5,$6,$7,$8,$9,$10,$11,$12,$13,$14,$15,$16,$1,$2,$17*%
%AMFreePoly0*
4,1,15,0.150002,0.355000,0.350000,0.355000,0.353536,0.353536,0.355000,0.350000,0.355000,-0.350000,0.353536,-0.353536,0.350000,-0.355000,-0.350000,-0.355000,-0.353536,-0.353536,-0.355000,-0.350000,-0.355001,-0.150000,-0.353536,-0.146464,0.146464,0.353536,0.150000,0.355001,0.150002,0.355000,0.150002,0.355000,$1*%
G04 Aperture macros list end*
%ADD10RoundRect,0.135000X-0.135000X-0.185000X0.135000X-0.185000X0.135000X0.185000X-0.135000X0.185000X0*%
%ADD11R,0.660000X0.320000*%
%ADD12R,0.660000X0.220000*%
%ADD13RoundRect,0.079500X-0.079500X-0.100500X0.079500X-0.100500X0.079500X0.100500X-0.079500X0.100500X0*%
%ADD14R,0.300000X0.525000*%
%ADD15R,0.425000X0.300000*%
%ADD16RoundRect,0.225000X-0.225000X-0.250000X0.225000X-0.250000X0.225000X0.250000X-0.225000X0.250000X0*%
%ADD17RoundRect,0.067500X-0.067500X-0.067500X0.067500X-0.067500X0.067500X0.067500X-0.067500X0.067500X0*%
%ADD18RoundRect,0.350000X-1.450000X0.349999X-1.450000X-0.349999X1.450000X-0.349999X1.450000X0.349999X0*%
%ADD19RoundRect,0.350000X-1.450000X0.350000X-1.450000X-0.350000X1.450000X-0.350000X1.450000X0.350000X0*%
%ADD20RoundRect,0.079500X-0.100500X0.079500X-0.100500X-0.079500X0.100500X-0.079500X0.100500X0.079500X0*%
%ADD21R,0.500000X0.350000*%
%ADD22RoundRect,0.135000X0.185000X-0.135000X0.185000X0.135000X-0.185000X0.135000X-0.185000X-0.135000X0*%
%ADD23R,1.000000X1.800000*%
%ADD24RoundRect,0.225000X-0.250000X0.225000X-0.250000X-0.225000X0.250000X-0.225000X0.250000X0.225000X0*%
%ADD25RoundRect,0.067500X0.067500X0.067500X-0.067500X0.067500X-0.067500X-0.067500X0.067500X-0.067500X0*%
%ADD26RoundRect,0.150000X0.587500X0.150000X-0.587500X0.150000X-0.587500X-0.150000X0.587500X-0.150000X0*%
%ADD27Outline5P,-0.850000X0.574600X-0.574600X0.850000X0.850000X0.850000X0.850000X-0.850000X-0.850000X-0.850000X0.000000*%
%ADD28FreePoly0,0.000000*%
%ADD29R,0.700000X0.200000*%
%ADD30FreePoly0,90.000000*%
%ADD31R,0.200000X0.700000*%
%ADD32FreePoly0,180.000000*%
%ADD33FreePoly0,270.000000*%
%ADD34RoundRect,0.135000X0.135000X0.185000X-0.135000X0.185000X-0.135000X-0.185000X0.135000X-0.185000X0*%
%ADD35RoundRect,0.225000X0.225000X0.250000X-0.225000X0.250000X-0.225000X-0.250000X0.225000X-0.250000X0*%
G04 APERTURE END LIST*
D10*
%TO.C,R1*%
X139580000Y-103220000D03*
X140600000Y-103220000D03*
%TD*%
D11*
%TO.C,U2*%
X132700000Y-97970000D03*
D12*
X132700000Y-98420000D03*
X132700000Y-98820000D03*
X132700000Y-99220000D03*
X133540000Y-99220000D03*
X133540000Y-98820000D03*
X133540000Y-98420000D03*
X133540000Y-98020000D03*
%TD*%
D13*
%TO.C,C2*%
X136890000Y-99120000D03*
X136200000Y-99120000D03*
%TD*%
D14*
%TO.C,U3*%
X156450000Y-101882500D03*
D15*
X156512500Y-101070000D03*
X156512500Y-100570000D03*
X156512500Y-100070000D03*
X156512500Y-99570000D03*
D14*
X156450000Y-98757500D03*
X155950000Y-98757500D03*
X155450000Y-98757500D03*
X154950000Y-98757500D03*
X154450000Y-98757500D03*
X153950000Y-98757500D03*
X153450000Y-98757500D03*
X152950000Y-98757500D03*
X152450000Y-98757500D03*
X151950000Y-98757500D03*
D15*
X151887500Y-99570000D03*
X151887500Y-100070000D03*
X151887500Y-100570000D03*
X151887500Y-101070000D03*
D14*
X151950000Y-101882500D03*
X152450000Y-101882500D03*
X152950000Y-101882500D03*
X153450000Y-101882500D03*
X153950000Y-101882500D03*
X154450000Y-101882500D03*
X154950000Y-101882500D03*
X155450000Y-101882500D03*
X155950000Y-101882500D03*
%TD*%
D16*
%TO.C,C7*%
X156100000Y-111120000D03*
X157650000Y-111120000D03*
%TD*%
D17*
%TO.C,C5*%
X145600000Y-109420000D03*
X145050000Y-109420000D03*
%TD*%
D18*
%TO.C,C3*%
X137300000Y-112720000D03*
D19*
X131300000Y-112720000D03*
%TD*%
D10*
%TO.C,R4*%
X144090000Y-99320000D03*
X145110000Y-99320000D03*
%TD*%
D20*
%TO.C,C9*%
X155000000Y-97220000D03*
X155000000Y-96530000D03*
%TD*%
D21*
%TO.C,U4*%
X151780000Y-112390000D03*
X151780000Y-111740000D03*
X151780000Y-111090000D03*
X151780000Y-110440000D03*
X153830000Y-110440000D03*
X153830000Y-111090000D03*
X153830000Y-111740000D03*
X153830000Y-112390000D03*
%TD*%
D13*
%TO.C,C1*%
X129210000Y-99120000D03*
X129900000Y-99120000D03*
%TD*%
D22*
%TO.C,R3*%
X159300000Y-100740000D03*
X159300000Y-99720000D03*
%TD*%
D23*
%TO.C,Y1*%
X147500000Y-107420000D03*
X145000000Y-107420000D03*
%TD*%
D13*
%TO.C,C10*%
X149390000Y-105420000D03*
X148700000Y-105420000D03*
%TD*%
D24*
%TO.C,C6*%
X143000000Y-103220000D03*
X143000000Y-104770000D03*
%TD*%
D20*
%TO.C,R2*%
X143000000Y-106375000D03*
X143000000Y-107065000D03*
%TD*%
D25*
%TO.C,C8*%
X147500000Y-109420000D03*
X146950000Y-109420000D03*
%TD*%
D26*
%TO.C,U1*%
X134137500Y-103670000D03*
X134137500Y-101770000D03*
X132262500Y-102720000D03*
%TD*%
D27*
%TO.C,U5*%
X146300000Y-102420000D03*
D28*
X144850000Y-100970000D03*
D29*
X144850000Y-101620000D03*
X144850000Y-102020000D03*
X144850000Y-102420000D03*
X144850000Y-102820000D03*
X144850000Y-103220000D03*
D30*
X144850000Y-103870000D03*
D31*
X145500000Y-103870000D03*
X145900000Y-103870000D03*
X146300000Y-103870000D03*
X146700000Y-103870000D03*
X147100000Y-103870000D03*
D32*
X147750000Y-103870000D03*
D29*
X147750000Y-103220000D03*
X147750000Y-102820000D03*
X147750000Y-102420000D03*
X147750000Y-102020000D03*
X147750000Y-101620000D03*
D33*
X147750000Y-100970000D03*
D31*
X147100000Y-100970000D03*
X146700000Y-100970000D03*
X146300000Y-100970000D03*
X145900000Y-100970000D03*
X145500000Y-100970000D03*
%TD*%
D34*
%TO.C,R5*%
X147320000Y-99320000D03*
X146300000Y-99320000D03*
%TD*%
D35*
%TO.C,C4*%
X156000000Y-104520000D03*
X154450000Y-104520000D03*
%TD*%
M02*
