%TF.GenerationSoftware,KiCad,Pcbnew,(6.0.7)*%
%TF.CreationDate,2022-12-27T11:46:59-06:00*%
%TF.ProjectId,UKDAQ,554b4441-512e-46b6-9963-61645f706362,rev?*%
%TF.SameCoordinates,Original*%
%TF.FileFunction,Copper,L2,Bot*%
%TF.FilePolarity,Positive*%
%FSLAX46Y46*%
G04 Gerber Fmt 4.6, Leading zero omitted, Abs format (unit mm)*
G04 Created by KiCad (PCBNEW (6.0.7)) date 2022-12-27 11:46:59*
%MOMM*%
%LPD*%
G01*
G04 APERTURE LIST*
%TA.AperFunction,ComponentPad*%
%ADD10R,1.700000X1.700000*%
%TD*%
%TA.AperFunction,ComponentPad*%
%ADD11O,1.700000X1.700000*%
%TD*%
%TA.AperFunction,ViaPad*%
%ADD12C,0.508000*%
%TD*%
%TA.AperFunction,Conductor*%
%ADD13C,0.228600*%
%TD*%
%TA.AperFunction,Conductor*%
%ADD14C,0.254000*%
%TD*%
%TA.AperFunction,Conductor*%
%ADD15C,0.152400*%
%TD*%
G04 APERTURE END LIST*
D10*
%TO.P,J1,1,Pin_1*%
%TO.N,GND*%
X123600000Y-99040000D03*
D11*
%TO.P,J1,2,Pin_2*%
%TO.N,/nRESET*%
X123600000Y-101580000D03*
%TO.P,J1,3,Pin_3*%
%TO.N,VCC*%
X123600000Y-104120000D03*
%TO.P,J1,4,Pin_4*%
%TO.N,/RX{slash}SWCLK-VCC*%
X123600000Y-106660000D03*
%TO.P,J1,5,Pin_5*%
%TO.N,/TX{slash}SWDIO-VCC*%
X123600000Y-109200000D03*
%TD*%
D12*
%TO.N,GND*%
X139600000Y-107820000D03*
X159100000Y-106320000D03*
X144600000Y-104820000D03*
X128600000Y-106820000D03*
X149100000Y-103820000D03*
X152573182Y-99852900D03*
X127100000Y-96320000D03*
X146100000Y-113320000D03*
X134600000Y-115320000D03*
X131600000Y-100320000D03*
X140600000Y-97820000D03*
X146690897Y-105729103D03*
X126600000Y-113820000D03*
X154600000Y-100320000D03*
X152600000Y-96320000D03*
X159100000Y-97820000D03*
%TO.N,VDD*%
X150600000Y-105820000D03*
X157000000Y-103520000D03*
X148900000Y-99320000D03*
%TO.N,/nRESET*%
X153000000Y-100720000D03*
X137800000Y-101720000D03*
%TO.N,/RX{slash}SWCLK-VCC*%
X128900000Y-102120000D03*
%TO.N,/TX{slash}SWDIO-VCC*%
X128900000Y-101220000D03*
%TO.N,/SCL*%
X150200000Y-101920000D03*
X145100000Y-98452900D03*
%TO.N,/SDA*%
X146300000Y-98452900D03*
X150900000Y-101920000D03*
%TO.N,/RX{slash}SWCLK-VDD*%
X134800000Y-99420000D03*
X138000000Y-100320000D03*
%TO.N,/TX{slash}SWDIO-VDD*%
X134800000Y-98620000D03*
X140400000Y-101120000D03*
%TD*%
D13*
%TO.N,GND*%
X146690897Y-105729103D02*
X145509103Y-105729103D01*
X145509103Y-105729103D02*
X144600000Y-104820000D01*
D14*
%TO.N,VDD*%
X157000000Y-103520000D02*
X152800000Y-99320000D01*
D13*
X152900000Y-103520000D02*
X157000000Y-103520000D01*
D14*
X152800000Y-99320000D02*
X148900000Y-99320000D01*
D13*
X150600000Y-105820000D02*
X152900000Y-103520000D01*
D15*
%TO.N,/nRESET*%
X138482600Y-102402600D02*
X137800000Y-101720000D01*
X131700000Y-101720000D02*
X130300000Y-100320000D01*
X130300000Y-100320000D02*
X124860000Y-100320000D01*
X124860000Y-100320000D02*
X123600000Y-101580000D01*
X153000000Y-100720000D02*
X151317400Y-102402600D01*
X151317400Y-102402600D02*
X138482600Y-102402600D01*
X137800000Y-101720000D02*
X131700000Y-101720000D01*
%TO.N,/RX{slash}SWCLK-VCC*%
X128900000Y-102120000D02*
X124360000Y-106660000D01*
X124360000Y-106660000D02*
X123600000Y-106660000D01*
%TO.N,/TX{slash}SWDIO-VCC*%
X122521400Y-108121400D02*
X123600000Y-109200000D01*
X123200000Y-105420000D02*
X122521400Y-106098600D01*
X124700000Y-105420000D02*
X123200000Y-105420000D01*
X122521400Y-106098600D02*
X122521400Y-108121400D01*
X128900000Y-101220000D02*
X124700000Y-105420000D01*
%TO.N,/SCL*%
X148567100Y-101920000D02*
X150200000Y-101920000D01*
X145100000Y-98452900D02*
X148567100Y-101920000D01*
%TO.N,/SDA*%
X148667100Y-100820000D02*
X146300000Y-98452900D01*
X150900000Y-101920000D02*
X149800000Y-100820000D01*
X149800000Y-100820000D02*
X148667100Y-100820000D01*
%TO.N,/RX{slash}SWCLK-VDD*%
X135700000Y-100320000D02*
X138000000Y-100320000D01*
X134800000Y-99420000D02*
X135700000Y-100320000D01*
%TO.N,/TX{slash}SWDIO-VDD*%
X134800000Y-98620000D02*
X137900000Y-98620000D01*
X137900000Y-98620000D02*
X140400000Y-101120000D01*
%TD*%
%TA.AperFunction,Conductor*%
%TO.N,GND*%
G36*
X135053857Y-94490493D02*
G01*
X135058693Y-94494926D01*
X136462902Y-95899135D01*
X136462913Y-95899147D01*
X136520853Y-95957087D01*
X136530413Y-95959649D01*
X136530414Y-95959649D01*
X136531422Y-95959919D01*
X136549560Y-95967432D01*
X136559030Y-95972900D01*
X151059029Y-95972900D01*
X151059030Y-95972901D01*
X151140970Y-95972901D01*
X151150443Y-95967431D01*
X151168584Y-95959917D01*
X151179147Y-95957087D01*
X151237087Y-95899147D01*
X151237087Y-95899146D01*
X152641307Y-94494926D01*
X152687927Y-94473186D01*
X152694481Y-94472900D01*
X158005519Y-94472900D01*
X158053857Y-94490493D01*
X158058693Y-94494926D01*
X161925074Y-98361307D01*
X161946814Y-98407927D01*
X161947100Y-98414481D01*
X161947100Y-109225519D01*
X161929507Y-109273857D01*
X161925074Y-109278693D01*
X155558693Y-115645074D01*
X155512073Y-115666814D01*
X155505519Y-115667100D01*
X141140971Y-115667100D01*
X141140970Y-115667099D01*
X141059030Y-115667099D01*
X141049555Y-115672570D01*
X141031419Y-115680082D01*
X141030418Y-115680350D01*
X141030417Y-115680350D01*
X141020853Y-115682913D01*
X141006118Y-115697648D01*
X138058693Y-118645074D01*
X138012073Y-118666814D01*
X138005519Y-118667100D01*
X128194481Y-118667100D01*
X128146143Y-118649507D01*
X128141307Y-118645074D01*
X121274926Y-111778693D01*
X121253186Y-111732073D01*
X121252900Y-111725519D01*
X121252900Y-106110858D01*
X122287503Y-106110858D01*
X122289548Y-106118490D01*
X122289548Y-106118491D01*
X122289738Y-106119199D01*
X122292300Y-106138662D01*
X122292300Y-108113440D01*
X122292197Y-108117376D01*
X122290066Y-108158039D01*
X122298937Y-108181150D01*
X122302282Y-108192442D01*
X122307431Y-108216665D01*
X122312076Y-108223058D01*
X122312077Y-108223060D01*
X122312507Y-108223652D01*
X122321873Y-108240902D01*
X122324968Y-108248964D01*
X122342464Y-108266460D01*
X122350128Y-108275432D01*
X122364678Y-108295458D01*
X122371523Y-108299410D01*
X122372157Y-108299776D01*
X122387731Y-108311727D01*
X122706631Y-108630627D01*
X122728371Y-108677247D01*
X122719355Y-108720027D01*
X122673739Y-108803004D01*
X122614269Y-108990476D01*
X122592345Y-109185930D01*
X122592653Y-109189598D01*
X122592653Y-109189601D01*
X122600135Y-109278693D01*
X122608803Y-109381919D01*
X122663015Y-109570979D01*
X122752916Y-109745908D01*
X122875083Y-109900044D01*
X122877877Y-109902422D01*
X122877878Y-109902423D01*
X122912691Y-109932051D01*
X123024862Y-110027516D01*
X123028063Y-110029305D01*
X123028066Y-110029307D01*
X123066656Y-110050874D01*
X123196547Y-110123467D01*
X123200044Y-110124603D01*
X123200048Y-110124605D01*
X123292615Y-110154681D01*
X123383600Y-110184244D01*
X123490984Y-110197049D01*
X123575237Y-110207096D01*
X123575239Y-110207096D01*
X123578895Y-110207532D01*
X123774994Y-110192443D01*
X123889061Y-110160595D01*
X123960883Y-110140542D01*
X123960885Y-110140541D01*
X123964428Y-110139552D01*
X124139981Y-110050874D01*
X124294966Y-109929786D01*
X124423480Y-109780901D01*
X124520628Y-109609890D01*
X124582710Y-109423266D01*
X124607360Y-109228138D01*
X124607753Y-109200000D01*
X124607548Y-109197907D01*
X124588921Y-109007927D01*
X124588920Y-109007922D01*
X124588561Y-109004260D01*
X124531714Y-108815975D01*
X124439379Y-108642318D01*
X124315072Y-108489903D01*
X124163528Y-108364535D01*
X123990520Y-108270990D01*
X123802637Y-108212830D01*
X123679766Y-108199916D01*
X123610690Y-108192656D01*
X123610689Y-108192656D01*
X123607035Y-108192272D01*
X123509100Y-108201185D01*
X123414824Y-108209764D01*
X123414823Y-108209764D01*
X123411166Y-108210097D01*
X123407641Y-108211134D01*
X123407638Y-108211135D01*
X123279108Y-108248964D01*
X123222489Y-108265628D01*
X123208889Y-108272738D01*
X123118522Y-108319980D01*
X123067534Y-108326783D01*
X123030508Y-108306511D01*
X122772526Y-108048529D01*
X122750786Y-108001909D01*
X122750500Y-107995355D01*
X122750500Y-107416645D01*
X122768093Y-107368307D01*
X122812642Y-107342587D01*
X122863300Y-107351520D01*
X122874734Y-107360454D01*
X122875083Y-107360044D01*
X123024862Y-107487516D01*
X123028063Y-107489305D01*
X123028066Y-107489307D01*
X123066656Y-107510874D01*
X123196547Y-107583467D01*
X123200044Y-107584603D01*
X123200048Y-107584605D01*
X123292615Y-107614681D01*
X123383600Y-107644244D01*
X123490984Y-107657049D01*
X123575237Y-107667096D01*
X123575239Y-107667096D01*
X123578895Y-107667532D01*
X123774994Y-107652443D01*
X123889061Y-107620595D01*
X123960883Y-107600542D01*
X123960885Y-107600541D01*
X123964428Y-107599552D01*
X124139981Y-107510874D01*
X124294966Y-107389786D01*
X124423480Y-107240901D01*
X124520628Y-107069890D01*
X124582710Y-106883266D01*
X124597121Y-106769191D01*
X124618554Y-106725442D01*
X128796959Y-102547037D01*
X128843579Y-102525297D01*
X128861897Y-102525937D01*
X128900000Y-102531972D01*
X129027306Y-102511809D01*
X129142151Y-102453292D01*
X129233292Y-102362151D01*
X129291809Y-102247306D01*
X129311972Y-102120000D01*
X129291809Y-101992694D01*
X129233292Y-101877849D01*
X129142151Y-101786708D01*
X129044602Y-101737004D01*
X129009520Y-101699383D01*
X129006828Y-101648013D01*
X129037785Y-101606932D01*
X129044602Y-101602996D01*
X129053346Y-101598541D01*
X129142151Y-101553292D01*
X129233292Y-101462151D01*
X129291809Y-101347306D01*
X129311972Y-101220000D01*
X129306113Y-101183004D01*
X129292735Y-101098541D01*
X129291809Y-101092694D01*
X129233292Y-100977849D01*
X129142151Y-100886708D01*
X129124765Y-100877849D01*
X129064821Y-100847306D01*
X129027306Y-100828191D01*
X128900000Y-100808028D01*
X128772694Y-100828191D01*
X128735179Y-100847306D01*
X128675236Y-100877849D01*
X128657849Y-100886708D01*
X128566708Y-100977849D01*
X128508191Y-101092694D01*
X128507265Y-101098541D01*
X128493888Y-101183004D01*
X128488028Y-101220000D01*
X128488954Y-101225846D01*
X128494063Y-101258103D01*
X128484248Y-101308598D01*
X128472963Y-101323041D01*
X124627129Y-105168874D01*
X124580509Y-105190614D01*
X124573955Y-105190900D01*
X124020059Y-105190900D01*
X123971721Y-105173307D01*
X123946001Y-105128758D01*
X123954934Y-105078100D01*
X123986153Y-105048578D01*
X124136697Y-104972533D01*
X124136698Y-104972532D01*
X124139981Y-104970874D01*
X124294966Y-104849786D01*
X124423480Y-104700901D01*
X124520628Y-104529890D01*
X124582710Y-104343266D01*
X124607360Y-104148138D01*
X124607753Y-104120000D01*
X124607548Y-104117907D01*
X124588921Y-103927927D01*
X124588920Y-103927922D01*
X124588561Y-103924260D01*
X124531714Y-103735975D01*
X124439379Y-103562318D01*
X124315072Y-103409903D01*
X124163528Y-103284535D01*
X123990520Y-103190990D01*
X123802637Y-103132830D01*
X123679766Y-103119916D01*
X123610690Y-103112656D01*
X123610689Y-103112656D01*
X123607035Y-103112272D01*
X123509100Y-103121185D01*
X123414824Y-103129764D01*
X123414823Y-103129764D01*
X123411166Y-103130097D01*
X123407641Y-103131134D01*
X123407638Y-103131135D01*
X123272034Y-103171046D01*
X123222489Y-103185628D01*
X123048192Y-103276748D01*
X122894912Y-103399988D01*
X122768489Y-103550653D01*
X122673739Y-103723004D01*
X122614269Y-103910476D01*
X122592345Y-104105930D01*
X122592653Y-104109598D01*
X122592653Y-104109601D01*
X122595889Y-104148138D01*
X122608803Y-104301919D01*
X122663015Y-104490979D01*
X122752916Y-104665908D01*
X122875083Y-104820044D01*
X122877877Y-104822422D01*
X122877878Y-104822423D01*
X122912691Y-104852051D01*
X123024862Y-104947516D01*
X123028063Y-104949305D01*
X123028066Y-104949307D01*
X123066656Y-104970874D01*
X123196547Y-105043467D01*
X123200049Y-105044605D01*
X123200546Y-105044822D01*
X123237799Y-105080294D01*
X123243535Y-105131413D01*
X123215071Y-105174260D01*
X123178640Y-105185190D01*
X123179060Y-105187843D01*
X123171253Y-105189080D01*
X123163360Y-105188666D01*
X123155980Y-105191499D01*
X123140261Y-105197533D01*
X123128947Y-105200885D01*
X123104735Y-105206031D01*
X123098342Y-105210676D01*
X123098340Y-105210677D01*
X123097748Y-105211107D01*
X123080498Y-105220473D01*
X123079816Y-105220735D01*
X123079815Y-105220736D01*
X123072436Y-105223568D01*
X123054940Y-105241064D01*
X123045968Y-105248728D01*
X123025942Y-105263278D01*
X123021990Y-105270123D01*
X123021624Y-105270757D01*
X123009673Y-105286331D01*
X122365033Y-105930970D01*
X122362178Y-105933680D01*
X122331914Y-105960930D01*
X122321844Y-105983547D01*
X122316222Y-105993901D01*
X122302739Y-106014664D01*
X122301503Y-106022471D01*
X122301389Y-106023188D01*
X122295813Y-106042013D01*
X122292300Y-106049903D01*
X122292300Y-106074654D01*
X122291374Y-106086418D01*
X122288856Y-106102318D01*
X122287503Y-106110858D01*
X121252900Y-106110858D01*
X121252900Y-101565930D01*
X122592345Y-101565930D01*
X122592653Y-101569598D01*
X122592653Y-101569601D01*
X122608495Y-101758252D01*
X122608803Y-101761919D01*
X122663015Y-101950979D01*
X122752916Y-102125908D01*
X122755201Y-102128791D01*
X122780651Y-102160901D01*
X122875083Y-102280044D01*
X122877877Y-102282422D01*
X122877878Y-102282423D01*
X122912691Y-102312051D01*
X123024862Y-102407516D01*
X123028063Y-102409305D01*
X123028066Y-102409307D01*
X123066656Y-102430874D01*
X123196547Y-102503467D01*
X123200044Y-102504603D01*
X123200048Y-102504605D01*
X123281427Y-102531046D01*
X123383600Y-102564244D01*
X123490984Y-102577049D01*
X123575237Y-102587096D01*
X123575239Y-102587096D01*
X123578895Y-102587532D01*
X123774994Y-102572443D01*
X123919945Y-102531972D01*
X123960883Y-102520542D01*
X123960885Y-102520541D01*
X123964428Y-102519552D01*
X124045305Y-102478698D01*
X124136697Y-102432533D01*
X124136698Y-102432532D01*
X124139981Y-102430874D01*
X124294966Y-102309786D01*
X124423480Y-102160901D01*
X124443359Y-102125908D01*
X124518810Y-101993091D01*
X124518812Y-101993088D01*
X124520628Y-101989890D01*
X124582710Y-101803266D01*
X124607360Y-101608138D01*
X124607601Y-101590898D01*
X124607724Y-101582099D01*
X124607724Y-101582093D01*
X124607753Y-101580000D01*
X124607548Y-101577907D01*
X124588921Y-101387927D01*
X124588920Y-101387922D01*
X124588561Y-101384260D01*
X124531714Y-101195975D01*
X124480186Y-101099064D01*
X124473027Y-101048126D01*
X124493410Y-101010587D01*
X124932871Y-100571126D01*
X124979491Y-100549386D01*
X124986045Y-100549100D01*
X130173956Y-100549100D01*
X130222294Y-100566693D01*
X130227130Y-100571126D01*
X130881849Y-101225846D01*
X131532370Y-101876367D01*
X131535080Y-101879222D01*
X131562330Y-101909486D01*
X131584947Y-101919556D01*
X131595301Y-101925178D01*
X131616064Y-101938661D01*
X131624529Y-101940002D01*
X131624588Y-101940011D01*
X131643414Y-101945587D01*
X131651303Y-101949100D01*
X131676054Y-101949100D01*
X131687818Y-101950026D01*
X131704452Y-101952661D01*
X131704454Y-101952661D01*
X131712258Y-101953897D01*
X131719890Y-101951852D01*
X131719891Y-101951852D01*
X131720599Y-101951662D01*
X131740062Y-101949100D01*
X137422509Y-101949100D01*
X137470847Y-101966693D01*
X137475683Y-101971126D01*
X137557849Y-102053292D01*
X137672694Y-102111809D01*
X137678541Y-102112735D01*
X137779916Y-102128791D01*
X137800000Y-102131972D01*
X137805846Y-102131046D01*
X137838103Y-102125937D01*
X137888598Y-102135752D01*
X137903041Y-102147037D01*
X138314961Y-102558957D01*
X138317671Y-102561812D01*
X138344930Y-102592086D01*
X138352149Y-102595300D01*
X138367539Y-102602152D01*
X138377910Y-102607784D01*
X138398663Y-102621261D01*
X138407188Y-102622611D01*
X138426014Y-102628187D01*
X138433903Y-102631700D01*
X138458654Y-102631700D01*
X138470418Y-102632626D01*
X138487052Y-102635261D01*
X138487054Y-102635261D01*
X138494858Y-102636497D01*
X138502490Y-102634452D01*
X138502491Y-102634452D01*
X138503199Y-102634262D01*
X138522662Y-102631700D01*
X151309440Y-102631700D01*
X151313377Y-102631803D01*
X151354039Y-102633934D01*
X151377150Y-102625063D01*
X151388442Y-102621718D01*
X151412665Y-102616569D01*
X151419058Y-102611924D01*
X151419060Y-102611923D01*
X151419652Y-102611493D01*
X151436902Y-102602127D01*
X151437584Y-102601865D01*
X151437585Y-102601864D01*
X151444964Y-102599032D01*
X151462460Y-102581536D01*
X151471432Y-102573872D01*
X151485065Y-102563967D01*
X151491458Y-102559322D01*
X151495776Y-102551843D01*
X151507727Y-102536269D01*
X152896959Y-101147037D01*
X152943579Y-101125297D01*
X152961897Y-101125937D01*
X153000000Y-101131972D01*
X153127306Y-101111809D01*
X153207150Y-101071126D01*
X153236874Y-101055981D01*
X153236875Y-101055980D01*
X153242151Y-101053292D01*
X153333292Y-100962151D01*
X153391809Y-100847306D01*
X153411972Y-100720000D01*
X153391809Y-100592694D01*
X153333292Y-100477849D01*
X153242151Y-100386708D01*
X153127306Y-100328191D01*
X153000000Y-100308028D01*
X152872694Y-100328191D01*
X152757849Y-100386708D01*
X152666708Y-100477849D01*
X152608191Y-100592694D01*
X152588028Y-100720000D01*
X152588954Y-100725846D01*
X152594063Y-100758103D01*
X152584248Y-100808598D01*
X152572963Y-100823041D01*
X151438760Y-101957243D01*
X151392140Y-101978983D01*
X151342453Y-101965669D01*
X151312948Y-101923532D01*
X151311312Y-101915833D01*
X151292735Y-101798541D01*
X151291809Y-101792694D01*
X151233292Y-101677849D01*
X151142151Y-101586708D01*
X151133106Y-101582099D01*
X151045664Y-101537545D01*
X151027306Y-101528191D01*
X150935648Y-101513674D01*
X150905847Y-101508954D01*
X150900000Y-101508028D01*
X150861897Y-101514063D01*
X150811402Y-101504248D01*
X150796959Y-101492963D01*
X150391418Y-101087421D01*
X149967630Y-100663633D01*
X149964920Y-100660778D01*
X149942958Y-100636387D01*
X149937670Y-100630514D01*
X149915053Y-100620444D01*
X149904697Y-100614821D01*
X149883936Y-100601339D01*
X149875412Y-100599989D01*
X149856587Y-100594413D01*
X149855920Y-100594116D01*
X149848697Y-100590900D01*
X149823946Y-100590900D01*
X149812182Y-100589974D01*
X149795548Y-100587339D01*
X149795546Y-100587339D01*
X149787742Y-100586103D01*
X149780110Y-100588148D01*
X149780109Y-100588148D01*
X149779401Y-100588338D01*
X149759938Y-100590900D01*
X148793144Y-100590900D01*
X148744806Y-100573307D01*
X148739970Y-100568874D01*
X147491096Y-99320000D01*
X148488028Y-99320000D01*
X148508191Y-99447306D01*
X148566708Y-99562151D01*
X148657849Y-99653292D01*
X148663125Y-99655980D01*
X148663126Y-99655981D01*
X148683459Y-99666341D01*
X148772694Y-99711809D01*
X148900000Y-99731972D01*
X149027306Y-99711809D01*
X149116541Y-99666341D01*
X149136874Y-99655981D01*
X149136875Y-99655980D01*
X149142151Y-99653292D01*
X149173517Y-99621926D01*
X149220137Y-99600186D01*
X149226691Y-99599900D01*
X152652914Y-99599900D01*
X152701252Y-99617493D01*
X152706088Y-99621926D01*
X156208588Y-103124426D01*
X156230328Y-103171046D01*
X156217014Y-103220733D01*
X156174877Y-103250238D01*
X156155414Y-103252800D01*
X152933725Y-103252800D01*
X152919054Y-103251355D01*
X152907265Y-103249010D01*
X152907264Y-103249010D01*
X152900000Y-103247565D01*
X152795743Y-103268303D01*
X152781457Y-103277849D01*
X152707359Y-103327359D01*
X152703246Y-103333515D01*
X152696563Y-103343517D01*
X152687210Y-103354913D01*
X150655195Y-105386928D01*
X150608575Y-105408668D01*
X150605020Y-105408823D01*
X150600000Y-105408028D01*
X150472694Y-105428191D01*
X150357849Y-105486708D01*
X150266708Y-105577849D01*
X150264020Y-105583125D01*
X150264019Y-105583126D01*
X150249897Y-105610842D01*
X150208191Y-105692694D01*
X150188028Y-105820000D01*
X150208191Y-105947306D01*
X150266708Y-106062151D01*
X150357849Y-106153292D01*
X150472694Y-106211809D01*
X150600000Y-106231972D01*
X150727306Y-106211809D01*
X150842151Y-106153292D01*
X150933292Y-106062151D01*
X150991809Y-105947306D01*
X151011972Y-105820000D01*
X151011468Y-105816819D01*
X151028639Y-105769641D01*
X151033072Y-105764805D01*
X152988651Y-103809226D01*
X153035271Y-103787486D01*
X153041825Y-103787200D01*
X156660609Y-103787200D01*
X156708947Y-103804793D01*
X156713783Y-103809226D01*
X156757849Y-103853292D01*
X156872694Y-103911809D01*
X156878541Y-103912735D01*
X156974461Y-103927927D01*
X157000000Y-103931972D01*
X157025540Y-103927927D01*
X157121459Y-103912735D01*
X157127306Y-103911809D01*
X157242151Y-103853292D01*
X157333292Y-103762151D01*
X157344836Y-103739496D01*
X157389122Y-103652579D01*
X157391809Y-103647306D01*
X157411972Y-103520000D01*
X157391809Y-103392694D01*
X157333292Y-103277849D01*
X157242151Y-103186708D01*
X157127306Y-103128191D01*
X157004962Y-103108814D01*
X156963552Y-103087714D01*
X153033677Y-99157839D01*
X153030554Y-99154221D01*
X153028601Y-99150226D01*
X152994565Y-99118653D01*
X152992534Y-99116696D01*
X152979512Y-99103674D01*
X152976656Y-99101714D01*
X152974872Y-99100232D01*
X152971792Y-99097528D01*
X152952156Y-99079313D01*
X152945711Y-99076742D01*
X152945710Y-99076741D01*
X152940438Y-99074638D01*
X152925768Y-99066805D01*
X152921090Y-99063596D01*
X152915364Y-99059668D01*
X152908606Y-99058064D01*
X152908605Y-99058064D01*
X152890015Y-99053653D01*
X152879517Y-99050334D01*
X152855308Y-99040675D01*
X152849444Y-99040100D01*
X152841707Y-99040100D01*
X152824343Y-99038068D01*
X152813910Y-99035592D01*
X152807032Y-99036528D01*
X152807031Y-99036528D01*
X152785834Y-99039413D01*
X152775693Y-99040100D01*
X149226691Y-99040100D01*
X149178353Y-99022507D01*
X149173517Y-99018074D01*
X149142151Y-98986708D01*
X149027306Y-98928191D01*
X148900000Y-98908028D01*
X148772694Y-98928191D01*
X148657849Y-98986708D01*
X148566708Y-99077849D01*
X148564020Y-99083125D01*
X148564019Y-99083126D01*
X148546914Y-99116696D01*
X148508191Y-99192694D01*
X148488028Y-99320000D01*
X147491096Y-99320000D01*
X146727037Y-98555941D01*
X146705297Y-98509321D01*
X146705937Y-98491003D01*
X146711046Y-98458746D01*
X146711972Y-98452900D01*
X146708427Y-98430514D01*
X146692735Y-98331441D01*
X146691809Y-98325594D01*
X146642179Y-98228191D01*
X146635981Y-98216026D01*
X146635980Y-98216025D01*
X146633292Y-98210749D01*
X146542151Y-98119608D01*
X146427306Y-98061091D01*
X146300000Y-98040928D01*
X146172694Y-98061091D01*
X146057849Y-98119608D01*
X145966708Y-98210749D01*
X145964020Y-98216025D01*
X145964019Y-98216026D01*
X145957821Y-98228191D01*
X145908191Y-98325594D01*
X145907265Y-98331441D01*
X145891574Y-98430514D01*
X145888028Y-98452900D01*
X145888954Y-98458746D01*
X145888954Y-98458747D01*
X145894063Y-98491003D01*
X145908191Y-98580206D01*
X145966708Y-98695051D01*
X146057849Y-98786192D01*
X146172694Y-98844709D01*
X146300000Y-98864872D01*
X146305846Y-98863946D01*
X146338103Y-98858837D01*
X146388598Y-98868652D01*
X146403041Y-98879937D01*
X147451294Y-99928191D01*
X148499470Y-100976367D01*
X148502180Y-100979222D01*
X148529430Y-101009486D01*
X148552034Y-101019550D01*
X148562402Y-101025179D01*
X148583164Y-101038662D01*
X148590968Y-101039898D01*
X148590970Y-101039899D01*
X148591693Y-101040013D01*
X148610512Y-101045587D01*
X148618403Y-101049100D01*
X148643153Y-101049100D01*
X148654917Y-101050026D01*
X148671551Y-101052661D01*
X148671553Y-101052661D01*
X148679358Y-101053897D01*
X148686990Y-101051852D01*
X148686991Y-101051852D01*
X148687699Y-101051662D01*
X148707162Y-101049100D01*
X149673956Y-101049100D01*
X149722294Y-101066693D01*
X149727118Y-101071115D01*
X150073372Y-101417368D01*
X150095110Y-101463987D01*
X150081796Y-101513674D01*
X150054336Y-101537545D01*
X149966895Y-101582099D01*
X149957849Y-101586708D01*
X149875683Y-101668874D01*
X149829063Y-101690614D01*
X149822509Y-101690900D01*
X148693144Y-101690900D01*
X148644806Y-101673307D01*
X148639970Y-101668874D01*
X145527037Y-98555941D01*
X145505297Y-98509321D01*
X145505937Y-98491003D01*
X145511046Y-98458746D01*
X145511972Y-98452900D01*
X145508427Y-98430514D01*
X145492735Y-98331441D01*
X145491809Y-98325594D01*
X145442179Y-98228191D01*
X145435981Y-98216026D01*
X145435980Y-98216025D01*
X145433292Y-98210749D01*
X145342151Y-98119608D01*
X145227306Y-98061091D01*
X145100000Y-98040928D01*
X144972694Y-98061091D01*
X144857849Y-98119608D01*
X144766708Y-98210749D01*
X144764020Y-98216025D01*
X144764019Y-98216026D01*
X144757821Y-98228191D01*
X144708191Y-98325594D01*
X144707265Y-98331441D01*
X144691574Y-98430514D01*
X144688028Y-98452900D01*
X144688954Y-98458746D01*
X144688954Y-98458747D01*
X144694063Y-98491003D01*
X144708191Y-98580206D01*
X144766708Y-98695051D01*
X144857849Y-98786192D01*
X144972694Y-98844709D01*
X145100000Y-98864872D01*
X145105846Y-98863946D01*
X145138103Y-98858837D01*
X145188598Y-98868652D01*
X145203041Y-98879937D01*
X148368229Y-102045126D01*
X148389969Y-102091746D01*
X148376655Y-102141433D01*
X148334518Y-102170938D01*
X148315055Y-102173500D01*
X138608644Y-102173500D01*
X138560306Y-102155907D01*
X138555470Y-102151474D01*
X138227037Y-101823041D01*
X138205297Y-101776421D01*
X138205937Y-101758103D01*
X138211046Y-101725846D01*
X138211972Y-101720000D01*
X138191809Y-101592694D01*
X138151175Y-101512946D01*
X138135981Y-101483126D01*
X138135980Y-101483125D01*
X138133292Y-101477849D01*
X138042151Y-101386708D01*
X138017474Y-101374134D01*
X137964821Y-101347306D01*
X137927306Y-101328191D01*
X137800000Y-101308028D01*
X137672694Y-101328191D01*
X137635179Y-101347306D01*
X137582527Y-101374134D01*
X137557849Y-101386708D01*
X137475683Y-101468874D01*
X137429063Y-101490614D01*
X137422509Y-101490900D01*
X131826044Y-101490900D01*
X131777706Y-101473307D01*
X131772870Y-101468874D01*
X131127038Y-100823041D01*
X130467630Y-100163633D01*
X130464920Y-100160778D01*
X130442958Y-100136387D01*
X130437670Y-100130514D01*
X130415053Y-100120444D01*
X130404697Y-100114821D01*
X130391161Y-100106031D01*
X130383936Y-100101339D01*
X130375412Y-100099989D01*
X130356587Y-100094413D01*
X130355920Y-100094116D01*
X130348697Y-100090900D01*
X130323946Y-100090900D01*
X130312182Y-100089974D01*
X130295548Y-100087339D01*
X130295546Y-100087339D01*
X130287742Y-100086103D01*
X130280110Y-100088148D01*
X130280109Y-100088148D01*
X130279401Y-100088338D01*
X130259938Y-100090900D01*
X125024259Y-100090900D01*
X124975921Y-100073307D01*
X124950201Y-100028758D01*
X124951099Y-99998303D01*
X124951761Y-99995517D01*
X124957780Y-99940117D01*
X124958000Y-99936051D01*
X124958000Y-99420000D01*
X134388028Y-99420000D01*
X134408191Y-99547306D01*
X134466708Y-99662151D01*
X134557849Y-99753292D01*
X134672694Y-99811809D01*
X134800000Y-99831972D01*
X134805846Y-99831046D01*
X134838103Y-99825937D01*
X134888598Y-99835752D01*
X134903041Y-99847037D01*
X135532361Y-100476357D01*
X135535071Y-100479212D01*
X135562330Y-100509486D01*
X135569549Y-100512700D01*
X135584939Y-100519552D01*
X135595310Y-100525184D01*
X135616063Y-100538661D01*
X135624588Y-100540011D01*
X135643414Y-100545587D01*
X135651303Y-100549100D01*
X135676054Y-100549100D01*
X135687818Y-100550026D01*
X135704452Y-100552661D01*
X135704454Y-100552661D01*
X135712258Y-100553897D01*
X135719890Y-100551852D01*
X135719891Y-100551852D01*
X135720599Y-100551662D01*
X135740062Y-100549100D01*
X137622509Y-100549100D01*
X137670847Y-100566693D01*
X137675683Y-100571126D01*
X137757849Y-100653292D01*
X137872694Y-100711809D01*
X137887494Y-100714153D01*
X137993093Y-100730878D01*
X138000000Y-100731972D01*
X138006908Y-100730878D01*
X138112506Y-100714153D01*
X138127306Y-100711809D01*
X138242151Y-100653292D01*
X138333292Y-100562151D01*
X138338128Y-100552661D01*
X138376294Y-100477756D01*
X138391809Y-100447306D01*
X138411972Y-100320000D01*
X138391809Y-100192694D01*
X138338804Y-100088666D01*
X138335981Y-100083126D01*
X138335980Y-100083125D01*
X138333292Y-100077849D01*
X138242151Y-99986708D01*
X138127306Y-99928191D01*
X138000000Y-99908028D01*
X137872694Y-99928191D01*
X137757849Y-99986708D01*
X137675683Y-100068874D01*
X137629063Y-100090614D01*
X137622509Y-100090900D01*
X135826044Y-100090900D01*
X135777706Y-100073307D01*
X135772870Y-100068874D01*
X135227037Y-99523041D01*
X135205297Y-99476421D01*
X135205937Y-99458103D01*
X135211046Y-99425846D01*
X135211972Y-99420000D01*
X135191809Y-99292694D01*
X135133292Y-99177849D01*
X135042151Y-99086708D01*
X135036876Y-99084020D01*
X135032495Y-99080837D01*
X135003731Y-99038191D01*
X135009109Y-98987033D01*
X135032495Y-98959163D01*
X135036876Y-98955980D01*
X135042151Y-98953292D01*
X135124317Y-98871126D01*
X135170937Y-98849386D01*
X135177491Y-98849100D01*
X137773956Y-98849100D01*
X137822294Y-98866693D01*
X137827130Y-98871126D01*
X139972963Y-101016959D01*
X139994703Y-101063579D01*
X139994063Y-101081897D01*
X139988028Y-101120000D01*
X140008191Y-101247306D01*
X140032975Y-101295947D01*
X140048933Y-101327265D01*
X140066708Y-101362151D01*
X140157849Y-101453292D01*
X140163125Y-101455980D01*
X140163126Y-101455981D01*
X140178839Y-101463987D01*
X140272694Y-101511809D01*
X140324771Y-101520057D01*
X140393093Y-101530878D01*
X140400000Y-101531972D01*
X140406908Y-101530878D01*
X140475229Y-101520057D01*
X140527306Y-101511809D01*
X140621161Y-101463987D01*
X140636874Y-101455981D01*
X140636875Y-101455980D01*
X140642151Y-101453292D01*
X140733292Y-101362151D01*
X140751068Y-101327265D01*
X140767025Y-101295947D01*
X140791809Y-101247306D01*
X140811972Y-101120000D01*
X140791809Y-100992694D01*
X140733292Y-100877849D01*
X140642151Y-100786708D01*
X140527306Y-100728191D01*
X140423873Y-100711809D01*
X140405847Y-100708954D01*
X140400000Y-100708028D01*
X140361897Y-100714063D01*
X140311402Y-100704248D01*
X140296959Y-100692963D01*
X138067630Y-98463633D01*
X138064920Y-98460778D01*
X138042958Y-98436387D01*
X138037670Y-98430514D01*
X138015053Y-98420444D01*
X138004697Y-98414821D01*
X137983936Y-98401339D01*
X137975412Y-98399989D01*
X137956587Y-98394413D01*
X137955920Y-98394116D01*
X137948697Y-98390900D01*
X137923946Y-98390900D01*
X137912182Y-98389974D01*
X137895548Y-98387339D01*
X137895546Y-98387339D01*
X137887742Y-98386103D01*
X137880110Y-98388148D01*
X137880109Y-98388148D01*
X137879401Y-98388338D01*
X137859938Y-98390900D01*
X135177491Y-98390900D01*
X135129153Y-98373307D01*
X135124317Y-98368874D01*
X135042151Y-98286708D01*
X135027083Y-98279030D01*
X134932579Y-98230878D01*
X134932580Y-98230878D01*
X134927306Y-98228191D01*
X134800000Y-98208028D01*
X134672694Y-98228191D01*
X134667420Y-98230878D01*
X134667421Y-98230878D01*
X134572918Y-98279030D01*
X134557849Y-98286708D01*
X134466708Y-98377849D01*
X134464020Y-98383125D01*
X134464019Y-98383126D01*
X134460530Y-98389974D01*
X134408191Y-98492694D01*
X134407265Y-98498541D01*
X134393496Y-98585479D01*
X134388028Y-98620000D01*
X134408191Y-98747306D01*
X134410878Y-98752579D01*
X134458293Y-98845635D01*
X134466708Y-98862151D01*
X134557849Y-98953292D01*
X134563124Y-98955980D01*
X134567505Y-98959163D01*
X134596269Y-99001809D01*
X134590891Y-99052967D01*
X134567505Y-99080837D01*
X134563124Y-99084020D01*
X134557849Y-99086708D01*
X134466708Y-99177849D01*
X134408191Y-99292694D01*
X134388028Y-99420000D01*
X124958000Y-99420000D01*
X124958000Y-99307259D01*
X124954303Y-99297102D01*
X124948931Y-99294000D01*
X123867259Y-99294000D01*
X123857102Y-99297697D01*
X123854000Y-99303069D01*
X123854000Y-100384740D01*
X123857697Y-100394897D01*
X123863069Y-100397999D01*
X124276456Y-100397999D01*
X124324794Y-100415592D01*
X124350514Y-100460141D01*
X124341581Y-100510799D01*
X124329632Y-100526371D01*
X124169373Y-100686630D01*
X124122753Y-100708369D01*
X124080432Y-100699605D01*
X124045815Y-100680888D01*
X123990520Y-100650990D01*
X123802637Y-100592830D01*
X123679766Y-100579916D01*
X123610690Y-100572656D01*
X123610689Y-100572656D01*
X123607035Y-100572272D01*
X123509100Y-100581185D01*
X123414824Y-100589764D01*
X123414823Y-100589764D01*
X123411166Y-100590097D01*
X123407641Y-100591134D01*
X123407638Y-100591135D01*
X123253887Y-100636387D01*
X123222489Y-100645628D01*
X123048192Y-100736748D01*
X123045328Y-100739051D01*
X122931118Y-100830878D01*
X122894912Y-100859988D01*
X122768489Y-101010653D01*
X122766718Y-101013875D01*
X122766717Y-101013876D01*
X122719884Y-101099065D01*
X122673739Y-101183004D01*
X122614269Y-101370476D01*
X122592345Y-101565930D01*
X121252900Y-101565930D01*
X121252900Y-99936049D01*
X122242001Y-99936049D01*
X122242221Y-99940118D01*
X122248239Y-99995518D01*
X122250403Y-100004622D01*
X122297948Y-100131448D01*
X122303039Y-100140746D01*
X122383886Y-100248621D01*
X122391379Y-100256114D01*
X122499254Y-100336961D01*
X122508552Y-100342052D01*
X122635377Y-100389597D01*
X122644483Y-100391762D01*
X122699883Y-100397780D01*
X122703949Y-100398000D01*
X123332741Y-100398000D01*
X123342898Y-100394303D01*
X123346000Y-100388931D01*
X123346000Y-99307259D01*
X123342303Y-99297102D01*
X123336931Y-99294000D01*
X122255260Y-99294000D01*
X122245103Y-99297697D01*
X122242001Y-99303069D01*
X122242001Y-99936049D01*
X121252900Y-99936049D01*
X121252900Y-98772741D01*
X122242000Y-98772741D01*
X122245697Y-98782898D01*
X122251069Y-98786000D01*
X123332741Y-98786000D01*
X123342898Y-98782303D01*
X123346000Y-98776931D01*
X123346000Y-98772741D01*
X123854000Y-98772741D01*
X123857697Y-98782898D01*
X123863069Y-98786000D01*
X124944740Y-98786000D01*
X124954897Y-98782303D01*
X124957999Y-98776931D01*
X124957999Y-98143951D01*
X124957779Y-98139882D01*
X124951761Y-98084482D01*
X124949597Y-98075378D01*
X124902052Y-97948552D01*
X124896961Y-97939254D01*
X124816114Y-97831379D01*
X124808621Y-97823886D01*
X124700746Y-97743039D01*
X124691448Y-97737948D01*
X124564623Y-97690403D01*
X124555517Y-97688238D01*
X124500117Y-97682220D01*
X124496051Y-97682000D01*
X123867259Y-97682000D01*
X123857102Y-97685697D01*
X123854000Y-97691069D01*
X123854000Y-98772741D01*
X123346000Y-98772741D01*
X123346000Y-97695260D01*
X123342303Y-97685103D01*
X123336931Y-97682001D01*
X122703951Y-97682001D01*
X122699882Y-97682221D01*
X122644482Y-97688239D01*
X122635378Y-97690403D01*
X122508552Y-97737948D01*
X122499254Y-97743039D01*
X122391379Y-97823886D01*
X122383886Y-97831379D01*
X122303039Y-97939254D01*
X122297948Y-97948552D01*
X122250403Y-98075377D01*
X122248238Y-98084483D01*
X122242220Y-98139883D01*
X122242000Y-98143949D01*
X122242000Y-98772741D01*
X121252900Y-98772741D01*
X121252900Y-95914481D01*
X121270493Y-95866143D01*
X121274926Y-95861307D01*
X122641307Y-94494926D01*
X122687927Y-94473186D01*
X122694481Y-94472900D01*
X135005519Y-94472900D01*
X135053857Y-94490493D01*
G37*
%TD.AperFunction*%
%TD*%
M02*
