%TF.GenerationSoftware,KiCad,Pcbnew,(6.0.7)*%
%TF.CreationDate,2022-12-27T11:46:59-06:00*%
%TF.ProjectId,UKDAQ,554b4441-512e-46b6-9963-61645f706362,rev?*%
%TF.SameCoordinates,Original*%
%TF.FileFunction,Legend,Top*%
%TF.FilePolarity,Positive*%
%FSLAX46Y46*%
G04 Gerber Fmt 4.6, Leading zero omitted, Abs format (unit mm)*
G04 Created by KiCad (PCBNEW (6.0.7)) date 2022-12-27 11:46:59*
%MOMM*%
%LPD*%
G01*
G04 APERTURE LIST*
%ADD10C,0.150000*%
%ADD11C,0.120000*%
%ADD12C,0.127000*%
%ADD13C,0.304800*%
%ADD14C,0.020000*%
G04 APERTURE END LIST*
D10*
%TO.C,R1*%
X139952380Y-104886666D02*
X139476190Y-105220000D01*
X139952380Y-105458095D02*
X138952380Y-105458095D01*
X138952380Y-105077142D01*
X139000000Y-104981904D01*
X139047619Y-104934285D01*
X139142857Y-104886666D01*
X139285714Y-104886666D01*
X139380952Y-104934285D01*
X139428571Y-104981904D01*
X139476190Y-105077142D01*
X139476190Y-105458095D01*
X139952380Y-103934285D02*
X139952380Y-104505714D01*
X139952380Y-104220000D02*
X138952380Y-104220000D01*
X139095238Y-104315238D01*
X139190476Y-104410476D01*
X139238095Y-104505714D01*
%TO.C,U2*%
X132138095Y-95572380D02*
X132138095Y-96381904D01*
X132185714Y-96477142D01*
X132233333Y-96524761D01*
X132328571Y-96572380D01*
X132519047Y-96572380D01*
X132614285Y-96524761D01*
X132661904Y-96477142D01*
X132709523Y-96381904D01*
X132709523Y-95572380D01*
X133138095Y-95667619D02*
X133185714Y-95620000D01*
X133280952Y-95572380D01*
X133519047Y-95572380D01*
X133614285Y-95620000D01*
X133661904Y-95667619D01*
X133709523Y-95762857D01*
X133709523Y-95858095D01*
X133661904Y-96000952D01*
X133090476Y-96572380D01*
X133709523Y-96572380D01*
%TO.C,C2*%
X136378333Y-98427142D02*
X136330714Y-98474761D01*
X136187857Y-98522380D01*
X136092619Y-98522380D01*
X135949761Y-98474761D01*
X135854523Y-98379523D01*
X135806904Y-98284285D01*
X135759285Y-98093809D01*
X135759285Y-97950952D01*
X135806904Y-97760476D01*
X135854523Y-97665238D01*
X135949761Y-97570000D01*
X136092619Y-97522380D01*
X136187857Y-97522380D01*
X136330714Y-97570000D01*
X136378333Y-97617619D01*
X136759285Y-97617619D02*
X136806904Y-97570000D01*
X136902142Y-97522380D01*
X137140238Y-97522380D01*
X137235476Y-97570000D01*
X137283095Y-97617619D01*
X137330714Y-97712857D01*
X137330714Y-97808095D01*
X137283095Y-97950952D01*
X136711666Y-98522380D01*
X137330714Y-98522380D01*
%TO.C,U3*%
X151760637Y-102609678D02*
X151760637Y-103420018D01*
X151808304Y-103515352D01*
X151855971Y-103563019D01*
X151951305Y-103610686D01*
X152141973Y-103610686D01*
X152237307Y-103563019D01*
X152284974Y-103515352D01*
X152332641Y-103420018D01*
X152332641Y-102609678D01*
X152713978Y-102609678D02*
X153333649Y-102609678D01*
X152999980Y-102991015D01*
X153142981Y-102991015D01*
X153238315Y-103038682D01*
X153285982Y-103086349D01*
X153333649Y-103181683D01*
X153333649Y-103420018D01*
X153285982Y-103515352D01*
X153238315Y-103563019D01*
X153142981Y-103610686D01*
X152856979Y-103610686D01*
X152761645Y-103563019D01*
X152713978Y-103515352D01*
%TO.C,J1*%
X123266666Y-96162380D02*
X123266666Y-96876666D01*
X123219047Y-97019523D01*
X123123809Y-97114761D01*
X122980952Y-97162380D01*
X122885714Y-97162380D01*
X124266666Y-97162380D02*
X123695238Y-97162380D01*
X123980952Y-97162380D02*
X123980952Y-96162380D01*
X123885714Y-96305238D01*
X123790476Y-96400476D01*
X123695238Y-96448095D01*
%TO.C,C7*%
X156708333Y-110047142D02*
X156660714Y-110094761D01*
X156517857Y-110142380D01*
X156422619Y-110142380D01*
X156279761Y-110094761D01*
X156184523Y-109999523D01*
X156136904Y-109904285D01*
X156089285Y-109713809D01*
X156089285Y-109570952D01*
X156136904Y-109380476D01*
X156184523Y-109285238D01*
X156279761Y-109190000D01*
X156422619Y-109142380D01*
X156517857Y-109142380D01*
X156660714Y-109190000D01*
X156708333Y-109237619D01*
X157041666Y-109142380D02*
X157708333Y-109142380D01*
X157279761Y-110142380D01*
%TO.C,C5*%
X144133333Y-110977142D02*
X144085714Y-111024761D01*
X143942857Y-111072380D01*
X143847619Y-111072380D01*
X143704761Y-111024761D01*
X143609523Y-110929523D01*
X143561904Y-110834285D01*
X143514285Y-110643809D01*
X143514285Y-110500952D01*
X143561904Y-110310476D01*
X143609523Y-110215238D01*
X143704761Y-110120000D01*
X143847619Y-110072380D01*
X143942857Y-110072380D01*
X144085714Y-110120000D01*
X144133333Y-110167619D01*
X145038095Y-110072380D02*
X144561904Y-110072380D01*
X144514285Y-110548571D01*
X144561904Y-110500952D01*
X144657142Y-110453333D01*
X144895238Y-110453333D01*
X144990476Y-110500952D01*
X145038095Y-110548571D01*
X145085714Y-110643809D01*
X145085714Y-110881904D01*
X145038095Y-110977142D01*
X144990476Y-111024761D01*
X144895238Y-111072380D01*
X144657142Y-111072380D01*
X144561904Y-111024761D01*
X144514285Y-110977142D01*
%TO.C,C3*%
X140546857Y-112553333D02*
X140499238Y-112505714D01*
X140451619Y-112362857D01*
X140451619Y-112267619D01*
X140499238Y-112124761D01*
X140594476Y-112029523D01*
X140689714Y-111981904D01*
X140880190Y-111934285D01*
X141023047Y-111934285D01*
X141213523Y-111981904D01*
X141308761Y-112029523D01*
X141404000Y-112124761D01*
X141451619Y-112267619D01*
X141451619Y-112362857D01*
X141404000Y-112505714D01*
X141356380Y-112553333D01*
X141451619Y-112886666D02*
X141451619Y-113505714D01*
X141070666Y-113172380D01*
X141070666Y-113315238D01*
X141023047Y-113410476D01*
X140975428Y-113458095D01*
X140880190Y-113505714D01*
X140642095Y-113505714D01*
X140546857Y-113458095D01*
X140499238Y-113410476D01*
X140451619Y-113315238D01*
X140451619Y-113029523D01*
X140499238Y-112934285D01*
X140546857Y-112886666D01*
%TO.C,R4*%
X145030880Y-98134066D02*
X144554690Y-98467400D01*
X145030880Y-98705495D02*
X144030880Y-98705495D01*
X144030880Y-98324542D01*
X144078500Y-98229304D01*
X144126119Y-98181685D01*
X144221357Y-98134066D01*
X144364214Y-98134066D01*
X144459452Y-98181685D01*
X144507071Y-98229304D01*
X144554690Y-98324542D01*
X144554690Y-98705495D01*
X144364214Y-97276923D02*
X145030880Y-97276923D01*
X143983261Y-97515019D02*
X144697547Y-97753114D01*
X144697547Y-97134066D01*
%TO.C,C9*%
X156407142Y-97041666D02*
X156454761Y-97089285D01*
X156502380Y-97232142D01*
X156502380Y-97327380D01*
X156454761Y-97470238D01*
X156359523Y-97565476D01*
X156264285Y-97613095D01*
X156073809Y-97660714D01*
X155930952Y-97660714D01*
X155740476Y-97613095D01*
X155645238Y-97565476D01*
X155550000Y-97470238D01*
X155502380Y-97327380D01*
X155502380Y-97232142D01*
X155550000Y-97089285D01*
X155597619Y-97041666D01*
X156502380Y-96565476D02*
X156502380Y-96375000D01*
X156454761Y-96279761D01*
X156407142Y-96232142D01*
X156264285Y-96136904D01*
X156073809Y-96089285D01*
X155692857Y-96089285D01*
X155597619Y-96136904D01*
X155550000Y-96184523D01*
X155502380Y-96279761D01*
X155502380Y-96470238D01*
X155550000Y-96565476D01*
X155597619Y-96613095D01*
X155692857Y-96660714D01*
X155930952Y-96660714D01*
X156026190Y-96613095D01*
X156073809Y-96565476D01*
X156121428Y-96470238D01*
X156121428Y-96279761D01*
X156073809Y-96184523D01*
X156026190Y-96136904D01*
X155930952Y-96089285D01*
%TO.C,U4*%
X151938095Y-113372380D02*
X151938095Y-114181904D01*
X151985714Y-114277142D01*
X152033333Y-114324761D01*
X152128571Y-114372380D01*
X152319047Y-114372380D01*
X152414285Y-114324761D01*
X152461904Y-114277142D01*
X152509523Y-114181904D01*
X152509523Y-113372380D01*
X153414285Y-113705714D02*
X153414285Y-114372380D01*
X153176190Y-113324761D02*
X152938095Y-114039047D01*
X153557142Y-114039047D01*
%TO.C,C1*%
X129388333Y-98427142D02*
X129340714Y-98474761D01*
X129197857Y-98522380D01*
X129102619Y-98522380D01*
X128959761Y-98474761D01*
X128864523Y-98379523D01*
X128816904Y-98284285D01*
X128769285Y-98093809D01*
X128769285Y-97950952D01*
X128816904Y-97760476D01*
X128864523Y-97665238D01*
X128959761Y-97570000D01*
X129102619Y-97522380D01*
X129197857Y-97522380D01*
X129340714Y-97570000D01*
X129388333Y-97617619D01*
X130340714Y-98522380D02*
X129769285Y-98522380D01*
X130055000Y-98522380D02*
X130055000Y-97522380D01*
X129959761Y-97665238D01*
X129864523Y-97760476D01*
X129769285Y-97808095D01*
%TO.C,R3*%
X161052380Y-100486666D02*
X160576190Y-100820000D01*
X161052380Y-101058095D02*
X160052380Y-101058095D01*
X160052380Y-100677142D01*
X160100000Y-100581904D01*
X160147619Y-100534285D01*
X160242857Y-100486666D01*
X160385714Y-100486666D01*
X160480952Y-100534285D01*
X160528571Y-100581904D01*
X160576190Y-100677142D01*
X160576190Y-101058095D01*
X160052380Y-100153333D02*
X160052380Y-99534285D01*
X160433333Y-99867619D01*
X160433333Y-99724761D01*
X160480952Y-99629523D01*
X160528571Y-99581904D01*
X160623809Y-99534285D01*
X160861904Y-99534285D01*
X160957142Y-99581904D01*
X161004761Y-99629523D01*
X161052380Y-99724761D01*
X161052380Y-100010476D01*
X161004761Y-100105714D01*
X160957142Y-100153333D01*
%TO.C,Y1*%
X149276190Y-107896190D02*
X149752380Y-107896190D01*
X148752380Y-108229523D02*
X149276190Y-107896190D01*
X148752380Y-107562857D01*
X149752380Y-106705714D02*
X149752380Y-107277142D01*
X149752380Y-106991428D02*
X148752380Y-106991428D01*
X148895238Y-107086666D01*
X148990476Y-107181904D01*
X149038095Y-107277142D01*
%TO.C,C10*%
X149557142Y-103962857D02*
X149604761Y-104010476D01*
X149652380Y-104153333D01*
X149652380Y-104248571D01*
X149604761Y-104391428D01*
X149509523Y-104486666D01*
X149414285Y-104534285D01*
X149223809Y-104581904D01*
X149080952Y-104581904D01*
X148890476Y-104534285D01*
X148795238Y-104486666D01*
X148700000Y-104391428D01*
X148652380Y-104248571D01*
X148652380Y-104153333D01*
X148700000Y-104010476D01*
X148747619Y-103962857D01*
X149652380Y-103010476D02*
X149652380Y-103581904D01*
X149652380Y-103296190D02*
X148652380Y-103296190D01*
X148795238Y-103391428D01*
X148890476Y-103486666D01*
X148938095Y-103581904D01*
X148652380Y-102391428D02*
X148652380Y-102296190D01*
X148700000Y-102200952D01*
X148747619Y-102153333D01*
X148842857Y-102105714D01*
X149033333Y-102058095D01*
X149271428Y-102058095D01*
X149461904Y-102105714D01*
X149557142Y-102153333D01*
X149604761Y-102200952D01*
X149652380Y-102296190D01*
X149652380Y-102391428D01*
X149604761Y-102486666D01*
X149557142Y-102534285D01*
X149461904Y-102581904D01*
X149271428Y-102629523D01*
X149033333Y-102629523D01*
X148842857Y-102581904D01*
X148747619Y-102534285D01*
X148700000Y-102486666D01*
X148652380Y-102391428D01*
%TO.C,C6*%
X141957142Y-105186666D02*
X142004761Y-105234285D01*
X142052380Y-105377142D01*
X142052380Y-105472380D01*
X142004761Y-105615238D01*
X141909523Y-105710476D01*
X141814285Y-105758095D01*
X141623809Y-105805714D01*
X141480952Y-105805714D01*
X141290476Y-105758095D01*
X141195238Y-105710476D01*
X141100000Y-105615238D01*
X141052380Y-105472380D01*
X141052380Y-105377142D01*
X141100000Y-105234285D01*
X141147619Y-105186666D01*
X141052380Y-104329523D02*
X141052380Y-104520000D01*
X141100000Y-104615238D01*
X141147619Y-104662857D01*
X141290476Y-104758095D01*
X141480952Y-104805714D01*
X141861904Y-104805714D01*
X141957142Y-104758095D01*
X142004761Y-104710476D01*
X142052380Y-104615238D01*
X142052380Y-104424761D01*
X142004761Y-104329523D01*
X141957142Y-104281904D01*
X141861904Y-104234285D01*
X141623809Y-104234285D01*
X141528571Y-104281904D01*
X141480952Y-104329523D01*
X141433333Y-104424761D01*
X141433333Y-104615238D01*
X141480952Y-104710476D01*
X141528571Y-104758095D01*
X141623809Y-104805714D01*
%TO.C,R2*%
X142452380Y-107786666D02*
X141976190Y-108120000D01*
X142452380Y-108358095D02*
X141452380Y-108358095D01*
X141452380Y-107977142D01*
X141500000Y-107881904D01*
X141547619Y-107834285D01*
X141642857Y-107786666D01*
X141785714Y-107786666D01*
X141880952Y-107834285D01*
X141928571Y-107881904D01*
X141976190Y-107977142D01*
X141976190Y-108358095D01*
X141547619Y-107405714D02*
X141500000Y-107358095D01*
X141452380Y-107262857D01*
X141452380Y-107024761D01*
X141500000Y-106929523D01*
X141547619Y-106881904D01*
X141642857Y-106834285D01*
X141738095Y-106834285D01*
X141880952Y-106881904D01*
X142452380Y-107453333D01*
X142452380Y-106834285D01*
%TO.C,C8*%
X147733333Y-110977142D02*
X147685714Y-111024761D01*
X147542857Y-111072380D01*
X147447619Y-111072380D01*
X147304761Y-111024761D01*
X147209523Y-110929523D01*
X147161904Y-110834285D01*
X147114285Y-110643809D01*
X147114285Y-110500952D01*
X147161904Y-110310476D01*
X147209523Y-110215238D01*
X147304761Y-110120000D01*
X147447619Y-110072380D01*
X147542857Y-110072380D01*
X147685714Y-110120000D01*
X147733333Y-110167619D01*
X148304761Y-110500952D02*
X148209523Y-110453333D01*
X148161904Y-110405714D01*
X148114285Y-110310476D01*
X148114285Y-110262857D01*
X148161904Y-110167619D01*
X148209523Y-110120000D01*
X148304761Y-110072380D01*
X148495238Y-110072380D01*
X148590476Y-110120000D01*
X148638095Y-110167619D01*
X148685714Y-110262857D01*
X148685714Y-110310476D01*
X148638095Y-110405714D01*
X148590476Y-110453333D01*
X148495238Y-110500952D01*
X148304761Y-110500952D01*
X148209523Y-110548571D01*
X148161904Y-110596190D01*
X148114285Y-110691428D01*
X148114285Y-110881904D01*
X148161904Y-110977142D01*
X148209523Y-111024761D01*
X148304761Y-111072380D01*
X148495238Y-111072380D01*
X148590476Y-111024761D01*
X148638095Y-110977142D01*
X148685714Y-110881904D01*
X148685714Y-110691428D01*
X148638095Y-110596190D01*
X148590476Y-110548571D01*
X148495238Y-110500952D01*
%TO.C,U1*%
X132438095Y-104572380D02*
X132438095Y-105381904D01*
X132485714Y-105477142D01*
X132533333Y-105524761D01*
X132628571Y-105572380D01*
X132819047Y-105572380D01*
X132914285Y-105524761D01*
X132961904Y-105477142D01*
X133009523Y-105381904D01*
X133009523Y-104572380D01*
X134009523Y-105572380D02*
X133438095Y-105572380D01*
X133723809Y-105572380D02*
X133723809Y-104572380D01*
X133628571Y-104715238D01*
X133533333Y-104810476D01*
X133438095Y-104858095D01*
%TO.C,U5*%
X148452380Y-100981904D02*
X149261904Y-100981904D01*
X149357142Y-100934285D01*
X149404761Y-100886666D01*
X149452380Y-100791428D01*
X149452380Y-100600952D01*
X149404761Y-100505714D01*
X149357142Y-100458095D01*
X149261904Y-100410476D01*
X148452380Y-100410476D01*
X148452380Y-99458095D02*
X148452380Y-99934285D01*
X148928571Y-99981904D01*
X148880952Y-99934285D01*
X148833333Y-99839047D01*
X148833333Y-99600952D01*
X148880952Y-99505714D01*
X148928571Y-99458095D01*
X149023809Y-99410476D01*
X149261904Y-99410476D01*
X149357142Y-99458095D01*
X149404761Y-99505714D01*
X149452380Y-99600952D01*
X149452380Y-99839047D01*
X149404761Y-99934285D01*
X149357142Y-99981904D01*
%TO.C,R5*%
X147452380Y-98086666D02*
X146976190Y-98420000D01*
X147452380Y-98658095D02*
X146452380Y-98658095D01*
X146452380Y-98277142D01*
X146500000Y-98181904D01*
X146547619Y-98134285D01*
X146642857Y-98086666D01*
X146785714Y-98086666D01*
X146880952Y-98134285D01*
X146928571Y-98181904D01*
X146976190Y-98277142D01*
X146976190Y-98658095D01*
X146452380Y-97181904D02*
X146452380Y-97658095D01*
X146928571Y-97705714D01*
X146880952Y-97658095D01*
X146833333Y-97562857D01*
X146833333Y-97324761D01*
X146880952Y-97229523D01*
X146928571Y-97181904D01*
X147023809Y-97134285D01*
X147261904Y-97134285D01*
X147357142Y-97181904D01*
X147404761Y-97229523D01*
X147452380Y-97324761D01*
X147452380Y-97562857D01*
X147404761Y-97658095D01*
X147357142Y-97705714D01*
%TO.C,C4*%
X155058333Y-106307142D02*
X155010714Y-106354761D01*
X154867857Y-106402380D01*
X154772619Y-106402380D01*
X154629761Y-106354761D01*
X154534523Y-106259523D01*
X154486904Y-106164285D01*
X154439285Y-105973809D01*
X154439285Y-105830952D01*
X154486904Y-105640476D01*
X154534523Y-105545238D01*
X154629761Y-105450000D01*
X154772619Y-105402380D01*
X154867857Y-105402380D01*
X155010714Y-105450000D01*
X155058333Y-105497619D01*
X155915476Y-105735714D02*
X155915476Y-106402380D01*
X155677380Y-105354761D02*
X155439285Y-106069047D01*
X156058333Y-106069047D01*
D11*
%TO.C,R1*%
X139936359Y-103600000D02*
X140243641Y-103600000D01*
X139936359Y-102840000D02*
X140243641Y-102840000D01*
%TO.C,U2*%
X133720000Y-99620000D02*
X132520000Y-99620000D01*
X133720000Y-97620000D02*
X133120000Y-97620000D01*
D12*
%TO.C,U3*%
X156800000Y-102220000D02*
X156800000Y-98420000D01*
X151600000Y-102220000D02*
X156800000Y-102220000D01*
X156800000Y-98420000D02*
X151600000Y-98420000D01*
X151600000Y-98420000D02*
X151600000Y-102220000D01*
D13*
X156500000Y-102620000D02*
G75*
G03*
X156500000Y-102620000I-100000J0D01*
G01*
D11*
%TO.C,J1*%
X122270000Y-100310000D02*
X122270000Y-110530000D01*
X122270000Y-110530000D02*
X124930000Y-110530000D01*
X122270000Y-100310000D02*
X124930000Y-100310000D01*
X122270000Y-99040000D02*
X122270000Y-97710000D01*
X122270000Y-97710000D02*
X123600000Y-97710000D01*
X124930000Y-100310000D02*
X124930000Y-110530000D01*
%TO.C,C7*%
X156734420Y-111630000D02*
X157015580Y-111630000D01*
X156734420Y-110610000D02*
X157015580Y-110610000D01*
%TO.C,C3*%
X129700000Y-117320000D02*
X137400000Y-117320000D01*
X129700000Y-108120000D02*
X129700000Y-111720000D01*
X138900000Y-115820000D02*
X138900000Y-113620000D01*
X137400000Y-108120000D02*
X129700000Y-108120000D01*
X137400000Y-117320000D02*
X138900000Y-115820000D01*
X129700000Y-113720000D02*
X129700000Y-117320000D01*
X138900000Y-109620000D02*
X137400000Y-108120000D01*
X138900000Y-111820000D02*
X138900000Y-109620000D01*
%TO.C,R4*%
X144446359Y-98940000D02*
X144753641Y-98940000D01*
X144446359Y-99700000D02*
X144753641Y-99700000D01*
D14*
%TO.C,U4*%
X151550000Y-112660000D02*
X154050000Y-112660000D01*
X151400000Y-110150000D02*
X151400000Y-112660000D01*
X154200000Y-112660000D02*
X154200000Y-110150000D01*
X154050000Y-110150000D02*
X151550000Y-110150000D01*
D11*
%TO.C,R3*%
X159680000Y-100383641D02*
X159680000Y-100076359D01*
X158920000Y-100383641D02*
X158920000Y-100076359D01*
%TO.C,Y1*%
X145575000Y-108295000D02*
X146925000Y-108295000D01*
X145575000Y-106545000D02*
X146925000Y-106545000D01*
%TO.C,C6*%
X142490000Y-103854420D02*
X142490000Y-104135580D01*
X143510000Y-103854420D02*
X143510000Y-104135580D01*
%TO.C,U1*%
X133200000Y-101160000D02*
X132550000Y-101160000D01*
X133200000Y-104280000D02*
X134875000Y-104280000D01*
X133200000Y-104280000D02*
X132550000Y-104280000D01*
X133200000Y-101160000D02*
X133850000Y-101160000D01*
%TO.C,R5*%
X146963641Y-98940000D02*
X146656359Y-98940000D01*
X146963641Y-99700000D02*
X146656359Y-99700000D01*
%TO.C,C4*%
X155365580Y-104010000D02*
X155084420Y-104010000D01*
X155365580Y-105030000D02*
X155084420Y-105030000D01*
%TD*%
M02*
