M48
; DRILL file {KiCad (6.0.7)} date Tue Dec 27 11:47:08 2022
; FORMAT={-:-/ absolute / inch / decimal}
; #@! TF.CreationDate,2022-12-27T11:47:08-06:00
; #@! TF.GenerationSoftware,Kicad,Pcbnew,(6.0.7)
; #@! TF.FileFunction,Plated,1,2,PTH
FMAT,2
INCH
; #@! TA.AperFunction,Plated,PTH,ViaDrill
T1C0.0100
; #@! TA.AperFunction,Plated,PTH,ComponentDrill
T2C0.0394
%
G90
G05
T1
X4.9843Y-4.4811
X5.0039Y-3.7921
X5.063Y-4.2055
X5.0748Y-3.985
X5.0748Y-4.0205
X5.1811Y-3.9496
X5.2992Y-4.5402
X5.3071Y-3.8827
X5.3071Y-3.9142
X5.4252Y-4.0047
X5.4331Y-3.9496
X5.4961Y-4.2449
X5.5276Y-3.9811
X5.5354Y-3.8512
X5.6929Y-4.1268
X5.7126Y-3.8761
X5.752Y-4.4614
X5.7598Y-3.8761
X5.7752Y-4.1626
X5.8622Y-3.9102
X5.8701Y-4.0874
X5.9134Y-4.0126
X5.9291Y-4.1661
X5.9409Y-4.0126
X6.0068Y-3.9312
X6.0079Y-3.7921
X6.0236Y-3.9654
X6.0866Y-3.9496
X6.1811Y-4.0756
X6.2638Y-3.8512
X6.2638Y-4.1858
T2
X4.8661Y-3.8992
X4.8661Y-3.9992
X4.8661Y-4.0992
X4.8661Y-4.1992
X4.8661Y-4.2992
T0
M30
