%TF.GenerationSoftware,KiCad,Pcbnew,(6.0.7)*%
%TF.CreationDate,2023-07-12T23:11:50-05:00*%
%TF.ProjectId,UKDAQ,554b4441-512e-46b6-9963-61645f706362,rev?*%
%TF.SameCoordinates,Original*%
%TF.FileFunction,Copper,L2,Bot*%
%TF.FilePolarity,Positive*%
%FSLAX46Y46*%
G04 Gerber Fmt 4.6, Leading zero omitted, Abs format (unit mm)*
G04 Created by KiCad (PCBNEW (6.0.7)) date 2023-07-12 23:11:50*
%MOMM*%
%LPD*%
G01*
G04 APERTURE LIST*
%TA.AperFunction,ComponentPad*%
%ADD10R,1.700000X1.700000*%
%TD*%
%TA.AperFunction,ComponentPad*%
%ADD11O,1.700000X1.700000*%
%TD*%
%TA.AperFunction,ViaPad*%
%ADD12C,0.508000*%
%TD*%
%TA.AperFunction,Conductor*%
%ADD13C,0.228600*%
%TD*%
%TA.AperFunction,Conductor*%
%ADD14C,0.152400*%
%TD*%
G04 APERTURE END LIST*
D10*
%TO.P,J1,1,Pin_1*%
%TO.N,GND*%
X86000000Y-102925000D03*
D11*
%TO.P,J1,2,Pin_2*%
%TO.N,/nRESET*%
X86000000Y-105465000D03*
%TO.P,J1,3,Pin_3*%
%TO.N,VCC*%
X86000000Y-108005000D03*
%TO.P,J1,4,Pin_4*%
%TO.N,/RX{slash}SWCLK-VCC*%
X86000000Y-110545000D03*
%TO.P,J1,5,Pin_5*%
%TO.N,/TX{slash}SWDIO-VCC*%
X86000000Y-113085000D03*
%TD*%
D10*
%TO.P,J2,1,Pin_1*%
%TO.N,/RX{slash}SWCLK-VDD*%
X109728000Y-91186000D03*
D11*
%TO.P,J2,2,Pin_2*%
%TO.N,/TX{slash}SWDIO-VDD*%
X107188000Y-91186000D03*
%TO.P,J2,3,Pin_3*%
%TO.N,/RX{slash}SWCLK-VCC*%
X104648000Y-91186000D03*
%TO.P,J2,4,Pin_4*%
%TO.N,/TX{slash}SWDIO-VCC*%
X102108000Y-91186000D03*
%TO.P,J2,5,Pin_5*%
%TO.N,/SDA*%
X99568000Y-91186000D03*
%TO.P,J2,6,Pin_6*%
%TO.N,/SCL*%
X97028000Y-91186000D03*
%TO.P,J2,7,Pin_7*%
%TO.N,/nRESET*%
X94488000Y-91186000D03*
%TO.P,J2,8,Pin_8*%
%TO.N,/BNO_INTERRUPT*%
X91948000Y-91186000D03*
%TO.P,J2,9,Pin_9*%
%TO.N,VDD*%
X89408000Y-91186000D03*
%TO.P,J2,10,Pin_10*%
%TO.N,VCC*%
X86868000Y-91186000D03*
%TO.P,J2,11,Pin_11*%
%TO.N,GND*%
X84328000Y-91186000D03*
%TD*%
D12*
%TO.N,GND*%
X113284000Y-115570000D03*
X124714000Y-106934000D03*
X88392000Y-122936000D03*
X133604000Y-85598000D03*
X137668000Y-108966000D03*
X111760000Y-131826000D03*
X123190000Y-123698000D03*
X111506000Y-97790000D03*
X146558000Y-104902000D03*
X112268000Y-107696000D03*
X99060000Y-85344000D03*
X93472000Y-99314000D03*
X135128000Y-132588000D03*
%TO.N,VDD*%
X118872000Y-127508000D03*
X122682000Y-111506000D03*
X129286000Y-114808000D03*
X131826000Y-127508000D03*
%TO.N,/nRESET*%
X121412000Y-109474000D03*
X144780000Y-127508000D03*
X89662000Y-105410000D03*
X122682000Y-113284000D03*
X96520000Y-93218000D03*
%TO.N,/RX{slash}SWCLK-VCC*%
X97790000Y-112014000D03*
X93726000Y-106426000D03*
%TO.N,/TX{slash}SWDIO-VCC*%
X89916000Y-108966000D03*
X88900000Y-89662000D03*
%TO.N,/SCL*%
X147320000Y-112014000D03*
X143764000Y-112014000D03*
X126746000Y-104648000D03*
X131064000Y-103886000D03*
%TO.N,/SDA*%
X132842000Y-105664000D03*
X101600000Y-93218000D03*
%TO.N,/RX{slash}SWCLK-VDD*%
X120650000Y-102108000D03*
X105918000Y-112014000D03*
X123952000Y-108966000D03*
%TO.N,/TX{slash}SWDIO-VDD*%
X108966000Y-101600000D03*
X122936000Y-107696000D03*
X106426000Y-109982000D03*
%TO.N,/BNO_INTERRUPT*%
X145796000Y-127000000D03*
X132080000Y-112014000D03*
%TD*%
D13*
%TO.N,VDD*%
X125984000Y-114808000D02*
X122682000Y-111506000D01*
X129286000Y-114808000D02*
X125984000Y-114808000D01*
X118872000Y-127508000D02*
X131826000Y-127508000D01*
D14*
%TO.N,/nRESET*%
X144780000Y-127508000D02*
X132588000Y-115316000D01*
X132588000Y-115316000D02*
X125476000Y-115316000D01*
X89662000Y-105410000D02*
X96520000Y-105410000D01*
X96520000Y-105410000D02*
X117348000Y-105410000D01*
X96520000Y-93218000D02*
X96520000Y-105410000D01*
X123444000Y-113284000D02*
X122682000Y-113284000D01*
X117348000Y-105410000D02*
X121412000Y-109474000D01*
X125476000Y-115316000D02*
X123444000Y-113284000D01*
%TO.N,/RX{slash}SWCLK-VCC*%
X93726000Y-106426000D02*
X97790000Y-110490000D01*
X97790000Y-110490000D02*
X97790000Y-112014000D01*
%TO.N,/TX{slash}SWDIO-VCC*%
X88900000Y-89662000D02*
X89409371Y-89662000D01*
X90486600Y-90739229D02*
X90486600Y-102553400D01*
X88900000Y-107950000D02*
X89916000Y-108966000D01*
X88900000Y-104140000D02*
X88900000Y-107950000D01*
X89409371Y-89662000D02*
X90486600Y-90739229D01*
X90486600Y-102553400D02*
X88900000Y-104140000D01*
%TO.N,/SCL*%
X143764000Y-112014000D02*
X147320000Y-112014000D01*
X127508000Y-103886000D02*
X126746000Y-104648000D01*
X131064000Y-103886000D02*
X127508000Y-103886000D01*
%TO.N,/SDA*%
X132842000Y-104981500D02*
X132842000Y-105664000D01*
X101600000Y-93218000D02*
X121078500Y-93218000D01*
X121078500Y-93218000D02*
X132842000Y-104981500D01*
%TO.N,/RX{slash}SWCLK-VDD*%
X120650000Y-102108000D02*
X123952000Y-105410000D01*
X106908600Y-111023400D02*
X121894600Y-111023400D01*
X121894600Y-111023400D02*
X123952000Y-108966000D01*
X105918000Y-112014000D02*
X106908600Y-111023400D01*
X123952000Y-105410000D02*
X123952000Y-108966000D01*
%TO.N,/TX{slash}SWDIO-VDD*%
X111760000Y-104394000D02*
X119634000Y-104394000D01*
X106426000Y-109982000D02*
X121586500Y-109982000D01*
X121586500Y-109982000D02*
X122936000Y-108632500D01*
X122936000Y-108632500D02*
X122936000Y-107696000D01*
X119634000Y-104394000D02*
X122936000Y-107696000D01*
X108966000Y-101600000D02*
X111760000Y-104394000D01*
%TO.N,/BNO_INTERRUPT*%
X93026600Y-92264600D02*
X121474600Y-92264600D01*
X132080000Y-113284000D02*
X132080000Y-112014000D01*
X135128000Y-108966000D02*
X132080000Y-112014000D01*
X121474600Y-92264600D02*
X135128000Y-105918000D01*
X91948000Y-91186000D02*
X93026600Y-92264600D01*
X135128000Y-105918000D02*
X135128000Y-108966000D01*
X145796000Y-127000000D02*
X132080000Y-113284000D01*
%TD*%
%TA.AperFunction,Conductor*%
%TO.N,GND*%
G36*
X151902121Y-81090002D02*
G01*
X151948614Y-81143658D01*
X151960000Y-81196000D01*
X151960000Y-137133878D01*
X151939998Y-137201999D01*
X151886342Y-137248492D01*
X151833879Y-137259878D01*
X86253660Y-137196305D01*
X79875878Y-137190122D01*
X79807777Y-137170054D01*
X79761336Y-137116353D01*
X79750000Y-137064122D01*
X79750000Y-134089403D01*
X80900187Y-134089403D01*
X80917085Y-134382460D01*
X80917910Y-134386665D01*
X80917911Y-134386673D01*
X80950513Y-134552845D01*
X80973599Y-134670514D01*
X80974986Y-134674565D01*
X80974987Y-134674569D01*
X81067294Y-134944177D01*
X81067298Y-134944186D01*
X81068683Y-134948232D01*
X81200578Y-135210476D01*
X81203004Y-135214005D01*
X81203007Y-135214011D01*
X81242678Y-135271732D01*
X81366844Y-135452394D01*
X81564403Y-135669509D01*
X81567684Y-135672252D01*
X81786308Y-135855051D01*
X81786313Y-135855055D01*
X81789600Y-135857803D01*
X81913934Y-135935798D01*
X82034628Y-136011509D01*
X82034632Y-136011511D01*
X82038268Y-136013792D01*
X82042178Y-136015557D01*
X82042179Y-136015558D01*
X82301894Y-136132824D01*
X82301898Y-136132826D01*
X82305806Y-136134590D01*
X82309925Y-136135810D01*
X82583149Y-136216743D01*
X82583153Y-136216744D01*
X82587262Y-136217961D01*
X82591496Y-136218609D01*
X82591501Y-136218610D01*
X82848363Y-136257915D01*
X82877429Y-136262363D01*
X83026852Y-136264710D01*
X83166646Y-136266907D01*
X83166652Y-136266907D01*
X83170937Y-136266974D01*
X83462356Y-136231708D01*
X83746292Y-136157219D01*
X83750252Y-136155579D01*
X83750257Y-136155577D01*
X83896272Y-136095095D01*
X84017492Y-136044884D01*
X84270937Y-135896783D01*
X84501938Y-135715655D01*
X84543999Y-135672252D01*
X84703236Y-135507931D01*
X84706219Y-135504853D01*
X84708752Y-135501405D01*
X84708756Y-135501400D01*
X84877463Y-135271732D01*
X84880001Y-135268277D01*
X85020069Y-135010305D01*
X85123829Y-134735711D01*
X85189363Y-134449575D01*
X85215458Y-134157192D01*
X85215931Y-134112000D01*
X85214682Y-134093683D01*
X85214390Y-134089403D01*
X146178187Y-134089403D01*
X146195085Y-134382460D01*
X146195910Y-134386665D01*
X146195911Y-134386673D01*
X146228513Y-134552845D01*
X146251599Y-134670514D01*
X146252986Y-134674565D01*
X146252987Y-134674569D01*
X146345294Y-134944177D01*
X146345298Y-134944186D01*
X146346683Y-134948232D01*
X146478578Y-135210476D01*
X146481004Y-135214005D01*
X146481007Y-135214011D01*
X146520678Y-135271732D01*
X146644844Y-135452394D01*
X146842403Y-135669509D01*
X146845684Y-135672252D01*
X147064308Y-135855051D01*
X147064313Y-135855055D01*
X147067600Y-135857803D01*
X147191934Y-135935798D01*
X147312628Y-136011509D01*
X147312632Y-136011511D01*
X147316268Y-136013792D01*
X147320178Y-136015557D01*
X147320179Y-136015558D01*
X147579894Y-136132824D01*
X147579898Y-136132826D01*
X147583806Y-136134590D01*
X147587925Y-136135810D01*
X147861149Y-136216743D01*
X147861153Y-136216744D01*
X147865262Y-136217961D01*
X147869496Y-136218609D01*
X147869501Y-136218610D01*
X148126363Y-136257915D01*
X148155429Y-136262363D01*
X148304852Y-136264710D01*
X148444646Y-136266907D01*
X148444652Y-136266907D01*
X148448937Y-136266974D01*
X148740356Y-136231708D01*
X149024292Y-136157219D01*
X149028252Y-136155579D01*
X149028257Y-136155577D01*
X149174272Y-136095095D01*
X149295492Y-136044884D01*
X149548937Y-135896783D01*
X149779938Y-135715655D01*
X149821999Y-135672252D01*
X149981236Y-135507931D01*
X149984219Y-135504853D01*
X149986752Y-135501405D01*
X149986756Y-135501400D01*
X150155463Y-135271732D01*
X150158001Y-135268277D01*
X150298069Y-135010305D01*
X150401829Y-134735711D01*
X150467363Y-134449575D01*
X150493458Y-134157192D01*
X150493931Y-134112000D01*
X150492682Y-134093683D01*
X150474257Y-133823412D01*
X150474256Y-133823406D01*
X150473965Y-133819135D01*
X150414438Y-133531690D01*
X150408225Y-133514143D01*
X150317882Y-133259023D01*
X150316451Y-133254982D01*
X150181817Y-132994133D01*
X150165824Y-132971377D01*
X150015491Y-132757475D01*
X150015486Y-132757469D01*
X150013027Y-132753970D01*
X149813205Y-132538936D01*
X149809889Y-132536222D01*
X149809886Y-132536219D01*
X149589367Y-132355725D01*
X149589360Y-132355720D01*
X149586049Y-132353010D01*
X149335761Y-132199634D01*
X149331825Y-132197906D01*
X149070901Y-132083368D01*
X149070898Y-132083367D01*
X149066973Y-132081644D01*
X148784659Y-132001225D01*
X148780417Y-132000621D01*
X148780411Y-132000620D01*
X148498294Y-131960469D01*
X148494043Y-131959864D01*
X148339296Y-131959054D01*
X148204788Y-131958349D01*
X148204782Y-131958349D01*
X148200502Y-131958327D01*
X148196258Y-131958886D01*
X148196254Y-131958886D01*
X148068262Y-131975737D01*
X147909469Y-131996642D01*
X147905329Y-131997775D01*
X147905327Y-131997775D01*
X147892716Y-132001225D01*
X147626328Y-132074101D01*
X147356320Y-132189269D01*
X147104440Y-132340017D01*
X147101094Y-132342697D01*
X147101092Y-132342699D01*
X147088222Y-132353010D01*
X146875348Y-132523553D01*
X146673286Y-132736483D01*
X146501990Y-132974866D01*
X146364632Y-133234290D01*
X146263752Y-133509956D01*
X146262839Y-133514142D01*
X146262839Y-133514143D01*
X146202132Y-133792573D01*
X146202131Y-133792581D01*
X146201219Y-133796763D01*
X146178187Y-134089403D01*
X85214390Y-134089403D01*
X85196257Y-133823412D01*
X85196256Y-133823406D01*
X85195965Y-133819135D01*
X85136438Y-133531690D01*
X85130225Y-133514143D01*
X85039882Y-133259023D01*
X85038451Y-133254982D01*
X84903817Y-132994133D01*
X84887824Y-132971377D01*
X84737491Y-132757475D01*
X84737486Y-132757469D01*
X84735027Y-132753970D01*
X84535205Y-132538936D01*
X84531889Y-132536222D01*
X84531886Y-132536219D01*
X84311367Y-132355725D01*
X84311360Y-132355720D01*
X84308049Y-132353010D01*
X84057761Y-132199634D01*
X84053825Y-132197906D01*
X83792901Y-132083368D01*
X83792898Y-132083367D01*
X83788973Y-132081644D01*
X83506659Y-132001225D01*
X83502417Y-132000621D01*
X83502411Y-132000620D01*
X83220294Y-131960469D01*
X83216043Y-131959864D01*
X83061296Y-131959054D01*
X82926788Y-131958349D01*
X82926782Y-131958349D01*
X82922502Y-131958327D01*
X82918258Y-131958886D01*
X82918254Y-131958886D01*
X82790262Y-131975737D01*
X82631469Y-131996642D01*
X82627329Y-131997775D01*
X82627327Y-131997775D01*
X82614716Y-132001225D01*
X82348328Y-132074101D01*
X82078320Y-132189269D01*
X81826440Y-132340017D01*
X81823094Y-132342697D01*
X81823092Y-132342699D01*
X81810222Y-132353010D01*
X81597348Y-132523553D01*
X81395286Y-132736483D01*
X81223990Y-132974866D01*
X81086632Y-133234290D01*
X80985752Y-133509956D01*
X80984839Y-133514142D01*
X80984839Y-133514143D01*
X80924132Y-133792573D01*
X80924131Y-133792581D01*
X80923219Y-133796763D01*
X80900187Y-134089403D01*
X79750000Y-134089403D01*
X79750000Y-127508000D01*
X118460028Y-127508000D01*
X118480191Y-127635306D01*
X118538708Y-127750151D01*
X118629849Y-127841292D01*
X118744694Y-127899809D01*
X118872000Y-127919972D01*
X118999306Y-127899809D01*
X119114151Y-127841292D01*
X119143338Y-127812105D01*
X119205650Y-127778079D01*
X119232433Y-127775200D01*
X131465567Y-127775200D01*
X131533688Y-127795202D01*
X131554662Y-127812105D01*
X131583849Y-127841292D01*
X131698694Y-127899809D01*
X131826000Y-127919972D01*
X131953306Y-127899809D01*
X132068151Y-127841292D01*
X132159292Y-127750151D01*
X132217809Y-127635306D01*
X132237972Y-127508000D01*
X132217809Y-127380694D01*
X132159292Y-127265849D01*
X132068151Y-127174708D01*
X131953306Y-127116191D01*
X131826000Y-127096028D01*
X131698694Y-127116191D01*
X131583849Y-127174708D01*
X131554662Y-127203895D01*
X131492350Y-127237921D01*
X131465567Y-127240800D01*
X119232433Y-127240800D01*
X119164312Y-127220798D01*
X119143338Y-127203895D01*
X119114151Y-127174708D01*
X118999306Y-127116191D01*
X118872000Y-127096028D01*
X118744694Y-127116191D01*
X118629849Y-127174708D01*
X118538708Y-127265849D01*
X118480191Y-127380694D01*
X118460028Y-127508000D01*
X79750000Y-127508000D01*
X79750000Y-113070930D01*
X84992345Y-113070930D01*
X84995889Y-113113138D01*
X85005368Y-113226008D01*
X85008803Y-113266919D01*
X85010502Y-113272844D01*
X85060540Y-113447346D01*
X85063015Y-113455979D01*
X85065830Y-113461456D01*
X85065831Y-113461459D01*
X85142315Y-113610281D01*
X85152916Y-113630908D01*
X85156739Y-113635732D01*
X85156742Y-113635736D01*
X85188504Y-113675809D01*
X85275083Y-113785044D01*
X85424862Y-113912516D01*
X85596547Y-114008467D01*
X85783600Y-114069244D01*
X85978895Y-114092532D01*
X85985030Y-114092060D01*
X85985032Y-114092060D01*
X86168852Y-114077916D01*
X86168856Y-114077915D01*
X86174994Y-114077443D01*
X86364428Y-114024552D01*
X86369932Y-114021772D01*
X86369934Y-114021771D01*
X86534480Y-113938653D01*
X86534482Y-113938652D01*
X86539981Y-113935874D01*
X86694966Y-113814786D01*
X86698992Y-113810122D01*
X86698995Y-113810119D01*
X86819451Y-113670569D01*
X86819452Y-113670567D01*
X86823480Y-113665901D01*
X86920628Y-113494890D01*
X86982710Y-113308266D01*
X86985775Y-113284000D01*
X122270028Y-113284000D01*
X122290191Y-113411306D01*
X122348708Y-113526151D01*
X122439849Y-113617292D01*
X122554694Y-113675809D01*
X122682000Y-113695972D01*
X122809306Y-113675809D01*
X122924151Y-113617292D01*
X122991438Y-113550005D01*
X123053750Y-113515979D01*
X123080533Y-113513100D01*
X123296914Y-113513100D01*
X123365035Y-113533102D01*
X123386009Y-113550005D01*
X124356801Y-114520798D01*
X125307425Y-115471422D01*
X125311966Y-115476206D01*
X125338330Y-115505486D01*
X125357286Y-115513926D01*
X125374658Y-115523358D01*
X125380957Y-115527449D01*
X125380959Y-115527450D01*
X125392064Y-115534661D01*
X125405143Y-115536732D01*
X125410058Y-115538619D01*
X125415204Y-115539713D01*
X125427303Y-115545100D01*
X125448053Y-115545100D01*
X125467764Y-115546651D01*
X125475181Y-115547826D01*
X125475182Y-115547826D01*
X125488258Y-115549897D01*
X125501047Y-115546470D01*
X125514275Y-115545777D01*
X125514298Y-115546213D01*
X125522750Y-115545100D01*
X132440914Y-115545100D01*
X132509035Y-115565102D01*
X132530009Y-115582005D01*
X144334660Y-127386657D01*
X144368686Y-127448969D01*
X144370013Y-127495466D01*
X144368028Y-127508000D01*
X144388191Y-127635306D01*
X144446708Y-127750151D01*
X144537849Y-127841292D01*
X144652694Y-127899809D01*
X144780000Y-127919972D01*
X144907306Y-127899809D01*
X145022151Y-127841292D01*
X145113292Y-127750151D01*
X145171809Y-127635306D01*
X145191972Y-127508000D01*
X145171809Y-127380694D01*
X145113292Y-127265849D01*
X145022151Y-127174708D01*
X144907306Y-127116191D01*
X144780000Y-127096028D01*
X144770208Y-127097579D01*
X144770203Y-127097579D01*
X144767463Y-127098013D01*
X144764104Y-127097579D01*
X144760289Y-127097579D01*
X144760289Y-127097086D01*
X144697052Y-127088915D01*
X144658656Y-127062660D01*
X132756575Y-115160578D01*
X132752034Y-115155794D01*
X132725670Y-115126514D01*
X132706714Y-115118074D01*
X132689342Y-115108642D01*
X132683043Y-115104551D01*
X132683041Y-115104550D01*
X132671936Y-115097339D01*
X132658857Y-115095268D01*
X132653942Y-115093381D01*
X132648796Y-115092287D01*
X132636697Y-115086900D01*
X132615947Y-115086900D01*
X132596236Y-115085349D01*
X132588819Y-115084174D01*
X132588818Y-115084174D01*
X132575742Y-115082103D01*
X132562953Y-115085530D01*
X132549725Y-115086223D01*
X132549702Y-115085787D01*
X132541250Y-115086900D01*
X129800346Y-115086900D01*
X129732225Y-115066898D01*
X129685732Y-115013242D01*
X129675628Y-114942968D01*
X129677075Y-114936747D01*
X129677809Y-114935306D01*
X129697972Y-114808000D01*
X129677809Y-114680694D01*
X129619292Y-114565849D01*
X129528151Y-114474708D01*
X129413306Y-114416191D01*
X129286000Y-114396028D01*
X129158694Y-114416191D01*
X129043849Y-114474708D01*
X129014662Y-114503895D01*
X128952350Y-114537921D01*
X128925567Y-114540800D01*
X126146867Y-114540800D01*
X126078746Y-114520798D01*
X126057772Y-114503895D01*
X123129326Y-111575448D01*
X123095300Y-111513136D01*
X123094524Y-111505913D01*
X123093972Y-111506000D01*
X123075360Y-111388487D01*
X123073809Y-111378694D01*
X123015292Y-111263849D01*
X122924151Y-111172708D01*
X122809306Y-111114191D01*
X122682000Y-111094028D01*
X122554694Y-111114191D01*
X122439849Y-111172708D01*
X122348708Y-111263849D01*
X122290191Y-111378694D01*
X122270028Y-111506000D01*
X122271579Y-111515793D01*
X122274745Y-111535785D01*
X122290191Y-111633306D01*
X122348708Y-111748151D01*
X122439849Y-111839292D01*
X122554694Y-111897809D01*
X122564487Y-111899360D01*
X122682000Y-111917972D01*
X122681362Y-111922002D01*
X122730474Y-111936423D01*
X122751448Y-111953326D01*
X123658126Y-112860004D01*
X123692152Y-112922316D01*
X123687087Y-112993131D01*
X123644540Y-113049967D01*
X123578020Y-113074778D01*
X123531920Y-113067926D01*
X123527936Y-113065339D01*
X123514853Y-113063267D01*
X123509939Y-113061381D01*
X123504798Y-113060288D01*
X123492697Y-113054900D01*
X123471947Y-113054900D01*
X123452236Y-113053349D01*
X123444819Y-113052174D01*
X123444818Y-113052174D01*
X123431742Y-113050103D01*
X123418953Y-113053530D01*
X123405725Y-113054223D01*
X123405702Y-113053787D01*
X123397250Y-113054900D01*
X123080533Y-113054900D01*
X123012412Y-113034898D01*
X122991438Y-113017995D01*
X122924151Y-112950708D01*
X122809306Y-112892191D01*
X122682000Y-112872028D01*
X122554694Y-112892191D01*
X122439849Y-112950708D01*
X122348708Y-113041849D01*
X122290191Y-113156694D01*
X122270028Y-113284000D01*
X86985775Y-113284000D01*
X87007360Y-113113138D01*
X87007753Y-113085000D01*
X86988561Y-112889260D01*
X86931714Y-112700975D01*
X86839379Y-112527318D01*
X86835489Y-112522548D01*
X86835486Y-112522544D01*
X86718967Y-112379678D01*
X86718964Y-112379675D01*
X86715072Y-112374903D01*
X86698422Y-112361129D01*
X86568278Y-112253464D01*
X86568274Y-112253462D01*
X86563528Y-112249535D01*
X86390520Y-112155990D01*
X86202637Y-112097830D01*
X86196519Y-112097187D01*
X86196514Y-112097186D01*
X86013164Y-112077916D01*
X86013162Y-112077916D01*
X86007035Y-112077272D01*
X85924199Y-112084810D01*
X85817305Y-112094538D01*
X85817302Y-112094539D01*
X85811166Y-112095097D01*
X85622489Y-112150628D01*
X85448192Y-112241748D01*
X85294912Y-112364988D01*
X85290954Y-112369705D01*
X85290952Y-112369707D01*
X85255017Y-112412533D01*
X85168489Y-112515653D01*
X85073739Y-112688004D01*
X85071878Y-112693871D01*
X85071877Y-112693873D01*
X85069624Y-112700975D01*
X85014269Y-112875476D01*
X84992345Y-113070930D01*
X79750000Y-113070930D01*
X79750000Y-110530930D01*
X84992345Y-110530930D01*
X85008803Y-110726919D01*
X85010502Y-110732844D01*
X85056845Y-110894460D01*
X85063015Y-110915979D01*
X85065830Y-110921456D01*
X85065831Y-110921459D01*
X85150101Y-111085431D01*
X85152916Y-111090908D01*
X85156739Y-111095732D01*
X85156742Y-111095736D01*
X85210904Y-111164071D01*
X85275083Y-111245044D01*
X85279777Y-111249038D01*
X85279777Y-111249039D01*
X85307558Y-111272682D01*
X85424862Y-111372516D01*
X85596547Y-111468467D01*
X85783600Y-111529244D01*
X85978895Y-111552532D01*
X85985030Y-111552060D01*
X85985032Y-111552060D01*
X86168852Y-111537916D01*
X86168856Y-111537915D01*
X86174994Y-111537443D01*
X86364428Y-111484552D01*
X86369932Y-111481772D01*
X86369934Y-111481771D01*
X86534480Y-111398653D01*
X86534482Y-111398652D01*
X86539981Y-111395874D01*
X86694966Y-111274786D01*
X86698992Y-111270122D01*
X86698995Y-111270119D01*
X86819451Y-111130569D01*
X86819452Y-111130567D01*
X86823480Y-111125901D01*
X86920628Y-110954890D01*
X86982710Y-110768266D01*
X87007360Y-110573138D01*
X87007753Y-110545000D01*
X86988561Y-110349260D01*
X86931714Y-110160975D01*
X86839379Y-109987318D01*
X86835489Y-109982548D01*
X86835486Y-109982544D01*
X86718967Y-109839678D01*
X86718964Y-109839675D01*
X86715072Y-109834903D01*
X86698422Y-109821129D01*
X86568278Y-109713464D01*
X86568274Y-109713462D01*
X86563528Y-109709535D01*
X86390520Y-109615990D01*
X86202637Y-109557830D01*
X86196519Y-109557187D01*
X86196514Y-109557186D01*
X86013164Y-109537916D01*
X86013162Y-109537916D01*
X86007035Y-109537272D01*
X85924199Y-109544810D01*
X85817305Y-109554538D01*
X85817302Y-109554539D01*
X85811166Y-109555097D01*
X85622489Y-109610628D01*
X85448192Y-109701748D01*
X85294912Y-109824988D01*
X85290954Y-109829705D01*
X85290952Y-109829707D01*
X85261768Y-109864487D01*
X85168489Y-109975653D01*
X85073739Y-110148004D01*
X85071878Y-110153871D01*
X85071877Y-110153873D01*
X85053724Y-110211100D01*
X85014269Y-110335476D01*
X84992345Y-110530930D01*
X79750000Y-110530930D01*
X79750000Y-107990930D01*
X84992345Y-107990930D01*
X84995820Y-108032311D01*
X85005288Y-108145056D01*
X85008803Y-108186919D01*
X85063015Y-108375979D01*
X85065830Y-108381456D01*
X85065831Y-108381459D01*
X85150101Y-108545431D01*
X85152916Y-108550908D01*
X85156739Y-108555732D01*
X85156742Y-108555736D01*
X85239736Y-108660447D01*
X85275083Y-108705044D01*
X85279777Y-108709038D01*
X85279777Y-108709039D01*
X85408880Y-108818914D01*
X85424862Y-108832516D01*
X85596547Y-108928467D01*
X85783600Y-108989244D01*
X85978895Y-109012532D01*
X85985030Y-109012060D01*
X85985032Y-109012060D01*
X86168852Y-108997916D01*
X86168856Y-108997915D01*
X86174994Y-108997443D01*
X86364428Y-108944552D01*
X86369932Y-108941772D01*
X86369934Y-108941771D01*
X86534480Y-108858653D01*
X86534482Y-108858652D01*
X86539981Y-108855874D01*
X86694966Y-108734786D01*
X86698992Y-108730122D01*
X86698995Y-108730119D01*
X86819451Y-108590569D01*
X86819452Y-108590567D01*
X86823480Y-108585901D01*
X86920628Y-108414890D01*
X86982710Y-108228266D01*
X87007360Y-108033138D01*
X87007753Y-108005000D01*
X86988561Y-107809260D01*
X86931714Y-107620975D01*
X86885546Y-107534146D01*
X86842273Y-107452760D01*
X86842271Y-107452757D01*
X86839379Y-107447318D01*
X86835489Y-107442548D01*
X86835486Y-107442544D01*
X86718967Y-107299678D01*
X86718964Y-107299675D01*
X86715072Y-107294903D01*
X86704326Y-107286013D01*
X86568278Y-107173464D01*
X86568274Y-107173462D01*
X86563528Y-107169535D01*
X86390520Y-107075990D01*
X86202637Y-107017830D01*
X86196519Y-107017187D01*
X86196514Y-107017186D01*
X86013164Y-106997916D01*
X86013162Y-106997916D01*
X86007035Y-106997272D01*
X85924199Y-107004810D01*
X85817305Y-107014538D01*
X85817302Y-107014539D01*
X85811166Y-107015097D01*
X85622489Y-107070628D01*
X85448192Y-107161748D01*
X85294912Y-107284988D01*
X85290954Y-107289705D01*
X85290952Y-107289707D01*
X85280100Y-107302640D01*
X85168489Y-107435653D01*
X85073739Y-107608004D01*
X85071878Y-107613871D01*
X85071877Y-107613873D01*
X85069917Y-107620053D01*
X85014269Y-107795476D01*
X84992345Y-107990930D01*
X79750000Y-107990930D01*
X79750000Y-103819669D01*
X84642001Y-103819669D01*
X84642371Y-103826490D01*
X84647895Y-103877352D01*
X84651521Y-103892604D01*
X84696676Y-104013054D01*
X84705214Y-104028649D01*
X84781715Y-104130724D01*
X84794276Y-104143285D01*
X84896351Y-104219786D01*
X84911946Y-104228324D01*
X85032394Y-104273478D01*
X85047649Y-104277105D01*
X85098514Y-104282631D01*
X85105328Y-104283000D01*
X85589477Y-104283000D01*
X85657598Y-104303002D01*
X85704091Y-104356658D01*
X85714195Y-104426932D01*
X85684701Y-104491512D01*
X85633301Y-104524564D01*
X85634115Y-104526579D01*
X85628398Y-104528889D01*
X85622489Y-104530628D01*
X85448192Y-104621748D01*
X85294912Y-104744988D01*
X85290954Y-104749705D01*
X85290952Y-104749707D01*
X85250283Y-104798175D01*
X85168489Y-104895653D01*
X85073739Y-105068004D01*
X85071878Y-105073871D01*
X85071877Y-105073873D01*
X85071077Y-105076396D01*
X85014269Y-105255476D01*
X84992345Y-105450930D01*
X85008803Y-105646919D01*
X85010502Y-105652844D01*
X85058999Y-105821972D01*
X85063015Y-105835979D01*
X85065830Y-105841456D01*
X85065831Y-105841459D01*
X85106549Y-105920688D01*
X85152916Y-106010908D01*
X85156739Y-106015732D01*
X85156742Y-106015736D01*
X85188504Y-106055809D01*
X85275083Y-106165044D01*
X85279777Y-106169038D01*
X85279777Y-106169039D01*
X85307558Y-106192682D01*
X85424862Y-106292516D01*
X85596547Y-106388467D01*
X85783600Y-106449244D01*
X85978895Y-106472532D01*
X85985030Y-106472060D01*
X85985032Y-106472060D01*
X86168852Y-106457916D01*
X86168856Y-106457915D01*
X86174994Y-106457443D01*
X86364428Y-106404552D01*
X86369932Y-106401772D01*
X86369934Y-106401771D01*
X86534480Y-106318653D01*
X86534482Y-106318652D01*
X86539981Y-106315874D01*
X86694966Y-106194786D01*
X86698992Y-106190122D01*
X86698995Y-106190119D01*
X86819451Y-106050569D01*
X86819452Y-106050567D01*
X86823480Y-106045901D01*
X86842230Y-106012896D01*
X86855077Y-105990281D01*
X86920628Y-105874890D01*
X86982710Y-105688266D01*
X87007360Y-105493138D01*
X87007753Y-105465000D01*
X86988561Y-105269260D01*
X86931714Y-105080975D01*
X86881104Y-104985792D01*
X86842273Y-104912760D01*
X86842271Y-104912757D01*
X86839379Y-104907318D01*
X86835489Y-104902548D01*
X86835486Y-104902544D01*
X86718967Y-104759678D01*
X86718964Y-104759675D01*
X86715072Y-104754903D01*
X86698422Y-104741129D01*
X86568278Y-104633464D01*
X86568274Y-104633462D01*
X86563528Y-104629535D01*
X86390520Y-104535990D01*
X86369115Y-104529364D01*
X86309956Y-104490111D01*
X86281410Y-104425106D01*
X86292539Y-104354988D01*
X86339811Y-104302017D01*
X86406376Y-104282999D01*
X86894669Y-104282999D01*
X86901490Y-104282629D01*
X86952352Y-104277105D01*
X86967604Y-104273479D01*
X87088054Y-104228324D01*
X87103649Y-104219786D01*
X87205724Y-104143285D01*
X87218285Y-104130724D01*
X87294786Y-104028649D01*
X87303324Y-104013054D01*
X87348478Y-103892606D01*
X87352105Y-103877351D01*
X87357631Y-103826486D01*
X87358000Y-103819672D01*
X87358000Y-103197115D01*
X87353525Y-103181876D01*
X87352135Y-103180671D01*
X87344452Y-103179000D01*
X84660116Y-103179000D01*
X84644877Y-103183475D01*
X84643672Y-103184865D01*
X84642001Y-103192548D01*
X84642001Y-103819669D01*
X79750000Y-103819669D01*
X79750000Y-102652885D01*
X84642000Y-102652885D01*
X84646475Y-102668124D01*
X84647865Y-102669329D01*
X84655548Y-102671000D01*
X85727885Y-102671000D01*
X85743124Y-102666525D01*
X85744329Y-102665135D01*
X85746000Y-102657452D01*
X85746000Y-102652885D01*
X86254000Y-102652885D01*
X86258475Y-102668124D01*
X86259865Y-102669329D01*
X86267548Y-102671000D01*
X87339884Y-102671000D01*
X87355123Y-102666525D01*
X87356328Y-102665135D01*
X87357999Y-102657452D01*
X87357999Y-102030331D01*
X87357629Y-102023510D01*
X87352105Y-101972648D01*
X87348479Y-101957396D01*
X87303324Y-101836946D01*
X87294786Y-101821351D01*
X87218285Y-101719276D01*
X87205724Y-101706715D01*
X87103649Y-101630214D01*
X87088054Y-101621676D01*
X86967606Y-101576522D01*
X86952351Y-101572895D01*
X86901486Y-101567369D01*
X86894672Y-101567000D01*
X86272115Y-101567000D01*
X86256876Y-101571475D01*
X86255671Y-101572865D01*
X86254000Y-101580548D01*
X86254000Y-102652885D01*
X85746000Y-102652885D01*
X85746000Y-101585116D01*
X85741525Y-101569877D01*
X85740135Y-101568672D01*
X85732452Y-101567001D01*
X85105331Y-101567001D01*
X85098510Y-101567371D01*
X85047648Y-101572895D01*
X85032396Y-101576521D01*
X84911946Y-101621676D01*
X84896351Y-101630214D01*
X84794276Y-101706715D01*
X84781715Y-101719276D01*
X84705214Y-101821351D01*
X84696676Y-101836946D01*
X84651522Y-101957394D01*
X84647895Y-101972649D01*
X84642369Y-102023514D01*
X84642000Y-102030328D01*
X84642000Y-102652885D01*
X79750000Y-102652885D01*
X79750000Y-91453966D01*
X82996257Y-91453966D01*
X83026565Y-91588446D01*
X83029645Y-91598275D01*
X83109770Y-91795603D01*
X83114413Y-91804794D01*
X83225694Y-91986388D01*
X83231777Y-91994699D01*
X83371213Y-92155667D01*
X83378580Y-92162883D01*
X83542434Y-92298916D01*
X83550881Y-92304831D01*
X83734756Y-92412279D01*
X83744042Y-92416729D01*
X83943001Y-92492703D01*
X83952899Y-92495579D01*
X84056250Y-92516606D01*
X84070299Y-92515410D01*
X84074000Y-92505065D01*
X84074000Y-92504517D01*
X84582000Y-92504517D01*
X84586064Y-92518359D01*
X84599478Y-92520393D01*
X84606184Y-92519534D01*
X84616262Y-92517392D01*
X84820255Y-92456191D01*
X84829842Y-92452433D01*
X85021095Y-92358739D01*
X85029945Y-92353464D01*
X85203328Y-92229792D01*
X85211200Y-92223139D01*
X85362052Y-92072812D01*
X85368730Y-92064965D01*
X85493003Y-91892020D01*
X85498313Y-91883183D01*
X85592670Y-91692267D01*
X85596469Y-91682672D01*
X85658377Y-91478911D01*
X85659950Y-91471636D01*
X85693899Y-91409282D01*
X85756170Y-91375181D01*
X85826992Y-91380160D01*
X85883879Y-91422637D01*
X85904221Y-91463537D01*
X85931015Y-91556979D01*
X85933830Y-91562456D01*
X85933831Y-91562459D01*
X86015073Y-91720539D01*
X86020916Y-91731908D01*
X86024739Y-91736732D01*
X86024742Y-91736736D01*
X86048651Y-91766901D01*
X86143083Y-91886044D01*
X86147777Y-91890038D01*
X86147777Y-91890039D01*
X86250686Y-91977621D01*
X86292862Y-92013516D01*
X86298240Y-92016522D01*
X86298242Y-92016523D01*
X86332198Y-92035500D01*
X86464547Y-92109467D01*
X86651600Y-92170244D01*
X86846895Y-92193532D01*
X86853030Y-92193060D01*
X86853032Y-92193060D01*
X87036852Y-92178916D01*
X87036856Y-92178915D01*
X87042994Y-92178443D01*
X87232428Y-92125552D01*
X87237932Y-92122772D01*
X87237934Y-92122771D01*
X87402480Y-92039653D01*
X87402482Y-92039652D01*
X87407981Y-92036874D01*
X87562966Y-91915786D01*
X87566992Y-91911122D01*
X87566995Y-91911119D01*
X87687451Y-91771569D01*
X87687452Y-91771567D01*
X87691480Y-91766901D01*
X87788628Y-91595890D01*
X87850710Y-91409266D01*
X87875360Y-91214138D01*
X87875753Y-91186000D01*
X87874373Y-91171930D01*
X88400345Y-91171930D01*
X88403889Y-91214138D01*
X88411857Y-91309015D01*
X88416803Y-91367919D01*
X88418502Y-91373844D01*
X88444222Y-91463539D01*
X88471015Y-91556979D01*
X88473830Y-91562456D01*
X88473831Y-91562459D01*
X88555073Y-91720539D01*
X88560916Y-91731908D01*
X88564739Y-91736732D01*
X88564742Y-91736736D01*
X88588651Y-91766901D01*
X88683083Y-91886044D01*
X88687777Y-91890038D01*
X88687777Y-91890039D01*
X88790686Y-91977621D01*
X88832862Y-92013516D01*
X88838240Y-92016522D01*
X88838242Y-92016523D01*
X88872198Y-92035500D01*
X89004547Y-92109467D01*
X89191600Y-92170244D01*
X89386895Y-92193532D01*
X89393030Y-92193060D01*
X89393032Y-92193060D01*
X89576852Y-92178916D01*
X89576856Y-92178915D01*
X89582994Y-92178443D01*
X89772428Y-92125552D01*
X89777932Y-92122772D01*
X89777934Y-92122771D01*
X89942480Y-92039653D01*
X89942482Y-92039652D01*
X89947981Y-92036874D01*
X89955880Y-92030703D01*
X90023821Y-91977621D01*
X90053927Y-91954100D01*
X90119921Y-91927922D01*
X90189591Y-91941579D01*
X90240818Y-91990735D01*
X90257500Y-92053389D01*
X90257500Y-102406314D01*
X90237498Y-102474435D01*
X90220595Y-102495409D01*
X88744578Y-103971425D01*
X88739794Y-103975966D01*
X88710514Y-104002330D01*
X88702074Y-104021286D01*
X88692642Y-104038658D01*
X88688551Y-104044957D01*
X88688550Y-104044959D01*
X88681339Y-104056064D01*
X88679268Y-104069143D01*
X88677381Y-104074058D01*
X88676287Y-104079204D01*
X88670900Y-104091303D01*
X88670900Y-104112053D01*
X88669349Y-104131764D01*
X88666103Y-104152258D01*
X88669530Y-104165047D01*
X88670223Y-104178275D01*
X88669787Y-104178298D01*
X88670900Y-104186750D01*
X88670900Y-107940718D01*
X88670727Y-107947312D01*
X88668666Y-107986639D01*
X88676103Y-108006014D01*
X88681715Y-108024962D01*
X88682636Y-108029292D01*
X88686031Y-108045265D01*
X88693813Y-108055976D01*
X88695954Y-108060784D01*
X88698823Y-108065201D01*
X88703568Y-108077564D01*
X88718239Y-108092235D01*
X88731080Y-108107269D01*
X88743278Y-108124058D01*
X88754745Y-108130678D01*
X88764588Y-108139541D01*
X88764296Y-108139866D01*
X88771060Y-108145056D01*
X89470660Y-108844656D01*
X89504686Y-108906968D01*
X89506013Y-108953463D01*
X89505579Y-108956203D01*
X89505579Y-108956207D01*
X89504028Y-108966000D01*
X89524191Y-109093306D01*
X89582708Y-109208151D01*
X89673849Y-109299292D01*
X89788694Y-109357809D01*
X89916000Y-109377972D01*
X90043306Y-109357809D01*
X90158151Y-109299292D01*
X90249292Y-109208151D01*
X90307809Y-109093306D01*
X90327972Y-108966000D01*
X90307809Y-108838694D01*
X90249292Y-108723849D01*
X90158151Y-108632708D01*
X90043306Y-108574191D01*
X89916000Y-108554028D01*
X89906208Y-108555579D01*
X89906206Y-108555579D01*
X89903466Y-108556013D01*
X89900107Y-108555579D01*
X89896289Y-108555579D01*
X89896289Y-108555086D01*
X89833055Y-108546916D01*
X89794656Y-108520660D01*
X89166004Y-107892007D01*
X89131979Y-107829695D01*
X89129100Y-107802912D01*
X89129100Y-106426000D01*
X93314028Y-106426000D01*
X93334191Y-106553306D01*
X93392708Y-106668151D01*
X93483849Y-106759292D01*
X93598694Y-106817809D01*
X93726000Y-106837972D01*
X93735792Y-106836421D01*
X93735797Y-106836421D01*
X93738537Y-106835987D01*
X93741896Y-106836421D01*
X93745711Y-106836421D01*
X93745711Y-106836914D01*
X93808948Y-106845085D01*
X93847344Y-106871340D01*
X95692440Y-108716437D01*
X97523995Y-110547992D01*
X97558021Y-110610304D01*
X97560900Y-110637087D01*
X97560900Y-111615467D01*
X97540898Y-111683588D01*
X97523995Y-111704562D01*
X97456708Y-111771849D01*
X97398191Y-111886694D01*
X97378028Y-112014000D01*
X97398191Y-112141306D01*
X97456708Y-112256151D01*
X97547849Y-112347292D01*
X97662694Y-112405809D01*
X97790000Y-112425972D01*
X97917306Y-112405809D01*
X98032151Y-112347292D01*
X98123292Y-112256151D01*
X98181809Y-112141306D01*
X98201972Y-112014000D01*
X105506028Y-112014000D01*
X105526191Y-112141306D01*
X105584708Y-112256151D01*
X105675849Y-112347292D01*
X105790694Y-112405809D01*
X105918000Y-112425972D01*
X106045306Y-112405809D01*
X106160151Y-112347292D01*
X106251292Y-112256151D01*
X106309809Y-112141306D01*
X106329972Y-112014000D01*
X106328421Y-112004203D01*
X106327987Y-112001466D01*
X106328421Y-111998107D01*
X106328421Y-111994289D01*
X106328914Y-111994289D01*
X106337084Y-111931055D01*
X106363340Y-111892656D01*
X106966593Y-111289404D01*
X107028905Y-111255379D01*
X107055688Y-111252500D01*
X121885318Y-111252500D01*
X121891912Y-111252673D01*
X121918013Y-111254041D01*
X121918014Y-111254041D01*
X121931239Y-111254734D01*
X121950614Y-111247297D01*
X121969562Y-111241685D01*
X121976911Y-111240123D01*
X121976912Y-111240122D01*
X121989865Y-111237369D01*
X122000576Y-111229587D01*
X122005384Y-111227446D01*
X122009801Y-111224577D01*
X122022164Y-111219832D01*
X122036835Y-111205161D01*
X122051869Y-111192320D01*
X122057946Y-111187905D01*
X122057946Y-111187904D01*
X122068658Y-111180122D01*
X122075278Y-111168655D01*
X122084141Y-111158812D01*
X122084466Y-111159104D01*
X122089656Y-111152340D01*
X123830656Y-109411340D01*
X123892968Y-109377314D01*
X123939463Y-109375987D01*
X123942203Y-109376421D01*
X123942208Y-109376421D01*
X123952000Y-109377972D01*
X124079306Y-109357809D01*
X124194151Y-109299292D01*
X124285292Y-109208151D01*
X124343809Y-109093306D01*
X124363972Y-108966000D01*
X124343809Y-108838694D01*
X124285292Y-108723849D01*
X124218005Y-108656562D01*
X124183979Y-108594250D01*
X124181100Y-108567467D01*
X124181100Y-105419282D01*
X124181273Y-105412688D01*
X124182641Y-105386587D01*
X124182641Y-105386586D01*
X124183334Y-105373360D01*
X124175900Y-105353993D01*
X124170283Y-105335031D01*
X124168723Y-105327691D01*
X124168723Y-105327690D01*
X124165969Y-105314735D01*
X124158185Y-105304022D01*
X124156044Y-105299213D01*
X124153177Y-105294799D01*
X124148432Y-105282436D01*
X124133761Y-105267765D01*
X124120920Y-105252731D01*
X124116505Y-105246654D01*
X124116504Y-105246654D01*
X124108722Y-105235942D01*
X124097255Y-105229322D01*
X124087412Y-105220459D01*
X124087704Y-105220134D01*
X124080940Y-105214944D01*
X121095340Y-102229344D01*
X121061314Y-102167032D01*
X121059987Y-102120537D01*
X121060421Y-102117797D01*
X121060421Y-102117792D01*
X121061972Y-102108000D01*
X121041809Y-101980694D01*
X120983292Y-101865849D01*
X120892151Y-101774708D01*
X120777306Y-101716191D01*
X120650000Y-101696028D01*
X120522694Y-101716191D01*
X120407849Y-101774708D01*
X120316708Y-101865849D01*
X120258191Y-101980694D01*
X120238028Y-102108000D01*
X120258191Y-102235306D01*
X120316708Y-102350151D01*
X120407849Y-102441292D01*
X120522694Y-102499809D01*
X120532487Y-102501360D01*
X120619252Y-102515102D01*
X120650000Y-102519972D01*
X120659792Y-102518421D01*
X120659797Y-102518421D01*
X120662537Y-102517987D01*
X120665896Y-102518421D01*
X120669711Y-102518421D01*
X120669711Y-102518914D01*
X120732948Y-102527085D01*
X120771344Y-102553340D01*
X123685995Y-105467991D01*
X123720021Y-105530303D01*
X123722900Y-105557086D01*
X123722900Y-108567467D01*
X123702898Y-108635588D01*
X123685995Y-108656562D01*
X123618708Y-108723849D01*
X123560191Y-108838694D01*
X123540028Y-108966000D01*
X123541579Y-108975792D01*
X123541579Y-108975797D01*
X123542013Y-108978537D01*
X123541579Y-108981896D01*
X123541579Y-108985711D01*
X123541086Y-108985711D01*
X123532915Y-109048948D01*
X123506660Y-109087344D01*
X121836608Y-110757395D01*
X121774296Y-110791421D01*
X121747513Y-110794300D01*
X106917882Y-110794300D01*
X106911288Y-110794127D01*
X106885187Y-110792759D01*
X106885186Y-110792759D01*
X106871961Y-110792066D01*
X106852586Y-110799503D01*
X106833638Y-110805115D01*
X106826289Y-110806677D01*
X106826288Y-110806678D01*
X106813335Y-110809431D01*
X106802624Y-110817213D01*
X106797816Y-110819354D01*
X106793399Y-110822223D01*
X106781036Y-110826968D01*
X106766365Y-110841639D01*
X106751331Y-110854480D01*
X106734542Y-110866678D01*
X106727922Y-110878145D01*
X106719059Y-110887988D01*
X106718734Y-110887696D01*
X106713544Y-110894460D01*
X106039344Y-111568660D01*
X105977032Y-111602686D01*
X105930537Y-111604013D01*
X105927797Y-111603579D01*
X105927792Y-111603579D01*
X105918000Y-111602028D01*
X105790694Y-111622191D01*
X105675849Y-111680708D01*
X105584708Y-111771849D01*
X105526191Y-111886694D01*
X105506028Y-112014000D01*
X98201972Y-112014000D01*
X98181809Y-111886694D01*
X98123292Y-111771849D01*
X98056005Y-111704562D01*
X98021979Y-111642250D01*
X98019100Y-111615467D01*
X98019100Y-110499282D01*
X98019273Y-110492688D01*
X98020641Y-110466587D01*
X98020641Y-110466586D01*
X98021334Y-110453361D01*
X98013897Y-110433986D01*
X98008285Y-110415038D01*
X98006723Y-110407689D01*
X98006722Y-110407688D01*
X98003969Y-110394735D01*
X97996187Y-110384024D01*
X97994046Y-110379216D01*
X97991177Y-110374799D01*
X97986432Y-110362436D01*
X97971761Y-110347765D01*
X97958920Y-110332731D01*
X97954505Y-110326654D01*
X97954504Y-110326654D01*
X97946722Y-110315942D01*
X97935255Y-110309322D01*
X97925412Y-110300459D01*
X97925704Y-110300134D01*
X97918940Y-110294944D01*
X94171340Y-106547343D01*
X94137314Y-106485031D01*
X94135987Y-106438534D01*
X94136421Y-106435794D01*
X94136421Y-106435792D01*
X94137972Y-106426000D01*
X94117809Y-106298694D01*
X94059292Y-106183849D01*
X93968151Y-106092708D01*
X93853306Y-106034191D01*
X93726000Y-106014028D01*
X93598694Y-106034191D01*
X93483849Y-106092708D01*
X93392708Y-106183849D01*
X93334191Y-106298694D01*
X93314028Y-106426000D01*
X89129100Y-106426000D01*
X89129100Y-105756733D01*
X89149102Y-105688612D01*
X89202758Y-105642119D01*
X89273032Y-105632015D01*
X89337612Y-105661509D01*
X89344195Y-105667638D01*
X89419849Y-105743292D01*
X89534694Y-105801809D01*
X89662000Y-105821972D01*
X89789306Y-105801809D01*
X89904151Y-105743292D01*
X89971438Y-105676005D01*
X90033750Y-105641979D01*
X90060533Y-105639100D01*
X96501388Y-105639100D01*
X96514558Y-105639790D01*
X96531310Y-105641551D01*
X96531312Y-105641551D01*
X96544482Y-105642935D01*
X96555334Y-105639409D01*
X96561232Y-105639100D01*
X117200914Y-105639100D01*
X117269035Y-105659102D01*
X117290009Y-105676005D01*
X120966660Y-109352657D01*
X121000686Y-109414969D01*
X121002013Y-109461466D01*
X121000028Y-109474000D01*
X121001579Y-109483793D01*
X121020191Y-109601306D01*
X121017878Y-109601672D01*
X121019515Y-109658928D01*
X120982854Y-109719727D01*
X120919143Y-109751054D01*
X120897654Y-109752900D01*
X106824533Y-109752900D01*
X106756412Y-109732898D01*
X106735438Y-109715995D01*
X106668151Y-109648708D01*
X106553306Y-109590191D01*
X106426000Y-109570028D01*
X106298694Y-109590191D01*
X106183849Y-109648708D01*
X106092708Y-109739849D01*
X106034191Y-109854694D01*
X106014028Y-109982000D01*
X106034191Y-110109306D01*
X106092708Y-110224151D01*
X106183849Y-110315292D01*
X106298694Y-110373809D01*
X106426000Y-110393972D01*
X106553306Y-110373809D01*
X106668151Y-110315292D01*
X106735438Y-110248005D01*
X106797750Y-110213979D01*
X106824533Y-110211100D01*
X121577218Y-110211100D01*
X121583812Y-110211273D01*
X121609913Y-110212641D01*
X121609914Y-110212641D01*
X121623139Y-110213334D01*
X121642514Y-110205897D01*
X121661462Y-110200285D01*
X121668811Y-110198723D01*
X121668812Y-110198722D01*
X121681765Y-110195969D01*
X121692476Y-110188187D01*
X121697284Y-110186046D01*
X121701701Y-110183177D01*
X121714064Y-110178432D01*
X121728735Y-110163761D01*
X121743769Y-110150920D01*
X121749846Y-110146505D01*
X121749846Y-110146504D01*
X121760558Y-110138722D01*
X121767178Y-110127255D01*
X121776041Y-110117412D01*
X121776366Y-110117704D01*
X121781556Y-110110940D01*
X123091412Y-108801084D01*
X123096196Y-108796543D01*
X123115646Y-108779030D01*
X123125486Y-108770170D01*
X123130871Y-108758076D01*
X123130872Y-108758074D01*
X123133926Y-108751213D01*
X123143360Y-108733839D01*
X123154661Y-108716437D01*
X123156733Y-108703353D01*
X123158619Y-108698440D01*
X123159712Y-108693297D01*
X123165100Y-108681197D01*
X123165100Y-108660447D01*
X123166651Y-108640736D01*
X123167826Y-108633319D01*
X123167826Y-108633318D01*
X123169897Y-108620242D01*
X123166470Y-108607453D01*
X123165777Y-108594225D01*
X123166213Y-108594202D01*
X123165100Y-108585750D01*
X123165100Y-108094533D01*
X123185102Y-108026412D01*
X123202005Y-108005438D01*
X123269292Y-107938151D01*
X123327809Y-107823306D01*
X123347972Y-107696000D01*
X123327809Y-107568694D01*
X123269292Y-107453849D01*
X123178151Y-107362708D01*
X123063306Y-107304191D01*
X122936000Y-107284028D01*
X122926208Y-107285579D01*
X122926203Y-107285579D01*
X122923463Y-107286013D01*
X122920104Y-107285579D01*
X122916289Y-107285579D01*
X122916289Y-107285086D01*
X122853052Y-107276915D01*
X122814656Y-107250660D01*
X121324724Y-105760727D01*
X119802575Y-104238578D01*
X119798034Y-104233794D01*
X119771670Y-104204514D01*
X119752714Y-104196074D01*
X119735342Y-104186642D01*
X119729043Y-104182551D01*
X119729041Y-104182550D01*
X119717936Y-104175339D01*
X119704857Y-104173268D01*
X119699942Y-104171381D01*
X119694796Y-104170287D01*
X119682697Y-104164900D01*
X119661947Y-104164900D01*
X119642236Y-104163349D01*
X119634819Y-104162174D01*
X119634818Y-104162174D01*
X119621742Y-104160103D01*
X119608953Y-104163530D01*
X119595725Y-104164223D01*
X119595702Y-104163787D01*
X119587250Y-104164900D01*
X111907086Y-104164900D01*
X111838965Y-104144898D01*
X111817991Y-104127995D01*
X109411340Y-101721344D01*
X109377314Y-101659032D01*
X109375987Y-101612537D01*
X109376421Y-101609797D01*
X109376421Y-101609792D01*
X109377972Y-101600000D01*
X109357809Y-101472694D01*
X109299292Y-101357849D01*
X109208151Y-101266708D01*
X109093306Y-101208191D01*
X108966000Y-101188028D01*
X108838694Y-101208191D01*
X108723849Y-101266708D01*
X108632708Y-101357849D01*
X108574191Y-101472694D01*
X108554028Y-101600000D01*
X108574191Y-101727306D01*
X108632708Y-101842151D01*
X108723849Y-101933292D01*
X108838694Y-101991809D01*
X108966000Y-102011972D01*
X108975792Y-102010421D01*
X108975797Y-102010421D01*
X108978537Y-102009987D01*
X108981896Y-102010421D01*
X108985711Y-102010421D01*
X108985711Y-102010914D01*
X109048948Y-102019085D01*
X109087344Y-102045340D01*
X111591425Y-104549422D01*
X111595966Y-104554206D01*
X111622330Y-104583486D01*
X111641288Y-104591927D01*
X111658657Y-104601358D01*
X111676064Y-104612662D01*
X111689146Y-104614734D01*
X111694061Y-104616620D01*
X111699206Y-104617714D01*
X111711303Y-104623100D01*
X111732053Y-104623100D01*
X111751762Y-104624651D01*
X111759181Y-104625826D01*
X111759182Y-104625826D01*
X111772259Y-104627897D01*
X111785048Y-104624470D01*
X111798276Y-104623777D01*
X111798299Y-104624213D01*
X111806751Y-104623100D01*
X119486914Y-104623100D01*
X119555035Y-104643102D01*
X119576009Y-104660005D01*
X122490660Y-107574656D01*
X122524686Y-107636968D01*
X122526013Y-107683463D01*
X122525579Y-107686203D01*
X122525579Y-107686207D01*
X122524028Y-107696000D01*
X122544191Y-107823306D01*
X122602708Y-107938151D01*
X122669995Y-108005438D01*
X122704021Y-108067750D01*
X122706900Y-108094533D01*
X122706900Y-108485413D01*
X122686898Y-108553534D01*
X122669995Y-108574508D01*
X121958167Y-109286336D01*
X121895855Y-109320362D01*
X121825040Y-109315297D01*
X121768204Y-109272750D01*
X121756806Y-109254445D01*
X121749794Y-109240684D01*
X121749793Y-109240683D01*
X121745292Y-109231849D01*
X121654151Y-109140708D01*
X121539306Y-109082191D01*
X121412000Y-109062028D01*
X121402208Y-109063579D01*
X121402203Y-109063579D01*
X121399463Y-109064013D01*
X121396104Y-109063579D01*
X121392289Y-109063579D01*
X121392289Y-109063086D01*
X121329052Y-109054915D01*
X121290656Y-109028660D01*
X119423745Y-107161748D01*
X117516575Y-105254578D01*
X117512034Y-105249794D01*
X117509207Y-105246654D01*
X117485670Y-105220514D01*
X117466714Y-105212074D01*
X117449342Y-105202642D01*
X117443043Y-105198551D01*
X117443041Y-105198550D01*
X117431936Y-105191339D01*
X117418857Y-105189268D01*
X117413942Y-105187381D01*
X117408796Y-105186287D01*
X117396697Y-105180900D01*
X117375947Y-105180900D01*
X117356236Y-105179349D01*
X117348819Y-105178174D01*
X117348818Y-105178174D01*
X117335742Y-105176103D01*
X117322953Y-105179530D01*
X117309725Y-105180223D01*
X117309702Y-105179787D01*
X117301250Y-105180900D01*
X96875100Y-105180900D01*
X96806979Y-105160898D01*
X96760486Y-105107242D01*
X96749100Y-105054900D01*
X96749100Y-93616533D01*
X96769102Y-93548412D01*
X96786005Y-93527438D01*
X96853292Y-93460151D01*
X96911809Y-93345306D01*
X96931972Y-93218000D01*
X101188028Y-93218000D01*
X101208191Y-93345306D01*
X101266708Y-93460151D01*
X101357849Y-93551292D01*
X101472694Y-93609809D01*
X101600000Y-93629972D01*
X101727306Y-93609809D01*
X101842151Y-93551292D01*
X101909438Y-93484005D01*
X101971750Y-93449979D01*
X101998533Y-93447100D01*
X120931414Y-93447100D01*
X120999535Y-93467102D01*
X121020509Y-93484005D01*
X130876337Y-103339833D01*
X130910363Y-103402145D01*
X130905298Y-103472960D01*
X130862751Y-103529796D01*
X130844444Y-103541195D01*
X130830683Y-103548206D01*
X130830679Y-103548209D01*
X130821849Y-103552708D01*
X130754562Y-103619995D01*
X130692250Y-103654021D01*
X130665467Y-103656900D01*
X127517289Y-103656900D01*
X127510696Y-103656727D01*
X127484587Y-103655359D01*
X127471361Y-103654666D01*
X127451986Y-103662103D01*
X127433038Y-103667715D01*
X127425689Y-103669277D01*
X127425688Y-103669278D01*
X127412735Y-103672031D01*
X127402024Y-103679813D01*
X127397216Y-103681954D01*
X127392799Y-103684823D01*
X127380436Y-103689568D01*
X127365765Y-103704239D01*
X127350731Y-103717080D01*
X127333942Y-103729278D01*
X127327322Y-103740745D01*
X127318459Y-103750588D01*
X127318134Y-103750296D01*
X127312944Y-103757060D01*
X126867344Y-104202660D01*
X126805032Y-104236686D01*
X126758537Y-104238013D01*
X126755797Y-104237579D01*
X126755792Y-104237579D01*
X126746000Y-104236028D01*
X126736207Y-104237579D01*
X126682347Y-104246109D01*
X126618694Y-104256191D01*
X126503849Y-104314708D01*
X126412708Y-104405849D01*
X126354191Y-104520694D01*
X126349641Y-104549422D01*
X126336953Y-104629535D01*
X126334028Y-104648000D01*
X126354191Y-104775306D01*
X126412708Y-104890151D01*
X126503849Y-104981292D01*
X126618694Y-105039809D01*
X126746000Y-105059972D01*
X126873306Y-105039809D01*
X126988151Y-104981292D01*
X127079292Y-104890151D01*
X127137809Y-104775306D01*
X127157972Y-104648000D01*
X127155987Y-104635466D01*
X127156421Y-104632107D01*
X127156421Y-104628289D01*
X127156914Y-104628289D01*
X127165084Y-104565055D01*
X127191340Y-104526656D01*
X127565993Y-104152004D01*
X127628305Y-104117979D01*
X127655088Y-104115100D01*
X130665467Y-104115100D01*
X130733588Y-104135102D01*
X130754561Y-104152004D01*
X130821849Y-104219292D01*
X130936694Y-104277809D01*
X131064000Y-104297972D01*
X131191306Y-104277809D01*
X131306151Y-104219292D01*
X131397292Y-104128151D01*
X131401791Y-104119321D01*
X131401794Y-104119317D01*
X131408805Y-104105556D01*
X131457552Y-104053940D01*
X131526467Y-104036874D01*
X131593669Y-104059774D01*
X131610167Y-104073663D01*
X132575995Y-105039491D01*
X132610021Y-105101803D01*
X132612900Y-105128586D01*
X132612900Y-105265467D01*
X132592898Y-105333588D01*
X132575995Y-105354562D01*
X132508708Y-105421849D01*
X132450191Y-105536694D01*
X132448640Y-105546487D01*
X132433584Y-105641551D01*
X132430028Y-105664000D01*
X132450191Y-105791306D01*
X132508708Y-105906151D01*
X132599849Y-105997292D01*
X132714694Y-106055809D01*
X132842000Y-106075972D01*
X132969306Y-106055809D01*
X133084151Y-105997292D01*
X133175292Y-105906151D01*
X133233809Y-105791306D01*
X133253972Y-105664000D01*
X133250417Y-105641551D01*
X133235360Y-105546487D01*
X133233809Y-105536694D01*
X133175292Y-105421849D01*
X133108005Y-105354562D01*
X133073979Y-105292250D01*
X133071100Y-105265467D01*
X133071100Y-104990782D01*
X133071273Y-104984188D01*
X133072641Y-104958087D01*
X133072641Y-104958086D01*
X133073334Y-104944860D01*
X133065900Y-104925493D01*
X133060283Y-104906531D01*
X133058723Y-104899191D01*
X133058723Y-104899190D01*
X133055969Y-104886235D01*
X133048185Y-104875522D01*
X133046044Y-104870713D01*
X133043177Y-104866299D01*
X133038432Y-104853936D01*
X133023761Y-104839265D01*
X133010920Y-104824231D01*
X133006505Y-104818154D01*
X133006504Y-104818154D01*
X132998722Y-104807442D01*
X132987255Y-104800822D01*
X132977412Y-104791959D01*
X132977704Y-104791634D01*
X132970940Y-104786444D01*
X121247075Y-93062578D01*
X121242534Y-93057794D01*
X121216170Y-93028514D01*
X121197214Y-93020074D01*
X121179842Y-93010642D01*
X121173543Y-93006551D01*
X121173541Y-93006550D01*
X121162436Y-92999339D01*
X121149357Y-92997268D01*
X121144442Y-92995381D01*
X121139296Y-92994287D01*
X121127197Y-92988900D01*
X121106447Y-92988900D01*
X121086736Y-92987349D01*
X121079319Y-92986174D01*
X121079318Y-92986174D01*
X121066242Y-92984103D01*
X121053453Y-92987530D01*
X121040225Y-92988223D01*
X121040202Y-92987787D01*
X121031750Y-92988900D01*
X101998533Y-92988900D01*
X101930412Y-92968898D01*
X101909438Y-92951995D01*
X101842151Y-92884708D01*
X101727306Y-92826191D01*
X101600000Y-92806028D01*
X101472694Y-92826191D01*
X101357849Y-92884708D01*
X101266708Y-92975849D01*
X101208191Y-93090694D01*
X101188028Y-93218000D01*
X96931972Y-93218000D01*
X96911809Y-93090694D01*
X96853292Y-92975849D01*
X96762151Y-92884708D01*
X96647306Y-92826191D01*
X96520000Y-92806028D01*
X96392694Y-92826191D01*
X96277849Y-92884708D01*
X96186708Y-92975849D01*
X96128191Y-93090694D01*
X96108028Y-93218000D01*
X96128191Y-93345306D01*
X96186708Y-93460151D01*
X96253995Y-93527438D01*
X96288021Y-93589750D01*
X96290900Y-93616533D01*
X96290900Y-105054900D01*
X96270898Y-105123021D01*
X96217242Y-105169514D01*
X96164900Y-105180900D01*
X90060533Y-105180900D01*
X89992412Y-105160898D01*
X89971438Y-105143995D01*
X89904151Y-105076708D01*
X89789306Y-105018191D01*
X89662000Y-104998028D01*
X89534694Y-105018191D01*
X89419849Y-105076708D01*
X89344195Y-105152362D01*
X89281883Y-105186388D01*
X89211068Y-105181323D01*
X89154232Y-105138776D01*
X89129421Y-105072256D01*
X89129100Y-105063267D01*
X89129100Y-104287086D01*
X89149102Y-104218965D01*
X89166005Y-104197991D01*
X90642012Y-102721984D01*
X90646796Y-102717443D01*
X90666246Y-102699930D01*
X90676086Y-102691070D01*
X90681471Y-102678976D01*
X90681472Y-102678974D01*
X90684526Y-102672113D01*
X90693960Y-102654739D01*
X90705261Y-102637337D01*
X90707333Y-102624253D01*
X90709219Y-102619340D01*
X90710312Y-102614197D01*
X90715700Y-102602097D01*
X90715700Y-102581347D01*
X90717251Y-102561636D01*
X90718426Y-102554219D01*
X90718426Y-102554218D01*
X90720497Y-102541142D01*
X90717070Y-102528353D01*
X90716377Y-102515125D01*
X90716813Y-102515102D01*
X90715700Y-102506650D01*
X90715700Y-91423629D01*
X90735702Y-91355508D01*
X90789358Y-91309015D01*
X90859632Y-91298911D01*
X90924212Y-91328405D01*
X90962819Y-91388899D01*
X90968659Y-91409266D01*
X90984222Y-91463539D01*
X91011015Y-91556979D01*
X91013830Y-91562456D01*
X91013831Y-91562459D01*
X91095073Y-91720539D01*
X91100916Y-91731908D01*
X91104739Y-91736732D01*
X91104742Y-91736736D01*
X91128651Y-91766901D01*
X91223083Y-91886044D01*
X91227777Y-91890038D01*
X91227777Y-91890039D01*
X91330686Y-91977621D01*
X91372862Y-92013516D01*
X91378240Y-92016522D01*
X91378242Y-92016523D01*
X91412198Y-92035500D01*
X91544547Y-92109467D01*
X91731600Y-92170244D01*
X91926895Y-92193532D01*
X91933030Y-92193060D01*
X91933032Y-92193060D01*
X92116852Y-92178916D01*
X92116856Y-92178915D01*
X92122994Y-92178443D01*
X92312428Y-92125552D01*
X92397866Y-92082394D01*
X92467685Y-92069535D01*
X92533376Y-92096464D01*
X92543769Y-92105766D01*
X92858025Y-92420022D01*
X92862566Y-92424806D01*
X92888930Y-92454086D01*
X92907888Y-92462527D01*
X92925257Y-92471958D01*
X92942664Y-92483262D01*
X92955746Y-92485334D01*
X92960661Y-92487220D01*
X92965806Y-92488314D01*
X92977903Y-92493700D01*
X92998653Y-92493700D01*
X93018362Y-92495251D01*
X93025781Y-92496426D01*
X93025782Y-92496426D01*
X93038859Y-92498497D01*
X93051648Y-92495070D01*
X93064876Y-92494377D01*
X93064899Y-92494813D01*
X93073351Y-92493700D01*
X121327514Y-92493700D01*
X121395635Y-92513702D01*
X121416609Y-92530605D01*
X134861995Y-105975991D01*
X134896021Y-106038303D01*
X134898900Y-106065086D01*
X134898900Y-108818914D01*
X134878898Y-108887035D01*
X134861995Y-108908009D01*
X132201344Y-111568660D01*
X132139032Y-111602686D01*
X132092537Y-111604013D01*
X132089797Y-111603579D01*
X132089792Y-111603579D01*
X132080000Y-111602028D01*
X131952694Y-111622191D01*
X131837849Y-111680708D01*
X131746708Y-111771849D01*
X131688191Y-111886694D01*
X131668028Y-112014000D01*
X131688191Y-112141306D01*
X131746708Y-112256151D01*
X131813995Y-112323438D01*
X131848021Y-112385750D01*
X131850900Y-112412533D01*
X131850900Y-113274718D01*
X131850727Y-113281312D01*
X131848666Y-113320639D01*
X131856103Y-113340014D01*
X131861715Y-113358962D01*
X131866031Y-113379265D01*
X131873813Y-113389976D01*
X131875954Y-113394784D01*
X131878823Y-113399201D01*
X131883568Y-113411564D01*
X131898239Y-113426235D01*
X131911080Y-113441269D01*
X131923278Y-113458058D01*
X131934745Y-113464678D01*
X131944588Y-113473541D01*
X131944296Y-113473866D01*
X131951060Y-113479056D01*
X145350660Y-126878656D01*
X145384686Y-126940968D01*
X145386013Y-126987463D01*
X145385579Y-126990203D01*
X145385579Y-126990207D01*
X145384028Y-127000000D01*
X145404191Y-127127306D01*
X145462708Y-127242151D01*
X145553849Y-127333292D01*
X145668694Y-127391809D01*
X145796000Y-127411972D01*
X145923306Y-127391809D01*
X146038151Y-127333292D01*
X146129292Y-127242151D01*
X146187809Y-127127306D01*
X146207972Y-127000000D01*
X146187809Y-126872694D01*
X146129292Y-126757849D01*
X146038151Y-126666708D01*
X145923306Y-126608191D01*
X145796000Y-126588028D01*
X145786208Y-126589579D01*
X145786203Y-126589579D01*
X145783463Y-126590013D01*
X145780104Y-126589579D01*
X145776289Y-126589579D01*
X145776289Y-126589086D01*
X145713052Y-126580915D01*
X145674656Y-126554660D01*
X132346005Y-113226008D01*
X132311979Y-113163696D01*
X132309100Y-113136913D01*
X132309100Y-112412533D01*
X132329102Y-112344412D01*
X132346005Y-112323438D01*
X132413292Y-112256151D01*
X132471809Y-112141306D01*
X132491972Y-112014000D01*
X143352028Y-112014000D01*
X143372191Y-112141306D01*
X143430708Y-112256151D01*
X143521849Y-112347292D01*
X143636694Y-112405809D01*
X143764000Y-112425972D01*
X143891306Y-112405809D01*
X144006151Y-112347292D01*
X144073438Y-112280005D01*
X144135750Y-112245979D01*
X144162533Y-112243100D01*
X146921467Y-112243100D01*
X146989588Y-112263102D01*
X147010562Y-112280005D01*
X147077849Y-112347292D01*
X147192694Y-112405809D01*
X147320000Y-112425972D01*
X147447306Y-112405809D01*
X147562151Y-112347292D01*
X147653292Y-112256151D01*
X147711809Y-112141306D01*
X147731972Y-112014000D01*
X147711809Y-111886694D01*
X147653292Y-111771849D01*
X147562151Y-111680708D01*
X147447306Y-111622191D01*
X147320000Y-111602028D01*
X147192694Y-111622191D01*
X147077849Y-111680708D01*
X147010562Y-111747995D01*
X146948250Y-111782021D01*
X146921467Y-111784900D01*
X144162533Y-111784900D01*
X144094412Y-111764898D01*
X144073438Y-111747995D01*
X144006151Y-111680708D01*
X143891306Y-111622191D01*
X143764000Y-111602028D01*
X143636694Y-111622191D01*
X143521849Y-111680708D01*
X143430708Y-111771849D01*
X143372191Y-111886694D01*
X143352028Y-112014000D01*
X132491972Y-112014000D01*
X132490421Y-112004206D01*
X132490421Y-112004203D01*
X132489987Y-112001463D01*
X132490421Y-111998104D01*
X132490421Y-111994289D01*
X132490914Y-111994289D01*
X132499085Y-111931052D01*
X132525340Y-111892656D01*
X133887067Y-110530930D01*
X135283422Y-109134575D01*
X135288206Y-109130034D01*
X135317486Y-109103670D01*
X135325927Y-109084712D01*
X135335358Y-109067343D01*
X135339450Y-109061042D01*
X135339450Y-109061041D01*
X135346662Y-109049936D01*
X135348734Y-109036858D01*
X135350618Y-109031949D01*
X135351713Y-109026796D01*
X135357100Y-109014697D01*
X135357100Y-108993947D01*
X135358651Y-108974237D01*
X135359826Y-108966819D01*
X135359826Y-108966818D01*
X135361897Y-108953742D01*
X135358470Y-108940953D01*
X135357777Y-108927725D01*
X135358213Y-108927702D01*
X135357100Y-108919250D01*
X135357100Y-105927282D01*
X135357273Y-105920688D01*
X135358641Y-105894588D01*
X135358641Y-105894587D01*
X135359334Y-105881360D01*
X135351899Y-105861991D01*
X135346286Y-105843040D01*
X135344724Y-105835693D01*
X135344723Y-105835690D01*
X135341969Y-105822735D01*
X135334183Y-105812019D01*
X135332043Y-105807212D01*
X135329179Y-105802802D01*
X135324432Y-105790435D01*
X135309758Y-105775761D01*
X135296917Y-105760727D01*
X135292504Y-105754653D01*
X135284722Y-105743942D01*
X135273257Y-105737323D01*
X135263412Y-105728458D01*
X135263704Y-105728134D01*
X135256941Y-105722944D01*
X121643175Y-92109178D01*
X121638634Y-92104394D01*
X121612270Y-92075114D01*
X121593314Y-92066674D01*
X121575942Y-92057242D01*
X121569643Y-92053151D01*
X121569641Y-92053150D01*
X121558536Y-92045939D01*
X121545457Y-92043868D01*
X121540542Y-92041981D01*
X121535396Y-92040887D01*
X121523297Y-92035500D01*
X121502547Y-92035500D01*
X121482836Y-92033949D01*
X121475419Y-92032774D01*
X121475418Y-92032774D01*
X121462342Y-92030703D01*
X121449553Y-92034130D01*
X121436325Y-92034823D01*
X121436302Y-92034387D01*
X121427850Y-92035500D01*
X110856900Y-92035500D01*
X110788779Y-92015498D01*
X110742286Y-91961842D01*
X110730900Y-91909500D01*
X110730899Y-90327133D01*
X110730899Y-90320944D01*
X110722028Y-90276342D01*
X110711055Y-90259919D01*
X110695127Y-90236082D01*
X110688234Y-90225766D01*
X110677918Y-90218873D01*
X110647975Y-90198865D01*
X110647972Y-90198864D01*
X110637658Y-90191972D01*
X110625491Y-90189552D01*
X110625489Y-90189551D01*
X110607257Y-90185925D01*
X110593057Y-90183100D01*
X109728140Y-90183100D01*
X108862944Y-90183101D01*
X108847287Y-90186215D01*
X108830517Y-90189550D01*
X108830515Y-90189551D01*
X108818342Y-90191972D01*
X108767766Y-90225766D01*
X108760873Y-90236082D01*
X108740865Y-90266025D01*
X108740864Y-90266028D01*
X108733972Y-90276342D01*
X108725100Y-90320943D01*
X108725101Y-91178073D01*
X108725101Y-91909500D01*
X108705099Y-91977621D01*
X108651443Y-92024114D01*
X108599101Y-92035500D01*
X108054839Y-92035500D01*
X107986718Y-92015498D01*
X107940225Y-91961842D01*
X107930121Y-91891568D01*
X107959458Y-91827169D01*
X108007451Y-91771569D01*
X108007452Y-91771567D01*
X108011480Y-91766901D01*
X108108628Y-91595890D01*
X108170710Y-91409266D01*
X108195360Y-91214138D01*
X108195753Y-91186000D01*
X108176561Y-90990260D01*
X108119714Y-90801975D01*
X108060297Y-90690228D01*
X108030273Y-90633760D01*
X108030271Y-90633757D01*
X108027379Y-90628318D01*
X108023489Y-90623548D01*
X108023486Y-90623544D01*
X107906967Y-90480678D01*
X107906964Y-90480675D01*
X107903072Y-90475903D01*
X107886422Y-90462129D01*
X107756278Y-90354464D01*
X107756274Y-90354462D01*
X107751528Y-90350535D01*
X107578520Y-90256990D01*
X107390637Y-90198830D01*
X107384519Y-90198187D01*
X107384514Y-90198186D01*
X107201164Y-90178916D01*
X107201162Y-90178916D01*
X107195035Y-90178272D01*
X107128720Y-90184307D01*
X107005305Y-90195538D01*
X107005302Y-90195539D01*
X106999166Y-90196097D01*
X106810489Y-90251628D01*
X106636192Y-90342748D01*
X106482912Y-90465988D01*
X106478954Y-90470705D01*
X106478952Y-90470707D01*
X106447115Y-90508649D01*
X106356489Y-90616653D01*
X106261739Y-90789004D01*
X106259878Y-90794871D01*
X106259877Y-90794873D01*
X106257624Y-90801975D01*
X106202269Y-90976476D01*
X106180345Y-91171930D01*
X106183889Y-91214138D01*
X106191857Y-91309015D01*
X106196803Y-91367919D01*
X106198502Y-91373844D01*
X106224222Y-91463539D01*
X106251015Y-91556979D01*
X106253830Y-91562456D01*
X106253831Y-91562459D01*
X106335073Y-91720539D01*
X106340916Y-91731908D01*
X106344739Y-91736732D01*
X106344742Y-91736736D01*
X106419642Y-91831235D01*
X106446280Y-91897045D01*
X106433109Y-91966809D01*
X106384312Y-92018378D01*
X106320897Y-92035500D01*
X105514839Y-92035500D01*
X105446718Y-92015498D01*
X105400225Y-91961842D01*
X105390121Y-91891568D01*
X105419458Y-91827169D01*
X105467451Y-91771569D01*
X105467452Y-91771567D01*
X105471480Y-91766901D01*
X105568628Y-91595890D01*
X105630710Y-91409266D01*
X105655360Y-91214138D01*
X105655753Y-91186000D01*
X105636561Y-90990260D01*
X105579714Y-90801975D01*
X105520297Y-90690228D01*
X105490273Y-90633760D01*
X105490271Y-90633757D01*
X105487379Y-90628318D01*
X105483489Y-90623548D01*
X105483486Y-90623544D01*
X105366967Y-90480678D01*
X105366964Y-90480675D01*
X105363072Y-90475903D01*
X105346422Y-90462129D01*
X105216278Y-90354464D01*
X105216274Y-90354462D01*
X105211528Y-90350535D01*
X105038520Y-90256990D01*
X104850637Y-90198830D01*
X104844519Y-90198187D01*
X104844514Y-90198186D01*
X104661164Y-90178916D01*
X104661162Y-90178916D01*
X104655035Y-90178272D01*
X104588720Y-90184307D01*
X104465305Y-90195538D01*
X104465302Y-90195539D01*
X104459166Y-90196097D01*
X104270489Y-90251628D01*
X104096192Y-90342748D01*
X103942912Y-90465988D01*
X103938954Y-90470705D01*
X103938952Y-90470707D01*
X103907115Y-90508649D01*
X103816489Y-90616653D01*
X103721739Y-90789004D01*
X103719878Y-90794871D01*
X103719877Y-90794873D01*
X103717624Y-90801975D01*
X103662269Y-90976476D01*
X103640345Y-91171930D01*
X103643889Y-91214138D01*
X103651857Y-91309015D01*
X103656803Y-91367919D01*
X103658502Y-91373844D01*
X103684222Y-91463539D01*
X103711015Y-91556979D01*
X103713830Y-91562456D01*
X103713831Y-91562459D01*
X103795073Y-91720539D01*
X103800916Y-91731908D01*
X103804739Y-91736732D01*
X103804742Y-91736736D01*
X103879642Y-91831235D01*
X103906280Y-91897045D01*
X103893109Y-91966809D01*
X103844312Y-92018378D01*
X103780897Y-92035500D01*
X102974839Y-92035500D01*
X102906718Y-92015498D01*
X102860225Y-91961842D01*
X102850121Y-91891568D01*
X102879458Y-91827169D01*
X102927451Y-91771569D01*
X102927452Y-91771567D01*
X102931480Y-91766901D01*
X103028628Y-91595890D01*
X103090710Y-91409266D01*
X103115360Y-91214138D01*
X103115753Y-91186000D01*
X103096561Y-90990260D01*
X103039714Y-90801975D01*
X102980297Y-90690228D01*
X102950273Y-90633760D01*
X102950271Y-90633757D01*
X102947379Y-90628318D01*
X102943489Y-90623548D01*
X102943486Y-90623544D01*
X102826967Y-90480678D01*
X102826964Y-90480675D01*
X102823072Y-90475903D01*
X102806422Y-90462129D01*
X102676278Y-90354464D01*
X102676274Y-90354462D01*
X102671528Y-90350535D01*
X102498520Y-90256990D01*
X102310637Y-90198830D01*
X102304519Y-90198187D01*
X102304514Y-90198186D01*
X102121164Y-90178916D01*
X102121162Y-90178916D01*
X102115035Y-90178272D01*
X102048720Y-90184307D01*
X101925305Y-90195538D01*
X101925302Y-90195539D01*
X101919166Y-90196097D01*
X101730489Y-90251628D01*
X101556192Y-90342748D01*
X101402912Y-90465988D01*
X101398954Y-90470705D01*
X101398952Y-90470707D01*
X101367115Y-90508649D01*
X101276489Y-90616653D01*
X101181739Y-90789004D01*
X101179878Y-90794871D01*
X101179877Y-90794873D01*
X101177624Y-90801975D01*
X101122269Y-90976476D01*
X101100345Y-91171930D01*
X101103889Y-91214138D01*
X101111857Y-91309015D01*
X101116803Y-91367919D01*
X101118502Y-91373844D01*
X101144222Y-91463539D01*
X101171015Y-91556979D01*
X101173830Y-91562456D01*
X101173831Y-91562459D01*
X101255073Y-91720539D01*
X101260916Y-91731908D01*
X101264739Y-91736732D01*
X101264742Y-91736736D01*
X101339642Y-91831235D01*
X101366280Y-91897045D01*
X101353109Y-91966809D01*
X101304312Y-92018378D01*
X101240897Y-92035500D01*
X100434839Y-92035500D01*
X100366718Y-92015498D01*
X100320225Y-91961842D01*
X100310121Y-91891568D01*
X100339458Y-91827169D01*
X100387451Y-91771569D01*
X100387452Y-91771567D01*
X100391480Y-91766901D01*
X100488628Y-91595890D01*
X100550710Y-91409266D01*
X100575360Y-91214138D01*
X100575753Y-91186000D01*
X100556561Y-90990260D01*
X100499714Y-90801975D01*
X100440297Y-90690228D01*
X100410273Y-90633760D01*
X100410271Y-90633757D01*
X100407379Y-90628318D01*
X100403489Y-90623548D01*
X100403486Y-90623544D01*
X100286967Y-90480678D01*
X100286964Y-90480675D01*
X100283072Y-90475903D01*
X100266422Y-90462129D01*
X100136278Y-90354464D01*
X100136274Y-90354462D01*
X100131528Y-90350535D01*
X99958520Y-90256990D01*
X99770637Y-90198830D01*
X99764519Y-90198187D01*
X99764514Y-90198186D01*
X99581164Y-90178916D01*
X99581162Y-90178916D01*
X99575035Y-90178272D01*
X99508720Y-90184307D01*
X99385305Y-90195538D01*
X99385302Y-90195539D01*
X99379166Y-90196097D01*
X99190489Y-90251628D01*
X99016192Y-90342748D01*
X98862912Y-90465988D01*
X98858954Y-90470705D01*
X98858952Y-90470707D01*
X98827115Y-90508649D01*
X98736489Y-90616653D01*
X98641739Y-90789004D01*
X98639878Y-90794871D01*
X98639877Y-90794873D01*
X98637624Y-90801975D01*
X98582269Y-90976476D01*
X98560345Y-91171930D01*
X98563889Y-91214138D01*
X98571857Y-91309015D01*
X98576803Y-91367919D01*
X98578502Y-91373844D01*
X98604222Y-91463539D01*
X98631015Y-91556979D01*
X98633830Y-91562456D01*
X98633831Y-91562459D01*
X98715073Y-91720539D01*
X98720916Y-91731908D01*
X98724739Y-91736732D01*
X98724742Y-91736736D01*
X98799642Y-91831235D01*
X98826280Y-91897045D01*
X98813109Y-91966809D01*
X98764312Y-92018378D01*
X98700897Y-92035500D01*
X97894839Y-92035500D01*
X97826718Y-92015498D01*
X97780225Y-91961842D01*
X97770121Y-91891568D01*
X97799458Y-91827169D01*
X97847451Y-91771569D01*
X97847452Y-91771567D01*
X97851480Y-91766901D01*
X97948628Y-91595890D01*
X98010710Y-91409266D01*
X98035360Y-91214138D01*
X98035753Y-91186000D01*
X98016561Y-90990260D01*
X97959714Y-90801975D01*
X97900297Y-90690228D01*
X97870273Y-90633760D01*
X97870271Y-90633757D01*
X97867379Y-90628318D01*
X97863489Y-90623548D01*
X97863486Y-90623544D01*
X97746967Y-90480678D01*
X97746964Y-90480675D01*
X97743072Y-90475903D01*
X97726422Y-90462129D01*
X97596278Y-90354464D01*
X97596274Y-90354462D01*
X97591528Y-90350535D01*
X97418520Y-90256990D01*
X97230637Y-90198830D01*
X97224519Y-90198187D01*
X97224514Y-90198186D01*
X97041164Y-90178916D01*
X97041162Y-90178916D01*
X97035035Y-90178272D01*
X96968720Y-90184307D01*
X96845305Y-90195538D01*
X96845302Y-90195539D01*
X96839166Y-90196097D01*
X96650489Y-90251628D01*
X96476192Y-90342748D01*
X96322912Y-90465988D01*
X96318954Y-90470705D01*
X96318952Y-90470707D01*
X96287115Y-90508649D01*
X96196489Y-90616653D01*
X96101739Y-90789004D01*
X96099878Y-90794871D01*
X96099877Y-90794873D01*
X96097624Y-90801975D01*
X96042269Y-90976476D01*
X96020345Y-91171930D01*
X96023889Y-91214138D01*
X96031857Y-91309015D01*
X96036803Y-91367919D01*
X96038502Y-91373844D01*
X96064222Y-91463539D01*
X96091015Y-91556979D01*
X96093830Y-91562456D01*
X96093831Y-91562459D01*
X96175073Y-91720539D01*
X96180916Y-91731908D01*
X96184739Y-91736732D01*
X96184742Y-91736736D01*
X96259642Y-91831235D01*
X96286280Y-91897045D01*
X96273109Y-91966809D01*
X96224312Y-92018378D01*
X96160897Y-92035500D01*
X95354839Y-92035500D01*
X95286718Y-92015498D01*
X95240225Y-91961842D01*
X95230121Y-91891568D01*
X95259458Y-91827169D01*
X95307451Y-91771569D01*
X95307452Y-91771567D01*
X95311480Y-91766901D01*
X95408628Y-91595890D01*
X95470710Y-91409266D01*
X95495360Y-91214138D01*
X95495753Y-91186000D01*
X95476561Y-90990260D01*
X95419714Y-90801975D01*
X95360297Y-90690228D01*
X95330273Y-90633760D01*
X95330271Y-90633757D01*
X95327379Y-90628318D01*
X95323489Y-90623548D01*
X95323486Y-90623544D01*
X95206967Y-90480678D01*
X95206964Y-90480675D01*
X95203072Y-90475903D01*
X95186422Y-90462129D01*
X95056278Y-90354464D01*
X95056274Y-90354462D01*
X95051528Y-90350535D01*
X94878520Y-90256990D01*
X94690637Y-90198830D01*
X94684519Y-90198187D01*
X94684514Y-90198186D01*
X94501164Y-90178916D01*
X94501162Y-90178916D01*
X94495035Y-90178272D01*
X94428720Y-90184307D01*
X94305305Y-90195538D01*
X94305302Y-90195539D01*
X94299166Y-90196097D01*
X94110489Y-90251628D01*
X93936192Y-90342748D01*
X93782912Y-90465988D01*
X93778954Y-90470705D01*
X93778952Y-90470707D01*
X93747115Y-90508649D01*
X93656489Y-90616653D01*
X93561739Y-90789004D01*
X93559878Y-90794871D01*
X93559877Y-90794873D01*
X93557624Y-90801975D01*
X93502269Y-90976476D01*
X93480345Y-91171930D01*
X93483889Y-91214138D01*
X93491857Y-91309015D01*
X93496803Y-91367919D01*
X93498502Y-91373844D01*
X93524222Y-91463539D01*
X93551015Y-91556979D01*
X93553830Y-91562456D01*
X93553831Y-91562459D01*
X93635073Y-91720539D01*
X93640916Y-91731908D01*
X93644739Y-91736732D01*
X93644742Y-91736736D01*
X93719642Y-91831235D01*
X93746280Y-91897045D01*
X93733109Y-91966809D01*
X93684312Y-92018378D01*
X93620897Y-92035500D01*
X93173687Y-92035500D01*
X93105566Y-92015498D01*
X93084591Y-91998595D01*
X92868848Y-91782851D01*
X92834823Y-91720539D01*
X92839888Y-91649723D01*
X92848388Y-91631520D01*
X92865579Y-91601258D01*
X92865581Y-91601253D01*
X92868628Y-91595890D01*
X92930710Y-91409266D01*
X92955360Y-91214138D01*
X92955753Y-91186000D01*
X92936561Y-90990260D01*
X92879714Y-90801975D01*
X92820297Y-90690228D01*
X92790273Y-90633760D01*
X92790271Y-90633757D01*
X92787379Y-90628318D01*
X92783489Y-90623548D01*
X92783486Y-90623544D01*
X92666967Y-90480678D01*
X92666964Y-90480675D01*
X92663072Y-90475903D01*
X92646422Y-90462129D01*
X92516278Y-90354464D01*
X92516274Y-90354462D01*
X92511528Y-90350535D01*
X92338520Y-90256990D01*
X92150637Y-90198830D01*
X92144519Y-90198187D01*
X92144514Y-90198186D01*
X91961164Y-90178916D01*
X91961162Y-90178916D01*
X91955035Y-90178272D01*
X91888720Y-90184307D01*
X91765305Y-90195538D01*
X91765302Y-90195539D01*
X91759166Y-90196097D01*
X91570489Y-90251628D01*
X91396192Y-90342748D01*
X91242912Y-90465988D01*
X91238954Y-90470705D01*
X91238952Y-90470707D01*
X91207115Y-90508649D01*
X91116489Y-90616653D01*
X91021739Y-90789004D01*
X91019878Y-90794871D01*
X91019877Y-90794873D01*
X91017624Y-90801975D01*
X90962269Y-90976476D01*
X90960082Y-90975782D01*
X90931218Y-91029245D01*
X90869068Y-91063566D01*
X90798229Y-91058838D01*
X90741192Y-91016562D01*
X90716065Y-90950160D01*
X90715700Y-90940574D01*
X90715700Y-90748511D01*
X90715873Y-90741917D01*
X90717241Y-90715816D01*
X90717241Y-90715815D01*
X90717934Y-90702590D01*
X90710497Y-90683215D01*
X90704885Y-90664267D01*
X90703323Y-90656918D01*
X90703322Y-90656917D01*
X90700569Y-90643964D01*
X90692787Y-90633253D01*
X90690646Y-90628445D01*
X90687777Y-90624028D01*
X90683032Y-90611665D01*
X90668361Y-90596994D01*
X90655520Y-90581960D01*
X90651105Y-90575883D01*
X90651104Y-90575883D01*
X90643322Y-90565171D01*
X90631855Y-90558551D01*
X90622012Y-90549688D01*
X90622304Y-90549363D01*
X90615540Y-90544173D01*
X89577946Y-89506578D01*
X89573405Y-89501794D01*
X89547041Y-89472514D01*
X89528085Y-89464074D01*
X89510713Y-89454642D01*
X89504414Y-89450551D01*
X89504412Y-89450550D01*
X89493307Y-89443339D01*
X89480228Y-89441268D01*
X89475313Y-89439381D01*
X89470167Y-89438287D01*
X89458068Y-89432900D01*
X89437318Y-89432900D01*
X89417607Y-89431349D01*
X89410190Y-89430174D01*
X89410189Y-89430174D01*
X89397113Y-89428103D01*
X89384324Y-89431530D01*
X89371096Y-89432223D01*
X89371073Y-89431787D01*
X89362621Y-89432900D01*
X89298533Y-89432900D01*
X89230412Y-89412898D01*
X89209438Y-89395995D01*
X89142151Y-89328708D01*
X89027306Y-89270191D01*
X88900000Y-89250028D01*
X88772694Y-89270191D01*
X88657849Y-89328708D01*
X88566708Y-89419849D01*
X88508191Y-89534694D01*
X88488028Y-89662000D01*
X88508191Y-89789306D01*
X88566708Y-89904151D01*
X88657849Y-89995292D01*
X88772694Y-90053809D01*
X88884658Y-90071542D01*
X88948812Y-90101954D01*
X88986339Y-90162222D01*
X88985325Y-90233212D01*
X88946093Y-90292384D01*
X88923324Y-90307652D01*
X88856192Y-90342748D01*
X88702912Y-90465988D01*
X88698954Y-90470705D01*
X88698952Y-90470707D01*
X88667115Y-90508649D01*
X88576489Y-90616653D01*
X88481739Y-90789004D01*
X88479878Y-90794871D01*
X88479877Y-90794873D01*
X88477624Y-90801975D01*
X88422269Y-90976476D01*
X88400345Y-91171930D01*
X87874373Y-91171930D01*
X87856561Y-90990260D01*
X87799714Y-90801975D01*
X87740297Y-90690228D01*
X87710273Y-90633760D01*
X87710271Y-90633757D01*
X87707379Y-90628318D01*
X87703489Y-90623548D01*
X87703486Y-90623544D01*
X87586967Y-90480678D01*
X87586964Y-90480675D01*
X87583072Y-90475903D01*
X87566422Y-90462129D01*
X87436278Y-90354464D01*
X87436274Y-90354462D01*
X87431528Y-90350535D01*
X87258520Y-90256990D01*
X87070637Y-90198830D01*
X87064519Y-90198187D01*
X87064514Y-90198186D01*
X86881164Y-90178916D01*
X86881162Y-90178916D01*
X86875035Y-90178272D01*
X86808720Y-90184307D01*
X86685305Y-90195538D01*
X86685302Y-90195539D01*
X86679166Y-90196097D01*
X86490489Y-90251628D01*
X86316192Y-90342748D01*
X86162912Y-90465988D01*
X86158954Y-90470705D01*
X86158952Y-90470707D01*
X86127115Y-90508649D01*
X86036489Y-90616653D01*
X85941739Y-90789004D01*
X85939878Y-90794871D01*
X85939877Y-90794873D01*
X85901137Y-90916997D01*
X85861473Y-90975881D01*
X85796271Y-91003973D01*
X85726232Y-90992355D01*
X85673592Y-90944716D01*
X85658831Y-90909594D01*
X85619214Y-90751875D01*
X85615894Y-90742124D01*
X85530972Y-90546814D01*
X85526105Y-90537739D01*
X85410426Y-90358926D01*
X85404136Y-90350757D01*
X85260806Y-90193240D01*
X85253273Y-90186215D01*
X85086139Y-90054222D01*
X85077552Y-90048517D01*
X84891117Y-89945599D01*
X84881705Y-89941369D01*
X84680959Y-89870280D01*
X84670988Y-89867646D01*
X84599837Y-89854972D01*
X84586540Y-89856432D01*
X84582000Y-89870989D01*
X84582000Y-92504517D01*
X84074000Y-92504517D01*
X84074000Y-91458115D01*
X84069525Y-91442876D01*
X84068135Y-91441671D01*
X84060452Y-91440000D01*
X83011225Y-91440000D01*
X82997694Y-91443973D01*
X82996257Y-91453966D01*
X79750000Y-91453966D01*
X79750000Y-90920183D01*
X82992389Y-90920183D01*
X82993912Y-90928607D01*
X83006292Y-90932000D01*
X84055885Y-90932000D01*
X84071124Y-90927525D01*
X84072329Y-90926135D01*
X84074000Y-90918452D01*
X84074000Y-89869102D01*
X84070082Y-89855758D01*
X84055806Y-89853771D01*
X84017324Y-89859660D01*
X84007288Y-89862051D01*
X83804868Y-89928212D01*
X83795359Y-89932209D01*
X83606463Y-90030542D01*
X83597738Y-90036036D01*
X83427433Y-90163905D01*
X83419726Y-90170748D01*
X83272590Y-90324717D01*
X83266104Y-90332727D01*
X83146098Y-90508649D01*
X83141000Y-90517623D01*
X83051338Y-90710783D01*
X83047775Y-90720470D01*
X82992389Y-90920183D01*
X79750000Y-90920183D01*
X79750000Y-85321403D01*
X81662187Y-85321403D01*
X81679085Y-85614460D01*
X81679910Y-85618665D01*
X81679911Y-85618673D01*
X81701809Y-85730287D01*
X81735599Y-85902514D01*
X81736986Y-85906565D01*
X81736987Y-85906569D01*
X81829294Y-86176177D01*
X81829298Y-86176186D01*
X81830683Y-86180232D01*
X81863801Y-86246080D01*
X81959611Y-86436576D01*
X81962578Y-86442476D01*
X81965004Y-86446005D01*
X81965007Y-86446011D01*
X82058335Y-86581803D01*
X82128844Y-86684394D01*
X82131731Y-86687567D01*
X82131732Y-86687568D01*
X82308931Y-86882308D01*
X82326403Y-86901509D01*
X82374783Y-86941961D01*
X82548308Y-87087051D01*
X82548313Y-87087055D01*
X82551600Y-87089803D01*
X82675934Y-87167798D01*
X82796628Y-87243509D01*
X82796632Y-87243511D01*
X82800268Y-87245792D01*
X82804178Y-87247557D01*
X82804179Y-87247558D01*
X83063894Y-87364824D01*
X83063898Y-87364826D01*
X83067806Y-87366590D01*
X83071925Y-87367810D01*
X83345149Y-87448743D01*
X83345153Y-87448744D01*
X83349262Y-87449961D01*
X83353496Y-87450609D01*
X83353501Y-87450610D01*
X83610363Y-87489915D01*
X83639429Y-87494363D01*
X83788852Y-87496710D01*
X83928646Y-87498907D01*
X83928652Y-87498907D01*
X83932937Y-87498974D01*
X84224356Y-87463708D01*
X84508292Y-87389219D01*
X84512252Y-87387579D01*
X84512257Y-87387577D01*
X84658272Y-87327095D01*
X84779492Y-87276884D01*
X85032937Y-87128783D01*
X85255057Y-86954619D01*
X85260566Y-86950299D01*
X85263938Y-86947655D01*
X85305999Y-86904252D01*
X85372716Y-86835404D01*
X85468219Y-86736853D01*
X85470752Y-86733405D01*
X85470756Y-86733400D01*
X85639463Y-86503732D01*
X85642001Y-86500277D01*
X85782069Y-86242305D01*
X85885829Y-85967711D01*
X85939286Y-85734305D01*
X85950406Y-85685755D01*
X85950407Y-85685750D01*
X85951363Y-85681575D01*
X85977458Y-85389192D01*
X85977931Y-85344000D01*
X85976682Y-85325683D01*
X85958257Y-85055412D01*
X85958256Y-85055406D01*
X85957965Y-85051135D01*
X85922772Y-84881192D01*
X85908733Y-84813403D01*
X145924187Y-84813403D01*
X145941085Y-85106460D01*
X145941910Y-85110665D01*
X145941911Y-85110673D01*
X145974513Y-85276845D01*
X145997599Y-85394514D01*
X145998986Y-85398565D01*
X145998987Y-85398569D01*
X146091294Y-85668177D01*
X146091298Y-85668186D01*
X146092683Y-85672232D01*
X146224578Y-85934476D01*
X146227004Y-85938005D01*
X146227007Y-85938011D01*
X146266678Y-85995732D01*
X146390844Y-86176394D01*
X146588403Y-86393509D01*
X146591684Y-86396252D01*
X146810308Y-86579051D01*
X146810313Y-86579055D01*
X146813600Y-86581803D01*
X146937934Y-86659798D01*
X147058628Y-86735509D01*
X147058632Y-86735511D01*
X147062268Y-86737792D01*
X147066178Y-86739557D01*
X147066179Y-86739558D01*
X147325894Y-86856824D01*
X147325898Y-86856826D01*
X147329806Y-86858590D01*
X147333925Y-86859810D01*
X147607149Y-86940743D01*
X147607153Y-86940744D01*
X147611262Y-86941961D01*
X147615496Y-86942609D01*
X147615501Y-86942610D01*
X147872363Y-86981915D01*
X147901429Y-86986363D01*
X148050852Y-86988710D01*
X148190646Y-86990907D01*
X148190652Y-86990907D01*
X148194937Y-86990974D01*
X148486356Y-86955708D01*
X148770292Y-86881219D01*
X148774252Y-86879579D01*
X148774257Y-86879577D01*
X148920272Y-86819095D01*
X149041492Y-86768884D01*
X149091040Y-86739931D01*
X149291239Y-86622944D01*
X149291240Y-86622944D01*
X149294937Y-86620783D01*
X149525938Y-86439655D01*
X149567999Y-86396252D01*
X149727236Y-86231931D01*
X149730219Y-86228853D01*
X149732752Y-86225405D01*
X149732756Y-86225400D01*
X149901463Y-85995732D01*
X149904001Y-85992277D01*
X150044069Y-85734305D01*
X150147829Y-85459711D01*
X150213363Y-85173575D01*
X150239458Y-84881192D01*
X150239931Y-84836000D01*
X150238682Y-84817683D01*
X150220257Y-84547412D01*
X150220256Y-84547406D01*
X150219965Y-84543135D01*
X150160438Y-84255690D01*
X150154225Y-84238143D01*
X150063882Y-83983023D01*
X150062451Y-83978982D01*
X149927817Y-83718133D01*
X149911824Y-83695377D01*
X149761491Y-83481475D01*
X149761486Y-83481469D01*
X149759027Y-83477970D01*
X149600882Y-83307786D01*
X149562126Y-83266079D01*
X149562123Y-83266076D01*
X149559205Y-83262936D01*
X149555889Y-83260222D01*
X149555886Y-83260219D01*
X149335367Y-83079725D01*
X149335360Y-83079720D01*
X149332049Y-83077010D01*
X149081761Y-82923634D01*
X149077825Y-82921906D01*
X148816901Y-82807368D01*
X148816898Y-82807367D01*
X148812973Y-82805644D01*
X148530659Y-82725225D01*
X148526417Y-82724621D01*
X148526411Y-82724620D01*
X148244294Y-82684469D01*
X148240043Y-82683864D01*
X148085296Y-82683054D01*
X147950788Y-82682349D01*
X147950782Y-82682349D01*
X147946502Y-82682327D01*
X147942258Y-82682886D01*
X147942254Y-82682886D01*
X147814262Y-82699737D01*
X147655469Y-82720642D01*
X147651329Y-82721775D01*
X147651327Y-82721775D01*
X147638716Y-82725225D01*
X147372328Y-82798101D01*
X147102320Y-82913269D01*
X146850440Y-83064017D01*
X146847094Y-83066697D01*
X146847092Y-83066699D01*
X146834222Y-83077010D01*
X146621348Y-83247553D01*
X146419286Y-83460483D01*
X146247990Y-83698866D01*
X146110632Y-83958290D01*
X146009752Y-84233956D01*
X146008839Y-84238142D01*
X146008839Y-84238143D01*
X145948132Y-84516573D01*
X145948131Y-84516581D01*
X145947219Y-84520763D01*
X145924187Y-84813403D01*
X85908733Y-84813403D01*
X85899309Y-84767896D01*
X85898438Y-84763690D01*
X85892225Y-84746143D01*
X85801882Y-84491023D01*
X85800451Y-84486982D01*
X85683243Y-84259896D01*
X85667782Y-84229940D01*
X85667782Y-84229939D01*
X85665817Y-84226133D01*
X85649824Y-84203377D01*
X85499491Y-83989475D01*
X85499486Y-83989469D01*
X85497027Y-83985970D01*
X85297205Y-83770936D01*
X85293889Y-83768222D01*
X85293886Y-83768219D01*
X85073367Y-83587725D01*
X85073360Y-83587720D01*
X85070049Y-83585010D01*
X84872547Y-83463981D01*
X84823423Y-83433878D01*
X84823422Y-83433878D01*
X84819761Y-83431634D01*
X84815825Y-83429906D01*
X84554901Y-83315368D01*
X84554898Y-83315367D01*
X84550973Y-83313644D01*
X84268659Y-83233225D01*
X84264417Y-83232621D01*
X84264411Y-83232620D01*
X83982294Y-83192469D01*
X83978043Y-83191864D01*
X83823296Y-83191054D01*
X83688788Y-83190349D01*
X83688782Y-83190349D01*
X83684502Y-83190327D01*
X83680258Y-83190886D01*
X83680254Y-83190886D01*
X83552262Y-83207737D01*
X83393469Y-83228642D01*
X83389329Y-83229775D01*
X83389327Y-83229775D01*
X83268112Y-83262936D01*
X83110328Y-83306101D01*
X82840320Y-83421269D01*
X82588440Y-83572017D01*
X82585094Y-83574697D01*
X82585092Y-83574699D01*
X82572222Y-83585010D01*
X82359348Y-83755553D01*
X82157286Y-83968483D01*
X81985990Y-84206866D01*
X81848632Y-84466290D01*
X81747752Y-84741956D01*
X81746839Y-84746142D01*
X81746839Y-84746143D01*
X81686132Y-85024573D01*
X81686131Y-85024581D01*
X81685219Y-85028763D01*
X81662187Y-85321403D01*
X79750000Y-85321403D01*
X79750000Y-81196000D01*
X79770002Y-81127879D01*
X79823658Y-81081386D01*
X79876000Y-81070000D01*
X151834000Y-81070000D01*
X151902121Y-81090002D01*
G37*
%TD.AperFunction*%
%TD*%
M02*
