%TF.GenerationSoftware,KiCad,Pcbnew,(6.0.7)*%
%TF.CreationDate,2022-12-27T11:46:59-06:00*%
%TF.ProjectId,UKDAQ,554b4441-512e-46b6-9963-61645f706362,rev?*%
%TF.SameCoordinates,Original*%
%TF.FileFunction,Copper,L1,Top*%
%TF.FilePolarity,Positive*%
%FSLAX46Y46*%
G04 Gerber Fmt 4.6, Leading zero omitted, Abs format (unit mm)*
G04 Created by KiCad (PCBNEW (6.0.7)) date 2022-12-27 11:46:59*
%MOMM*%
%LPD*%
G01*
G04 APERTURE LIST*
G04 Aperture macros list*
%AMRoundRect*
0 Rectangle with rounded corners*
0 $1 Rounding radius*
0 $2 $3 $4 $5 $6 $7 $8 $9 X,Y pos of 4 corners*
0 Add a 4 corners polygon primitive as box body*
4,1,4,$2,$3,$4,$5,$6,$7,$8,$9,$2,$3,0*
0 Add four circle primitives for the rounded corners*
1,1,$1+$1,$2,$3*
1,1,$1+$1,$4,$5*
1,1,$1+$1,$6,$7*
1,1,$1+$1,$8,$9*
0 Add four rect primitives between the rounded corners*
20,1,$1+$1,$2,$3,$4,$5,0*
20,1,$1+$1,$4,$5,$6,$7,0*
20,1,$1+$1,$6,$7,$8,$9,0*
20,1,$1+$1,$8,$9,$2,$3,0*%
%AMOutline5P*
0 Free polygon, 5 corners , with rotation*
0 The origin of the aperture is its center*
0 number of corners: always 5*
0 $1 to $10 corner X, Y*
0 $11 Rotation angle, in degrees counterclockwise*
0 create outline with 5 corners*
4,1,5,$1,$2,$3,$4,$5,$6,$7,$8,$9,$10,$1,$2,$11*%
%AMOutline6P*
0 Free polygon, 6 corners , with rotation*
0 The origin of the aperture is its center*
0 number of corners: always 6*
0 $1 to $12 corner X, Y*
0 $13 Rotation angle, in degrees counterclockwise*
0 create outline with 6 corners*
4,1,6,$1,$2,$3,$4,$5,$6,$7,$8,$9,$10,$11,$12,$1,$2,$13*%
%AMOutline7P*
0 Free polygon, 7 corners , with rotation*
0 The origin of the aperture is its center*
0 number of corners: always 7*
0 $1 to $14 corner X, Y*
0 $15 Rotation angle, in degrees counterclockwise*
0 create outline with 7 corners*
4,1,7,$1,$2,$3,$4,$5,$6,$7,$8,$9,$10,$11,$12,$13,$14,$1,$2,$15*%
%AMOutline8P*
0 Free polygon, 8 corners , with rotation*
0 The origin of the aperture is its center*
0 number of corners: always 8*
0 $1 to $16 corner X, Y*
0 $17 Rotation angle, in degrees counterclockwise*
0 create outline with 8 corners*
4,1,8,$1,$2,$3,$4,$5,$6,$7,$8,$9,$10,$11,$12,$13,$14,$15,$16,$1,$2,$17*%
%AMFreePoly0*
4,1,15,0.150002,0.355000,0.350000,0.355000,0.353536,0.353536,0.355000,0.350000,0.355000,-0.350000,0.353536,-0.353536,0.350000,-0.355000,-0.350000,-0.355000,-0.353536,-0.353536,-0.355000,-0.350000,-0.355001,-0.150000,-0.353536,-0.146464,0.146464,0.353536,0.150000,0.355001,0.150002,0.355000,0.150002,0.355000,$1*%
G04 Aperture macros list end*
%TA.AperFunction,SMDPad,CuDef*%
%ADD10RoundRect,0.135000X-0.135000X-0.185000X0.135000X-0.185000X0.135000X0.185000X-0.135000X0.185000X0*%
%TD*%
%TA.AperFunction,SMDPad,CuDef*%
%ADD11R,0.660000X0.320000*%
%TD*%
%TA.AperFunction,SMDPad,CuDef*%
%ADD12R,0.660000X0.220000*%
%TD*%
%TA.AperFunction,SMDPad,CuDef*%
%ADD13RoundRect,0.100000X-0.130000X-0.100000X0.130000X-0.100000X0.130000X0.100000X-0.130000X0.100000X0*%
%TD*%
%TA.AperFunction,SMDPad,CuDef*%
%ADD14R,0.300000X0.525000*%
%TD*%
%TA.AperFunction,SMDPad,CuDef*%
%ADD15R,0.425000X0.300000*%
%TD*%
%TA.AperFunction,ComponentPad*%
%ADD16R,1.700000X1.700000*%
%TD*%
%TA.AperFunction,ComponentPad*%
%ADD17O,1.700000X1.700000*%
%TD*%
%TA.AperFunction,SMDPad,CuDef*%
%ADD18RoundRect,0.225000X-0.225000X-0.250000X0.225000X-0.250000X0.225000X0.250000X-0.225000X0.250000X0*%
%TD*%
%TA.AperFunction,SMDPad,CuDef*%
%ADD19RoundRect,0.075000X-0.100000X-0.075000X0.100000X-0.075000X0.100000X0.075000X-0.100000X0.075000X0*%
%TD*%
%TA.AperFunction,SMDPad,CuDef*%
%ADD20RoundRect,0.350000X-1.450000X0.349999X-1.450000X-0.349999X1.450000X-0.349999X1.450000X0.349999X0*%
%TD*%
%TA.AperFunction,SMDPad,CuDef*%
%ADD21RoundRect,0.350000X-1.450000X0.350000X-1.450000X-0.350000X1.450000X-0.350000X1.450000X0.350000X0*%
%TD*%
%TA.AperFunction,SMDPad,CuDef*%
%ADD22RoundRect,0.100000X-0.100000X0.130000X-0.100000X-0.130000X0.100000X-0.130000X0.100000X0.130000X0*%
%TD*%
%TA.AperFunction,SMDPad,CuDef*%
%ADD23R,0.500000X0.350000*%
%TD*%
%TA.AperFunction,SMDPad,CuDef*%
%ADD24RoundRect,0.135000X0.185000X-0.135000X0.185000X0.135000X-0.185000X0.135000X-0.185000X-0.135000X0*%
%TD*%
%TA.AperFunction,SMDPad,CuDef*%
%ADD25R,1.000000X1.800000*%
%TD*%
%TA.AperFunction,SMDPad,CuDef*%
%ADD26RoundRect,0.225000X-0.250000X0.225000X-0.250000X-0.225000X0.250000X-0.225000X0.250000X0.225000X0*%
%TD*%
%TA.AperFunction,SMDPad,CuDef*%
%ADD27RoundRect,0.075000X0.100000X0.075000X-0.100000X0.075000X-0.100000X-0.075000X0.100000X-0.075000X0*%
%TD*%
%TA.AperFunction,SMDPad,CuDef*%
%ADD28RoundRect,0.150000X0.587500X0.150000X-0.587500X0.150000X-0.587500X-0.150000X0.587500X-0.150000X0*%
%TD*%
%TA.AperFunction,SMDPad,CuDef*%
%ADD29Outline5P,-0.850000X0.574600X-0.574600X0.850000X0.850000X0.850000X0.850000X-0.850000X-0.850000X-0.850000X0.000000*%
%TD*%
%TA.AperFunction,SMDPad,CuDef*%
%ADD30FreePoly0,0.000000*%
%TD*%
%TA.AperFunction,SMDPad,CuDef*%
%ADD31R,0.700000X0.200000*%
%TD*%
%TA.AperFunction,SMDPad,CuDef*%
%ADD32FreePoly0,90.000000*%
%TD*%
%TA.AperFunction,SMDPad,CuDef*%
%ADD33R,0.200000X0.700000*%
%TD*%
%TA.AperFunction,SMDPad,CuDef*%
%ADD34FreePoly0,180.000000*%
%TD*%
%TA.AperFunction,SMDPad,CuDef*%
%ADD35FreePoly0,270.000000*%
%TD*%
%TA.AperFunction,SMDPad,CuDef*%
%ADD36RoundRect,0.135000X0.135000X0.185000X-0.135000X0.185000X-0.135000X-0.185000X0.135000X-0.185000X0*%
%TD*%
%TA.AperFunction,SMDPad,CuDef*%
%ADD37RoundRect,0.225000X0.225000X0.250000X-0.225000X0.250000X-0.225000X-0.250000X0.225000X-0.250000X0*%
%TD*%
%TA.AperFunction,ViaPad*%
%ADD38C,0.508000*%
%TD*%
%TA.AperFunction,Conductor*%
%ADD39C,0.254000*%
%TD*%
%TA.AperFunction,Conductor*%
%ADD40C,0.228600*%
%TD*%
%TA.AperFunction,Conductor*%
%ADD41C,0.152400*%
%TD*%
G04 APERTURE END LIST*
D10*
%TO.P,R1,1*%
%TO.N,VDD*%
X139580000Y-103220000D03*
%TO.P,R1,2*%
%TO.N,/nRESET*%
X140600000Y-103220000D03*
%TD*%
D11*
%TO.P,U2,1,VCCA*%
%TO.N,VCC*%
X132700000Y-97970000D03*
D12*
%TO.P,U2,2,A1*%
%TO.N,/TX{slash}SWDIO-VCC*%
X132700000Y-98420000D03*
%TO.P,U2,3,A2*%
%TO.N,/RX{slash}SWCLK-VCC*%
X132700000Y-98820000D03*
%TO.P,U2,4,GND*%
%TO.N,GND*%
X132700000Y-99220000D03*
%TO.P,U2,5,EN*%
%TO.N,VCC*%
X133540000Y-99220000D03*
%TO.P,U2,6,B2*%
%TO.N,/RX{slash}SWCLK-VDD*%
X133540000Y-98820000D03*
%TO.P,U2,7,B1*%
%TO.N,/TX{slash}SWDIO-VDD*%
X133540000Y-98420000D03*
%TO.P,U2,8,VCCB*%
%TO.N,VDD*%
X133540000Y-98020000D03*
%TD*%
D13*
%TO.P,C2,1*%
%TO.N,VDD*%
X136225000Y-99120000D03*
%TO.P,C2,2*%
%TO.N,GND*%
X136865000Y-99120000D03*
%TD*%
D14*
%TO.P,U3,1,PIN1*%
%TO.N,unconnected-(U3-Pad1)*%
X156450000Y-101882500D03*
D15*
%TO.P,U3,2,GND*%
%TO.N,GND*%
X156512500Y-101070000D03*
%TO.P,U3,3,VDD*%
%TO.N,VDD*%
X156512500Y-100570000D03*
%TO.P,U3,4,nBOOT_LOAD_PIN*%
%TO.N,Net-(R3-Pad2)*%
X156512500Y-100070000D03*
%TO.P,U3,5,PS1*%
%TO.N,GND*%
X156512500Y-99570000D03*
D14*
%TO.P,U3,6,PS0*%
X156450000Y-98757500D03*
%TO.P,U3,7,SWDIO*%
%TO.N,unconnected-(U3-Pad7)*%
X155950000Y-98757500D03*
%TO.P,U3,8,SWCLK*%
%TO.N,unconnected-(U3-Pad8)*%
X155450000Y-98757500D03*
%TO.P,U3,9,CAP*%
%TO.N,Net-(C9-Pad2)*%
X154950000Y-98757500D03*
%TO.P,U3,10,BL_IND*%
%TO.N,unconnected-(U3-Pad10)*%
X154450000Y-98757500D03*
%TO.P,U3,11,nRESET*%
%TO.N,/nRESET*%
X153950000Y-98757500D03*
%TO.P,U3,12,PIN12*%
%TO.N,unconnected-(U3-Pad12)*%
X153450000Y-98757500D03*
%TO.P,U3,13,PIN13*%
%TO.N,unconnected-(U3-Pad13)*%
X152950000Y-98757500D03*
%TO.P,U3,14,INT*%
%TO.N,/BNO_INTERRUPT*%
X152450000Y-98757500D03*
%TO.P,U3,15,PIN15*%
%TO.N,unconnected-(U3-Pad15)*%
X151950000Y-98757500D03*
D15*
%TO.P,U3,16,PIN16*%
%TO.N,unconnected-(U3-Pad16)*%
X151887500Y-99570000D03*
%TO.P,U3,17,COM3*%
%TO.N,GND*%
X151887500Y-100070000D03*
%TO.P,U3,18,COM2*%
X151887500Y-100570000D03*
%TO.P,U3,19,COM1*%
%TO.N,/SCL*%
X151887500Y-101070000D03*
D14*
%TO.P,U3,20,COM0*%
%TO.N,/SDA*%
X151950000Y-101882500D03*
%TO.P,U3,21,PIN21*%
%TO.N,unconnected-(U3-Pad21)*%
X152450000Y-101882500D03*
%TO.P,U3,22,PIN22*%
%TO.N,unconnected-(U3-Pad22)*%
X152950000Y-101882500D03*
%TO.P,U3,23,PIN23*%
%TO.N,unconnected-(U3-Pad23)*%
X153450000Y-101882500D03*
%TO.P,U3,24,PIN24*%
%TO.N,unconnected-(U3-Pad24)*%
X153950000Y-101882500D03*
%TO.P,U3,25,GNDIO*%
%TO.N,GND*%
X154450000Y-101882500D03*
%TO.P,U3,26,XOUT32*%
%TO.N,unconnected-(U3-Pad26)*%
X154950000Y-101882500D03*
%TO.P,U3,27,XIN32*%
%TO.N,unconnected-(U3-Pad27)*%
X155450000Y-101882500D03*
%TO.P,U3,28,VDDIO*%
%TO.N,VDD*%
X155950000Y-101882500D03*
%TD*%
D16*
%TO.P,J1,1,Pin_1*%
%TO.N,GND*%
X123600000Y-99040000D03*
D17*
%TO.P,J1,2,Pin_2*%
%TO.N,/nRESET*%
X123600000Y-101580000D03*
%TO.P,J1,3,Pin_3*%
%TO.N,VCC*%
X123600000Y-104120000D03*
%TO.P,J1,4,Pin_4*%
%TO.N,/RX{slash}SWCLK-VCC*%
X123600000Y-106660000D03*
%TO.P,J1,5,Pin_5*%
%TO.N,/TX{slash}SWDIO-VCC*%
X123600000Y-109200000D03*
%TD*%
D18*
%TO.P,C7,1*%
%TO.N,VDD*%
X156100000Y-111120000D03*
%TO.P,C7,2*%
%TO.N,GND*%
X157650000Y-111120000D03*
%TD*%
D19*
%TO.P,C5,1*%
%TO.N,Net-(C5-Pad1)*%
X145050000Y-109420000D03*
%TO.P,C5,2*%
%TO.N,GND*%
X145600000Y-109420000D03*
%TD*%
D20*
%TO.P,C3,1*%
%TO.N,VDD*%
X137300000Y-112720000D03*
D21*
%TO.P,C3,2*%
%TO.N,GND*%
X131300000Y-112720000D03*
%TD*%
D10*
%TO.P,R4,1*%
%TO.N,VDD*%
X144090000Y-99320000D03*
%TO.P,R4,2*%
%TO.N,/SCL*%
X145110000Y-99320000D03*
%TD*%
D22*
%TO.P,C9,1*%
%TO.N,GND*%
X155000000Y-96555000D03*
%TO.P,C9,2*%
%TO.N,Net-(C9-Pad2)*%
X155000000Y-97195000D03*
%TD*%
D23*
%TO.P,U4,1,GND*%
%TO.N,GND*%
X151780000Y-112390000D03*
%TO.P,U4,2,CSB*%
%TO.N,VDD*%
X151780000Y-111740000D03*
%TO.P,U4,3,SDI*%
%TO.N,/SDA*%
X151780000Y-111090000D03*
%TO.P,U4,4,SCK*%
%TO.N,/SCL*%
X151780000Y-110440000D03*
%TO.P,U4,5,SDO*%
%TO.N,GND*%
X153830000Y-110440000D03*
%TO.P,U4,6,VDDIO*%
%TO.N,VDD*%
X153830000Y-111090000D03*
%TO.P,U4,7,GND*%
%TO.N,GND*%
X153830000Y-111740000D03*
%TO.P,U4,8,VDD*%
%TO.N,VDD*%
X153830000Y-112390000D03*
%TD*%
D13*
%TO.P,C1,1*%
%TO.N,GND*%
X129235000Y-99120000D03*
%TO.P,C1,2*%
%TO.N,VCC*%
X129875000Y-99120000D03*
%TD*%
D24*
%TO.P,R3,1*%
%TO.N,VDD*%
X159300000Y-100740000D03*
%TO.P,R3,2*%
%TO.N,Net-(R3-Pad2)*%
X159300000Y-99720000D03*
%TD*%
D25*
%TO.P,Y1,1,1*%
%TO.N,Net-(C8-Pad1)*%
X147500000Y-107420000D03*
%TO.P,Y1,2,2*%
%TO.N,Net-(C5-Pad1)*%
X145000000Y-107420000D03*
%TD*%
D13*
%TO.P,C10,1*%
%TO.N,Net-(C10-Pad1)*%
X148725000Y-105420000D03*
%TO.P,C10,2*%
%TO.N,GND*%
X149365000Y-105420000D03*
%TD*%
D26*
%TO.P,C6,1*%
%TO.N,/nRESET*%
X143000000Y-103220000D03*
%TO.P,C6,2*%
%TO.N,Net-(C6-Pad2)*%
X143000000Y-104770000D03*
%TD*%
D22*
%TO.P,R2,1*%
%TO.N,Net-(C6-Pad2)*%
X143000000Y-106400000D03*
%TO.P,R2,2*%
%TO.N,GND*%
X143000000Y-107040000D03*
%TD*%
D27*
%TO.P,C8,1*%
%TO.N,Net-(C8-Pad1)*%
X147500000Y-109420000D03*
%TO.P,C8,2*%
%TO.N,GND*%
X146950000Y-109420000D03*
%TD*%
D28*
%TO.P,U1,1,GND*%
%TO.N,GND*%
X134137500Y-103670000D03*
%TO.P,U1,2,VOUT*%
%TO.N,VDD*%
X134137500Y-101770000D03*
%TO.P,U1,3,VIN*%
%TO.N,VCC*%
X132262500Y-102720000D03*
%TD*%
D29*
%TO.P,U5,-,EP*%
%TO.N,GND*%
X146300000Y-102420000D03*
D30*
%TO.P,U5,1,P0.1/SWDCLK/SPI1_MOSI/UART1_RX*%
%TO.N,/RX{slash}SWCLK-VDD*%
X144850000Y-100970000D03*
D31*
%TO.P,U5,2,P0.0/SWDIO/SPI1_MISO/UART1_TX*%
%TO.N,/TX{slash}SWDIO-VDD*%
X144850000Y-101620000D03*
%TO.P,U5,3*%
%TO.N,N/C*%
X144850000Y-102020000D03*
%TO.P,U5,4,P0.13/SPI1_SSO/UART1_RTS*%
%TO.N,unconnected-(U5-Pad4)*%
X144850000Y-102420000D03*
%TO.P,U5,5,P0.12/SPI1_SCK/UART1_CTS*%
%TO.N,unconnected-(U5-Pad5)*%
X144850000Y-102820000D03*
%TO.P,U5,6,RSTN*%
%TO.N,/nRESET*%
X144850000Y-103220000D03*
D32*
%TO.P,U5,7,VSS*%
%TO.N,GND*%
X144850000Y-103870000D03*
D33*
%TO.P,U5,8,32KOUT*%
%TO.N,Net-(C5-Pad1)*%
X145500000Y-103870000D03*
%TO.P,U5,9,32KIN*%
%TO.N,Net-(C8-Pad1)*%
X145900000Y-103870000D03*
%TO.P,U5,10,VSS*%
%TO.N,GND*%
X146300000Y-103870000D03*
%TO.P,U5,11,VDD*%
%TO.N,VDD*%
X146700000Y-103870000D03*
%TO.P,U5,12,VCORE*%
%TO.N,Net-(C10-Pad1)*%
X147100000Y-103870000D03*
D34*
%TO.P,U5,13,P0.9/I2C0_SDA/SWDCLK*%
%TO.N,unconnected-(U5-Pad13)*%
X147750000Y-103870000D03*
D31*
%TO.P,U5,14,P0.8/I2C0_SCL/SWDIO*%
%TO.N,unconnected-(U5-Pad14)*%
X147750000Y-103220000D03*
%TO.P,U5,15*%
%TO.N,N/C*%
X147750000Y-102820000D03*
%TO.P,U5,16,P0.11/SPI1_MOSI/UART1_RX*%
%TO.N,/BNO_INTERRUPT*%
X147750000Y-102420000D03*
%TO.P,U5,17,P0.10/SPI1_MISO/UART1_TX*%
%TO.N,unconnected-(U5-Pad17)*%
X147750000Y-102020000D03*
%TO.P,U5,18,P0.7/SPI0A_SSO/UART0_RTS/UART1_RX*%
%TO.N,unconnected-(U5-Pad18)*%
X147750000Y-101620000D03*
D35*
%TO.P,U5,19,P0.6/SPI0A_SCK/UART0_CTS/UART1_TX*%
%TO.N,unconnected-(U5-Pad19)*%
X147750000Y-100970000D03*
D33*
%TO.P,U5,20,P0.5/SPI0_MOSI/UART0_RX*%
%TO.N,unconnected-(U5-Pad20)*%
X147100000Y-100970000D03*
%TO.P,U5,21,P0.4/SPI0_MISO/UART0_TX*%
%TO.N,unconnected-(U5-Pad21)*%
X146700000Y-100970000D03*
%TO.P,U5,22,VDD*%
%TO.N,VDD*%
X146300000Y-100970000D03*
%TO.P,U5,23,P0.3/I2C1_SDA/SPI1_SSO/TMR0*%
%TO.N,/SDA*%
X145900000Y-100970000D03*
%TO.P,U5,24,P0.2/I2C1_SCL/SPI1_SCK/32KCAL*%
%TO.N,/SCL*%
X145500000Y-100970000D03*
%TD*%
D36*
%TO.P,R5,1*%
%TO.N,VDD*%
X147320000Y-99320000D03*
%TO.P,R5,2*%
%TO.N,/SDA*%
X146300000Y-99320000D03*
%TD*%
D37*
%TO.P,C4,1*%
%TO.N,VDD*%
X156000000Y-104520000D03*
%TO.P,C4,2*%
%TO.N,GND*%
X154450000Y-104520000D03*
%TD*%
D38*
%TO.N,GND*%
X139600000Y-107820000D03*
X159100000Y-106320000D03*
X144600000Y-104820000D03*
X128600000Y-106820000D03*
X149100000Y-103820000D03*
X152573182Y-99852900D03*
X127100000Y-96320000D03*
X146100000Y-113320000D03*
X134600000Y-115320000D03*
X131600000Y-100320000D03*
X140600000Y-97820000D03*
X146690897Y-105729103D03*
X126600000Y-113820000D03*
X154600000Y-100320000D03*
X152600000Y-96320000D03*
X159100000Y-97820000D03*
%TO.N,VDD*%
X150600000Y-105820000D03*
X157000000Y-103520000D03*
X148900000Y-99320000D03*
%TO.N,/nRESET*%
X153000000Y-100720000D03*
X137800000Y-101720000D03*
%TO.N,/RX{slash}SWCLK-VCC*%
X128900000Y-102120000D03*
%TO.N,/TX{slash}SWDIO-VCC*%
X128900000Y-101220000D03*
%TO.N,/SCL*%
X150200000Y-101920000D03*
X145100000Y-98452900D03*
%TO.N,/SDA*%
X146300000Y-98452900D03*
X150900000Y-101920000D03*
%TO.N,/RX{slash}SWCLK-VDD*%
X134800000Y-99420000D03*
X138000000Y-100320000D03*
%TO.N,/TX{slash}SWDIO-VDD*%
X134800000Y-98620000D03*
X140400000Y-101120000D03*
%TD*%
D39*
%TO.N,GND*%
X144850000Y-104570000D02*
X144600000Y-104820000D01*
D40*
X146300000Y-103870000D02*
X146300000Y-105338206D01*
D39*
X146300000Y-103870000D02*
X146300000Y-102420000D01*
X144850000Y-103870000D02*
X144850000Y-104570000D01*
D40*
X146300000Y-105338206D02*
X146690897Y-105729103D01*
X132700000Y-99220000D02*
X131600000Y-100320000D01*
D39*
%TO.N,VCC*%
X126101553Y-103020000D02*
X124700000Y-103020000D01*
X132262500Y-102720000D02*
X130862500Y-104120000D01*
X130862500Y-104120000D02*
X130200000Y-104120000D01*
X132700000Y-97970000D02*
X131025000Y-97970000D01*
X129875000Y-99246553D02*
X126101553Y-103020000D01*
X130200000Y-102560000D02*
X130200000Y-104120000D01*
X124700000Y-103020000D02*
X123600000Y-104120000D01*
X133540000Y-99220000D02*
X130200000Y-102560000D01*
X129875000Y-99120000D02*
X129875000Y-99246553D01*
X131025000Y-97970000D02*
X129875000Y-99120000D01*
X130200000Y-104120000D02*
X123600000Y-104120000D01*
D40*
%TO.N,VDD*%
X150600000Y-105820000D02*
X150533300Y-105886700D01*
D39*
X136975000Y-100145000D02*
X136225000Y-100145000D01*
D40*
X147781766Y-105886700D02*
X146700000Y-104804934D01*
D39*
X152280000Y-111740000D02*
X152550000Y-111470000D01*
X139580000Y-103220000D02*
X135587500Y-103220000D01*
X147320000Y-98340000D02*
X147320000Y-99320000D01*
X153830000Y-111090000D02*
X156070000Y-111090000D01*
X136225000Y-100145000D02*
X136225000Y-99120000D01*
X136225000Y-100795000D02*
X136225000Y-100145000D01*
X146300000Y-100970000D02*
X146300000Y-100361200D01*
X159300000Y-100740000D02*
X159130000Y-100570000D01*
X159300000Y-100740000D02*
X159300000Y-102120000D01*
X153470000Y-112390000D02*
X152550000Y-111470000D01*
X155950000Y-101882500D02*
X155950000Y-104470000D01*
X135587500Y-105207500D02*
X135587500Y-103220000D01*
X147320000Y-99600000D02*
X147320000Y-99320000D01*
D40*
X150533300Y-105886700D02*
X147781766Y-105886700D01*
D39*
X137300000Y-112720000D02*
X137300000Y-106920000D01*
X156070000Y-111090000D02*
X156100000Y-111120000D01*
X157900000Y-103520000D02*
X157000000Y-103520000D01*
X151780000Y-111740000D02*
X152280000Y-111740000D01*
X137800000Y-99320000D02*
X136975000Y-100145000D01*
X148900000Y-99320000D02*
X147320000Y-99320000D01*
X134137500Y-101770000D02*
X135250000Y-101770000D01*
X153830000Y-112390000D02*
X153470000Y-112390000D01*
X152930000Y-111090000D02*
X153830000Y-111090000D01*
X144090000Y-98430000D02*
X144600000Y-97920000D01*
X144090000Y-99320000D02*
X137800000Y-99320000D01*
X146900000Y-100020000D02*
X147320000Y-99600000D01*
X155950000Y-104470000D02*
X156000000Y-104520000D01*
X144600000Y-97920000D02*
X146900000Y-97920000D01*
X146300000Y-100361200D02*
X146641200Y-100020000D01*
X159130000Y-100570000D02*
X156512500Y-100570000D01*
X137300000Y-106920000D02*
X135587500Y-105207500D01*
D40*
X146700000Y-104804934D02*
X146700000Y-103870000D01*
D39*
X159300000Y-102120000D02*
X157900000Y-103520000D01*
X135125000Y-98020000D02*
X136225000Y-99120000D01*
X146900000Y-97920000D02*
X147320000Y-98340000D01*
X156000000Y-104520000D02*
X157000000Y-103520000D01*
X146641200Y-100020000D02*
X146900000Y-100020000D01*
X133540000Y-98020000D02*
X135125000Y-98020000D01*
X156000000Y-111020000D02*
X156100000Y-111120000D01*
X152550000Y-111470000D02*
X152930000Y-111090000D01*
X144090000Y-99320000D02*
X144090000Y-98430000D01*
X135587500Y-103220000D02*
X134137500Y-101770000D01*
X135250000Y-101770000D02*
X136225000Y-100795000D01*
X156000000Y-104520000D02*
X156000000Y-111020000D01*
D41*
%TO.N,Net-(C5-Pad1)*%
X145500000Y-104820000D02*
X145000000Y-105320000D01*
X145075000Y-109420000D02*
X145000000Y-109345000D01*
X145000000Y-109345000D02*
X145000000Y-107420000D01*
X145500000Y-103870000D02*
X145500000Y-104820000D01*
X145000000Y-105320000D02*
X145000000Y-107420000D01*
%TO.N,/nRESET*%
X140200000Y-102120000D02*
X139800000Y-101720000D01*
X140600000Y-103220000D02*
X143000000Y-103220000D01*
X139800000Y-101720000D02*
X137800000Y-101720000D01*
X140600000Y-103220000D02*
X140600000Y-102520000D01*
X144850000Y-103220000D02*
X143000000Y-103220000D01*
X140600000Y-102520000D02*
X140200000Y-102120000D01*
X153950000Y-99770000D02*
X153000000Y-100720000D01*
X153950000Y-98757500D02*
X153950000Y-99770000D01*
%TO.N,Net-(C6-Pad2)*%
X143000000Y-104770000D02*
X143000000Y-106400000D01*
%TO.N,Net-(C8-Pad1)*%
X145900000Y-105620000D02*
X147500000Y-107220000D01*
X145900000Y-103870000D02*
X145900000Y-105620000D01*
X147500000Y-107220000D02*
X147500000Y-107420000D01*
X147500000Y-107420000D02*
X147500000Y-109420000D01*
%TO.N,Net-(C9-Pad2)*%
X154950000Y-97245000D02*
X155000000Y-97195000D01*
X154950000Y-98757500D02*
X154950000Y-97245000D01*
%TO.N,Net-(C10-Pad1)*%
X147100000Y-104720000D02*
X147100000Y-103870000D01*
X147800000Y-105420000D02*
X147100000Y-104720000D01*
X148725000Y-105420000D02*
X147800000Y-105420000D01*
%TO.N,/RX{slash}SWCLK-VCC*%
X128902800Y-102120000D02*
X128900000Y-102120000D01*
X132202800Y-98820000D02*
X128902800Y-102120000D01*
X132700000Y-98820000D02*
X132202800Y-98820000D01*
%TO.N,/TX{slash}SWDIO-VCC*%
X132700000Y-98420000D02*
X131700000Y-98420000D01*
X131700000Y-98420000D02*
X128900000Y-101220000D01*
%TO.N,Net-(R3-Pad2)*%
X158950000Y-100070000D02*
X159300000Y-99720000D01*
X156512500Y-100070000D02*
X158950000Y-100070000D01*
%TO.N,/SCL*%
X151300000Y-109420000D02*
X151780000Y-109900000D01*
X150200000Y-101920000D02*
X150200000Y-103520000D01*
X145110000Y-98462900D02*
X145100000Y-98452900D01*
X150200000Y-101920000D02*
X151050000Y-101070000D01*
X145110000Y-99320000D02*
X145110000Y-98462900D01*
X151050000Y-101070000D02*
X151887500Y-101070000D01*
X151780000Y-109900000D02*
X151780000Y-110440000D01*
X150200000Y-103520000D02*
X151300000Y-104620000D01*
X145500000Y-99710000D02*
X145110000Y-99320000D01*
X145500000Y-100970000D02*
X145500000Y-99710000D01*
X151300000Y-104620000D02*
X151300000Y-109420000D01*
%TO.N,/SDA*%
X151950000Y-101882500D02*
X151950000Y-109070000D01*
X152600000Y-110502200D02*
X152012200Y-111090000D01*
X151950000Y-109070000D02*
X152600000Y-109720000D01*
X152012200Y-111090000D02*
X151780000Y-111090000D01*
X146300000Y-99320000D02*
X146300000Y-98452900D01*
X152600000Y-109720000D02*
X152600000Y-110502200D01*
X151950000Y-101882500D02*
X150937500Y-101882500D01*
X145900000Y-100970000D02*
X145900000Y-99720000D01*
X145900000Y-99720000D02*
X146300000Y-99320000D01*
X150937500Y-101882500D02*
X150900000Y-101920000D01*
%TO.N,/RX{slash}SWCLK-VDD*%
X133540000Y-98820000D02*
X134200000Y-98820000D01*
X144200000Y-100320000D02*
X144850000Y-100970000D01*
X134200000Y-98820000D02*
X134800000Y-99420000D01*
X138000000Y-100320000D02*
X144200000Y-100320000D01*
%TO.N,/TX{slash}SWDIO-VDD*%
X134600000Y-98420000D02*
X134800000Y-98620000D01*
X140400000Y-101120000D02*
X140900000Y-101620000D01*
X140900000Y-101620000D02*
X144850000Y-101620000D01*
X133540000Y-98420000D02*
X134600000Y-98420000D01*
%TO.N,/BNO_INTERRUPT*%
X151100000Y-97820000D02*
X151882200Y-97820000D01*
X152450000Y-98387800D02*
X152450000Y-98757500D01*
X150400000Y-100820000D02*
X150400000Y-98520000D01*
X151882200Y-97820000D02*
X152450000Y-98387800D01*
X148800000Y-102420000D02*
X150400000Y-100820000D01*
X147750000Y-102420000D02*
X148800000Y-102420000D01*
X150400000Y-98520000D02*
X151100000Y-97820000D01*
%TD*%
%TA.AperFunction,Conductor*%
%TO.N,GND*%
G36*
X135053857Y-94490493D02*
G01*
X135058693Y-94494926D01*
X136462902Y-95899135D01*
X136462913Y-95899147D01*
X136520853Y-95957087D01*
X136530413Y-95959649D01*
X136530414Y-95959649D01*
X136531422Y-95959919D01*
X136549560Y-95967432D01*
X136559030Y-95972900D01*
X151059029Y-95972900D01*
X151059030Y-95972901D01*
X151140970Y-95972901D01*
X151150443Y-95967431D01*
X151168584Y-95959917D01*
X151179147Y-95957087D01*
X151237087Y-95899147D01*
X151237087Y-95899146D01*
X152641307Y-94494926D01*
X152687927Y-94473186D01*
X152694481Y-94472900D01*
X158005519Y-94472900D01*
X158053857Y-94490493D01*
X158058693Y-94494926D01*
X161925074Y-98361307D01*
X161946814Y-98407927D01*
X161947100Y-98414481D01*
X161947100Y-109225519D01*
X161929507Y-109273857D01*
X161925074Y-109278693D01*
X155558693Y-115645074D01*
X155512073Y-115666814D01*
X155505519Y-115667100D01*
X141140971Y-115667100D01*
X141140970Y-115667099D01*
X141059030Y-115667099D01*
X141049555Y-115672570D01*
X141031419Y-115680082D01*
X141030418Y-115680350D01*
X141030417Y-115680350D01*
X141020853Y-115682913D01*
X141006118Y-115697648D01*
X138058693Y-118645074D01*
X138012073Y-118666814D01*
X138005519Y-118667100D01*
X128194481Y-118667100D01*
X128146143Y-118649507D01*
X128141307Y-118645074D01*
X122639150Y-113142917D01*
X128992000Y-113142917D01*
X128992088Y-113145498D01*
X128994701Y-113183825D01*
X128995728Y-113190348D01*
X129039040Y-113364061D01*
X129041837Y-113371662D01*
X129121102Y-113531340D01*
X129125467Y-113538167D01*
X129237177Y-113677106D01*
X129242894Y-113682823D01*
X129381833Y-113794533D01*
X129388660Y-113798898D01*
X129548338Y-113878163D01*
X129555939Y-113880960D01*
X129729652Y-113924272D01*
X129736175Y-113925299D01*
X129774502Y-113927912D01*
X129777083Y-113928000D01*
X131032741Y-113928000D01*
X131042898Y-113924303D01*
X131046000Y-113918931D01*
X131046000Y-113914741D01*
X131554000Y-113914741D01*
X131557697Y-113924898D01*
X131563069Y-113928000D01*
X132822917Y-113928000D01*
X132825498Y-113927912D01*
X132863825Y-113925299D01*
X132870348Y-113924272D01*
X133044061Y-113880960D01*
X133051662Y-113878163D01*
X133211340Y-113798898D01*
X133218167Y-113794533D01*
X133357106Y-113682823D01*
X133362823Y-113677106D01*
X133474533Y-113538167D01*
X133478898Y-113531340D01*
X133558163Y-113371662D01*
X133560960Y-113364061D01*
X133604272Y-113190348D01*
X133605299Y-113183825D01*
X133607912Y-113145498D01*
X133608000Y-113142917D01*
X133608000Y-112987259D01*
X133604303Y-112977102D01*
X133598931Y-112974000D01*
X131567259Y-112974000D01*
X131557102Y-112977697D01*
X131554000Y-112983069D01*
X131554000Y-113914741D01*
X131046000Y-113914741D01*
X131046000Y-112987259D01*
X131042303Y-112977102D01*
X131036931Y-112974000D01*
X129005259Y-112974000D01*
X128995102Y-112977697D01*
X128992000Y-112983069D01*
X128992000Y-113142917D01*
X122639150Y-113142917D01*
X121948974Y-112452741D01*
X128992000Y-112452741D01*
X128995697Y-112462898D01*
X129001069Y-112466000D01*
X131032741Y-112466000D01*
X131042898Y-112462303D01*
X131046000Y-112456931D01*
X131046000Y-112452741D01*
X131554000Y-112452741D01*
X131557697Y-112462898D01*
X131563069Y-112466000D01*
X133594741Y-112466000D01*
X133604898Y-112462303D01*
X133608000Y-112456931D01*
X133608000Y-112297083D01*
X133607912Y-112294502D01*
X133605299Y-112256175D01*
X133604272Y-112249652D01*
X133560960Y-112075939D01*
X133558163Y-112068338D01*
X133478898Y-111908660D01*
X133474533Y-111901833D01*
X133362823Y-111762894D01*
X133357106Y-111757177D01*
X133218167Y-111645467D01*
X133211340Y-111641102D01*
X133051662Y-111561837D01*
X133044061Y-111559040D01*
X132870348Y-111515728D01*
X132863825Y-111514701D01*
X132825498Y-111512088D01*
X132822917Y-111512000D01*
X131567259Y-111512000D01*
X131557102Y-111515697D01*
X131554000Y-111521069D01*
X131554000Y-112452741D01*
X131046000Y-112452741D01*
X131046000Y-111525259D01*
X131042303Y-111515102D01*
X131036931Y-111512000D01*
X129777083Y-111512000D01*
X129774502Y-111512088D01*
X129736175Y-111514701D01*
X129729652Y-111515728D01*
X129555939Y-111559040D01*
X129548338Y-111561837D01*
X129388660Y-111641102D01*
X129381833Y-111645467D01*
X129242894Y-111757177D01*
X129237177Y-111762894D01*
X129125467Y-111901833D01*
X129121102Y-111908660D01*
X129041837Y-112068338D01*
X129039040Y-112075939D01*
X128995728Y-112249652D01*
X128994701Y-112256175D01*
X128992088Y-112294502D01*
X128992000Y-112297083D01*
X128992000Y-112452741D01*
X121948974Y-112452741D01*
X121274926Y-111778693D01*
X121253186Y-111732073D01*
X121252900Y-111725519D01*
X121252900Y-109185930D01*
X122592345Y-109185930D01*
X122592653Y-109189598D01*
X122592653Y-109189601D01*
X122607044Y-109360970D01*
X122608803Y-109381919D01*
X122663015Y-109570979D01*
X122664697Y-109574251D01*
X122664697Y-109574252D01*
X122671590Y-109587665D01*
X122752916Y-109745908D01*
X122755201Y-109748791D01*
X122758998Y-109753581D01*
X122875083Y-109900044D01*
X122877877Y-109902422D01*
X122877878Y-109902423D01*
X122912691Y-109932051D01*
X123024862Y-110027516D01*
X123028063Y-110029305D01*
X123028066Y-110029307D01*
X123066656Y-110050874D01*
X123196547Y-110123467D01*
X123200044Y-110124603D01*
X123200048Y-110124605D01*
X123279368Y-110150377D01*
X123383600Y-110184244D01*
X123490984Y-110197049D01*
X123575237Y-110207096D01*
X123575239Y-110207096D01*
X123578895Y-110207532D01*
X123774994Y-110192443D01*
X123909938Y-110154766D01*
X123960883Y-110140542D01*
X123960885Y-110140541D01*
X123964428Y-110139552D01*
X124045305Y-110098698D01*
X124136697Y-110052533D01*
X124136698Y-110052532D01*
X124139981Y-110050874D01*
X124294966Y-109929786D01*
X124423480Y-109780901D01*
X124433514Y-109763238D01*
X124518810Y-109613091D01*
X124518812Y-109613088D01*
X124520628Y-109609890D01*
X124582710Y-109423266D01*
X124607360Y-109228138D01*
X124607709Y-109203154D01*
X124607724Y-109202099D01*
X124607724Y-109202093D01*
X124607753Y-109200000D01*
X124606791Y-109190184D01*
X124588921Y-109007927D01*
X124588920Y-109007922D01*
X124588561Y-109004260D01*
X124531714Y-108815975D01*
X124439379Y-108642318D01*
X124315072Y-108489903D01*
X124283795Y-108464028D01*
X124166359Y-108366877D01*
X124163528Y-108364535D01*
X123990520Y-108270990D01*
X123802637Y-108212830D01*
X123679766Y-108199916D01*
X123610690Y-108192656D01*
X123610689Y-108192656D01*
X123607035Y-108192272D01*
X123509100Y-108201185D01*
X123414824Y-108209764D01*
X123414823Y-108209764D01*
X123411166Y-108210097D01*
X123407641Y-108211134D01*
X123407638Y-108211135D01*
X123226019Y-108264589D01*
X123222489Y-108265628D01*
X123048192Y-108356748D01*
X123012036Y-108385818D01*
X122902309Y-108474041D01*
X122894912Y-108479988D01*
X122768489Y-108630653D01*
X122673739Y-108803004D01*
X122614269Y-108990476D01*
X122592345Y-109185930D01*
X121252900Y-109185930D01*
X121252900Y-106645930D01*
X122592345Y-106645930D01*
X122592653Y-106649598D01*
X122592653Y-106649601D01*
X122601737Y-106757775D01*
X122608803Y-106841919D01*
X122663015Y-107030979D01*
X122664697Y-107034251D01*
X122664697Y-107034252D01*
X122676200Y-107056634D01*
X122752916Y-107205908D01*
X122875083Y-107360044D01*
X122877877Y-107362422D01*
X122877878Y-107362423D01*
X122912691Y-107392051D01*
X123024862Y-107487516D01*
X123028063Y-107489305D01*
X123028066Y-107489307D01*
X123066656Y-107510874D01*
X123196547Y-107583467D01*
X123200044Y-107584603D01*
X123200048Y-107584605D01*
X123267829Y-107606628D01*
X123383600Y-107644244D01*
X123490984Y-107657049D01*
X123575237Y-107667096D01*
X123575239Y-107667096D01*
X123578895Y-107667532D01*
X123774994Y-107652443D01*
X123939085Y-107606628D01*
X123960883Y-107600542D01*
X123960885Y-107600541D01*
X123964428Y-107599552D01*
X124139981Y-107510874D01*
X124294966Y-107389786D01*
X124423480Y-107240901D01*
X124520628Y-107069890D01*
X124558961Y-106954659D01*
X124581548Y-106886760D01*
X124581549Y-106886757D01*
X124582710Y-106883266D01*
X124607360Y-106688138D01*
X124607753Y-106660000D01*
X124607548Y-106657907D01*
X124588921Y-106467927D01*
X124588920Y-106467922D01*
X124588561Y-106464260D01*
X124531714Y-106275975D01*
X124439379Y-106102318D01*
X124315072Y-105949903D01*
X124163528Y-105824535D01*
X123990520Y-105730990D01*
X123802637Y-105672830D01*
X123679766Y-105659916D01*
X123610690Y-105652656D01*
X123610689Y-105652656D01*
X123607035Y-105652272D01*
X123509100Y-105661185D01*
X123414824Y-105669764D01*
X123414823Y-105669764D01*
X123411166Y-105670097D01*
X123407641Y-105671134D01*
X123407638Y-105671135D01*
X123226019Y-105724589D01*
X123222489Y-105725628D01*
X123048192Y-105816748D01*
X122894912Y-105939988D01*
X122816909Y-106032948D01*
X122774531Y-106083453D01*
X122768489Y-106090653D01*
X122766718Y-106093875D01*
X122766717Y-106093876D01*
X122724141Y-106171323D01*
X122673739Y-106263004D01*
X122614269Y-106450476D01*
X122592345Y-106645930D01*
X121252900Y-106645930D01*
X121252900Y-104105930D01*
X122592345Y-104105930D01*
X122592653Y-104109598D01*
X122592653Y-104109601D01*
X122602194Y-104223221D01*
X122608803Y-104301919D01*
X122637413Y-104401694D01*
X122659260Y-104477882D01*
X122663015Y-104490979D01*
X122752916Y-104665908D01*
X122875083Y-104820044D01*
X122877877Y-104822422D01*
X122877878Y-104822423D01*
X122911484Y-104851024D01*
X123024862Y-104947516D01*
X123028063Y-104949305D01*
X123028066Y-104949307D01*
X123178745Y-105033518D01*
X123196547Y-105043467D01*
X123200044Y-105044603D01*
X123200048Y-105044605D01*
X123268876Y-105066968D01*
X123383600Y-105104244D01*
X123461960Y-105113588D01*
X123575237Y-105127096D01*
X123575239Y-105127096D01*
X123578895Y-105127532D01*
X123774994Y-105112443D01*
X123900092Y-105077515D01*
X123960883Y-105060542D01*
X123960885Y-105060541D01*
X123964428Y-105059552D01*
X124088494Y-104996882D01*
X124136697Y-104972533D01*
X124136698Y-104972532D01*
X124139981Y-104970874D01*
X124294966Y-104849786D01*
X124423480Y-104700901D01*
X124454027Y-104647129D01*
X124518810Y-104533091D01*
X124518812Y-104533088D01*
X124520628Y-104529890D01*
X124537929Y-104477882D01*
X124546751Y-104451363D01*
X124578703Y-104411050D01*
X124618106Y-104399900D01*
X130149494Y-104399900D01*
X130158595Y-104401191D01*
X130158635Y-104400781D01*
X130165546Y-104401459D01*
X130172213Y-104403389D01*
X130209265Y-104400180D01*
X130215754Y-104399900D01*
X130811935Y-104399900D01*
X130816697Y-104400250D01*
X130820903Y-104401694D01*
X130827838Y-104401434D01*
X130827841Y-104401434D01*
X130867275Y-104399953D01*
X130870096Y-104399900D01*
X130888531Y-104399900D01*
X130891936Y-104399266D01*
X130894254Y-104399052D01*
X130898343Y-104398787D01*
X130918161Y-104398043D01*
X130918163Y-104398042D01*
X130925101Y-104397782D01*
X130931479Y-104395042D01*
X130931483Y-104395041D01*
X130936694Y-104392802D01*
X130952606Y-104387968D01*
X130958181Y-104386930D01*
X130958188Y-104386927D01*
X130965008Y-104385657D01*
X130970916Y-104382015D01*
X130970919Y-104382014D01*
X130987191Y-104371984D01*
X130996963Y-104366907D01*
X131006289Y-104362900D01*
X131020904Y-104356621D01*
X131025457Y-104352881D01*
X131030925Y-104347413D01*
X131044637Y-104336573D01*
X131053771Y-104330943D01*
X131060592Y-104321974D01*
X131070926Y-104308383D01*
X131077611Y-104300727D01*
X131449150Y-103929188D01*
X132897248Y-103929188D01*
X132897416Y-103932291D01*
X132939998Y-104078858D01*
X132943726Y-104087471D01*
X133023536Y-104222425D01*
X133029294Y-104229847D01*
X133140153Y-104340706D01*
X133147575Y-104346464D01*
X133282529Y-104426274D01*
X133291142Y-104430002D01*
X133442555Y-104473992D01*
X133450083Y-104475367D01*
X133482065Y-104477884D01*
X133485023Y-104478000D01*
X133870241Y-104478000D01*
X133880398Y-104474303D01*
X133883500Y-104468931D01*
X133883500Y-103937259D01*
X133879803Y-103927102D01*
X133874431Y-103924000D01*
X132908266Y-103924000D01*
X132898109Y-103927697D01*
X132897248Y-103929188D01*
X131449150Y-103929188D01*
X132183412Y-103194926D01*
X132230032Y-103173186D01*
X132236586Y-103172900D01*
X132865478Y-103172900D01*
X132913816Y-103190493D01*
X132939536Y-103235042D01*
X132937692Y-103269081D01*
X132898707Y-103403266D01*
X132899423Y-103414054D01*
X132900615Y-103415296D01*
X132903640Y-103416000D01*
X133870241Y-103416000D01*
X133880398Y-103412303D01*
X133883500Y-103406931D01*
X133883500Y-102875260D01*
X133879803Y-102865103D01*
X133874431Y-102862001D01*
X133485026Y-102862001D01*
X133482062Y-102862118D01*
X133450081Y-102864633D01*
X133442558Y-102866007D01*
X133291142Y-102909998D01*
X133282529Y-102913726D01*
X133266380Y-102923276D01*
X133215818Y-102932738D01*
X133171003Y-102907486D01*
X133152900Y-102858548D01*
X133152900Y-102524996D01*
X133152253Y-102519552D01*
X133150425Y-102504191D01*
X133150424Y-102504189D01*
X133149758Y-102498588D01*
X133103952Y-102395464D01*
X133054344Y-102345942D01*
X133029007Y-102320649D01*
X133029006Y-102320648D01*
X133024093Y-102315744D01*
X133017743Y-102312937D01*
X133017742Y-102312936D01*
X132936831Y-102277166D01*
X132920889Y-102270118D01*
X132897260Y-102267363D01*
X132897166Y-102267352D01*
X132897165Y-102267352D01*
X132895004Y-102267100D01*
X131629996Y-102267100D01*
X131627789Y-102267363D01*
X131627782Y-102267363D01*
X131609191Y-102269575D01*
X131609189Y-102269576D01*
X131603588Y-102270242D01*
X131500464Y-102316048D01*
X131460402Y-102356179D01*
X131426080Y-102390562D01*
X131420744Y-102395907D01*
X131417937Y-102402257D01*
X131417936Y-102402258D01*
X131399201Y-102444636D01*
X131375118Y-102499111D01*
X131374463Y-102504729D01*
X131372882Y-102518293D01*
X131372100Y-102524996D01*
X131372100Y-102915004D01*
X131372363Y-102917211D01*
X131372363Y-102917218D01*
X131374486Y-102935057D01*
X131375242Y-102941412D01*
X131421048Y-103044536D01*
X131425959Y-103049438D01*
X131428372Y-103051847D01*
X131450153Y-103098448D01*
X131436884Y-103148147D01*
X131428419Y-103158243D01*
X130768588Y-103818074D01*
X130721968Y-103839814D01*
X130715414Y-103840100D01*
X130555100Y-103840100D01*
X130506762Y-103822507D01*
X130481042Y-103777958D01*
X130479900Y-103764900D01*
X130479900Y-102707086D01*
X130497493Y-102658748D01*
X130501926Y-102653912D01*
X133650914Y-99504925D01*
X133697534Y-99483185D01*
X133704088Y-99482899D01*
X133885056Y-99482899D01*
X133929658Y-99474028D01*
X133980234Y-99440234D01*
X133997352Y-99414615D01*
X134009913Y-99395817D01*
X134009914Y-99395816D01*
X134014028Y-99389658D01*
X134022900Y-99345057D01*
X134022899Y-99148442D01*
X134040492Y-99100106D01*
X134085040Y-99074386D01*
X134135699Y-99083318D01*
X134151273Y-99095269D01*
X134372963Y-99316959D01*
X134394703Y-99363579D01*
X134394063Y-99381897D01*
X134388028Y-99420000D01*
X134388954Y-99425847D01*
X134390577Y-99436093D01*
X134408191Y-99547306D01*
X134420996Y-99572437D01*
X134460376Y-99649723D01*
X134466708Y-99662151D01*
X134557849Y-99753292D01*
X134563125Y-99755980D01*
X134563126Y-99755981D01*
X134602361Y-99775972D01*
X134672694Y-99811809D01*
X134692185Y-99814896D01*
X134789027Y-99830234D01*
X134800000Y-99831972D01*
X134810974Y-99830234D01*
X134907815Y-99814896D01*
X134927306Y-99811809D01*
X134997639Y-99775972D01*
X135036874Y-99755981D01*
X135036875Y-99755980D01*
X135042151Y-99753292D01*
X135133292Y-99662151D01*
X135139625Y-99649723D01*
X135179004Y-99572437D01*
X135191809Y-99547306D01*
X135209423Y-99436093D01*
X135211046Y-99425847D01*
X135211972Y-99420000D01*
X135210549Y-99411012D01*
X135201548Y-99354182D01*
X135191809Y-99292694D01*
X135133292Y-99177849D01*
X135042151Y-99086708D01*
X135036876Y-99084020D01*
X135032495Y-99080837D01*
X135003731Y-99038191D01*
X135009109Y-98987033D01*
X135032495Y-98959163D01*
X135036876Y-98955980D01*
X135042151Y-98953292D01*
X135133292Y-98862151D01*
X135143823Y-98841484D01*
X135189122Y-98752579D01*
X135191809Y-98747306D01*
X135199922Y-98696081D01*
X135204908Y-98664604D01*
X135229847Y-98619614D01*
X135277870Y-98601179D01*
X135326507Y-98617927D01*
X135332356Y-98623194D01*
X135820075Y-99110913D01*
X135841815Y-99157533D01*
X135842101Y-99164086D01*
X135842101Y-99244910D01*
X135842822Y-99248533D01*
X135842822Y-99248537D01*
X135846515Y-99267101D01*
X135856773Y-99318677D01*
X135912669Y-99402331D01*
X135918826Y-99406445D01*
X135923074Y-99410693D01*
X135944814Y-99457313D01*
X135945100Y-99463867D01*
X135945100Y-100094494D01*
X135943809Y-100103595D01*
X135944219Y-100103635D01*
X135943541Y-100110546D01*
X135941611Y-100117213D01*
X135944820Y-100154265D01*
X135945100Y-100160754D01*
X135945100Y-100647914D01*
X135927507Y-100696252D01*
X135923074Y-100701088D01*
X135156088Y-101468074D01*
X135109468Y-101489814D01*
X135102914Y-101490100D01*
X135047652Y-101490100D01*
X134999314Y-101472507D01*
X134985678Y-101457494D01*
X134981770Y-101451808D01*
X134978952Y-101445464D01*
X134924291Y-101390898D01*
X134904007Y-101370649D01*
X134904006Y-101370648D01*
X134899093Y-101365744D01*
X134892743Y-101362937D01*
X134892742Y-101362936D01*
X134836172Y-101337927D01*
X134795889Y-101320118D01*
X134777226Y-101317942D01*
X134772166Y-101317352D01*
X134772165Y-101317352D01*
X134770004Y-101317100D01*
X133504996Y-101317100D01*
X133502789Y-101317363D01*
X133502782Y-101317363D01*
X133484191Y-101319575D01*
X133484189Y-101319576D01*
X133478588Y-101320242D01*
X133375464Y-101366048D01*
X133351497Y-101390057D01*
X133301082Y-101440560D01*
X133295744Y-101445907D01*
X133292937Y-101452257D01*
X133292936Y-101452258D01*
X133277427Y-101487339D01*
X133250118Y-101549111D01*
X133247100Y-101574996D01*
X133247100Y-101965004D01*
X133247363Y-101967211D01*
X133247363Y-101967218D01*
X133249575Y-101985809D01*
X133250242Y-101991412D01*
X133296048Y-102094536D01*
X133324197Y-102122636D01*
X133370516Y-102168874D01*
X133375907Y-102174256D01*
X133382257Y-102177063D01*
X133382258Y-102177064D01*
X133433026Y-102199508D01*
X133479111Y-102219882D01*
X133484729Y-102220537D01*
X133502834Y-102222648D01*
X133502835Y-102222648D01*
X133504996Y-102222900D01*
X134163414Y-102222900D01*
X134211752Y-102240493D01*
X134216588Y-102244926D01*
X134705288Y-102733626D01*
X134727028Y-102780246D01*
X134713714Y-102829933D01*
X134671577Y-102859438D01*
X134652114Y-102862000D01*
X134404759Y-102862000D01*
X134394602Y-102865697D01*
X134391500Y-102871069D01*
X134391500Y-104464740D01*
X134395197Y-104474897D01*
X134400569Y-104477999D01*
X134789975Y-104477999D01*
X134792938Y-104477882D01*
X134824919Y-104475367D01*
X134832442Y-104473993D01*
X134983858Y-104430002D01*
X134992471Y-104426274D01*
X135127425Y-104346464D01*
X135134847Y-104340706D01*
X135179226Y-104296327D01*
X135225846Y-104274587D01*
X135275533Y-104287901D01*
X135305038Y-104330038D01*
X135307600Y-104349501D01*
X135307600Y-105156935D01*
X135307250Y-105161697D01*
X135305806Y-105165903D01*
X135306066Y-105172838D01*
X135306066Y-105172841D01*
X135307547Y-105212275D01*
X135307600Y-105215096D01*
X135307600Y-105233531D01*
X135308234Y-105236936D01*
X135308448Y-105239254D01*
X135308713Y-105243343D01*
X135309718Y-105270101D01*
X135312458Y-105276479D01*
X135312459Y-105276483D01*
X135314698Y-105281694D01*
X135319532Y-105297606D01*
X135320570Y-105303181D01*
X135320573Y-105303188D01*
X135321843Y-105310008D01*
X135325485Y-105315916D01*
X135325486Y-105315919D01*
X135335516Y-105332191D01*
X135340593Y-105341963D01*
X135350879Y-105365904D01*
X135354619Y-105370457D01*
X135360087Y-105375925D01*
X135370927Y-105389637D01*
X135376557Y-105398771D01*
X135382084Y-105402974D01*
X135382085Y-105402975D01*
X135399117Y-105415926D01*
X135406773Y-105422611D01*
X136998074Y-107013912D01*
X137019814Y-107060532D01*
X137020100Y-107067086D01*
X137020100Y-111791902D01*
X137002507Y-111840240D01*
X136957958Y-111865960D01*
X136944900Y-111867102D01*
X135802400Y-111867102D01*
X135800379Y-111867322D01*
X135800370Y-111867322D01*
X135766415Y-111871011D01*
X135740899Y-111873782D01*
X135736485Y-111875437D01*
X135736484Y-111875437D01*
X135611029Y-111922467D01*
X135611028Y-111922468D01*
X135606012Y-111924348D01*
X135490740Y-112010741D01*
X135404347Y-112126013D01*
X135402467Y-112131029D01*
X135402466Y-112131030D01*
X135357998Y-112249652D01*
X135353781Y-112260900D01*
X135347100Y-112322400D01*
X135347101Y-113117599D01*
X135353781Y-113179100D01*
X135404347Y-113313987D01*
X135490740Y-113429259D01*
X135606012Y-113515652D01*
X135611028Y-113517532D01*
X135611029Y-113517533D01*
X135736483Y-113564563D01*
X135736486Y-113564564D01*
X135740899Y-113566218D01*
X135781572Y-113570636D01*
X135800372Y-113572679D01*
X135800376Y-113572679D01*
X135802399Y-113572899D01*
X137299265Y-113572899D01*
X138797600Y-113572898D01*
X138799621Y-113572678D01*
X138799630Y-113572678D01*
X138833585Y-113568989D01*
X138859101Y-113566218D01*
X138863516Y-113564563D01*
X138988971Y-113517533D01*
X138988972Y-113517532D01*
X138993988Y-113515652D01*
X139109260Y-113429259D01*
X139195653Y-113313987D01*
X139197534Y-113308970D01*
X139244564Y-113183516D01*
X139244565Y-113183513D01*
X139246219Y-113179100D01*
X139252900Y-113117600D01*
X139252899Y-112611049D01*
X151022001Y-112611049D01*
X151022221Y-112615118D01*
X151028239Y-112670518D01*
X151030403Y-112679622D01*
X151077948Y-112806448D01*
X151083039Y-112815746D01*
X151163886Y-112923621D01*
X151171379Y-112931114D01*
X151279254Y-113011961D01*
X151288552Y-113017052D01*
X151415377Y-113064597D01*
X151424483Y-113066762D01*
X151479883Y-113072780D01*
X151483949Y-113073000D01*
X151591741Y-113073000D01*
X151601898Y-113069303D01*
X151605000Y-113063931D01*
X151605000Y-113059740D01*
X151955000Y-113059740D01*
X151958697Y-113069897D01*
X151964069Y-113072999D01*
X152076049Y-113072999D01*
X152080118Y-113072779D01*
X152135518Y-113066761D01*
X152144622Y-113064597D01*
X152271448Y-113017052D01*
X152280746Y-113011961D01*
X152388621Y-112931114D01*
X152396114Y-112923621D01*
X152476961Y-112815746D01*
X152482052Y-112806448D01*
X152529597Y-112679623D01*
X152531762Y-112670517D01*
X152537780Y-112615117D01*
X152538000Y-112611051D01*
X152538000Y-112578259D01*
X152534303Y-112568102D01*
X152528931Y-112565000D01*
X151968259Y-112565000D01*
X151958102Y-112568697D01*
X151955000Y-112574069D01*
X151955000Y-113059740D01*
X151605000Y-113059740D01*
X151605000Y-112578259D01*
X151601303Y-112568102D01*
X151595931Y-112565000D01*
X151035260Y-112565000D01*
X151025103Y-112568697D01*
X151022001Y-112574069D01*
X151022001Y-112611049D01*
X139252899Y-112611049D01*
X139252899Y-112322401D01*
X139246219Y-112260900D01*
X139227626Y-112211303D01*
X139197534Y-112131030D01*
X139197533Y-112131029D01*
X139195653Y-112126013D01*
X139109260Y-112010741D01*
X138993988Y-111924348D01*
X138988972Y-111922468D01*
X138988971Y-111922467D01*
X138863517Y-111875437D01*
X138863514Y-111875436D01*
X138859101Y-111873782D01*
X138818428Y-111869364D01*
X138799628Y-111867321D01*
X138799624Y-111867321D01*
X138797601Y-111867101D01*
X137655100Y-111867101D01*
X137606762Y-111849508D01*
X137581042Y-111804959D01*
X137579900Y-111791901D01*
X137579900Y-107247385D01*
X142296943Y-107247385D01*
X142307007Y-107323833D01*
X142309536Y-107333274D01*
X142367029Y-107472074D01*
X142371911Y-107480530D01*
X142463372Y-107599723D01*
X142470277Y-107606628D01*
X142589470Y-107698089D01*
X142597926Y-107702971D01*
X142736731Y-107760466D01*
X142746161Y-107762993D01*
X142786855Y-107768350D01*
X142797407Y-107766011D01*
X142800000Y-107762632D01*
X142800000Y-107756821D01*
X143200000Y-107756821D01*
X143203697Y-107766978D01*
X143207385Y-107769108D01*
X143253833Y-107762993D01*
X143263274Y-107760464D01*
X143402074Y-107702971D01*
X143410530Y-107698089D01*
X143529723Y-107606628D01*
X143536628Y-107599723D01*
X143628089Y-107480530D01*
X143632971Y-107472074D01*
X143690464Y-107333274D01*
X143692993Y-107323833D01*
X143702300Y-107253145D01*
X143699960Y-107242593D01*
X143696581Y-107240000D01*
X143213259Y-107240000D01*
X143203102Y-107243697D01*
X143200000Y-107249069D01*
X143200000Y-107756821D01*
X142800000Y-107756821D01*
X142800000Y-107253259D01*
X142796303Y-107243102D01*
X142790931Y-107240000D01*
X142309230Y-107240000D01*
X142299073Y-107243697D01*
X142296943Y-107247385D01*
X137579900Y-107247385D01*
X137579900Y-106970565D01*
X137580250Y-106965803D01*
X137581694Y-106961597D01*
X137579953Y-106915224D01*
X137579900Y-106912404D01*
X137579900Y-106893969D01*
X137579266Y-106890564D01*
X137579052Y-106888246D01*
X137578787Y-106884157D01*
X137578043Y-106864339D01*
X137578042Y-106864337D01*
X137577782Y-106857399D01*
X137575042Y-106851021D01*
X137575041Y-106851017D01*
X137572802Y-106845806D01*
X137567968Y-106829894D01*
X137567402Y-106826855D01*
X142297700Y-106826855D01*
X142300040Y-106837407D01*
X142303419Y-106840000D01*
X143690770Y-106840000D01*
X143700927Y-106836303D01*
X143703057Y-106832615D01*
X143692993Y-106756167D01*
X143690464Y-106746726D01*
X143632971Y-106607926D01*
X143628089Y-106599470D01*
X143536628Y-106480277D01*
X143529723Y-106473372D01*
X143410530Y-106381911D01*
X143402068Y-106377025D01*
X143399318Y-106375886D01*
X143397995Y-106374674D01*
X143397800Y-106374561D01*
X143397825Y-106374518D01*
X143361394Y-106341132D01*
X143352899Y-106306412D01*
X143352899Y-106245090D01*
X143338227Y-106171323D01*
X143282331Y-106087669D01*
X143262519Y-106074431D01*
X143232104Y-106032948D01*
X143229100Y-106011906D01*
X143229100Y-105446188D01*
X143246693Y-105397850D01*
X143293350Y-105371790D01*
X143315645Y-105368508D01*
X143360095Y-105361966D01*
X143365340Y-105359391D01*
X143467450Y-105309257D01*
X143467451Y-105309256D01*
X143473026Y-105306519D01*
X143477414Y-105302124D01*
X143477416Y-105302122D01*
X143540174Y-105239254D01*
X143561908Y-105217482D01*
X143564637Y-105211898D01*
X143564639Y-105211896D01*
X143614595Y-105109695D01*
X143617157Y-105104454D01*
X143627900Y-105030815D01*
X143627899Y-104509186D01*
X143616966Y-104434905D01*
X143614391Y-104429660D01*
X143564257Y-104327550D01*
X143564256Y-104327549D01*
X143561519Y-104321974D01*
X143557124Y-104317586D01*
X143557122Y-104317584D01*
X143501744Y-104262303D01*
X143472482Y-104233092D01*
X143466898Y-104230363D01*
X143466896Y-104230361D01*
X143388446Y-104192014D01*
X143359454Y-104177843D01*
X143320146Y-104172108D01*
X143288518Y-104167494D01*
X143288513Y-104167494D01*
X143285815Y-104167100D01*
X143000992Y-104167100D01*
X142714186Y-104167101D01*
X142639905Y-104178034D01*
X142634661Y-104180609D01*
X142634660Y-104180609D01*
X142532550Y-104230743D01*
X142532549Y-104230744D01*
X142526974Y-104233481D01*
X142522586Y-104237876D01*
X142522584Y-104237878D01*
X142485940Y-104274587D01*
X142438092Y-104322518D01*
X142435363Y-104328102D01*
X142435361Y-104328104D01*
X142405351Y-104389499D01*
X142382843Y-104435546D01*
X142380394Y-104452335D01*
X142374279Y-104494252D01*
X142372100Y-104509185D01*
X142372101Y-105030814D01*
X142383034Y-105105095D01*
X142385609Y-105110339D01*
X142385609Y-105110340D01*
X142425163Y-105190900D01*
X142438481Y-105218026D01*
X142442876Y-105222414D01*
X142442878Y-105222416D01*
X142459746Y-105239254D01*
X142527518Y-105306908D01*
X142533102Y-105309637D01*
X142533104Y-105309639D01*
X142588857Y-105336891D01*
X142640546Y-105362157D01*
X142706556Y-105371787D01*
X142751847Y-105396174D01*
X142770900Y-105446199D01*
X142770900Y-106011906D01*
X142753307Y-106060244D01*
X142737482Y-106074431D01*
X142717669Y-106087669D01*
X142713555Y-106093826D01*
X142665890Y-106165162D01*
X142661773Y-106171323D01*
X142660328Y-106178587D01*
X142654254Y-106209122D01*
X142647100Y-106245089D01*
X142647100Y-106306413D01*
X142629507Y-106354751D01*
X142600676Y-106375889D01*
X142597930Y-106377026D01*
X142589470Y-106381911D01*
X142470277Y-106473372D01*
X142463372Y-106480277D01*
X142371911Y-106599470D01*
X142367029Y-106607926D01*
X142309536Y-106746726D01*
X142307007Y-106756167D01*
X142297700Y-106826855D01*
X137567402Y-106826855D01*
X137566930Y-106824319D01*
X137566927Y-106824312D01*
X137565657Y-106817492D01*
X137562015Y-106811584D01*
X137562014Y-106811581D01*
X137551984Y-106795309D01*
X137546907Y-106785537D01*
X137545670Y-106782659D01*
X137536621Y-106761596D01*
X137532882Y-106757043D01*
X137527412Y-106751573D01*
X137516570Y-106737858D01*
X137510943Y-106728729D01*
X137488387Y-106711577D01*
X137480731Y-106704892D01*
X135889426Y-105113588D01*
X135867686Y-105066968D01*
X135867400Y-105060414D01*
X135867400Y-103575100D01*
X135884993Y-103526762D01*
X135929542Y-103501042D01*
X135942600Y-103499900D01*
X139123208Y-103499900D01*
X139171546Y-103517493D01*
X139191933Y-103544573D01*
X139193859Y-103548908D01*
X139203624Y-103570893D01*
X139230268Y-103597490D01*
X139274319Y-103641464D01*
X139279529Y-103646665D01*
X139285879Y-103649472D01*
X139285880Y-103649473D01*
X139326616Y-103667482D01*
X139377621Y-103690031D01*
X139383239Y-103690686D01*
X139400066Y-103692648D01*
X139400067Y-103692648D01*
X139402228Y-103692900D01*
X139757772Y-103692900D01*
X139759979Y-103692637D01*
X139759986Y-103692637D01*
X139777270Y-103690580D01*
X139782876Y-103689913D01*
X139880893Y-103646376D01*
X139885795Y-103641465D01*
X139885797Y-103641464D01*
X139951760Y-103575385D01*
X139951761Y-103575384D01*
X139956665Y-103570471D01*
X139962866Y-103556446D01*
X139997743Y-103477554D01*
X140000031Y-103472379D01*
X140002900Y-103447772D01*
X140002900Y-102992228D01*
X140001405Y-102979658D01*
X140000580Y-102972730D01*
X139999913Y-102967124D01*
X139956376Y-102869107D01*
X139951465Y-102864205D01*
X139951464Y-102864203D01*
X139885385Y-102798240D01*
X139885384Y-102798239D01*
X139880471Y-102793335D01*
X139874121Y-102790528D01*
X139874120Y-102790527D01*
X139800513Y-102757986D01*
X139782379Y-102749969D01*
X139760028Y-102747363D01*
X139759934Y-102747352D01*
X139759933Y-102747352D01*
X139757772Y-102747100D01*
X139402228Y-102747100D01*
X139400021Y-102747363D01*
X139400014Y-102747363D01*
X139383852Y-102749287D01*
X139377124Y-102750087D01*
X139279107Y-102793624D01*
X139274205Y-102798535D01*
X139274203Y-102798536D01*
X139208240Y-102864615D01*
X139203335Y-102869529D01*
X139191938Y-102895308D01*
X139156304Y-102932402D01*
X139123161Y-102940100D01*
X135734587Y-102940100D01*
X135686249Y-102922507D01*
X135681413Y-102918074D01*
X134971525Y-102208186D01*
X134949785Y-102161566D01*
X134963099Y-102111879D01*
X134971477Y-102101885D01*
X134973034Y-102100326D01*
X134974354Y-102099004D01*
X134974355Y-102099003D01*
X134979256Y-102094093D01*
X134982063Y-102087745D01*
X134985574Y-102082616D01*
X135027399Y-102052671D01*
X135047623Y-102049900D01*
X135199435Y-102049900D01*
X135204197Y-102050250D01*
X135208403Y-102051694D01*
X135215338Y-102051434D01*
X135215341Y-102051434D01*
X135254775Y-102049953D01*
X135257596Y-102049900D01*
X135276031Y-102049900D01*
X135279436Y-102049266D01*
X135281754Y-102049052D01*
X135285843Y-102048787D01*
X135305661Y-102048043D01*
X135305663Y-102048042D01*
X135312601Y-102047782D01*
X135318979Y-102045042D01*
X135318983Y-102045041D01*
X135324194Y-102042802D01*
X135340106Y-102037968D01*
X135345681Y-102036930D01*
X135345688Y-102036927D01*
X135352508Y-102035657D01*
X135358416Y-102032015D01*
X135358419Y-102032014D01*
X135374691Y-102021984D01*
X135384463Y-102016907D01*
X135389271Y-102014841D01*
X135408404Y-102006621D01*
X135412957Y-102002881D01*
X135418425Y-101997413D01*
X135432137Y-101986573D01*
X135441271Y-101980943D01*
X135447377Y-101972914D01*
X135458426Y-101958383D01*
X135465111Y-101950727D01*
X135925739Y-101490100D01*
X136387164Y-101028675D01*
X136390780Y-101025553D01*
X136394774Y-101023601D01*
X136411562Y-101005504D01*
X136426333Y-100989580D01*
X136428291Y-100987548D01*
X136441326Y-100974513D01*
X136443286Y-100971656D01*
X136444784Y-100969853D01*
X136447489Y-100966773D01*
X136460966Y-100952246D01*
X136460968Y-100952244D01*
X136465687Y-100947156D01*
X136470362Y-100935436D01*
X136478195Y-100920768D01*
X136485332Y-100910364D01*
X136486935Y-100903610D01*
X136486936Y-100903607D01*
X136491347Y-100885015D01*
X136494666Y-100874517D01*
X136504325Y-100850308D01*
X136504900Y-100844444D01*
X136504900Y-100836707D01*
X136506932Y-100819343D01*
X136507805Y-100815663D01*
X136509408Y-100808910D01*
X136505587Y-100780834D01*
X136504900Y-100770693D01*
X136504900Y-100500100D01*
X136522493Y-100451762D01*
X136567042Y-100426042D01*
X136580100Y-100424900D01*
X136924435Y-100424900D01*
X136929197Y-100425250D01*
X136933403Y-100426694D01*
X136940338Y-100426434D01*
X136940341Y-100426434D01*
X136979775Y-100424953D01*
X136982596Y-100424900D01*
X137001031Y-100424900D01*
X137004436Y-100424266D01*
X137006754Y-100424052D01*
X137010843Y-100423787D01*
X137030661Y-100423043D01*
X137030663Y-100423042D01*
X137037601Y-100422782D01*
X137043979Y-100420042D01*
X137043983Y-100420041D01*
X137049194Y-100417802D01*
X137065106Y-100412968D01*
X137070681Y-100411930D01*
X137070688Y-100411927D01*
X137077508Y-100410657D01*
X137083416Y-100407015D01*
X137083419Y-100407014D01*
X137099691Y-100396984D01*
X137109463Y-100391907D01*
X137114839Y-100389597D01*
X137133404Y-100381621D01*
X137137957Y-100377881D01*
X137143425Y-100372413D01*
X137157137Y-100361573D01*
X137166271Y-100355943D01*
X137176408Y-100342613D01*
X137183426Y-100333383D01*
X137190111Y-100325727D01*
X137893913Y-99621926D01*
X137940533Y-99600186D01*
X137947087Y-99599900D01*
X143633208Y-99599900D01*
X143681546Y-99617493D01*
X143701933Y-99644573D01*
X143713624Y-99670893D01*
X143731383Y-99688621D01*
X143784319Y-99741464D01*
X143789529Y-99746665D01*
X143795879Y-99749472D01*
X143795880Y-99749473D01*
X143818882Y-99759642D01*
X143887621Y-99790031D01*
X143893239Y-99790686D01*
X143910066Y-99792648D01*
X143910067Y-99792648D01*
X143912228Y-99792900D01*
X144267772Y-99792900D01*
X144269979Y-99792637D01*
X144269986Y-99792637D01*
X144287270Y-99790580D01*
X144292876Y-99789913D01*
X144390893Y-99746376D01*
X144395795Y-99741465D01*
X144395797Y-99741464D01*
X144461760Y-99675385D01*
X144461761Y-99675384D01*
X144466665Y-99670471D01*
X144478115Y-99644573D01*
X144507743Y-99577554D01*
X144510031Y-99572379D01*
X144512900Y-99547772D01*
X144512900Y-99092228D01*
X144512244Y-99086708D01*
X144510580Y-99072730D01*
X144509913Y-99067124D01*
X144466376Y-98969107D01*
X144461465Y-98964205D01*
X144461464Y-98964203D01*
X144391972Y-98894833D01*
X144370192Y-98848232D01*
X144369900Y-98841612D01*
X144369900Y-98577086D01*
X144387493Y-98528748D01*
X144391926Y-98523912D01*
X144566734Y-98349104D01*
X144613354Y-98327364D01*
X144663041Y-98340678D01*
X144692546Y-98382815D01*
X144694182Y-98414041D01*
X144689658Y-98442606D01*
X144688028Y-98452900D01*
X144688954Y-98458747D01*
X144693433Y-98487029D01*
X144708191Y-98580206D01*
X144720518Y-98604398D01*
X144746475Y-98655341D01*
X144766708Y-98695051D01*
X144839806Y-98768149D01*
X144861546Y-98814769D01*
X144848232Y-98864456D01*
X144821115Y-98886790D01*
X144821173Y-98886874D01*
X144820206Y-98887538D01*
X144817161Y-98890047D01*
X144809107Y-98893624D01*
X144804205Y-98898535D01*
X144804203Y-98898536D01*
X144738240Y-98964615D01*
X144733335Y-98969529D01*
X144730529Y-98975877D01*
X144730527Y-98975880D01*
X144714643Y-99011809D01*
X144689969Y-99067621D01*
X144687100Y-99092228D01*
X144687100Y-99547772D01*
X144687363Y-99549979D01*
X144687363Y-99549986D01*
X144687672Y-99552579D01*
X144690087Y-99572876D01*
X144733624Y-99670893D01*
X144738535Y-99675795D01*
X144738536Y-99675797D01*
X144804615Y-99741760D01*
X144809529Y-99746665D01*
X144815879Y-99749472D01*
X144815880Y-99749473D01*
X144838882Y-99759642D01*
X144907621Y-99790031D01*
X144913239Y-99790686D01*
X144930066Y-99792648D01*
X144930067Y-99792648D01*
X144932228Y-99792900D01*
X145195700Y-99792900D01*
X145244038Y-99810493D01*
X145269758Y-99855042D01*
X145270900Y-99868100D01*
X145270900Y-100383905D01*
X145253307Y-100432243D01*
X145208758Y-100457963D01*
X145200139Y-100458717D01*
X145200019Y-100458693D01*
X145199711Y-100458754D01*
X145195700Y-100459105D01*
X145002090Y-100459105D01*
X145000019Y-100458693D01*
X144992760Y-100460136D01*
X144992758Y-100460136D01*
X144968068Y-100465045D01*
X144940359Y-100470553D01*
X144939364Y-100470965D01*
X144939349Y-100470971D01*
X144936517Y-100472144D01*
X144921280Y-100482326D01*
X144892125Y-100501809D01*
X144885925Y-100505952D01*
X144884750Y-100507711D01*
X144851403Y-100541058D01*
X144804783Y-100562798D01*
X144755096Y-100549484D01*
X144745055Y-100541058D01*
X144367630Y-100163633D01*
X144364920Y-100160778D01*
X144346883Y-100140746D01*
X144337670Y-100130514D01*
X144315053Y-100120444D01*
X144304697Y-100114821D01*
X144283936Y-100101339D01*
X144275412Y-100099989D01*
X144256587Y-100094413D01*
X144255920Y-100094116D01*
X144248697Y-100090900D01*
X144223946Y-100090900D01*
X144212182Y-100089974D01*
X144195548Y-100087339D01*
X144195546Y-100087339D01*
X144187742Y-100086103D01*
X144180110Y-100088148D01*
X144180109Y-100088148D01*
X144179401Y-100088338D01*
X144159938Y-100090900D01*
X138377491Y-100090900D01*
X138329153Y-100073307D01*
X138324317Y-100068874D01*
X138242151Y-99986708D01*
X138127306Y-99928191D01*
X138000000Y-99908028D01*
X137872694Y-99928191D01*
X137757849Y-99986708D01*
X137666708Y-100077849D01*
X137664020Y-100083125D01*
X137664019Y-100083126D01*
X137660530Y-100089974D01*
X137608191Y-100192694D01*
X137607265Y-100198541D01*
X137589315Y-100311877D01*
X137588028Y-100320000D01*
X137588954Y-100325847D01*
X137595568Y-100367605D01*
X137608191Y-100447306D01*
X137666708Y-100562151D01*
X137757849Y-100653292D01*
X137872694Y-100711809D01*
X137878541Y-100712735D01*
X137993093Y-100730878D01*
X138000000Y-100731972D01*
X138006908Y-100730878D01*
X138121459Y-100712735D01*
X138127306Y-100711809D01*
X138242151Y-100653292D01*
X138324317Y-100571126D01*
X138370937Y-100549386D01*
X138377491Y-100549100D01*
X144073955Y-100549100D01*
X144122293Y-100566693D01*
X144127129Y-100571126D01*
X144421058Y-100865055D01*
X144442798Y-100911675D01*
X144429484Y-100961362D01*
X144421058Y-100971403D01*
X144387685Y-101004776D01*
X144385925Y-101005952D01*
X144381811Y-101012111D01*
X144381809Y-101012113D01*
X144370746Y-101028675D01*
X144352138Y-101056532D01*
X144351732Y-101057512D01*
X144350559Y-101060344D01*
X144349839Y-101063965D01*
X144349837Y-101063970D01*
X144340387Y-101111465D01*
X144338693Y-101119981D01*
X144339105Y-101122054D01*
X144339105Y-101315700D01*
X144321512Y-101364038D01*
X144276963Y-101389758D01*
X144263905Y-101390900D01*
X141026044Y-101390900D01*
X140977706Y-101373307D01*
X140972870Y-101368874D01*
X140827037Y-101223041D01*
X140805297Y-101176421D01*
X140805937Y-101158103D01*
X140811046Y-101125846D01*
X140811972Y-101120000D01*
X140791809Y-100992694D01*
X140757163Y-100924698D01*
X140735981Y-100883126D01*
X140735980Y-100883125D01*
X140733292Y-100877849D01*
X140642151Y-100786708D01*
X140628863Y-100779937D01*
X140589086Y-100759670D01*
X140527306Y-100728191D01*
X140423873Y-100711809D01*
X140405847Y-100708954D01*
X140400000Y-100708028D01*
X140394153Y-100708954D01*
X140376127Y-100711809D01*
X140272694Y-100728191D01*
X140210914Y-100759670D01*
X140171138Y-100779937D01*
X140157849Y-100786708D01*
X140066708Y-100877849D01*
X140064020Y-100883125D01*
X140064019Y-100883126D01*
X140042837Y-100924698D01*
X140008191Y-100992694D01*
X139988028Y-101120000D01*
X140008191Y-101247306D01*
X140020975Y-101272395D01*
X140052542Y-101334348D01*
X140066708Y-101362151D01*
X140157849Y-101453292D01*
X140163125Y-101455980D01*
X140163126Y-101455981D01*
X140197130Y-101473307D01*
X140272694Y-101511809D01*
X140400000Y-101531972D01*
X140438102Y-101525937D01*
X140488596Y-101535752D01*
X140503041Y-101547037D01*
X140622964Y-101666961D01*
X140732379Y-101776376D01*
X140735088Y-101779231D01*
X140762330Y-101809486D01*
X140769550Y-101812700D01*
X140769549Y-101812700D01*
X140784934Y-101819550D01*
X140795302Y-101825179D01*
X140816064Y-101838662D01*
X140823868Y-101839898D01*
X140823871Y-101839899D01*
X140824596Y-101840014D01*
X140843416Y-101845589D01*
X140844077Y-101845883D01*
X140844079Y-101845883D01*
X140851303Y-101849100D01*
X140876054Y-101849100D01*
X140887817Y-101850026D01*
X140904452Y-101852661D01*
X140904454Y-101852661D01*
X140912259Y-101853897D01*
X140919891Y-101851852D01*
X140919892Y-101851852D01*
X140920600Y-101851662D01*
X140940063Y-101849100D01*
X144271900Y-101849100D01*
X144320238Y-101866693D01*
X144345958Y-101911242D01*
X144347100Y-101924300D01*
X144347101Y-102032014D01*
X144347101Y-102135056D01*
X144348948Y-102144343D01*
X144353941Y-102169444D01*
X144355972Y-102179658D01*
X144360089Y-102185820D01*
X144362327Y-102191222D01*
X144364570Y-102242613D01*
X144362326Y-102248779D01*
X144360088Y-102254183D01*
X144355972Y-102260342D01*
X144354527Y-102267606D01*
X144351085Y-102284912D01*
X144347100Y-102304943D01*
X144347101Y-102535056D01*
X144349296Y-102546090D01*
X144354027Y-102569877D01*
X144355972Y-102579658D01*
X144360089Y-102585820D01*
X144362327Y-102591222D01*
X144364570Y-102642613D01*
X144362326Y-102648779D01*
X144360088Y-102654183D01*
X144355972Y-102660342D01*
X144354527Y-102667606D01*
X144350495Y-102687878D01*
X144347100Y-102704943D01*
X144347101Y-102814585D01*
X144347101Y-102915700D01*
X144329508Y-102964037D01*
X144284960Y-102989757D01*
X144271901Y-102990900D01*
X143697508Y-102990900D01*
X143649170Y-102973307D01*
X143623111Y-102926653D01*
X143616966Y-102884905D01*
X143612535Y-102875880D01*
X143564257Y-102777550D01*
X143564256Y-102777549D01*
X143561519Y-102771974D01*
X143557124Y-102767586D01*
X143557122Y-102767584D01*
X143502249Y-102712807D01*
X143472482Y-102683092D01*
X143466898Y-102680363D01*
X143466896Y-102680361D01*
X143388446Y-102642014D01*
X143359454Y-102627843D01*
X143320146Y-102622108D01*
X143288518Y-102617494D01*
X143288513Y-102617494D01*
X143285815Y-102617100D01*
X143000992Y-102617100D01*
X142714186Y-102617101D01*
X142639905Y-102628034D01*
X142634661Y-102630609D01*
X142634660Y-102630609D01*
X142532550Y-102680743D01*
X142532549Y-102680744D01*
X142526974Y-102683481D01*
X142522586Y-102687876D01*
X142522584Y-102687878D01*
X142497699Y-102712807D01*
X142438092Y-102772518D01*
X142435363Y-102778102D01*
X142435361Y-102778104D01*
X142420231Y-102809057D01*
X142382843Y-102885546D01*
X142378732Y-102913726D01*
X142376860Y-102926556D01*
X142352473Y-102971848D01*
X142302448Y-102990900D01*
X141079356Y-102990900D01*
X141031018Y-102973307D01*
X141010631Y-102946227D01*
X141008260Y-102940889D01*
X140976376Y-102869107D01*
X140971465Y-102864205D01*
X140971464Y-102864203D01*
X140905385Y-102798240D01*
X140905384Y-102798239D01*
X140900471Y-102793335D01*
X140894121Y-102790528D01*
X140894120Y-102790527D01*
X140873893Y-102781585D01*
X140836797Y-102745949D01*
X140829100Y-102712807D01*
X140829100Y-102527960D01*
X140829203Y-102524025D01*
X140829843Y-102511809D01*
X140831334Y-102483360D01*
X140822467Y-102460261D01*
X140819114Y-102448943D01*
X140815612Y-102432465D01*
X140813969Y-102424735D01*
X140809323Y-102418340D01*
X140808893Y-102417748D01*
X140799527Y-102400498D01*
X140799265Y-102399816D01*
X140799264Y-102399815D01*
X140796432Y-102392436D01*
X140778936Y-102374940D01*
X140771272Y-102365968D01*
X140761367Y-102352335D01*
X140756722Y-102345942D01*
X140749243Y-102341624D01*
X140733669Y-102329673D01*
X140542681Y-102138684D01*
X140344970Y-101940973D01*
X139967622Y-101563624D01*
X139964912Y-101560769D01*
X139960601Y-101555981D01*
X139937670Y-101530514D01*
X139915053Y-101520444D01*
X139904697Y-101514821D01*
X139883936Y-101501339D01*
X139875412Y-101499989D01*
X139856587Y-101494413D01*
X139855920Y-101494116D01*
X139848697Y-101490900D01*
X139823946Y-101490900D01*
X139812182Y-101489974D01*
X139795548Y-101487339D01*
X139795546Y-101487339D01*
X139787742Y-101486103D01*
X139780110Y-101488148D01*
X139780109Y-101488148D01*
X139779401Y-101488338D01*
X139759938Y-101490900D01*
X138177491Y-101490900D01*
X138129153Y-101473307D01*
X138124317Y-101468874D01*
X138042151Y-101386708D01*
X138028282Y-101379641D01*
X137964821Y-101347306D01*
X137927306Y-101328191D01*
X137857279Y-101317100D01*
X137805847Y-101308954D01*
X137800000Y-101308028D01*
X137794153Y-101308954D01*
X137742721Y-101317100D01*
X137672694Y-101328191D01*
X137635179Y-101347306D01*
X137571719Y-101379641D01*
X137557849Y-101386708D01*
X137466708Y-101477849D01*
X137464020Y-101483125D01*
X137464019Y-101483126D01*
X137448825Y-101512946D01*
X137408191Y-101592694D01*
X137388028Y-101720000D01*
X137388954Y-101725847D01*
X137390098Y-101733068D01*
X137408191Y-101847306D01*
X137414833Y-101860342D01*
X137461016Y-101950979D01*
X137466708Y-101962151D01*
X137557849Y-102053292D01*
X137672694Y-102111809D01*
X137678541Y-102112735D01*
X137779916Y-102128791D01*
X137800000Y-102131972D01*
X137820085Y-102128791D01*
X137921459Y-102112735D01*
X137927306Y-102111809D01*
X138042151Y-102053292D01*
X138124317Y-101971126D01*
X138170937Y-101949386D01*
X138177491Y-101949100D01*
X139673956Y-101949100D01*
X139722294Y-101966693D01*
X139727130Y-101971126D01*
X140348874Y-102592870D01*
X140370614Y-102639490D01*
X140370900Y-102646044D01*
X140370900Y-102712853D01*
X140353307Y-102761191D01*
X140326228Y-102781578D01*
X140299107Y-102793624D01*
X140294205Y-102798535D01*
X140294203Y-102798536D01*
X140228240Y-102864615D01*
X140223335Y-102869529D01*
X140179969Y-102967621D01*
X140177100Y-102992228D01*
X140177100Y-103447772D01*
X140177363Y-103449979D01*
X140177363Y-103449986D01*
X140178598Y-103460359D01*
X140180087Y-103472876D01*
X140223624Y-103570893D01*
X140228535Y-103575795D01*
X140228536Y-103575797D01*
X140294615Y-103641760D01*
X140299529Y-103646665D01*
X140305879Y-103649472D01*
X140305880Y-103649473D01*
X140346616Y-103667482D01*
X140397621Y-103690031D01*
X140403239Y-103690686D01*
X140420066Y-103692648D01*
X140420067Y-103692648D01*
X140422228Y-103692900D01*
X140777772Y-103692900D01*
X140779979Y-103692637D01*
X140779986Y-103692637D01*
X140797270Y-103690580D01*
X140802876Y-103689913D01*
X140900893Y-103646376D01*
X140905795Y-103641465D01*
X140905797Y-103641464D01*
X140971760Y-103575385D01*
X140971761Y-103575384D01*
X140976665Y-103570471D01*
X140982866Y-103556446D01*
X141010520Y-103493893D01*
X141046156Y-103456797D01*
X141079298Y-103449100D01*
X142302492Y-103449100D01*
X142350830Y-103466693D01*
X142376889Y-103513347D01*
X142383034Y-103555095D01*
X142385609Y-103560339D01*
X142385609Y-103560340D01*
X142428435Y-103647564D01*
X142438481Y-103668026D01*
X142442876Y-103672414D01*
X142442878Y-103672416D01*
X142474848Y-103704330D01*
X142527518Y-103756908D01*
X142533102Y-103759637D01*
X142533104Y-103759639D01*
X142591060Y-103787968D01*
X142640546Y-103812157D01*
X142669130Y-103816327D01*
X142711482Y-103822506D01*
X142711487Y-103822506D01*
X142714185Y-103822900D01*
X142999008Y-103822900D01*
X143285814Y-103822899D01*
X143360095Y-103811966D01*
X143367134Y-103808510D01*
X143467450Y-103759257D01*
X143467451Y-103759256D01*
X143473026Y-103756519D01*
X143477414Y-103752124D01*
X143477416Y-103752122D01*
X143536534Y-103692900D01*
X143561908Y-103667482D01*
X143564637Y-103661898D01*
X143564639Y-103661896D01*
X143609328Y-103570471D01*
X143617157Y-103554454D01*
X143621556Y-103524300D01*
X143623140Y-103513444D01*
X143647527Y-103468152D01*
X143697552Y-103449100D01*
X143906576Y-103449100D01*
X143954914Y-103466693D01*
X143980634Y-103511242D01*
X143981776Y-103524300D01*
X143981776Y-103707403D01*
X143985800Y-103732887D01*
X143984491Y-103769424D01*
X143985628Y-103780012D01*
X144019744Y-103913744D01*
X144021366Y-103918619D01*
X144022977Y-103921988D01*
X144072382Y-104012455D01*
X144077841Y-104020023D01*
X144125639Y-104071349D01*
X144133898Y-104086261D01*
X144136592Y-104089471D01*
X144624633Y-104577512D01*
X144645523Y-104592701D01*
X144670524Y-104619547D01*
X144678816Y-104626228D01*
X144797523Y-104696640D01*
X144802074Y-104698918D01*
X144805533Y-104700138D01*
X144904300Y-104729144D01*
X144913515Y-104730639D01*
X144983747Y-104733156D01*
X145000129Y-104737861D01*
X145004277Y-104738224D01*
X145076232Y-104738224D01*
X145124570Y-104755817D01*
X145150290Y-104800366D01*
X145141357Y-104851024D01*
X145129410Y-104866593D01*
X144843615Y-105152388D01*
X144840779Y-105155079D01*
X144810514Y-105182330D01*
X144800444Y-105204947D01*
X144794822Y-105215301D01*
X144781339Y-105236064D01*
X144780103Y-105243871D01*
X144779989Y-105244588D01*
X144774413Y-105263413D01*
X144770900Y-105271303D01*
X144770900Y-105296054D01*
X144769974Y-105307818D01*
X144766103Y-105332258D01*
X144768148Y-105339890D01*
X144768148Y-105339891D01*
X144768338Y-105340599D01*
X144770900Y-105360062D01*
X144770900Y-106291901D01*
X144753307Y-106340239D01*
X144708758Y-106365959D01*
X144695700Y-106367101D01*
X144484944Y-106367101D01*
X144440342Y-106375972D01*
X144389766Y-106409766D01*
X144385652Y-106415923D01*
X144364908Y-106446969D01*
X144355972Y-106460342D01*
X144354527Y-106467606D01*
X144352007Y-106480277D01*
X144347100Y-106504943D01*
X144347101Y-108335056D01*
X144355972Y-108379658D01*
X144389766Y-108430234D01*
X144395923Y-108434348D01*
X144434183Y-108459913D01*
X144434184Y-108459914D01*
X144440342Y-108464028D01*
X144484943Y-108472900D01*
X144695700Y-108472900D01*
X144744038Y-108490493D01*
X144769758Y-108535042D01*
X144770900Y-108548100D01*
X144770900Y-109180021D01*
X144758226Y-109221800D01*
X144739438Y-109249918D01*
X144739438Y-109249919D01*
X144735323Y-109256078D01*
X144733879Y-109263340D01*
X144733878Y-109263341D01*
X144726485Y-109300509D01*
X144722100Y-109322553D01*
X144722101Y-109517446D01*
X144722822Y-109521069D01*
X144722822Y-109521073D01*
X144726910Y-109541624D01*
X144735323Y-109583922D01*
X144785693Y-109659307D01*
X144861078Y-109709677D01*
X144868340Y-109711121D01*
X144868341Y-109711122D01*
X144927156Y-109722821D01*
X144971132Y-109749507D01*
X144981960Y-109767798D01*
X144988862Y-109784461D01*
X144993748Y-109792923D01*
X145081201Y-109906894D01*
X145088106Y-109913799D01*
X145202078Y-110001252D01*
X145210534Y-110006134D01*
X145343257Y-110061110D01*
X145352687Y-110063637D01*
X145436855Y-110074717D01*
X145447407Y-110072378D01*
X145450000Y-110068999D01*
X145450000Y-110063189D01*
X145750000Y-110063189D01*
X145753697Y-110073346D01*
X145757385Y-110075476D01*
X145847313Y-110063637D01*
X145856743Y-110061110D01*
X145989467Y-110006134D01*
X145997923Y-110001252D01*
X146111894Y-109913799D01*
X146118799Y-109906894D01*
X146206252Y-109792922D01*
X146209877Y-109786644D01*
X146249284Y-109753581D01*
X146300723Y-109753583D01*
X146340125Y-109786646D01*
X146343753Y-109792929D01*
X146431201Y-109906894D01*
X146438106Y-109913799D01*
X146552078Y-110001252D01*
X146560534Y-110006134D01*
X146693257Y-110061110D01*
X146702687Y-110063637D01*
X146786855Y-110074717D01*
X146797407Y-110072378D01*
X146800000Y-110068999D01*
X146800000Y-109583259D01*
X146796303Y-109573102D01*
X146790931Y-109570000D01*
X145763259Y-109570000D01*
X145753102Y-109573697D01*
X145750000Y-109579069D01*
X145750000Y-110063189D01*
X145450000Y-110063189D01*
X145450000Y-109256741D01*
X145750000Y-109256741D01*
X145753697Y-109266898D01*
X145759069Y-109270000D01*
X146786741Y-109270000D01*
X146796898Y-109266303D01*
X146800000Y-109260931D01*
X146800000Y-108776811D01*
X146796303Y-108766654D01*
X146792615Y-108764524D01*
X146702687Y-108776363D01*
X146693257Y-108778890D01*
X146560533Y-108833866D01*
X146552077Y-108838748D01*
X146438106Y-108926201D01*
X146431201Y-108933106D01*
X146343748Y-109047078D01*
X146340123Y-109053356D01*
X146300716Y-109086419D01*
X146249277Y-109086417D01*
X146209875Y-109053354D01*
X146206247Y-109047071D01*
X146118799Y-108933106D01*
X146111894Y-108926201D01*
X145997922Y-108838748D01*
X145989466Y-108833866D01*
X145856743Y-108778890D01*
X145847313Y-108776363D01*
X145763145Y-108765283D01*
X145752593Y-108767622D01*
X145750000Y-108771001D01*
X145750000Y-109256741D01*
X145450000Y-109256741D01*
X145450000Y-108776811D01*
X145446303Y-108766654D01*
X145442615Y-108764524D01*
X145352689Y-108776363D01*
X145343257Y-108778891D01*
X145333078Y-108783107D01*
X145281687Y-108785351D01*
X145240877Y-108754036D01*
X145229100Y-108713631D01*
X145229100Y-108548099D01*
X145246693Y-108499761D01*
X145291242Y-108474041D01*
X145304300Y-108472899D01*
X145515056Y-108472899D01*
X145559658Y-108464028D01*
X145610234Y-108430234D01*
X145644028Y-108379658D01*
X145652900Y-108335057D01*
X145652899Y-106504944D01*
X145644028Y-106460342D01*
X145610234Y-106409766D01*
X145604077Y-106405652D01*
X145565817Y-106380087D01*
X145565816Y-106380086D01*
X145559658Y-106375972D01*
X145552349Y-106374518D01*
X145518682Y-106367821D01*
X145518681Y-106367821D01*
X145515057Y-106367100D01*
X145304300Y-106367100D01*
X145255962Y-106349507D01*
X145230242Y-106304958D01*
X145229100Y-106291900D01*
X145229100Y-105446044D01*
X145246693Y-105397706D01*
X145251114Y-105392882D01*
X145542527Y-105101469D01*
X145589146Y-105079731D01*
X145638833Y-105093045D01*
X145668338Y-105135182D01*
X145670900Y-105154645D01*
X145670900Y-105612040D01*
X145670797Y-105615976D01*
X145668666Y-105656639D01*
X145677537Y-105679750D01*
X145680882Y-105691042D01*
X145686031Y-105715265D01*
X145690676Y-105721658D01*
X145690677Y-105721660D01*
X145691107Y-105722252D01*
X145700473Y-105739502D01*
X145703568Y-105747564D01*
X145721064Y-105765060D01*
X145728728Y-105774032D01*
X145743278Y-105794058D01*
X145750123Y-105798010D01*
X145750757Y-105798376D01*
X145766331Y-105810327D01*
X146825074Y-106869071D01*
X146846814Y-106915691D01*
X146847100Y-106922245D01*
X146847101Y-108335056D01*
X146855972Y-108379658D01*
X146889766Y-108430234D01*
X146895923Y-108434348D01*
X146934183Y-108459913D01*
X146934184Y-108459914D01*
X146940342Y-108464028D01*
X146984943Y-108472900D01*
X147195700Y-108472900D01*
X147244038Y-108490493D01*
X147269758Y-108535042D01*
X147270900Y-108548100D01*
X147270900Y-108700302D01*
X147253307Y-108748640D01*
X147208758Y-108774360D01*
X147185884Y-108774859D01*
X147113145Y-108765283D01*
X147102593Y-108767622D01*
X147100000Y-108771001D01*
X147100000Y-110063189D01*
X147103697Y-110073346D01*
X147107385Y-110075476D01*
X147197313Y-110063637D01*
X147206743Y-110061110D01*
X147339467Y-110006134D01*
X147347923Y-110001252D01*
X147461894Y-109913799D01*
X147468799Y-109906894D01*
X147556252Y-109792922D01*
X147561138Y-109784460D01*
X147568040Y-109767797D01*
X147602792Y-109729871D01*
X147622845Y-109722820D01*
X147653738Y-109716675D01*
X147688922Y-109709677D01*
X147764307Y-109659307D01*
X147814677Y-109583922D01*
X147816645Y-109574032D01*
X147827179Y-109521072D01*
X147827179Y-109521071D01*
X147827900Y-109517447D01*
X147827899Y-109322554D01*
X147814677Y-109256078D01*
X147764307Y-109180693D01*
X147758147Y-109176577D01*
X147752912Y-109171342D01*
X147755004Y-109169250D01*
X147732102Y-109138008D01*
X147729100Y-109116973D01*
X147729100Y-108548099D01*
X147746693Y-108499761D01*
X147791242Y-108474041D01*
X147804300Y-108472899D01*
X148015056Y-108472899D01*
X148059658Y-108464028D01*
X148110234Y-108430234D01*
X148144028Y-108379658D01*
X148152900Y-108335057D01*
X148152899Y-106504944D01*
X148144028Y-106460342D01*
X148110234Y-106409766D01*
X148104077Y-106405652D01*
X148065817Y-106380087D01*
X148065816Y-106380086D01*
X148059658Y-106375972D01*
X148052349Y-106374518D01*
X148018682Y-106367821D01*
X148018681Y-106367821D01*
X148015057Y-106367100D01*
X147833740Y-106367100D01*
X147002246Y-106367101D01*
X146953908Y-106349508D01*
X146949072Y-106345075D01*
X146151126Y-105547129D01*
X146129386Y-105500509D01*
X146129100Y-105493955D01*
X146129100Y-104801635D01*
X146146693Y-104753297D01*
X146178581Y-104730970D01*
X146196898Y-104724303D01*
X146200000Y-104718931D01*
X146200000Y-103831259D01*
X146196304Y-103821103D01*
X146190500Y-103817752D01*
X146157434Y-103778347D01*
X146152899Y-103752626D01*
X146152899Y-103504944D01*
X146144028Y-103460342D01*
X146110234Y-103409766D01*
X146092154Y-103397685D01*
X146079421Y-103389177D01*
X146049004Y-103347693D01*
X146046000Y-103326651D01*
X146046000Y-102241200D01*
X146063593Y-102192862D01*
X146108142Y-102167142D01*
X146121200Y-102166000D01*
X146478800Y-102166000D01*
X146527138Y-102183593D01*
X146552858Y-102228142D01*
X146554000Y-102241200D01*
X146554000Y-103326651D01*
X146536407Y-103374989D01*
X146520579Y-103389177D01*
X146507846Y-103397685D01*
X146489766Y-103409766D01*
X146485652Y-103415923D01*
X146462757Y-103450188D01*
X146455972Y-103460342D01*
X146454527Y-103467606D01*
X146451900Y-103480815D01*
X146447100Y-103504943D01*
X146447100Y-103753027D01*
X146429507Y-103801365D01*
X146404888Y-103818603D01*
X146400000Y-103827069D01*
X146400000Y-104714740D01*
X146408032Y-104736810D01*
X146425783Y-104757965D01*
X146428253Y-104790263D01*
X146429009Y-104790263D01*
X146429009Y-104797670D01*
X146427564Y-104804934D01*
X146448303Y-104909191D01*
X146452417Y-104915349D01*
X146452418Y-104915350D01*
X146458745Y-104924819D01*
X146473911Y-104947516D01*
X146507359Y-104997575D01*
X146523518Y-105008372D01*
X146534913Y-105017725D01*
X147568976Y-106051787D01*
X147578328Y-106063182D01*
X147589125Y-106079341D01*
X147653323Y-106122236D01*
X147677509Y-106138397D01*
X147731327Y-106149102D01*
X147765910Y-106155981D01*
X147781766Y-106159135D01*
X147789030Y-106157690D01*
X147789031Y-106157690D01*
X147800820Y-106155345D01*
X147815491Y-106153900D01*
X150340987Y-106153900D01*
X150375127Y-106162096D01*
X150418520Y-106184206D01*
X150472694Y-106211809D01*
X150600000Y-106231972D01*
X150727306Y-106211809D01*
X150818855Y-106165162D01*
X150836874Y-106155981D01*
X150836875Y-106155980D01*
X150842151Y-106153292D01*
X150933292Y-106062151D01*
X150935371Y-106058070D01*
X150977509Y-106029649D01*
X151028667Y-106035027D01*
X151064399Y-106072031D01*
X151070900Y-106102616D01*
X151070900Y-109412040D01*
X151070797Y-109415976D01*
X151068666Y-109456639D01*
X151077537Y-109479750D01*
X151080882Y-109491042D01*
X151086031Y-109515265D01*
X151090676Y-109521658D01*
X151090677Y-109521660D01*
X151091107Y-109522252D01*
X151100473Y-109539502D01*
X151103568Y-109547564D01*
X151121064Y-109565060D01*
X151128728Y-109574032D01*
X151143278Y-109594058D01*
X151150123Y-109598010D01*
X151150757Y-109598376D01*
X151166331Y-109610327D01*
X151528874Y-109972870D01*
X151550614Y-110019490D01*
X151550900Y-110026044D01*
X151550900Y-110043234D01*
X151533307Y-110091572D01*
X151490370Y-110116989D01*
X151470342Y-110120972D01*
X151419766Y-110154766D01*
X151415652Y-110160923D01*
X151395252Y-110191454D01*
X151385972Y-110205342D01*
X151377100Y-110249943D01*
X151377101Y-110630056D01*
X151385972Y-110674658D01*
X151390088Y-110680818D01*
X151418421Y-110723221D01*
X151430648Y-110773187D01*
X151418421Y-110806779D01*
X151390480Y-110848596D01*
X151385972Y-110855342D01*
X151377100Y-110899943D01*
X151377101Y-111280056D01*
X151385972Y-111324658D01*
X151390088Y-111330818D01*
X151418421Y-111373221D01*
X151430648Y-111423187D01*
X151418421Y-111456779D01*
X151394153Y-111493099D01*
X151385972Y-111505342D01*
X151384527Y-111512606D01*
X151384031Y-111515102D01*
X151377100Y-111549943D01*
X151377100Y-111677634D01*
X151359507Y-111725972D01*
X151328297Y-111748049D01*
X151288551Y-111762949D01*
X151279254Y-111768039D01*
X151171379Y-111848886D01*
X151163886Y-111856379D01*
X151083039Y-111964254D01*
X151077948Y-111973552D01*
X151030403Y-112100377D01*
X151028238Y-112109483D01*
X151022220Y-112164883D01*
X151022000Y-112168949D01*
X151022000Y-112201741D01*
X151025697Y-112211898D01*
X151031069Y-112215000D01*
X152524740Y-112215000D01*
X152534897Y-112211303D01*
X152537999Y-112205931D01*
X152537999Y-112168951D01*
X152537779Y-112164882D01*
X152531761Y-112109482D01*
X152529597Y-112100379D01*
X152498542Y-112017540D01*
X152498048Y-111966103D01*
X152530733Y-111926382D01*
X152581303Y-111916963D01*
X152622131Y-111937969D01*
X152933813Y-112249652D01*
X153236325Y-112552164D01*
X153239447Y-112555780D01*
X153241399Y-112559774D01*
X153246487Y-112564494D01*
X153246488Y-112564495D01*
X153275420Y-112591333D01*
X153277452Y-112593291D01*
X153290487Y-112606326D01*
X153293344Y-112608286D01*
X153295147Y-112609784D01*
X153298227Y-112612489D01*
X153312754Y-112625966D01*
X153312756Y-112625968D01*
X153317844Y-112630687D01*
X153329564Y-112635362D01*
X153344232Y-112643195D01*
X153354636Y-112650332D01*
X153361389Y-112651935D01*
X153361390Y-112651935D01*
X153379990Y-112656349D01*
X153390491Y-112659670D01*
X153409765Y-112667360D01*
X153409769Y-112667361D01*
X153414692Y-112669325D01*
X153420556Y-112669900D01*
X153428292Y-112669900D01*
X153445656Y-112671932D01*
X153456089Y-112674408D01*
X153455786Y-112675685D01*
X153484767Y-112685257D01*
X153520342Y-112709028D01*
X153564943Y-112717900D01*
X153829964Y-112717900D01*
X154095056Y-112717899D01*
X154139658Y-112709028D01*
X154190234Y-112675234D01*
X154206873Y-112650332D01*
X154219913Y-112630817D01*
X154219914Y-112630816D01*
X154224028Y-112624658D01*
X154232900Y-112580057D01*
X154232900Y-112452366D01*
X154250493Y-112404028D01*
X154281703Y-112381951D01*
X154321449Y-112367051D01*
X154330746Y-112361961D01*
X154438621Y-112281114D01*
X154446114Y-112273621D01*
X154526961Y-112165746D01*
X154532052Y-112156448D01*
X154579597Y-112029623D01*
X154581762Y-112020517D01*
X154587780Y-111965117D01*
X154588000Y-111961051D01*
X154588000Y-111928259D01*
X154584303Y-111918102D01*
X154578931Y-111915000D01*
X153730200Y-111915000D01*
X153681862Y-111897407D01*
X153656142Y-111852858D01*
X153655000Y-111839800D01*
X153655000Y-111493100D01*
X153672593Y-111444762D01*
X153717142Y-111419042D01*
X153730200Y-111417900D01*
X153830000Y-111417899D01*
X153929801Y-111417899D01*
X153978137Y-111435492D01*
X154003857Y-111480040D01*
X154005000Y-111493099D01*
X154005000Y-111551741D01*
X154008697Y-111561898D01*
X154014069Y-111565000D01*
X154574740Y-111565000D01*
X154584897Y-111561303D01*
X154587999Y-111555931D01*
X154587999Y-111518951D01*
X154587779Y-111514882D01*
X154581252Y-111454793D01*
X154583399Y-111454560D01*
X154588413Y-111411399D01*
X154625803Y-111376072D01*
X154655638Y-111369900D01*
X155426874Y-111369900D01*
X155475212Y-111387493D01*
X155501271Y-111434147D01*
X155508034Y-111480095D01*
X155510609Y-111485339D01*
X155510609Y-111485340D01*
X155549721Y-111565000D01*
X155563481Y-111593026D01*
X155567876Y-111597414D01*
X155567878Y-111597416D01*
X155573363Y-111602891D01*
X155652518Y-111681908D01*
X155658102Y-111684637D01*
X155658104Y-111684639D01*
X155736554Y-111722986D01*
X155765546Y-111737157D01*
X155804854Y-111742892D01*
X155836482Y-111747506D01*
X155836487Y-111747506D01*
X155839185Y-111747900D01*
X156099095Y-111747900D01*
X156360814Y-111747899D01*
X156435095Y-111736966D01*
X156458410Y-111725519D01*
X156542450Y-111684257D01*
X156542451Y-111684256D01*
X156548026Y-111681519D01*
X156552414Y-111677124D01*
X156552416Y-111677122D01*
X156618022Y-111611401D01*
X156664624Y-111589621D01*
X156714322Y-111602891D01*
X156742578Y-111640729D01*
X156755318Y-111678915D01*
X156758999Y-111686771D01*
X156844340Y-111824681D01*
X156849736Y-111831490D01*
X156964519Y-111946072D01*
X156971327Y-111951449D01*
X157109390Y-112036552D01*
X157117260Y-112040222D01*
X157271444Y-112091363D01*
X157279435Y-112093076D01*
X157374378Y-112102803D01*
X157378221Y-112103000D01*
X157382741Y-112103000D01*
X157392898Y-112099303D01*
X157396000Y-112093931D01*
X157396000Y-112089741D01*
X157904000Y-112089741D01*
X157907697Y-112099898D01*
X157913069Y-112103000D01*
X157921764Y-112103000D01*
X157925638Y-112102799D01*
X158021820Y-112092819D01*
X158029819Y-112091092D01*
X158183913Y-112039683D01*
X158191771Y-112036001D01*
X158329681Y-111950660D01*
X158336490Y-111945264D01*
X158451072Y-111830481D01*
X158456449Y-111823673D01*
X158541552Y-111685610D01*
X158545222Y-111677740D01*
X158596363Y-111523556D01*
X158598076Y-111515565D01*
X158607803Y-111420622D01*
X158608000Y-111416779D01*
X158608000Y-111387259D01*
X158604303Y-111377102D01*
X158598931Y-111374000D01*
X157917259Y-111374000D01*
X157907102Y-111377697D01*
X157904000Y-111383069D01*
X157904000Y-112089741D01*
X157396000Y-112089741D01*
X157396000Y-110852741D01*
X157904000Y-110852741D01*
X157907697Y-110862898D01*
X157913069Y-110866000D01*
X158594741Y-110866000D01*
X158604898Y-110862303D01*
X158608000Y-110856931D01*
X158608000Y-110823236D01*
X158607799Y-110819362D01*
X158597819Y-110723180D01*
X158596092Y-110715181D01*
X158544683Y-110561087D01*
X158541001Y-110553229D01*
X158455660Y-110415319D01*
X158450264Y-110408510D01*
X158335481Y-110293928D01*
X158328673Y-110288551D01*
X158190610Y-110203448D01*
X158182740Y-110199778D01*
X158028556Y-110148637D01*
X158020565Y-110146924D01*
X157925622Y-110137197D01*
X157921779Y-110137000D01*
X157917259Y-110137000D01*
X157907102Y-110140697D01*
X157904000Y-110146069D01*
X157904000Y-110852741D01*
X157396000Y-110852741D01*
X157396000Y-110150259D01*
X157392303Y-110140102D01*
X157386931Y-110137000D01*
X157378236Y-110137000D01*
X157374362Y-110137201D01*
X157278180Y-110147181D01*
X157270181Y-110148908D01*
X157116087Y-110200317D01*
X157108229Y-110203999D01*
X156970319Y-110289340D01*
X156963510Y-110294736D01*
X156848928Y-110409519D01*
X156843551Y-110416327D01*
X156758448Y-110554390D01*
X156754777Y-110562262D01*
X156742585Y-110599021D01*
X156710669Y-110639362D01*
X156660289Y-110649750D01*
X156618081Y-110628568D01*
X156567028Y-110577604D01*
X156547482Y-110558092D01*
X156541898Y-110555363D01*
X156541896Y-110555361D01*
X156439695Y-110505405D01*
X156439696Y-110505405D01*
X156434454Y-110502843D01*
X156395146Y-110497108D01*
X156363518Y-110492494D01*
X156363513Y-110492494D01*
X156360815Y-110492100D01*
X156355100Y-110492100D01*
X156306762Y-110474507D01*
X156281042Y-110429958D01*
X156279900Y-110416900D01*
X156279900Y-105208551D01*
X156297493Y-105160213D01*
X156331689Y-105137467D01*
X156335095Y-105136966D01*
X156407391Y-105101470D01*
X156442450Y-105084257D01*
X156442451Y-105084256D01*
X156448026Y-105081519D01*
X156452414Y-105077124D01*
X156452416Y-105077122D01*
X156501387Y-105028065D01*
X156536908Y-104992482D01*
X156539637Y-104986898D01*
X156539639Y-104986896D01*
X156589595Y-104884695D01*
X156592157Y-104879454D01*
X156602900Y-104805815D01*
X156602899Y-104344087D01*
X156620492Y-104295749D01*
X156624925Y-104290913D01*
X156963552Y-103952286D01*
X157004962Y-103931186D01*
X157127306Y-103911809D01*
X157242151Y-103853292D01*
X157273517Y-103821926D01*
X157320137Y-103800186D01*
X157326691Y-103799900D01*
X157849435Y-103799900D01*
X157854197Y-103800250D01*
X157858403Y-103801694D01*
X157865338Y-103801434D01*
X157865341Y-103801434D01*
X157904775Y-103799953D01*
X157907596Y-103799900D01*
X157926031Y-103799900D01*
X157929436Y-103799266D01*
X157931754Y-103799052D01*
X157935843Y-103798787D01*
X157955661Y-103798043D01*
X157955663Y-103798042D01*
X157962601Y-103797782D01*
X157968979Y-103795042D01*
X157968983Y-103795041D01*
X157974194Y-103792802D01*
X157990106Y-103787968D01*
X157995681Y-103786930D01*
X157995688Y-103786927D01*
X158002508Y-103785657D01*
X158008416Y-103782015D01*
X158008419Y-103782014D01*
X158024691Y-103771984D01*
X158034463Y-103766907D01*
X158051379Y-103759639D01*
X158058404Y-103756621D01*
X158062957Y-103752881D01*
X158068425Y-103747413D01*
X158082137Y-103736573D01*
X158091271Y-103730943D01*
X158105134Y-103712713D01*
X158108426Y-103708383D01*
X158115111Y-103700727D01*
X159462161Y-102353677D01*
X159465779Y-102350554D01*
X159469774Y-102348601D01*
X159501347Y-102314565D01*
X159503304Y-102312534D01*
X159516326Y-102299512D01*
X159518286Y-102296656D01*
X159519768Y-102294872D01*
X159522472Y-102291792D01*
X159535966Y-102277245D01*
X159540687Y-102272156D01*
X159545363Y-102260437D01*
X159553195Y-102245768D01*
X159556404Y-102241090D01*
X159560332Y-102235364D01*
X159566347Y-102210014D01*
X159569666Y-102199517D01*
X159579325Y-102175308D01*
X159579900Y-102169444D01*
X159579900Y-102161707D01*
X159581932Y-102144343D01*
X159582805Y-102140663D01*
X159584408Y-102133910D01*
X159581035Y-102109122D01*
X159580587Y-102105834D01*
X159579900Y-102095693D01*
X159579900Y-101196792D01*
X159597493Y-101148454D01*
X159624573Y-101128067D01*
X159644551Y-101119193D01*
X159650893Y-101116376D01*
X159713711Y-101053448D01*
X159721760Y-101045385D01*
X159721761Y-101045384D01*
X159726665Y-101040471D01*
X159734691Y-101022318D01*
X159758628Y-100968171D01*
X159770031Y-100942379D01*
X159771746Y-100927667D01*
X159772648Y-100919934D01*
X159772648Y-100919933D01*
X159772900Y-100917772D01*
X159772900Y-100562228D01*
X159771908Y-100553886D01*
X159770580Y-100542730D01*
X159769913Y-100537124D01*
X159726376Y-100439107D01*
X159721465Y-100434205D01*
X159721464Y-100434203D01*
X159655385Y-100368240D01*
X159655384Y-100368239D01*
X159650471Y-100363335D01*
X159644121Y-100360528D01*
X159644120Y-100360527D01*
X159557554Y-100322257D01*
X159557555Y-100322257D01*
X159552379Y-100319969D01*
X159543375Y-100318919D01*
X159529934Y-100317352D01*
X159529933Y-100317352D01*
X159527772Y-100317100D01*
X159274913Y-100317100D01*
X159247849Y-100311372D01*
X159245364Y-100309668D01*
X159220014Y-100303653D01*
X159209507Y-100300330D01*
X159208430Y-100299900D01*
X159203121Y-100297782D01*
X159196986Y-100295334D01*
X159158610Y-100261080D01*
X159151231Y-100210172D01*
X159171681Y-100172315D01*
X159179070Y-100164926D01*
X159225690Y-100143186D01*
X159232244Y-100142900D01*
X159527772Y-100142900D01*
X159529979Y-100142637D01*
X159529986Y-100142637D01*
X159547270Y-100140580D01*
X159552876Y-100139913D01*
X159650893Y-100096376D01*
X159655795Y-100091465D01*
X159655797Y-100091464D01*
X159721760Y-100025385D01*
X159721761Y-100025384D01*
X159726665Y-100020471D01*
X159732229Y-100007887D01*
X159762189Y-99940117D01*
X159770031Y-99922379D01*
X159772900Y-99897772D01*
X159772900Y-99542228D01*
X159771050Y-99526675D01*
X159770580Y-99522730D01*
X159769913Y-99517124D01*
X159726376Y-99419107D01*
X159721465Y-99414205D01*
X159721464Y-99414203D01*
X159655385Y-99348240D01*
X159655384Y-99348239D01*
X159650471Y-99343335D01*
X159644121Y-99340528D01*
X159644120Y-99340527D01*
X159574539Y-99309766D01*
X159552379Y-99299969D01*
X159540131Y-99298541D01*
X159529934Y-99297352D01*
X159529933Y-99297352D01*
X159527772Y-99297100D01*
X159072228Y-99297100D01*
X159070021Y-99297363D01*
X159070014Y-99297363D01*
X159053852Y-99299287D01*
X159047124Y-99300087D01*
X158949107Y-99343624D01*
X158944205Y-99348535D01*
X158944203Y-99348536D01*
X158878240Y-99414615D01*
X158873335Y-99419529D01*
X158870528Y-99425879D01*
X158870527Y-99425880D01*
X158853733Y-99463867D01*
X158829969Y-99517621D01*
X158827100Y-99542228D01*
X158827100Y-99765700D01*
X158809507Y-99814038D01*
X158764958Y-99839758D01*
X158751900Y-99840900D01*
X157308200Y-99840900D01*
X157259862Y-99823307D01*
X157234142Y-99778758D01*
X157233000Y-99765700D01*
X157233000Y-99733259D01*
X157229303Y-99723102D01*
X157223931Y-99720000D01*
X155805260Y-99720000D01*
X155795103Y-99723697D01*
X155792001Y-99729069D01*
X155792001Y-99766049D01*
X155792221Y-99770118D01*
X155798239Y-99825518D01*
X155800403Y-99834622D01*
X155847948Y-99961448D01*
X155853039Y-99970746D01*
X155933886Y-100078621D01*
X155941379Y-100086114D01*
X156049254Y-100166961D01*
X156058552Y-100172052D01*
X156101502Y-100188153D01*
X156140588Y-100221595D01*
X156148860Y-100243898D01*
X156149559Y-100247413D01*
X156154446Y-100271984D01*
X156155972Y-100279658D01*
X156160089Y-100285820D01*
X156162327Y-100291222D01*
X156164570Y-100342613D01*
X156162326Y-100348779D01*
X156160087Y-100354183D01*
X156155972Y-100360342D01*
X156154527Y-100367604D01*
X156154527Y-100367605D01*
X156148858Y-100396105D01*
X156122172Y-100440081D01*
X156101500Y-100451848D01*
X156058551Y-100467949D01*
X156049255Y-100473038D01*
X155941379Y-100553886D01*
X155933886Y-100561379D01*
X155853039Y-100669254D01*
X155847948Y-100678552D01*
X155800403Y-100805377D01*
X155798238Y-100814483D01*
X155792220Y-100869883D01*
X155792000Y-100873949D01*
X155792000Y-100906741D01*
X155795697Y-100916898D01*
X155801069Y-100920000D01*
X157219740Y-100920000D01*
X157229897Y-100916303D01*
X157241932Y-100895458D01*
X157243250Y-100896219D01*
X157254577Y-100871927D01*
X157301197Y-100850186D01*
X157307753Y-100849900D01*
X158752335Y-100849900D01*
X158800673Y-100867493D01*
X158826393Y-100912042D01*
X158827065Y-100917776D01*
X158827100Y-100917772D01*
X158830087Y-100942876D01*
X158873624Y-101040893D01*
X158878535Y-101045795D01*
X158878536Y-101045797D01*
X158944615Y-101111760D01*
X158949529Y-101116665D01*
X158975308Y-101128062D01*
X159012402Y-101163696D01*
X159020100Y-101196839D01*
X159020100Y-101972914D01*
X159002507Y-102021252D01*
X158998074Y-102026088D01*
X157806088Y-103218074D01*
X157759468Y-103239814D01*
X157752914Y-103240100D01*
X157326691Y-103240100D01*
X157278353Y-103222507D01*
X157273517Y-103218074D01*
X157242151Y-103186708D01*
X157127306Y-103128191D01*
X157063653Y-103118109D01*
X157005847Y-103108954D01*
X157000000Y-103108028D01*
X156994153Y-103108954D01*
X156936347Y-103118109D01*
X156872694Y-103128191D01*
X156757849Y-103186708D01*
X156666708Y-103277849D01*
X156664020Y-103283125D01*
X156664019Y-103283126D01*
X156655061Y-103300707D01*
X156608191Y-103392694D01*
X156607265Y-103398541D01*
X156588814Y-103515036D01*
X156567715Y-103556446D01*
X156411449Y-103712713D01*
X156358275Y-103765887D01*
X156311654Y-103787627D01*
X156261967Y-103774313D01*
X156232462Y-103732176D01*
X156229900Y-103712713D01*
X156229900Y-102373100D01*
X156247493Y-102324762D01*
X156292042Y-102299042D01*
X156305100Y-102297900D01*
X156563894Y-102297899D01*
X156615056Y-102297899D01*
X156659658Y-102289028D01*
X156710234Y-102255234D01*
X156728027Y-102228605D01*
X156739913Y-102210817D01*
X156739914Y-102210816D01*
X156744028Y-102204658D01*
X156745473Y-102197392D01*
X156752179Y-102163682D01*
X156752179Y-102163681D01*
X156752900Y-102160057D01*
X156752899Y-101797665D01*
X156770492Y-101749329D01*
X156819979Y-101722906D01*
X156830518Y-101721761D01*
X156839622Y-101719597D01*
X156966448Y-101672052D01*
X156975746Y-101666961D01*
X157083621Y-101586114D01*
X157091114Y-101578621D01*
X157171961Y-101470746D01*
X157177052Y-101461448D01*
X157224597Y-101334623D01*
X157226762Y-101325517D01*
X157232780Y-101270117D01*
X157233000Y-101266051D01*
X157233000Y-101233259D01*
X157229303Y-101223102D01*
X157223931Y-101220000D01*
X155805260Y-101220000D01*
X155795103Y-101223697D01*
X155792001Y-101229069D01*
X155792001Y-101266049D01*
X155792221Y-101270118D01*
X155798239Y-101325518D01*
X155800404Y-101334626D01*
X155814476Y-101372162D01*
X155814971Y-101423600D01*
X155782286Y-101463321D01*
X155758737Y-101472313D01*
X155740342Y-101475972D01*
X155734180Y-101480089D01*
X155728778Y-101482327D01*
X155677387Y-101484570D01*
X155671221Y-101482326D01*
X155665817Y-101480088D01*
X155659658Y-101475972D01*
X155644210Y-101472899D01*
X155618682Y-101467821D01*
X155618681Y-101467821D01*
X155615057Y-101467100D01*
X155450023Y-101467100D01*
X155284944Y-101467101D01*
X155266618Y-101470746D01*
X155247611Y-101474526D01*
X155247610Y-101474526D01*
X155240342Y-101475972D01*
X155234180Y-101480089D01*
X155228778Y-101482327D01*
X155177387Y-101484570D01*
X155171221Y-101482326D01*
X155165817Y-101480087D01*
X155159658Y-101475972D01*
X155152396Y-101474527D01*
X155152395Y-101474527D01*
X155123895Y-101468858D01*
X155079919Y-101442172D01*
X155068152Y-101421500D01*
X155052051Y-101378551D01*
X155046961Y-101369254D01*
X154966114Y-101261379D01*
X154958621Y-101253886D01*
X154850746Y-101173039D01*
X154841448Y-101167948D01*
X154714623Y-101120403D01*
X154705517Y-101118238D01*
X154650117Y-101112220D01*
X154646051Y-101112000D01*
X154613259Y-101112000D01*
X154603102Y-101115697D01*
X154600000Y-101121069D01*
X154600000Y-102639740D01*
X154603697Y-102649897D01*
X154609069Y-102652999D01*
X154646049Y-102652999D01*
X154650118Y-102652779D01*
X154705518Y-102646761D01*
X154714622Y-102644597D01*
X154841448Y-102597052D01*
X154850746Y-102591961D01*
X154958621Y-102511114D01*
X154966114Y-102503621D01*
X155046961Y-102395746D01*
X155052052Y-102386448D01*
X155068153Y-102343498D01*
X155101595Y-102304412D01*
X155123898Y-102296140D01*
X155136331Y-102293668D01*
X155152389Y-102290474D01*
X155152390Y-102290474D01*
X155159658Y-102289028D01*
X155165820Y-102284911D01*
X155171222Y-102282673D01*
X155222613Y-102280430D01*
X155228779Y-102282674D01*
X155234183Y-102284912D01*
X155240342Y-102289028D01*
X155247606Y-102290473D01*
X155271923Y-102295310D01*
X155284943Y-102297900D01*
X155336096Y-102297900D01*
X155594900Y-102297899D01*
X155643237Y-102315492D01*
X155668958Y-102360040D01*
X155670100Y-102373099D01*
X155670100Y-103853630D01*
X155652507Y-103901968D01*
X155628042Y-103921133D01*
X155557552Y-103955742D01*
X155557551Y-103955743D01*
X155551974Y-103958481D01*
X155547586Y-103962876D01*
X155547584Y-103962878D01*
X155481978Y-104028599D01*
X155435376Y-104050379D01*
X155385678Y-104037109D01*
X155357422Y-103999271D01*
X155344682Y-103961085D01*
X155341001Y-103953229D01*
X155255660Y-103815319D01*
X155250264Y-103808510D01*
X155135481Y-103693928D01*
X155128673Y-103688551D01*
X154990610Y-103603448D01*
X154982740Y-103599778D01*
X154828556Y-103548637D01*
X154820565Y-103546924D01*
X154725622Y-103537197D01*
X154721779Y-103537000D01*
X154717259Y-103537000D01*
X154707102Y-103540697D01*
X154704000Y-103546069D01*
X154704000Y-105489741D01*
X154707697Y-105499898D01*
X154713069Y-105503000D01*
X154721764Y-105503000D01*
X154725638Y-105502799D01*
X154821820Y-105492819D01*
X154829819Y-105491092D01*
X154983913Y-105439683D01*
X154991771Y-105436001D01*
X155129681Y-105350660D01*
X155136490Y-105345264D01*
X155251072Y-105230481D01*
X155256449Y-105223673D01*
X155341552Y-105085610D01*
X155345223Y-105077738D01*
X155357415Y-105040979D01*
X155389331Y-105000638D01*
X155439711Y-104990250D01*
X155481919Y-105011432D01*
X155552518Y-105081908D01*
X155558102Y-105084637D01*
X155558104Y-105084639D01*
X155660302Y-105134594D01*
X155660304Y-105134595D01*
X155665546Y-105137157D01*
X155668227Y-105137548D01*
X155708091Y-105167776D01*
X155720100Y-105208543D01*
X155720100Y-110478178D01*
X155702507Y-110526516D01*
X155678044Y-110545680D01*
X155657553Y-110555741D01*
X155657550Y-110555743D01*
X155651974Y-110558481D01*
X155647586Y-110562876D01*
X155647584Y-110562878D01*
X155624367Y-110586136D01*
X155563092Y-110647518D01*
X155560363Y-110653102D01*
X155560361Y-110653104D01*
X155543841Y-110686901D01*
X155507843Y-110760546D01*
X155507402Y-110760331D01*
X155478769Y-110798091D01*
X155438002Y-110810100D01*
X154655638Y-110810100D01*
X154607300Y-110792507D01*
X154581580Y-110747958D01*
X154582249Y-110725315D01*
X154581252Y-110725207D01*
X154587780Y-110665117D01*
X154588000Y-110661051D01*
X154588000Y-110628259D01*
X154584303Y-110618102D01*
X154578931Y-110615000D01*
X154018259Y-110615000D01*
X154008102Y-110618697D01*
X154005000Y-110624069D01*
X154005000Y-110686900D01*
X153987407Y-110735238D01*
X153942858Y-110760958D01*
X153929800Y-110762100D01*
X153830000Y-110762101D01*
X153730199Y-110762101D01*
X153681863Y-110744508D01*
X153656143Y-110699960D01*
X153655000Y-110686901D01*
X153655000Y-110628259D01*
X153651303Y-110618102D01*
X153645931Y-110615000D01*
X153085260Y-110615000D01*
X153075103Y-110618697D01*
X153072001Y-110624069D01*
X153072001Y-110661049D01*
X153072221Y-110665118D01*
X153078748Y-110725207D01*
X153076601Y-110725440D01*
X153071587Y-110768601D01*
X153034197Y-110803928D01*
X153004362Y-110810100D01*
X152980565Y-110810100D01*
X152975803Y-110809750D01*
X152971597Y-110808306D01*
X152964662Y-110808566D01*
X152964659Y-110808566D01*
X152925225Y-110810047D01*
X152922404Y-110810100D01*
X152903969Y-110810100D01*
X152900564Y-110810734D01*
X152898246Y-110810948D01*
X152894157Y-110811213D01*
X152874339Y-110811957D01*
X152874337Y-110811958D01*
X152867399Y-110812218D01*
X152861021Y-110814958D01*
X152861017Y-110814959D01*
X152855806Y-110817198D01*
X152839894Y-110822032D01*
X152834319Y-110823070D01*
X152834312Y-110823073D01*
X152827492Y-110824343D01*
X152821584Y-110827985D01*
X152821581Y-110827986D01*
X152805309Y-110838016D01*
X152795538Y-110843092D01*
X152782728Y-110848596D01*
X152731370Y-110851514D01*
X152690153Y-110820737D01*
X152678362Y-110770667D01*
X152699867Y-110726330D01*
X152756367Y-110669830D01*
X152759222Y-110667120D01*
X152783613Y-110645158D01*
X152789486Y-110639870D01*
X152799551Y-110617264D01*
X152805179Y-110606898D01*
X152814359Y-110592762D01*
X152818662Y-110586136D01*
X152819898Y-110578332D01*
X152819899Y-110578329D01*
X152820014Y-110577604D01*
X152825589Y-110558784D01*
X152825883Y-110558123D01*
X152825883Y-110558121D01*
X152829100Y-110550897D01*
X152829100Y-110526146D01*
X152830026Y-110514383D01*
X152832661Y-110497748D01*
X152832661Y-110497746D01*
X152833897Y-110489941D01*
X152831662Y-110481599D01*
X152829100Y-110462137D01*
X152829100Y-110251741D01*
X153072000Y-110251741D01*
X153075697Y-110261898D01*
X153081069Y-110265000D01*
X153641741Y-110265000D01*
X153651898Y-110261303D01*
X153655000Y-110255931D01*
X153655000Y-110251741D01*
X154005000Y-110251741D01*
X154008697Y-110261898D01*
X154014069Y-110265000D01*
X154574740Y-110265000D01*
X154584897Y-110261303D01*
X154587999Y-110255931D01*
X154587999Y-110218951D01*
X154587779Y-110214882D01*
X154581761Y-110159482D01*
X154579597Y-110150378D01*
X154532052Y-110023552D01*
X154526961Y-110014254D01*
X154446114Y-109906379D01*
X154438621Y-109898886D01*
X154330746Y-109818039D01*
X154321448Y-109812948D01*
X154194623Y-109765403D01*
X154185517Y-109763238D01*
X154130117Y-109757220D01*
X154126051Y-109757000D01*
X154018259Y-109757000D01*
X154008102Y-109760697D01*
X154005000Y-109766069D01*
X154005000Y-110251741D01*
X153655000Y-110251741D01*
X153655000Y-109770260D01*
X153651303Y-109760103D01*
X153645931Y-109757001D01*
X153533951Y-109757001D01*
X153529882Y-109757221D01*
X153474482Y-109763239D01*
X153465378Y-109765403D01*
X153338552Y-109812948D01*
X153329254Y-109818039D01*
X153221379Y-109898886D01*
X153213886Y-109906379D01*
X153133039Y-110014254D01*
X153127948Y-110023552D01*
X153080403Y-110150377D01*
X153078238Y-110159483D01*
X153072220Y-110214883D01*
X153072000Y-110218949D01*
X153072000Y-110251741D01*
X152829100Y-110251741D01*
X152829100Y-109727967D01*
X152829203Y-109724032D01*
X152830921Y-109691252D01*
X152830921Y-109691250D01*
X152831334Y-109683361D01*
X152822463Y-109660250D01*
X152819118Y-109648958D01*
X152813969Y-109624735D01*
X152809323Y-109618340D01*
X152808893Y-109617748D01*
X152799527Y-109600498D01*
X152799265Y-109599816D01*
X152799264Y-109599815D01*
X152796432Y-109592436D01*
X152778936Y-109574940D01*
X152771272Y-109565968D01*
X152761367Y-109552335D01*
X152756722Y-109545942D01*
X152749243Y-109541624D01*
X152733669Y-109529673D01*
X152201126Y-108997129D01*
X152179386Y-108950509D01*
X152179100Y-108943955D01*
X152179100Y-104816764D01*
X153492000Y-104816764D01*
X153492201Y-104820638D01*
X153502181Y-104916820D01*
X153503908Y-104924819D01*
X153555317Y-105078913D01*
X153558999Y-105086771D01*
X153644340Y-105224681D01*
X153649736Y-105231490D01*
X153764519Y-105346072D01*
X153771327Y-105351449D01*
X153909390Y-105436552D01*
X153917260Y-105440222D01*
X154071444Y-105491363D01*
X154079435Y-105493076D01*
X154174378Y-105502803D01*
X154178221Y-105503000D01*
X154182741Y-105503000D01*
X154192898Y-105499303D01*
X154196000Y-105493931D01*
X154196000Y-104787259D01*
X154192303Y-104777102D01*
X154186931Y-104774000D01*
X153505259Y-104774000D01*
X153495102Y-104777697D01*
X153492000Y-104783069D01*
X153492000Y-104816764D01*
X152179100Y-104816764D01*
X152179100Y-104252741D01*
X153492000Y-104252741D01*
X153495697Y-104262898D01*
X153501069Y-104266000D01*
X154182741Y-104266000D01*
X154192898Y-104262303D01*
X154196000Y-104256931D01*
X154196000Y-103550259D01*
X154192303Y-103540102D01*
X154186931Y-103537000D01*
X154178236Y-103537000D01*
X154174362Y-103537201D01*
X154078180Y-103547181D01*
X154070181Y-103548908D01*
X153916087Y-103600317D01*
X153908229Y-103603999D01*
X153770319Y-103689340D01*
X153763510Y-103694736D01*
X153648928Y-103809519D01*
X153643551Y-103816327D01*
X153558448Y-103954390D01*
X153554778Y-103962260D01*
X153503637Y-104116444D01*
X153501924Y-104124435D01*
X153492197Y-104219378D01*
X153492000Y-104223221D01*
X153492000Y-104252741D01*
X152179100Y-104252741D01*
X152179100Y-102368478D01*
X152196693Y-102320140D01*
X152241242Y-102294420D01*
X152268971Y-102294723D01*
X152276095Y-102296140D01*
X152284943Y-102297900D01*
X152449977Y-102297900D01*
X152615056Y-102297899D01*
X152639750Y-102292988D01*
X152652389Y-102290474D01*
X152652390Y-102290474D01*
X152659658Y-102289028D01*
X152665820Y-102284911D01*
X152671222Y-102282673D01*
X152722613Y-102280430D01*
X152728779Y-102282674D01*
X152734183Y-102284912D01*
X152740342Y-102289028D01*
X152747606Y-102290473D01*
X152771923Y-102295310D01*
X152784943Y-102297900D01*
X152949977Y-102297900D01*
X153115056Y-102297899D01*
X153139750Y-102292988D01*
X153152389Y-102290474D01*
X153152390Y-102290474D01*
X153159658Y-102289028D01*
X153165820Y-102284911D01*
X153171222Y-102282673D01*
X153222613Y-102280430D01*
X153228779Y-102282674D01*
X153234183Y-102284912D01*
X153240342Y-102289028D01*
X153247606Y-102290473D01*
X153271923Y-102295310D01*
X153284943Y-102297900D01*
X153449977Y-102297900D01*
X153615056Y-102297899D01*
X153639750Y-102292988D01*
X153652389Y-102290474D01*
X153652390Y-102290474D01*
X153659658Y-102289028D01*
X153665820Y-102284911D01*
X153671222Y-102282673D01*
X153722613Y-102280430D01*
X153728779Y-102282674D01*
X153734183Y-102284913D01*
X153740342Y-102289028D01*
X153747604Y-102290473D01*
X153747605Y-102290473D01*
X153776105Y-102296142D01*
X153820081Y-102322828D01*
X153831848Y-102343500D01*
X153847949Y-102386449D01*
X153853039Y-102395746D01*
X153933886Y-102503621D01*
X153941379Y-102511114D01*
X154049254Y-102591961D01*
X154058552Y-102597052D01*
X154185377Y-102644597D01*
X154194483Y-102646762D01*
X154249883Y-102652780D01*
X154253949Y-102653000D01*
X154286741Y-102653000D01*
X154296898Y-102649303D01*
X154300000Y-102643931D01*
X154300000Y-101125260D01*
X154296303Y-101115103D01*
X154290931Y-101112001D01*
X154253951Y-101112001D01*
X154249882Y-101112221D01*
X154194482Y-101118239D01*
X154185378Y-101120403D01*
X154058552Y-101167948D01*
X154049254Y-101173039D01*
X153941379Y-101253886D01*
X153933886Y-101261379D01*
X153853039Y-101369254D01*
X153847948Y-101378552D01*
X153831847Y-101421502D01*
X153798405Y-101460588D01*
X153776102Y-101468860D01*
X153766618Y-101470746D01*
X153747611Y-101474526D01*
X153747610Y-101474526D01*
X153740342Y-101475972D01*
X153734180Y-101480089D01*
X153728778Y-101482327D01*
X153677387Y-101484570D01*
X153671221Y-101482326D01*
X153665817Y-101480088D01*
X153659658Y-101475972D01*
X153644210Y-101472899D01*
X153618682Y-101467821D01*
X153618681Y-101467821D01*
X153615057Y-101467100D01*
X153450023Y-101467100D01*
X153284944Y-101467101D01*
X153266618Y-101470746D01*
X153247611Y-101474526D01*
X153247610Y-101474526D01*
X153240342Y-101475972D01*
X153234180Y-101480089D01*
X153228778Y-101482327D01*
X153177387Y-101484570D01*
X153171221Y-101482326D01*
X153165817Y-101480088D01*
X153159658Y-101475972D01*
X153144210Y-101472899D01*
X153118682Y-101467821D01*
X153118681Y-101467821D01*
X153115057Y-101467100D01*
X152950023Y-101467100D01*
X152784944Y-101467101D01*
X152766618Y-101470746D01*
X152747611Y-101474526D01*
X152747610Y-101474526D01*
X152740342Y-101475972D01*
X152734180Y-101480089D01*
X152728778Y-101482327D01*
X152677387Y-101484570D01*
X152671221Y-101482326D01*
X152665817Y-101480088D01*
X152659658Y-101475972D01*
X152644210Y-101472899D01*
X152618682Y-101467821D01*
X152618681Y-101467821D01*
X152615057Y-101467100D01*
X152450023Y-101467100D01*
X152284944Y-101467101D01*
X152281320Y-101467822D01*
X152281318Y-101467822D01*
X152273617Y-101469354D01*
X152257694Y-101472521D01*
X152206854Y-101464695D01*
X152172938Y-101426020D01*
X152171816Y-101374593D01*
X152201244Y-101336241D01*
X152204077Y-101334348D01*
X152210234Y-101330234D01*
X152216321Y-101321124D01*
X152239913Y-101285817D01*
X152239914Y-101285816D01*
X152244028Y-101279658D01*
X152250464Y-101247306D01*
X152251142Y-101243895D01*
X152277828Y-101199919D01*
X152298500Y-101188152D01*
X152341449Y-101172051D01*
X152350746Y-101166961D01*
X152458621Y-101086114D01*
X152466114Y-101078621D01*
X152550172Y-100966462D01*
X152552452Y-100968171D01*
X152583255Y-100941133D01*
X152634682Y-100939987D01*
X152665893Y-100962966D01*
X152666708Y-100962151D01*
X152757849Y-101053292D01*
X152763125Y-101055980D01*
X152763126Y-101055981D01*
X152778831Y-101063983D01*
X152872694Y-101111809D01*
X152921071Y-101119471D01*
X152955330Y-101124897D01*
X153000000Y-101131972D01*
X153044671Y-101124897D01*
X153078929Y-101119471D01*
X153127306Y-101111809D01*
X153221169Y-101063983D01*
X153236874Y-101055981D01*
X153236875Y-101055980D01*
X153242151Y-101053292D01*
X153333292Y-100962151D01*
X153340933Y-100947156D01*
X153367302Y-100895404D01*
X153391809Y-100847306D01*
X153403107Y-100775972D01*
X153411046Y-100725847D01*
X153411972Y-100720000D01*
X153405937Y-100681897D01*
X153415752Y-100631402D01*
X153427037Y-100616959D01*
X153753897Y-100290100D01*
X154106367Y-99937630D01*
X154109222Y-99934920D01*
X154133613Y-99912958D01*
X154139486Y-99907670D01*
X154149551Y-99885064D01*
X154155179Y-99874698D01*
X154164358Y-99860564D01*
X154164358Y-99860563D01*
X154168662Y-99853936D01*
X154169898Y-99846132D01*
X154169899Y-99846130D01*
X154170013Y-99845407D01*
X154175587Y-99826588D01*
X154179100Y-99818697D01*
X154179100Y-99793947D01*
X154180026Y-99782183D01*
X154182661Y-99765549D01*
X154182661Y-99765547D01*
X154183897Y-99757742D01*
X154181662Y-99749400D01*
X154179100Y-99729938D01*
X154179100Y-99243478D01*
X154196693Y-99195140D01*
X154241242Y-99169420D01*
X154268971Y-99169723D01*
X154281308Y-99172177D01*
X154284943Y-99172900D01*
X154449977Y-99172900D01*
X154615056Y-99172899D01*
X154642302Y-99167480D01*
X154652389Y-99165474D01*
X154652390Y-99165474D01*
X154659658Y-99164028D01*
X154665820Y-99159911D01*
X154671222Y-99157673D01*
X154722613Y-99155430D01*
X154728779Y-99157674D01*
X154734183Y-99159912D01*
X154740342Y-99164028D01*
X154747606Y-99165473D01*
X154780414Y-99171999D01*
X154784943Y-99172900D01*
X154949977Y-99172900D01*
X155115056Y-99172899D01*
X155142302Y-99167480D01*
X155152389Y-99165474D01*
X155152390Y-99165474D01*
X155159658Y-99164028D01*
X155165820Y-99159911D01*
X155171222Y-99157673D01*
X155222613Y-99155430D01*
X155228779Y-99157674D01*
X155234183Y-99159912D01*
X155240342Y-99164028D01*
X155247606Y-99165473D01*
X155280414Y-99171999D01*
X155284943Y-99172900D01*
X155449977Y-99172900D01*
X155615056Y-99172899D01*
X155642302Y-99167480D01*
X155652389Y-99165474D01*
X155652390Y-99165474D01*
X155659658Y-99164028D01*
X155665820Y-99159911D01*
X155671222Y-99157673D01*
X155722613Y-99155430D01*
X155728779Y-99157674D01*
X155734183Y-99159912D01*
X155740342Y-99164028D01*
X155758732Y-99167686D01*
X155802708Y-99194372D01*
X155819243Y-99243081D01*
X155814476Y-99267838D01*
X155800403Y-99305377D01*
X155798238Y-99314483D01*
X155792220Y-99369883D01*
X155792000Y-99373949D01*
X155792000Y-99406741D01*
X155795697Y-99416898D01*
X155801069Y-99420000D01*
X156286741Y-99420000D01*
X156296898Y-99416303D01*
X156300000Y-99410931D01*
X156300000Y-99406741D01*
X156662500Y-99406741D01*
X156666197Y-99416898D01*
X156671569Y-99420000D01*
X157219740Y-99420000D01*
X157229897Y-99416303D01*
X157232999Y-99410931D01*
X157232999Y-99373951D01*
X157232779Y-99369882D01*
X157226761Y-99314482D01*
X157224597Y-99305378D01*
X157177052Y-99178552D01*
X157171961Y-99169253D01*
X157123024Y-99103956D01*
X157108000Y-99058857D01*
X157108000Y-98920759D01*
X157104303Y-98910602D01*
X157098931Y-98907500D01*
X156675759Y-98907500D01*
X156665602Y-98911197D01*
X156662500Y-98916569D01*
X156662500Y-99406741D01*
X156300000Y-99406741D01*
X156300000Y-98594241D01*
X156600000Y-98594241D01*
X156603697Y-98604398D01*
X156609069Y-98607500D01*
X157094740Y-98607500D01*
X157104897Y-98603803D01*
X157107999Y-98598431D01*
X157107999Y-98448951D01*
X157107779Y-98444882D01*
X157101761Y-98389482D01*
X157099597Y-98380378D01*
X157052052Y-98253552D01*
X157046961Y-98244254D01*
X156966114Y-98136379D01*
X156958621Y-98128886D01*
X156850746Y-98048039D01*
X156841448Y-98042948D01*
X156714623Y-97995403D01*
X156705517Y-97993238D01*
X156650117Y-97987220D01*
X156646051Y-97987000D01*
X156613259Y-97987000D01*
X156603102Y-97990697D01*
X156600000Y-97996069D01*
X156600000Y-98594241D01*
X156300000Y-98594241D01*
X156300000Y-98000260D01*
X156296303Y-97990103D01*
X156290931Y-97987001D01*
X156253951Y-97987001D01*
X156249882Y-97987221D01*
X156194482Y-97993239D01*
X156185378Y-97995403D01*
X156058552Y-98042948D01*
X156049254Y-98048039D01*
X155941379Y-98128886D01*
X155933886Y-98136379D01*
X155853039Y-98244254D01*
X155847948Y-98253552D01*
X155831847Y-98296502D01*
X155798405Y-98335588D01*
X155776102Y-98343860D01*
X155767452Y-98345580D01*
X155747611Y-98349526D01*
X155747610Y-98349526D01*
X155740342Y-98350972D01*
X155734180Y-98355089D01*
X155728778Y-98357327D01*
X155677387Y-98359570D01*
X155671221Y-98357326D01*
X155665817Y-98355088D01*
X155659658Y-98350972D01*
X155652389Y-98349526D01*
X155618682Y-98342821D01*
X155618681Y-98342821D01*
X155615057Y-98342100D01*
X155450023Y-98342100D01*
X155284944Y-98342101D01*
X155268967Y-98345279D01*
X155218127Y-98337451D01*
X155184212Y-98298776D01*
X155179100Y-98271523D01*
X155179100Y-97616503D01*
X155196693Y-97568165D01*
X155212521Y-97553977D01*
X155276174Y-97511445D01*
X155282331Y-97507331D01*
X155338227Y-97423677D01*
X155339673Y-97416410D01*
X155352179Y-97353536D01*
X155352179Y-97353535D01*
X155352900Y-97349911D01*
X155352900Y-97288587D01*
X155370493Y-97240249D01*
X155399324Y-97219111D01*
X155402070Y-97217974D01*
X155410530Y-97213089D01*
X155529723Y-97121628D01*
X155536628Y-97114723D01*
X155628089Y-96995530D01*
X155632971Y-96987074D01*
X155690464Y-96848274D01*
X155692993Y-96838833D01*
X155702300Y-96768145D01*
X155699960Y-96757593D01*
X155696581Y-96755000D01*
X154309230Y-96755000D01*
X154299073Y-96758697D01*
X154296943Y-96762385D01*
X154307007Y-96838833D01*
X154309536Y-96848274D01*
X154367029Y-96987074D01*
X154371911Y-96995530D01*
X154463372Y-97114723D01*
X154470277Y-97121628D01*
X154589470Y-97213089D01*
X154597932Y-97217975D01*
X154600682Y-97219114D01*
X154602005Y-97220326D01*
X154602200Y-97220439D01*
X154602175Y-97220482D01*
X154638606Y-97253868D01*
X154647101Y-97288587D01*
X154647101Y-97349910D01*
X154661773Y-97423677D01*
X154708228Y-97493201D01*
X154720900Y-97534978D01*
X154720900Y-98271522D01*
X154703307Y-98319860D01*
X154658758Y-98345580D01*
X154631029Y-98345277D01*
X154618682Y-98342821D01*
X154618681Y-98342821D01*
X154615057Y-98342100D01*
X154450023Y-98342100D01*
X154284944Y-98342101D01*
X154260250Y-98347012D01*
X154247611Y-98349526D01*
X154247610Y-98349526D01*
X154240342Y-98350972D01*
X154234180Y-98355089D01*
X154228778Y-98357327D01*
X154177387Y-98359570D01*
X154171221Y-98357326D01*
X154165817Y-98355088D01*
X154159658Y-98350972D01*
X154152389Y-98349526D01*
X154118682Y-98342821D01*
X154118681Y-98342821D01*
X154115057Y-98342100D01*
X153950023Y-98342100D01*
X153784944Y-98342101D01*
X153760250Y-98347012D01*
X153747611Y-98349526D01*
X153747610Y-98349526D01*
X153740342Y-98350972D01*
X153734180Y-98355089D01*
X153728778Y-98357327D01*
X153677387Y-98359570D01*
X153671221Y-98357326D01*
X153665817Y-98355088D01*
X153659658Y-98350972D01*
X153652389Y-98349526D01*
X153618682Y-98342821D01*
X153618681Y-98342821D01*
X153615057Y-98342100D01*
X153450023Y-98342100D01*
X153284944Y-98342101D01*
X153260250Y-98347012D01*
X153247611Y-98349526D01*
X153247610Y-98349526D01*
X153240342Y-98350972D01*
X153234180Y-98355089D01*
X153228778Y-98357327D01*
X153177387Y-98359570D01*
X153171221Y-98357326D01*
X153165817Y-98355088D01*
X153159658Y-98350972D01*
X153152389Y-98349526D01*
X153118682Y-98342821D01*
X153118681Y-98342821D01*
X153115057Y-98342100D01*
X152950023Y-98342100D01*
X152784944Y-98342101D01*
X152781320Y-98342822D01*
X152781318Y-98342822D01*
X152776100Y-98343860D01*
X152751359Y-98348781D01*
X152700520Y-98340956D01*
X152667992Y-98305612D01*
X152665613Y-98300268D01*
X152663969Y-98292535D01*
X152658892Y-98285547D01*
X152649525Y-98268294D01*
X152649264Y-98267614D01*
X152646432Y-98260235D01*
X152628933Y-98242736D01*
X152621269Y-98233764D01*
X152611367Y-98220135D01*
X152611366Y-98220135D01*
X152606722Y-98213742D01*
X152599242Y-98209423D01*
X152583671Y-98197474D01*
X152049830Y-97663633D01*
X152047120Y-97660778D01*
X152025158Y-97636387D01*
X152019870Y-97630514D01*
X151997253Y-97620444D01*
X151986897Y-97614821D01*
X151966136Y-97601339D01*
X151957612Y-97599989D01*
X151938787Y-97594413D01*
X151938120Y-97594116D01*
X151930897Y-97590900D01*
X151906146Y-97590900D01*
X151894382Y-97589974D01*
X151877748Y-97587339D01*
X151877746Y-97587339D01*
X151869942Y-97586103D01*
X151862310Y-97588148D01*
X151862309Y-97588148D01*
X151861601Y-97588338D01*
X151842138Y-97590900D01*
X151107960Y-97590900D01*
X151104025Y-97590797D01*
X151097617Y-97590461D01*
X151063360Y-97588666D01*
X151040254Y-97597535D01*
X151028948Y-97600884D01*
X151024064Y-97601923D01*
X151012463Y-97604388D01*
X151012461Y-97604389D01*
X151004735Y-97606031D01*
X150997747Y-97611108D01*
X150980497Y-97620473D01*
X150972435Y-97623568D01*
X150954936Y-97641067D01*
X150945964Y-97648731D01*
X150939190Y-97653653D01*
X150925942Y-97663278D01*
X150921991Y-97670121D01*
X150921625Y-97670756D01*
X150909674Y-97686329D01*
X150243633Y-98352370D01*
X150240778Y-98355080D01*
X150210514Y-98382330D01*
X150200444Y-98404947D01*
X150194822Y-98415301D01*
X150181339Y-98436064D01*
X150180103Y-98443871D01*
X150179989Y-98444588D01*
X150174413Y-98463413D01*
X150170900Y-98471303D01*
X150170900Y-98496054D01*
X150169974Y-98507818D01*
X150166103Y-98532258D01*
X150168148Y-98539890D01*
X150168148Y-98539891D01*
X150168338Y-98540599D01*
X150170900Y-98560062D01*
X150170900Y-100693956D01*
X150153307Y-100742294D01*
X150148874Y-100747130D01*
X148727129Y-102168874D01*
X148680509Y-102190614D01*
X148673955Y-102190900D01*
X148328100Y-102190900D01*
X148279762Y-102173307D01*
X148254042Y-102128758D01*
X148252900Y-102115700D01*
X148252899Y-101908641D01*
X148252899Y-101904944D01*
X148244028Y-101860342D01*
X148239911Y-101854180D01*
X148237673Y-101848778D01*
X148235430Y-101797387D01*
X148237674Y-101791221D01*
X148239912Y-101785817D01*
X148244028Y-101779658D01*
X148245473Y-101772394D01*
X148252179Y-101738682D01*
X148252179Y-101738681D01*
X148252900Y-101735057D01*
X148252899Y-101504944D01*
X148244028Y-101460342D01*
X148240240Y-101454673D01*
X148238015Y-101403617D01*
X148244517Y-101390057D01*
X148244062Y-101389814D01*
X148245806Y-101386551D01*
X148247856Y-101383483D01*
X148249029Y-101380651D01*
X148249035Y-101380636D01*
X148249447Y-101379641D01*
X148261307Y-101320019D01*
X148260895Y-101317946D01*
X148260895Y-101122090D01*
X148261307Y-101120019D01*
X148259714Y-101112001D01*
X148250167Y-101063983D01*
X148249447Y-101060359D01*
X148249035Y-101059364D01*
X148249029Y-101059349D01*
X148247856Y-101056517D01*
X148229251Y-101028675D01*
X148218164Y-101012084D01*
X148218163Y-101012083D01*
X148214048Y-101005925D01*
X148212289Y-101004750D01*
X147715224Y-100507685D01*
X147714048Y-100505925D01*
X147707889Y-100501811D01*
X147707887Y-100501809D01*
X147674853Y-100479743D01*
X147663468Y-100472138D01*
X147662488Y-100471732D01*
X147659656Y-100470559D01*
X147656035Y-100469839D01*
X147656030Y-100469837D01*
X147607282Y-100460138D01*
X147607281Y-100460138D01*
X147600019Y-100458693D01*
X147597946Y-100459105D01*
X147402090Y-100459105D01*
X147400019Y-100458693D01*
X147392760Y-100460136D01*
X147392758Y-100460136D01*
X147368068Y-100465045D01*
X147340359Y-100470553D01*
X147339364Y-100470965D01*
X147339349Y-100470971D01*
X147336517Y-100472144D01*
X147333442Y-100474198D01*
X147330188Y-100475938D01*
X147329323Y-100474319D01*
X147285571Y-100485020D01*
X147265498Y-100479874D01*
X147259658Y-100475972D01*
X147250685Y-100474187D01*
X147218682Y-100467821D01*
X147218681Y-100467821D01*
X147215057Y-100467100D01*
X147100032Y-100467100D01*
X146984944Y-100467101D01*
X146962847Y-100471496D01*
X146947611Y-100474526D01*
X146947610Y-100474526D01*
X146940342Y-100475972D01*
X146934180Y-100480089D01*
X146928778Y-100482327D01*
X146877387Y-100484570D01*
X146871221Y-100482326D01*
X146865817Y-100480088D01*
X146859658Y-100475972D01*
X146850685Y-100474187D01*
X146818682Y-100467821D01*
X146818681Y-100467821D01*
X146815057Y-100467100D01*
X146771486Y-100467100D01*
X146723148Y-100449507D01*
X146697428Y-100404958D01*
X146706361Y-100354300D01*
X146718312Y-100338726D01*
X146735112Y-100321926D01*
X146781732Y-100300186D01*
X146788286Y-100299900D01*
X146849435Y-100299900D01*
X146854197Y-100300250D01*
X146858403Y-100301694D01*
X146865338Y-100301434D01*
X146865341Y-100301434D01*
X146904775Y-100299953D01*
X146907596Y-100299900D01*
X146926031Y-100299900D01*
X146929436Y-100299266D01*
X146931754Y-100299052D01*
X146935843Y-100298787D01*
X146955661Y-100298043D01*
X146955663Y-100298042D01*
X146962601Y-100297782D01*
X146968979Y-100295042D01*
X146968983Y-100295041D01*
X146974194Y-100292802D01*
X146990106Y-100287968D01*
X146995681Y-100286930D01*
X146995688Y-100286927D01*
X147002508Y-100285657D01*
X147008416Y-100282015D01*
X147008419Y-100282014D01*
X147024691Y-100271984D01*
X147034463Y-100266907D01*
X147048025Y-100261080D01*
X147058404Y-100256621D01*
X147062957Y-100252881D01*
X147068425Y-100247413D01*
X147082137Y-100236573D01*
X147091271Y-100230943D01*
X147097234Y-100223102D01*
X147108426Y-100208383D01*
X147115111Y-100200727D01*
X147482161Y-99833677D01*
X147485779Y-99830554D01*
X147489774Y-99828601D01*
X147517118Y-99799124D01*
X147541724Y-99781541D01*
X147567441Y-99770118D01*
X147620893Y-99746376D01*
X147625795Y-99741465D01*
X147625797Y-99741464D01*
X147691760Y-99675385D01*
X147691761Y-99675384D01*
X147696665Y-99670471D01*
X147708062Y-99644692D01*
X147743696Y-99607598D01*
X147776839Y-99599900D01*
X148573309Y-99599900D01*
X148621647Y-99617493D01*
X148626483Y-99621926D01*
X148657849Y-99653292D01*
X148663125Y-99655980D01*
X148663126Y-99655981D01*
X148702013Y-99675795D01*
X148772694Y-99711809D01*
X148778541Y-99712735D01*
X148887158Y-99729938D01*
X148900000Y-99731972D01*
X148912843Y-99729938D01*
X149021459Y-99712735D01*
X149027306Y-99711809D01*
X149097987Y-99675795D01*
X149136874Y-99655981D01*
X149136875Y-99655980D01*
X149142151Y-99653292D01*
X149233292Y-99562151D01*
X149237564Y-99553768D01*
X149272394Y-99485410D01*
X149291809Y-99447306D01*
X149311972Y-99320000D01*
X149310612Y-99311410D01*
X149292735Y-99198541D01*
X149291809Y-99192694D01*
X149250139Y-99110912D01*
X149235981Y-99083126D01*
X149235980Y-99083125D01*
X149233292Y-99077849D01*
X149142151Y-98986708D01*
X149124510Y-98977719D01*
X149076569Y-98953292D01*
X149027306Y-98928191D01*
X148900000Y-98908028D01*
X148772694Y-98928191D01*
X148723431Y-98953292D01*
X148675491Y-98977719D01*
X148657849Y-98986708D01*
X148626483Y-99018074D01*
X148579863Y-99039814D01*
X148573309Y-99040100D01*
X147776792Y-99040100D01*
X147728454Y-99022507D01*
X147708067Y-98995427D01*
X147699193Y-98975449D01*
X147696376Y-98969107D01*
X147643479Y-98916303D01*
X147621972Y-98894833D01*
X147600192Y-98848232D01*
X147599900Y-98841612D01*
X147599900Y-98390565D01*
X147600250Y-98385803D01*
X147601694Y-98381597D01*
X147600933Y-98361307D01*
X147599953Y-98335225D01*
X147599900Y-98332404D01*
X147599900Y-98313969D01*
X147599266Y-98310564D01*
X147599052Y-98308246D01*
X147598787Y-98304157D01*
X147598043Y-98284339D01*
X147598042Y-98284337D01*
X147597782Y-98277399D01*
X147595042Y-98271021D01*
X147595041Y-98271017D01*
X147592802Y-98265806D01*
X147587968Y-98249894D01*
X147586930Y-98244319D01*
X147586927Y-98244312D01*
X147585657Y-98237492D01*
X147582015Y-98231584D01*
X147582014Y-98231581D01*
X147571984Y-98215309D01*
X147566907Y-98205537D01*
X147562948Y-98196323D01*
X147556621Y-98181596D01*
X147552882Y-98177043D01*
X147547412Y-98171573D01*
X147536570Y-98157858D01*
X147534586Y-98154639D01*
X147530943Y-98148729D01*
X147508386Y-98131576D01*
X147500731Y-98124892D01*
X147133674Y-97757836D01*
X147130554Y-97754222D01*
X147128601Y-97750226D01*
X147094565Y-97718653D01*
X147092534Y-97716696D01*
X147079512Y-97703674D01*
X147076656Y-97701714D01*
X147074872Y-97700232D01*
X147071792Y-97697528D01*
X147052156Y-97679313D01*
X147045711Y-97676742D01*
X147045710Y-97676741D01*
X147040438Y-97674638D01*
X147025768Y-97666805D01*
X147021090Y-97663596D01*
X147015364Y-97659668D01*
X147008606Y-97658064D01*
X147008605Y-97658064D01*
X146990015Y-97653653D01*
X146979517Y-97650334D01*
X146955308Y-97640675D01*
X146949444Y-97640100D01*
X146941707Y-97640100D01*
X146924343Y-97638068D01*
X146913910Y-97635592D01*
X146907032Y-97636528D01*
X146907031Y-97636528D01*
X146885834Y-97639413D01*
X146875693Y-97640100D01*
X144650565Y-97640100D01*
X144645803Y-97639750D01*
X144641597Y-97638306D01*
X144634662Y-97638566D01*
X144634659Y-97638566D01*
X144595225Y-97640047D01*
X144592404Y-97640100D01*
X144573969Y-97640100D01*
X144570564Y-97640734D01*
X144568246Y-97640948D01*
X144564157Y-97641213D01*
X144544339Y-97641957D01*
X144544337Y-97641958D01*
X144537399Y-97642218D01*
X144531021Y-97644958D01*
X144531017Y-97644959D01*
X144525806Y-97647198D01*
X144509894Y-97652032D01*
X144504319Y-97653070D01*
X144504312Y-97653073D01*
X144497492Y-97654343D01*
X144491584Y-97657985D01*
X144491581Y-97657986D01*
X144475309Y-97668016D01*
X144465537Y-97673093D01*
X144441596Y-97683379D01*
X144437043Y-97687119D01*
X144431575Y-97692587D01*
X144417863Y-97703427D01*
X144408729Y-97709057D01*
X144404526Y-97714584D01*
X144404525Y-97714585D01*
X144391574Y-97731617D01*
X144384889Y-97739273D01*
X143927839Y-98196323D01*
X143924221Y-98199446D01*
X143920226Y-98201399D01*
X143915505Y-98206488D01*
X143915504Y-98206489D01*
X143888654Y-98235434D01*
X143886696Y-98237466D01*
X143873674Y-98250488D01*
X143871711Y-98253349D01*
X143870236Y-98255124D01*
X143867533Y-98258202D01*
X143863971Y-98262042D01*
X143849313Y-98277844D01*
X143846742Y-98284289D01*
X143846741Y-98284290D01*
X143844638Y-98289562D01*
X143836805Y-98304232D01*
X143829668Y-98314636D01*
X143828064Y-98321394D01*
X143828064Y-98321395D01*
X143823653Y-98339985D01*
X143820334Y-98350483D01*
X143810675Y-98374692D01*
X143810100Y-98380556D01*
X143810100Y-98388293D01*
X143808068Y-98405656D01*
X143805592Y-98416090D01*
X143806528Y-98422968D01*
X143806528Y-98422969D01*
X143809413Y-98444166D01*
X143810100Y-98454307D01*
X143810100Y-98841484D01*
X143792507Y-98889822D01*
X143788121Y-98894612D01*
X143718650Y-98964205D01*
X143713335Y-98969529D01*
X143701938Y-98995308D01*
X143666304Y-99032402D01*
X143633161Y-99040100D01*
X137850565Y-99040100D01*
X137845803Y-99039750D01*
X137841597Y-99038306D01*
X137834662Y-99038566D01*
X137834659Y-99038566D01*
X137795225Y-99040047D01*
X137792404Y-99040100D01*
X137773969Y-99040100D01*
X137770564Y-99040734D01*
X137768246Y-99040948D01*
X137764157Y-99041213D01*
X137744339Y-99041957D01*
X137744337Y-99041958D01*
X137737399Y-99042218D01*
X137731021Y-99044958D01*
X137731017Y-99044959D01*
X137725806Y-99047198D01*
X137709894Y-99052032D01*
X137697493Y-99054342D01*
X137697217Y-99052858D01*
X137653839Y-99053690D01*
X137613807Y-99021387D01*
X137603692Y-98985035D01*
X137603160Y-98985070D01*
X137602678Y-98977719D01*
X137587993Y-98866167D01*
X137585464Y-98856726D01*
X137527971Y-98717926D01*
X137523089Y-98709470D01*
X137431628Y-98590277D01*
X137424723Y-98583372D01*
X137305530Y-98491911D01*
X137297074Y-98487029D01*
X137158274Y-98429536D01*
X137148833Y-98427007D01*
X137078145Y-98417700D01*
X137067593Y-98420040D01*
X137065000Y-98423419D01*
X137065000Y-99244800D01*
X137047407Y-99293138D01*
X137002858Y-99318858D01*
X136989800Y-99320000D01*
X136740200Y-99320000D01*
X136691862Y-99302407D01*
X136666142Y-99257858D01*
X136665000Y-99244800D01*
X136665000Y-98429230D01*
X136661303Y-98419073D01*
X136657615Y-98416943D01*
X136581167Y-98427007D01*
X136571726Y-98429536D01*
X136432926Y-98487029D01*
X136424470Y-98491911D01*
X136305277Y-98583372D01*
X136298372Y-98590277D01*
X136260587Y-98639520D01*
X136217204Y-98667158D01*
X136166204Y-98660444D01*
X136147753Y-98646915D01*
X135358677Y-97857839D01*
X135355554Y-97854221D01*
X135353601Y-97850226D01*
X135319565Y-97818653D01*
X135317534Y-97816696D01*
X135304512Y-97803674D01*
X135301656Y-97801714D01*
X135299872Y-97800232D01*
X135296792Y-97797528D01*
X135287889Y-97789269D01*
X135277156Y-97779313D01*
X135270711Y-97776742D01*
X135270710Y-97776741D01*
X135265438Y-97774638D01*
X135250768Y-97766805D01*
X135246090Y-97763596D01*
X135240364Y-97759668D01*
X135233606Y-97758064D01*
X135233605Y-97758064D01*
X135217923Y-97754343D01*
X135215014Y-97753653D01*
X135204517Y-97750334D01*
X135180308Y-97740675D01*
X135174444Y-97740100D01*
X135166707Y-97740100D01*
X135149343Y-97738068D01*
X135138910Y-97735592D01*
X135132032Y-97736528D01*
X135132031Y-97736528D01*
X135110834Y-97739413D01*
X135100693Y-97740100D01*
X133513969Y-97740100D01*
X133437492Y-97754343D01*
X133437398Y-97753837D01*
X133419871Y-97757101D01*
X133218739Y-97757101D01*
X133170401Y-97739508D01*
X133156213Y-97723680D01*
X133144348Y-97705923D01*
X133140234Y-97699766D01*
X133120124Y-97686329D01*
X133095817Y-97670087D01*
X133095816Y-97670086D01*
X133089658Y-97665972D01*
X133082394Y-97664527D01*
X133048682Y-97657821D01*
X133048681Y-97657821D01*
X133045057Y-97657100D01*
X132700047Y-97657100D01*
X132354944Y-97657101D01*
X132310342Y-97665972D01*
X132297373Y-97674638D01*
X132293200Y-97677426D01*
X132251421Y-97690100D01*
X131075565Y-97690100D01*
X131070803Y-97689750D01*
X131066597Y-97688306D01*
X131059662Y-97688566D01*
X131059659Y-97688566D01*
X131020225Y-97690047D01*
X131017404Y-97690100D01*
X130998969Y-97690100D01*
X130995564Y-97690734D01*
X130993246Y-97690948D01*
X130989157Y-97691213D01*
X130969337Y-97691957D01*
X130969334Y-97691958D01*
X130962399Y-97692218D01*
X130953513Y-97696036D01*
X130950805Y-97697199D01*
X130934893Y-97702034D01*
X130922492Y-97704343D01*
X130905876Y-97714585D01*
X130900313Y-97718014D01*
X130890539Y-97723091D01*
X130866596Y-97733378D01*
X130862043Y-97737118D01*
X130856573Y-97742588D01*
X130842859Y-97753429D01*
X130833729Y-97759057D01*
X130824239Y-97771537D01*
X130816577Y-97781613D01*
X130809892Y-97789269D01*
X130326407Y-98272755D01*
X129952247Y-98646915D01*
X129905627Y-98668655D01*
X129855940Y-98655341D01*
X129839413Y-98639520D01*
X129801628Y-98590277D01*
X129794723Y-98583372D01*
X129675530Y-98491911D01*
X129667074Y-98487029D01*
X129528274Y-98429536D01*
X129518833Y-98427007D01*
X129448145Y-98417700D01*
X129437593Y-98420040D01*
X129435000Y-98423419D01*
X129435000Y-99244800D01*
X129417407Y-99293138D01*
X129372858Y-99318858D01*
X129359800Y-99320000D01*
X128518179Y-99320000D01*
X128508022Y-99323697D01*
X128505892Y-99327385D01*
X128512007Y-99373833D01*
X128514536Y-99383274D01*
X128572029Y-99522074D01*
X128576911Y-99530530D01*
X128668372Y-99649723D01*
X128675277Y-99656628D01*
X128794467Y-99748087D01*
X128802933Y-99752974D01*
X128819029Y-99759642D01*
X128856954Y-99794395D01*
X128863667Y-99845395D01*
X128843424Y-99882291D01*
X126007641Y-102718074D01*
X125961021Y-102739814D01*
X125954467Y-102740100D01*
X124750565Y-102740100D01*
X124745803Y-102739750D01*
X124741597Y-102738306D01*
X124734662Y-102738566D01*
X124734659Y-102738566D01*
X124695225Y-102740047D01*
X124692404Y-102740100D01*
X124673969Y-102740100D01*
X124670564Y-102740734D01*
X124668246Y-102740948D01*
X124664157Y-102741213D01*
X124644339Y-102741957D01*
X124644337Y-102741958D01*
X124637399Y-102742218D01*
X124631021Y-102744958D01*
X124631017Y-102744959D01*
X124625806Y-102747198D01*
X124609894Y-102752032D01*
X124604319Y-102753070D01*
X124604312Y-102753073D01*
X124597492Y-102754343D01*
X124591584Y-102757985D01*
X124591581Y-102757986D01*
X124575309Y-102768016D01*
X124565537Y-102773093D01*
X124541596Y-102783379D01*
X124537043Y-102787119D01*
X124531575Y-102792587D01*
X124517863Y-102803427D01*
X124508729Y-102809057D01*
X124504526Y-102814584D01*
X124504525Y-102814585D01*
X124491574Y-102831617D01*
X124484889Y-102839273D01*
X124122744Y-103201418D01*
X124076124Y-103223158D01*
X124033805Y-103214395D01*
X123990520Y-103190990D01*
X123802637Y-103132830D01*
X123679766Y-103119916D01*
X123610690Y-103112656D01*
X123610689Y-103112656D01*
X123607035Y-103112272D01*
X123509100Y-103121185D01*
X123414824Y-103129764D01*
X123414823Y-103129764D01*
X123411166Y-103130097D01*
X123407641Y-103131134D01*
X123407638Y-103131135D01*
X123264763Y-103173186D01*
X123222489Y-103185628D01*
X123048192Y-103276748D01*
X122992002Y-103321926D01*
X122902416Y-103393955D01*
X122894912Y-103399988D01*
X122768489Y-103550653D01*
X122766718Y-103553875D01*
X122766717Y-103553876D01*
X122684005Y-103704330D01*
X122673739Y-103723004D01*
X122614269Y-103910476D01*
X122592345Y-104105930D01*
X121252900Y-104105930D01*
X121252900Y-101565930D01*
X122592345Y-101565930D01*
X122592653Y-101569598D01*
X122592653Y-101569601D01*
X122604792Y-101714153D01*
X122608803Y-101761919D01*
X122663015Y-101950979D01*
X122752916Y-102125908D01*
X122875083Y-102280044D01*
X122877877Y-102282422D01*
X122877878Y-102282423D01*
X122949656Y-102343511D01*
X123024862Y-102407516D01*
X123028063Y-102409305D01*
X123028066Y-102409307D01*
X123066656Y-102430874D01*
X123196547Y-102503467D01*
X123200044Y-102504603D01*
X123200048Y-102504605D01*
X123271929Y-102527960D01*
X123383600Y-102564244D01*
X123490984Y-102577049D01*
X123575237Y-102587096D01*
X123575239Y-102587096D01*
X123578895Y-102587532D01*
X123774994Y-102572443D01*
X123895905Y-102538684D01*
X123960883Y-102520542D01*
X123960885Y-102520541D01*
X123964428Y-102519552D01*
X124062554Y-102469985D01*
X124136697Y-102432533D01*
X124136698Y-102432532D01*
X124139981Y-102430874D01*
X124290934Y-102312936D01*
X124292067Y-102312051D01*
X124294966Y-102309786D01*
X124299146Y-102304944D01*
X124327122Y-102272533D01*
X124423480Y-102160901D01*
X124436101Y-102138684D01*
X124518810Y-101993091D01*
X124518812Y-101993088D01*
X124520628Y-101989890D01*
X124561305Y-101867611D01*
X124581548Y-101806760D01*
X124581549Y-101806757D01*
X124582710Y-101803266D01*
X124607360Y-101608138D01*
X124607601Y-101590898D01*
X124607724Y-101582099D01*
X124607724Y-101582093D01*
X124607753Y-101580000D01*
X124607476Y-101577172D01*
X124588921Y-101387927D01*
X124588920Y-101387922D01*
X124588561Y-101384260D01*
X124531714Y-101195975D01*
X124439379Y-101022318D01*
X124315072Y-100869903D01*
X124254819Y-100820057D01*
X124166359Y-100746877D01*
X124163528Y-100744535D01*
X123990520Y-100650990D01*
X123802637Y-100592830D01*
X123679766Y-100579916D01*
X123610690Y-100572656D01*
X123610689Y-100572656D01*
X123607035Y-100572272D01*
X123509100Y-100581185D01*
X123414824Y-100589764D01*
X123414823Y-100589764D01*
X123411166Y-100590097D01*
X123407641Y-100591134D01*
X123407638Y-100591135D01*
X123227840Y-100644053D01*
X123222489Y-100645628D01*
X123048192Y-100736748D01*
X122971552Y-100798368D01*
X122899834Y-100856031D01*
X122894912Y-100859988D01*
X122817498Y-100952246D01*
X122772810Y-101005504D01*
X122768489Y-101010653D01*
X122766718Y-101013875D01*
X122766717Y-101013876D01*
X122708819Y-101119193D01*
X122673739Y-101183004D01*
X122614269Y-101370476D01*
X122592345Y-101565930D01*
X121252900Y-101565930D01*
X121252900Y-99936049D01*
X122242001Y-99936049D01*
X122242221Y-99940118D01*
X122248239Y-99995518D01*
X122250403Y-100004622D01*
X122297948Y-100131448D01*
X122303039Y-100140746D01*
X122383886Y-100248621D01*
X122391379Y-100256114D01*
X122499254Y-100336961D01*
X122508552Y-100342052D01*
X122635377Y-100389597D01*
X122644483Y-100391762D01*
X122699883Y-100397780D01*
X122703949Y-100398000D01*
X123332741Y-100398000D01*
X123342898Y-100394303D01*
X123346000Y-100388931D01*
X123346000Y-100384740D01*
X123854000Y-100384740D01*
X123857697Y-100394897D01*
X123863069Y-100397999D01*
X124496049Y-100397999D01*
X124500118Y-100397779D01*
X124555518Y-100391761D01*
X124564622Y-100389597D01*
X124691448Y-100342052D01*
X124700746Y-100336961D01*
X124808621Y-100256114D01*
X124816114Y-100248621D01*
X124896961Y-100140746D01*
X124902052Y-100131448D01*
X124949597Y-100004623D01*
X124951762Y-99995517D01*
X124957780Y-99940117D01*
X124958000Y-99936051D01*
X124958000Y-99307259D01*
X124954303Y-99297102D01*
X124948931Y-99294000D01*
X123867259Y-99294000D01*
X123857102Y-99297697D01*
X123854000Y-99303069D01*
X123854000Y-100384740D01*
X123346000Y-100384740D01*
X123346000Y-99307259D01*
X123342303Y-99297102D01*
X123336931Y-99294000D01*
X122255260Y-99294000D01*
X122245103Y-99297697D01*
X122242001Y-99303069D01*
X122242001Y-99936049D01*
X121252900Y-99936049D01*
X121252900Y-98906855D01*
X128506650Y-98906855D01*
X128508989Y-98917407D01*
X128512368Y-98920000D01*
X129021741Y-98920000D01*
X129031898Y-98916303D01*
X129035000Y-98910931D01*
X129035000Y-98429230D01*
X129031303Y-98419073D01*
X129027615Y-98416943D01*
X128951167Y-98427007D01*
X128941726Y-98429536D01*
X128802926Y-98487029D01*
X128794470Y-98491911D01*
X128675277Y-98583372D01*
X128668372Y-98590277D01*
X128576911Y-98709470D01*
X128572029Y-98717926D01*
X128514534Y-98856731D01*
X128512007Y-98866161D01*
X128506650Y-98906855D01*
X121252900Y-98906855D01*
X121252900Y-98772741D01*
X122242000Y-98772741D01*
X122245697Y-98782898D01*
X122251069Y-98786000D01*
X123332741Y-98786000D01*
X123342898Y-98782303D01*
X123346000Y-98776931D01*
X123346000Y-98772741D01*
X123854000Y-98772741D01*
X123857697Y-98782898D01*
X123863069Y-98786000D01*
X124944740Y-98786000D01*
X124954897Y-98782303D01*
X124957999Y-98776931D01*
X124957999Y-98143951D01*
X124957779Y-98139882D01*
X124951761Y-98084482D01*
X124949597Y-98075378D01*
X124902052Y-97948552D01*
X124896961Y-97939254D01*
X124816114Y-97831379D01*
X124808621Y-97823886D01*
X124700746Y-97743039D01*
X124691448Y-97737948D01*
X124564623Y-97690403D01*
X124555517Y-97688238D01*
X124500117Y-97682220D01*
X124496051Y-97682000D01*
X123867259Y-97682000D01*
X123857102Y-97685697D01*
X123854000Y-97691069D01*
X123854000Y-98772741D01*
X123346000Y-98772741D01*
X123346000Y-97695260D01*
X123342303Y-97685103D01*
X123336931Y-97682001D01*
X122703951Y-97682001D01*
X122699882Y-97682221D01*
X122644482Y-97688239D01*
X122635378Y-97690403D01*
X122508552Y-97737948D01*
X122499254Y-97743039D01*
X122391379Y-97823886D01*
X122383886Y-97831379D01*
X122303039Y-97939254D01*
X122297948Y-97948552D01*
X122250403Y-98075377D01*
X122248238Y-98084483D01*
X122242220Y-98139883D01*
X122242000Y-98143949D01*
X122242000Y-98772741D01*
X121252900Y-98772741D01*
X121252900Y-96341855D01*
X154297700Y-96341855D01*
X154300040Y-96352407D01*
X154303419Y-96355000D01*
X154786741Y-96355000D01*
X154796898Y-96351303D01*
X154800000Y-96345931D01*
X154800000Y-96341741D01*
X155200000Y-96341741D01*
X155203697Y-96351898D01*
X155209069Y-96355000D01*
X155690770Y-96355000D01*
X155700927Y-96351303D01*
X155703057Y-96347615D01*
X155692993Y-96271167D01*
X155690464Y-96261726D01*
X155632971Y-96122926D01*
X155628089Y-96114470D01*
X155536628Y-95995277D01*
X155529723Y-95988372D01*
X155410530Y-95896911D01*
X155402074Y-95892029D01*
X155263269Y-95834534D01*
X155253839Y-95832007D01*
X155213145Y-95826650D01*
X155202593Y-95828989D01*
X155200000Y-95832368D01*
X155200000Y-96341741D01*
X154800000Y-96341741D01*
X154800000Y-95838179D01*
X154796303Y-95828022D01*
X154792615Y-95825892D01*
X154746167Y-95832007D01*
X154736726Y-95834536D01*
X154597926Y-95892029D01*
X154589470Y-95896911D01*
X154470277Y-95988372D01*
X154463372Y-95995277D01*
X154371911Y-96114470D01*
X154367029Y-96122926D01*
X154309536Y-96261726D01*
X154307007Y-96271167D01*
X154297700Y-96341855D01*
X121252900Y-96341855D01*
X121252900Y-95914481D01*
X121270493Y-95866143D01*
X121274926Y-95861307D01*
X122641307Y-94494926D01*
X122687927Y-94473186D01*
X122694481Y-94472900D01*
X135005519Y-94472900D01*
X135053857Y-94490493D01*
G37*
%TD.AperFunction*%
%TA.AperFunction,Conductor*%
G36*
X149757547Y-101874331D02*
G01*
X149787052Y-101916468D01*
X149788688Y-101924167D01*
X149808191Y-102047306D01*
X149810878Y-102052579D01*
X149861872Y-102152659D01*
X149866708Y-102162151D01*
X149948874Y-102244317D01*
X149970614Y-102290937D01*
X149970900Y-102297491D01*
X149970900Y-103512040D01*
X149970797Y-103515976D01*
X149968666Y-103556639D01*
X149977537Y-103579750D01*
X149980882Y-103591042D01*
X149986031Y-103615265D01*
X149990676Y-103621658D01*
X149990677Y-103621660D01*
X149991107Y-103622252D01*
X150000473Y-103639502D01*
X150003568Y-103647564D01*
X150021064Y-103665060D01*
X150028728Y-103674032D01*
X150043278Y-103694058D01*
X150050123Y-103698010D01*
X150050757Y-103698376D01*
X150066331Y-103710327D01*
X151048874Y-104692871D01*
X151070614Y-104739491D01*
X151070900Y-104746045D01*
X151070900Y-105537384D01*
X151053307Y-105585722D01*
X151008758Y-105611442D01*
X150958100Y-105602509D01*
X150935479Y-105582142D01*
X150933292Y-105577849D01*
X150842151Y-105486708D01*
X150727306Y-105428191D01*
X150649867Y-105415926D01*
X150605847Y-105408954D01*
X150600000Y-105408028D01*
X150594153Y-105408954D01*
X150550133Y-105415926D01*
X150472694Y-105428191D01*
X150357849Y-105486708D01*
X150266708Y-105577849D01*
X150264019Y-105583126D01*
X150260541Y-105587913D01*
X150258126Y-105586158D01*
X150228798Y-105613517D01*
X150199403Y-105619500D01*
X149240200Y-105619500D01*
X149191862Y-105601907D01*
X149166142Y-105557358D01*
X149165000Y-105544300D01*
X149165000Y-105206741D01*
X149565000Y-105206741D01*
X149568697Y-105216898D01*
X149574069Y-105220000D01*
X150081821Y-105220000D01*
X150091978Y-105216303D01*
X150094108Y-105212615D01*
X150087993Y-105166167D01*
X150085464Y-105156726D01*
X150027971Y-105017926D01*
X150023089Y-105009470D01*
X149931628Y-104890277D01*
X149924723Y-104883372D01*
X149805530Y-104791911D01*
X149797074Y-104787029D01*
X149658274Y-104729536D01*
X149648833Y-104727007D01*
X149578145Y-104717700D01*
X149567593Y-104720040D01*
X149565000Y-104723419D01*
X149565000Y-105206741D01*
X149165000Y-105206741D01*
X149165000Y-104729230D01*
X149161303Y-104719073D01*
X149157615Y-104716943D01*
X149081167Y-104727007D01*
X149071726Y-104729536D01*
X148932926Y-104787029D01*
X148924470Y-104791911D01*
X148805277Y-104883372D01*
X148798372Y-104890277D01*
X148706911Y-105009470D01*
X148702025Y-105017932D01*
X148700886Y-105020682D01*
X148699674Y-105022005D01*
X148699561Y-105022200D01*
X148699518Y-105022175D01*
X148666132Y-105058606D01*
X148631413Y-105067101D01*
X148570090Y-105067101D01*
X148566467Y-105067822D01*
X148566463Y-105067822D01*
X148534354Y-105074209D01*
X148496323Y-105081773D01*
X148412669Y-105137669D01*
X148399796Y-105156935D01*
X148399432Y-105157480D01*
X148357948Y-105187896D01*
X148336906Y-105190900D01*
X147926045Y-105190900D01*
X147877707Y-105173307D01*
X147872871Y-105168874D01*
X147351126Y-104647129D01*
X147329386Y-104600509D01*
X147329100Y-104593955D01*
X147329100Y-104456095D01*
X147346693Y-104407757D01*
X147391242Y-104382037D01*
X147399861Y-104381283D01*
X147399981Y-104381307D01*
X147400289Y-104381246D01*
X147404300Y-104380895D01*
X147597910Y-104380895D01*
X147599981Y-104381307D01*
X147607240Y-104379864D01*
X147607242Y-104379864D01*
X147631932Y-104374955D01*
X147659641Y-104369447D01*
X147660636Y-104369035D01*
X147660651Y-104369029D01*
X147663483Y-104367856D01*
X147714075Y-104334048D01*
X147715250Y-104332289D01*
X148212315Y-103835224D01*
X148214075Y-103834048D01*
X148218189Y-103827889D01*
X148218191Y-103827887D01*
X148245813Y-103786535D01*
X148247862Y-103783468D01*
X148248268Y-103782488D01*
X148249441Y-103779656D01*
X148250161Y-103776035D01*
X148250163Y-103776030D01*
X148259862Y-103727282D01*
X148259862Y-103727281D01*
X148261307Y-103720019D01*
X148260895Y-103717946D01*
X148260895Y-103522090D01*
X148261307Y-103520019D01*
X148259563Y-103511242D01*
X148254955Y-103488068D01*
X148249447Y-103460359D01*
X148249035Y-103459364D01*
X148249029Y-103459349D01*
X148247856Y-103456517D01*
X148245802Y-103453442D01*
X148244062Y-103450188D01*
X148245681Y-103449323D01*
X148234980Y-103405571D01*
X148240126Y-103385498D01*
X148244028Y-103379658D01*
X148246526Y-103367100D01*
X148252179Y-103338682D01*
X148252179Y-103338681D01*
X148252900Y-103335057D01*
X148252899Y-103104944D01*
X148244028Y-103060342D01*
X148239911Y-103054180D01*
X148237673Y-103048778D01*
X148235430Y-102997387D01*
X148237674Y-102991221D01*
X148239912Y-102985817D01*
X148244028Y-102979658D01*
X148248100Y-102959186D01*
X148252179Y-102938682D01*
X148252179Y-102938681D01*
X148252900Y-102935057D01*
X148252899Y-102724300D01*
X148270492Y-102675963D01*
X148315040Y-102650243D01*
X148328099Y-102649100D01*
X148792040Y-102649100D01*
X148795977Y-102649203D01*
X148836639Y-102651334D01*
X148859750Y-102642463D01*
X148871042Y-102639118D01*
X148895265Y-102633969D01*
X148901658Y-102629324D01*
X148901660Y-102629323D01*
X148902252Y-102628893D01*
X148919502Y-102619527D01*
X148920184Y-102619265D01*
X148920185Y-102619264D01*
X148927564Y-102616432D01*
X148945060Y-102598936D01*
X148954032Y-102591272D01*
X148967665Y-102581367D01*
X148974058Y-102576722D01*
X148978376Y-102569243D01*
X148990327Y-102553669D01*
X149661240Y-101882757D01*
X149707860Y-101861017D01*
X149757547Y-101874331D01*
G37*
%TD.AperFunction*%
%TA.AperFunction,Conductor*%
G36*
X131892855Y-99541823D02*
G01*
X131915684Y-99567311D01*
X131923041Y-99580749D01*
X132003886Y-99688621D01*
X132011379Y-99696114D01*
X132119254Y-99776961D01*
X132128552Y-99782052D01*
X132255377Y-99829597D01*
X132264483Y-99831762D01*
X132319883Y-99837780D01*
X132323949Y-99838000D01*
X132344614Y-99838000D01*
X132392952Y-99855593D01*
X132418672Y-99900142D01*
X132409739Y-99950800D01*
X132397788Y-99966374D01*
X130037839Y-102326323D01*
X130034221Y-102329446D01*
X130030226Y-102331399D01*
X130025505Y-102336488D01*
X130025504Y-102336489D01*
X129998654Y-102365434D01*
X129996696Y-102367466D01*
X129983674Y-102380488D01*
X129981714Y-102383344D01*
X129980232Y-102385128D01*
X129977534Y-102388201D01*
X129959313Y-102407844D01*
X129956742Y-102414289D01*
X129956741Y-102414290D01*
X129954638Y-102419562D01*
X129946805Y-102434232D01*
X129939668Y-102444636D01*
X129938064Y-102451394D01*
X129938064Y-102451395D01*
X129933653Y-102469985D01*
X129930334Y-102480483D01*
X129920675Y-102504692D01*
X129920100Y-102510556D01*
X129920100Y-102518293D01*
X129918068Y-102535656D01*
X129915592Y-102546090D01*
X129916528Y-102552968D01*
X129916528Y-102552969D01*
X129919413Y-102574166D01*
X129920100Y-102584307D01*
X129920100Y-103764900D01*
X129902507Y-103813238D01*
X129857958Y-103838958D01*
X129844900Y-103840100D01*
X124618999Y-103840100D01*
X124570661Y-103822507D01*
X124547009Y-103786635D01*
X124538859Y-103759639D01*
X124531714Y-103735975D01*
X124505125Y-103685969D01*
X124497965Y-103635030D01*
X124518348Y-103597490D01*
X124793912Y-103321926D01*
X124840532Y-103300186D01*
X124847086Y-103299900D01*
X126050988Y-103299900D01*
X126055750Y-103300250D01*
X126059956Y-103301694D01*
X126066891Y-103301434D01*
X126066894Y-103301434D01*
X126106328Y-103299953D01*
X126109149Y-103299900D01*
X126127584Y-103299900D01*
X126130989Y-103299266D01*
X126133307Y-103299052D01*
X126137396Y-103298787D01*
X126157214Y-103298043D01*
X126157216Y-103298042D01*
X126164154Y-103297782D01*
X126170532Y-103295042D01*
X126170536Y-103295041D01*
X126175747Y-103292802D01*
X126191659Y-103287968D01*
X126197234Y-103286930D01*
X126197241Y-103286927D01*
X126204061Y-103285657D01*
X126209969Y-103282015D01*
X126209972Y-103282014D01*
X126226244Y-103271984D01*
X126236016Y-103266907D01*
X126240824Y-103264841D01*
X126259957Y-103256621D01*
X126264510Y-103252881D01*
X126269978Y-103247413D01*
X126283690Y-103236573D01*
X126292824Y-103230943D01*
X126309979Y-103208383D01*
X126316664Y-103200727D01*
X128360580Y-101156811D01*
X128407200Y-101135071D01*
X128456887Y-101148385D01*
X128486392Y-101190522D01*
X128488954Y-101209985D01*
X128488954Y-101214153D01*
X128488028Y-101220000D01*
X128508191Y-101347306D01*
X128566708Y-101462151D01*
X128657849Y-101553292D01*
X128663125Y-101555980D01*
X128663126Y-101555981D01*
X128689857Y-101569601D01*
X128746655Y-101598541D01*
X128755398Y-101602996D01*
X128790480Y-101640617D01*
X128793172Y-101691987D01*
X128762215Y-101733068D01*
X128755400Y-101737003D01*
X128731209Y-101749329D01*
X128678127Y-101776376D01*
X128657849Y-101786708D01*
X128566708Y-101877849D01*
X128564020Y-101883125D01*
X128564019Y-101883126D01*
X128549693Y-101911242D01*
X128508191Y-101992694D01*
X128500255Y-102042802D01*
X128493066Y-102088194D01*
X128488028Y-102120000D01*
X128508191Y-102247306D01*
X128533073Y-102296140D01*
X128558723Y-102346479D01*
X128566708Y-102362151D01*
X128657849Y-102453292D01*
X128663125Y-102455980D01*
X128663126Y-102455981D01*
X128701163Y-102475362D01*
X128772694Y-102511809D01*
X128778541Y-102512735D01*
X128869694Y-102527172D01*
X128900000Y-102531972D01*
X128930307Y-102527172D01*
X129021459Y-102512735D01*
X129027306Y-102511809D01*
X129098837Y-102475362D01*
X129136874Y-102455981D01*
X129136875Y-102455980D01*
X129142151Y-102453292D01*
X129233292Y-102362151D01*
X129241278Y-102346479D01*
X129266927Y-102296140D01*
X129291809Y-102247306D01*
X129311972Y-102120000D01*
X129307869Y-102094093D01*
X129306320Y-102084314D01*
X129316135Y-102033819D01*
X129327420Y-102019376D01*
X131796548Y-99550249D01*
X131843168Y-99528509D01*
X131892855Y-99541823D01*
G37*
%TD.AperFunction*%
%TA.AperFunction,Conductor*%
G36*
X151804494Y-98066693D02*
G01*
X151809330Y-98071126D01*
X151951931Y-98213727D01*
X151973671Y-98260347D01*
X151960357Y-98310034D01*
X151918220Y-98339539D01*
X151898760Y-98342101D01*
X151784944Y-98342101D01*
X151740342Y-98350972D01*
X151689766Y-98384766D01*
X151685652Y-98390923D01*
X151663939Y-98423419D01*
X151655972Y-98435342D01*
X151647100Y-98479943D01*
X151647101Y-99035056D01*
X151655972Y-99079658D01*
X151689766Y-99130234D01*
X151695923Y-99134348D01*
X151701161Y-99139586D01*
X151698666Y-99142081D01*
X151720600Y-99171999D01*
X151717233Y-99223329D01*
X151681659Y-99260485D01*
X151659866Y-99266707D01*
X151659944Y-99267101D01*
X151615342Y-99275972D01*
X151564766Y-99309766D01*
X151560652Y-99315923D01*
X151538861Y-99348536D01*
X151530972Y-99360342D01*
X151529527Y-99367604D01*
X151529527Y-99367605D01*
X151523858Y-99396105D01*
X151497172Y-99440081D01*
X151476500Y-99451848D01*
X151433551Y-99467949D01*
X151424254Y-99473039D01*
X151316379Y-99553886D01*
X151308886Y-99561379D01*
X151228039Y-99669254D01*
X151222948Y-99678552D01*
X151175403Y-99805377D01*
X151173238Y-99814483D01*
X151167220Y-99869883D01*
X151167000Y-99873949D01*
X151167000Y-99906741D01*
X151170697Y-99916898D01*
X151176069Y-99920000D01*
X151724241Y-99920000D01*
X151734399Y-99916303D01*
X151737749Y-99910500D01*
X151777154Y-99877435D01*
X151802874Y-99872900D01*
X151887820Y-99872899D01*
X151972528Y-99872899D01*
X152020864Y-99890492D01*
X152038103Y-99915112D01*
X152046569Y-99920000D01*
X152594740Y-99920000D01*
X152604897Y-99916303D01*
X152607999Y-99910931D01*
X152607999Y-99873951D01*
X152607779Y-99869882D01*
X152601761Y-99814482D01*
X152599597Y-99805378D01*
X152552052Y-99678552D01*
X152546961Y-99669254D01*
X152466114Y-99561379D01*
X152458621Y-99553886D01*
X152350746Y-99473039D01*
X152341448Y-99467948D01*
X152298498Y-99451847D01*
X152259412Y-99418405D01*
X152251140Y-99396101D01*
X152245926Y-99369883D01*
X152244028Y-99360342D01*
X152210234Y-99309766D01*
X152201247Y-99303761D01*
X152170830Y-99262278D01*
X152174195Y-99210948D01*
X152209766Y-99173790D01*
X152257697Y-99167480D01*
X152284943Y-99172900D01*
X152449977Y-99172900D01*
X152615056Y-99172899D01*
X152642302Y-99167480D01*
X152652389Y-99165474D01*
X152652390Y-99165474D01*
X152659658Y-99164028D01*
X152665820Y-99159911D01*
X152671222Y-99157673D01*
X152722613Y-99155430D01*
X152728779Y-99157674D01*
X152734183Y-99159912D01*
X152740342Y-99164028D01*
X152747606Y-99165473D01*
X152780414Y-99171999D01*
X152784943Y-99172900D01*
X152949977Y-99172900D01*
X153115056Y-99172899D01*
X153142302Y-99167480D01*
X153152389Y-99165474D01*
X153152390Y-99165474D01*
X153159658Y-99164028D01*
X153165820Y-99159911D01*
X153171222Y-99157673D01*
X153222613Y-99155430D01*
X153228779Y-99157674D01*
X153234183Y-99159912D01*
X153240342Y-99164028D01*
X153247606Y-99165473D01*
X153280414Y-99171999D01*
X153284943Y-99172900D01*
X153449977Y-99172900D01*
X153615056Y-99172899D01*
X153631033Y-99169721D01*
X153681873Y-99177549D01*
X153715788Y-99216224D01*
X153720900Y-99243477D01*
X153720900Y-99643956D01*
X153703307Y-99692294D01*
X153698874Y-99697130D01*
X153103041Y-100292963D01*
X153056421Y-100314703D01*
X153038103Y-100314063D01*
X153033743Y-100313373D01*
X153000000Y-100308028D01*
X152994153Y-100308954D01*
X152961896Y-100314063D01*
X152872694Y-100328191D01*
X152821453Y-100354300D01*
X152767833Y-100381621D01*
X152757849Y-100386708D01*
X152735116Y-100409441D01*
X152688496Y-100431181D01*
X152638809Y-100417867D01*
X152609304Y-100375730D01*
X152607182Y-100364387D01*
X152603243Y-100328119D01*
X152603243Y-100311877D01*
X152607780Y-100270115D01*
X152608000Y-100266051D01*
X152608000Y-100233259D01*
X152604303Y-100223102D01*
X152598931Y-100220000D01*
X152050759Y-100220000D01*
X152040602Y-100223697D01*
X152037500Y-100229069D01*
X152037500Y-100691900D01*
X152019907Y-100740238D01*
X151975358Y-100765958D01*
X151962300Y-100767100D01*
X151879618Y-100767101D01*
X151802472Y-100767101D01*
X151754136Y-100749508D01*
X151736897Y-100724888D01*
X151728431Y-100720000D01*
X151180260Y-100720000D01*
X151170103Y-100723697D01*
X151167001Y-100729069D01*
X151167001Y-100765700D01*
X151149408Y-100814038D01*
X151104859Y-100839758D01*
X151091801Y-100840900D01*
X151057980Y-100840900D01*
X151054045Y-100840797D01*
X151021252Y-100839078D01*
X151021249Y-100839078D01*
X151013361Y-100838665D01*
X151005984Y-100841497D01*
X151005982Y-100841497D01*
X150990257Y-100847533D01*
X150978945Y-100850885D01*
X150954735Y-100856031D01*
X150948338Y-100860679D01*
X150947748Y-100861107D01*
X150930498Y-100870473D01*
X150929816Y-100870735D01*
X150929815Y-100870736D01*
X150922436Y-100873568D01*
X150904940Y-100891064D01*
X150895968Y-100898728D01*
X150887413Y-100904944D01*
X150875942Y-100913278D01*
X150871990Y-100920123D01*
X150871624Y-100920757D01*
X150859673Y-100936331D01*
X150303041Y-101492963D01*
X150256421Y-101514703D01*
X150238103Y-101514063D01*
X150204167Y-101508688D01*
X150159177Y-101483750D01*
X150140742Y-101435726D01*
X150157490Y-101387089D01*
X150162757Y-101381240D01*
X150556367Y-100987630D01*
X150559222Y-100984920D01*
X150575955Y-100969853D01*
X150589486Y-100957670D01*
X150599551Y-100935064D01*
X150605179Y-100924698D01*
X150614359Y-100910562D01*
X150618662Y-100903936D01*
X150619898Y-100896132D01*
X150619899Y-100896129D01*
X150620014Y-100895404D01*
X150625589Y-100876584D01*
X150625883Y-100875923D01*
X150625883Y-100875921D01*
X150629100Y-100868697D01*
X150629100Y-100843946D01*
X150630026Y-100832183D01*
X150632661Y-100815548D01*
X150632661Y-100815546D01*
X150633897Y-100807741D01*
X150631662Y-100799399D01*
X150629100Y-100779937D01*
X150629100Y-100406741D01*
X151167000Y-100406741D01*
X151170697Y-100416898D01*
X151176069Y-100420000D01*
X151724241Y-100420000D01*
X151734398Y-100416303D01*
X151737500Y-100410931D01*
X151737500Y-100233259D01*
X151733803Y-100223102D01*
X151728431Y-100220000D01*
X151180260Y-100220000D01*
X151170103Y-100223697D01*
X151167001Y-100229069D01*
X151167001Y-100266049D01*
X151167221Y-100270118D01*
X151171757Y-100311878D01*
X151171757Y-100328119D01*
X151167220Y-100369883D01*
X151167000Y-100373949D01*
X151167000Y-100406741D01*
X150629100Y-100406741D01*
X150629100Y-98646044D01*
X150646693Y-98597706D01*
X150651126Y-98592870D01*
X151172870Y-98071126D01*
X151219490Y-98049386D01*
X151226044Y-98049100D01*
X151756156Y-98049100D01*
X151804494Y-98066693D01*
G37*
%TD.AperFunction*%
%TD*%
M02*
