%TF.GenerationSoftware,KiCad,Pcbnew,(6.0.7)*%
%TF.CreationDate,2023-07-12T23:11:50-05:00*%
%TF.ProjectId,UKDAQ,554b4441-512e-46b6-9963-61645f706362,rev?*%
%TF.SameCoordinates,Original*%
%TF.FileFunction,Paste,Top*%
%TF.FilePolarity,Positive*%
%FSLAX46Y46*%
G04 Gerber Fmt 4.6, Leading zero omitted, Abs format (unit mm)*
G04 Created by KiCad (PCBNEW (6.0.7)) date 2023-07-12 23:11:50*
%MOMM*%
%LPD*%
G01*
G04 APERTURE LIST*
G04 Aperture macros list*
%AMRoundRect*
0 Rectangle with rounded corners*
0 $1 Rounding radius*
0 $2 $3 $4 $5 $6 $7 $8 $9 X,Y pos of 4 corners*
0 Add a 4 corners polygon primitive as box body*
4,1,4,$2,$3,$4,$5,$6,$7,$8,$9,$2,$3,0*
0 Add four circle primitives for the rounded corners*
1,1,$1+$1,$2,$3*
1,1,$1+$1,$4,$5*
1,1,$1+$1,$6,$7*
1,1,$1+$1,$8,$9*
0 Add four rect primitives between the rounded corners*
20,1,$1+$1,$2,$3,$4,$5,0*
20,1,$1+$1,$4,$5,$6,$7,0*
20,1,$1+$1,$6,$7,$8,$9,0*
20,1,$1+$1,$8,$9,$2,$3,0*%
G04 Aperture macros list end*
%ADD10C,0.120000*%
%ADD11RoundRect,0.225000X-0.225000X-0.250000X0.225000X-0.250000X0.225000X0.250000X-0.225000X0.250000X0*%
%ADD12RoundRect,0.150000X-0.587500X-0.150000X0.587500X-0.150000X0.587500X0.150000X-0.587500X0.150000X0*%
%ADD13RoundRect,0.135000X-0.135000X-0.185000X0.135000X-0.185000X0.135000X0.185000X-0.135000X0.185000X0*%
%ADD14R,0.500000X0.350000*%
%ADD15RoundRect,0.350000X1.450000X-0.349999X1.450000X0.349999X-1.450000X0.349999X-1.450000X-0.349999X0*%
%ADD16RoundRect,0.350000X1.450000X-0.350000X1.450000X0.350000X-1.450000X0.350000X-1.450000X-0.350000X0*%
%ADD17R,0.300000X0.525000*%
%ADD18R,0.425000X0.300000*%
%ADD19RoundRect,0.135000X-0.185000X0.135000X-0.185000X-0.135000X0.185000X-0.135000X0.185000X0.135000X0*%
%ADD20R,1.000000X1.800000*%
%ADD21RoundRect,0.225000X-0.250000X0.225000X-0.250000X-0.225000X0.250000X-0.225000X0.250000X0.225000X0*%
%ADD22RoundRect,0.225000X0.225000X0.250000X-0.225000X0.250000X-0.225000X-0.250000X0.225000X-0.250000X0*%
%ADD23R,1.020000X0.410000*%
G04 APERTURE END LIST*
%TO.C,U5*%
G36*
X129000000Y-109350000D02*
G01*
X128925000Y-108725000D01*
X129075000Y-108725000D01*
X129000000Y-109350000D01*
G37*
D10*
X129000000Y-109350000D02*
X128925000Y-108725000D01*
X129075000Y-108725000D01*
X129000000Y-109350000D01*
G36*
X128000000Y-109350000D02*
G01*
X127925000Y-108725000D01*
X128075000Y-108725000D01*
X128000000Y-109350000D01*
G37*
X128000000Y-109350000D02*
X127925000Y-108725000D01*
X128075000Y-108725000D01*
X128000000Y-109350000D01*
G36*
X127000000Y-109350000D02*
G01*
X126925000Y-108725000D01*
X127075000Y-108725000D01*
X127000000Y-109350000D01*
G37*
X127000000Y-109350000D02*
X126925000Y-108725000D01*
X127075000Y-108725000D01*
X127000000Y-109350000D01*
G36*
X128575000Y-109350000D02*
G01*
X128425000Y-109350000D01*
X128500000Y-108725000D01*
X128575000Y-109350000D01*
G37*
X128575000Y-109350000D02*
X128425000Y-109350000D01*
X128500000Y-108725000D01*
X128575000Y-109350000D01*
G36*
X127575000Y-109350000D02*
G01*
X127425000Y-109350000D01*
X127500000Y-108725000D01*
X127575000Y-109350000D01*
G37*
X127575000Y-109350000D02*
X127425000Y-109350000D01*
X127500000Y-108725000D01*
X127575000Y-109350000D01*
G36*
X127075000Y-113275000D02*
G01*
X126925000Y-113275000D01*
X127000000Y-112650000D01*
X127075000Y-113275000D01*
G37*
X127075000Y-113275000D02*
X126925000Y-113275000D01*
X127000000Y-112650000D01*
X127075000Y-113275000D01*
G36*
X128075000Y-113275000D02*
G01*
X127925000Y-113275000D01*
X128000000Y-112650000D01*
X128075000Y-113275000D01*
G37*
X128075000Y-113275000D02*
X127925000Y-113275000D01*
X128000000Y-112650000D01*
X128075000Y-113275000D01*
G36*
X129075000Y-113275000D02*
G01*
X128925000Y-113275000D01*
X129000000Y-112650000D01*
X129075000Y-113275000D01*
G37*
X129075000Y-113275000D02*
X128925000Y-113275000D01*
X129000000Y-112650000D01*
X129075000Y-113275000D01*
G36*
X128500000Y-113275000D02*
G01*
X128425000Y-112650000D01*
X128575000Y-112650000D01*
X128500000Y-113275000D01*
G37*
X128500000Y-113275000D02*
X128425000Y-112650000D01*
X128575000Y-112650000D01*
X128500000Y-113275000D01*
G36*
X127500000Y-113275000D02*
G01*
X127425000Y-112650000D01*
X127575000Y-112650000D01*
X127500000Y-113275000D01*
G37*
X127500000Y-113275000D02*
X127425000Y-112650000D01*
X127575000Y-112650000D01*
X127500000Y-113275000D01*
G36*
X126350000Y-112000000D02*
G01*
X125725000Y-112075000D01*
X125725000Y-111925000D01*
X126350000Y-112000000D01*
G37*
X126350000Y-112000000D02*
X125725000Y-112075000D01*
X125725000Y-111925000D01*
X126350000Y-112000000D01*
G36*
X126350000Y-111575000D02*
G01*
X125725000Y-111500000D01*
X126350000Y-111425000D01*
X126350000Y-111575000D01*
G37*
X126350000Y-111575000D02*
X125725000Y-111500000D01*
X126350000Y-111425000D01*
X126350000Y-111575000D01*
G36*
X126350000Y-111000000D02*
G01*
X125725000Y-111075000D01*
X125725000Y-110925000D01*
X126350000Y-111000000D01*
G37*
X126350000Y-111000000D02*
X125725000Y-111075000D01*
X125725000Y-110925000D01*
X126350000Y-111000000D01*
G36*
X126350000Y-110000000D02*
G01*
X125725000Y-110075000D01*
X125725000Y-109925000D01*
X126350000Y-110000000D01*
G37*
X126350000Y-110000000D02*
X125725000Y-110075000D01*
X125725000Y-109925000D01*
X126350000Y-110000000D01*
G36*
X130275000Y-111500000D02*
G01*
X129650000Y-111575000D01*
X129650000Y-111425000D01*
X130275000Y-111500000D01*
G37*
X130275000Y-111500000D02*
X129650000Y-111575000D01*
X129650000Y-111425000D01*
X130275000Y-111500000D01*
G36*
X127900000Y-110900000D02*
G01*
X126928800Y-110900000D01*
X126928800Y-109928800D01*
X127900000Y-109928800D01*
X127900000Y-110900000D01*
G37*
G36*
X127900000Y-112046200D02*
G01*
X126928800Y-112046200D01*
X126928800Y-111100000D01*
X127900000Y-111100000D01*
X127900000Y-112046200D01*
G37*
G36*
X129046200Y-110900000D02*
G01*
X128100000Y-110900000D01*
X128100000Y-109928800D01*
X129046200Y-109928800D01*
X129046200Y-110900000D01*
G37*
G36*
X129071200Y-112046200D02*
G01*
X128100000Y-112046200D01*
X128100000Y-111100000D01*
X129071200Y-111100000D01*
X129071200Y-112046200D01*
G37*
G36*
X130275000Y-110075000D02*
G01*
X129650000Y-110000000D01*
X130275000Y-109925000D01*
X130275000Y-110075000D01*
G37*
X130275000Y-110075000D02*
X129650000Y-110000000D01*
X130275000Y-109925000D01*
X130275000Y-110075000D01*
G36*
X130275000Y-110500000D02*
G01*
X129650000Y-110575000D01*
X129650000Y-110425000D01*
X130275000Y-110500000D01*
G37*
X130275000Y-110500000D02*
X129650000Y-110575000D01*
X129650000Y-110425000D01*
X130275000Y-110500000D01*
G36*
X130275000Y-111075000D02*
G01*
X129650000Y-111000000D01*
X130275000Y-110925000D01*
X130275000Y-111075000D01*
G37*
X130275000Y-111075000D02*
X129650000Y-111000000D01*
X130275000Y-110925000D01*
X130275000Y-111075000D01*
G36*
X126350000Y-110575000D02*
G01*
X125725000Y-110500000D01*
X126350000Y-110425000D01*
X126350000Y-110575000D01*
G37*
X126350000Y-110575000D02*
X125725000Y-110500000D01*
X126350000Y-110425000D01*
X126350000Y-110575000D01*
G36*
X130282926Y-112083951D02*
G01*
X129657926Y-112008951D01*
X130282926Y-111933951D01*
X130282926Y-112083951D01*
G37*
X130282926Y-112083951D02*
X129657926Y-112008951D01*
X130282926Y-111933951D01*
X130282926Y-112083951D01*
%TD*%
D11*
%TO.C,C9*%
X142450000Y-132000000D03*
X144000000Y-132000000D03*
%TD*%
D12*
%TO.C,U1*%
X101005000Y-118050000D03*
X101005000Y-119950000D03*
X102880000Y-119000000D03*
%TD*%
D13*
%TO.C,R4*%
X120138000Y-111252000D03*
X121158000Y-111252000D03*
%TD*%
D14*
%TO.C,U4*%
X125020000Y-130030000D03*
X125020000Y-130680000D03*
X125020000Y-131330000D03*
X125020000Y-131980000D03*
X122970000Y-131980000D03*
X122970000Y-131330000D03*
X122970000Y-130680000D03*
X122970000Y-130030000D03*
%TD*%
D11*
%TO.C,C5*%
X136160000Y-114160000D03*
X137710000Y-114160000D03*
%TD*%
D15*
%TO.C,C3*%
X98000000Y-130000000D03*
D16*
X104000000Y-130000000D03*
%TD*%
D17*
%TO.C,U3*%
X142750000Y-125437500D03*
D18*
X142687500Y-126250000D03*
X142687500Y-126750000D03*
X142687500Y-127250000D03*
X142687500Y-127750000D03*
D17*
X142750000Y-128562500D03*
X143250000Y-128562500D03*
X143750000Y-128562500D03*
X144250000Y-128562500D03*
X144750000Y-128562500D03*
X145250000Y-128562500D03*
X145750000Y-128562500D03*
X146250000Y-128562500D03*
X146750000Y-128562500D03*
X147250000Y-128562500D03*
D18*
X147312500Y-127750000D03*
X147312500Y-127250000D03*
X147312500Y-126750000D03*
X147312500Y-126250000D03*
D17*
X147250000Y-125437500D03*
X146750000Y-125437500D03*
X146250000Y-125437500D03*
X145750000Y-125437500D03*
X145250000Y-125437500D03*
X144750000Y-125437500D03*
X144250000Y-125437500D03*
X143750000Y-125437500D03*
X143250000Y-125437500D03*
%TD*%
D19*
%TO.C,R2*%
X128160000Y-103650000D03*
X128160000Y-104670000D03*
%TD*%
D11*
%TO.C,C8*%
X132160000Y-118160000D03*
X133710000Y-118160000D03*
%TD*%
D20*
%TO.C,Y1*%
X128660000Y-118160000D03*
X126160000Y-118160000D03*
%TD*%
D21*
%TO.C,C7*%
X117775000Y-128450000D03*
X117775000Y-130000000D03*
%TD*%
D11*
%TO.C,C2*%
X105000000Y-104000000D03*
X106550000Y-104000000D03*
%TD*%
%TO.C,C4*%
X143450000Y-121000000D03*
X145000000Y-121000000D03*
%TD*%
D19*
%TO.C,R3*%
X138000000Y-126490000D03*
X138000000Y-127510000D03*
%TD*%
D22*
%TO.C,C6*%
X123160000Y-118160000D03*
X121610000Y-118160000D03*
%TD*%
D11*
%TO.C,C1*%
X97450000Y-104000000D03*
X99000000Y-104000000D03*
%TD*%
D22*
%TO.C,C10*%
X121160000Y-113160000D03*
X119610000Y-113160000D03*
%TD*%
D23*
%TO.C,U2*%
X99600000Y-109050000D03*
X99600000Y-109700000D03*
X99600000Y-110350000D03*
X99600000Y-111000000D03*
X104400000Y-111000000D03*
X104400000Y-110350000D03*
X104400000Y-109700000D03*
X104400000Y-109050000D03*
%TD*%
D19*
%TO.C,R5*%
X117856000Y-115824000D03*
X117856000Y-116844000D03*
%TD*%
%TO.C,R1*%
X125160000Y-103650000D03*
X125160000Y-104670000D03*
%TD*%
M02*
