%TF.GenerationSoftware,KiCad,Pcbnew,(6.0.7)*%
%TF.CreationDate,2023-07-12T23:11:50-05:00*%
%TF.ProjectId,UKDAQ,554b4441-512e-46b6-9963-61645f706362,rev?*%
%TF.SameCoordinates,Original*%
%TF.FileFunction,Copper,L1,Top*%
%TF.FilePolarity,Positive*%
%FSLAX46Y46*%
G04 Gerber Fmt 4.6, Leading zero omitted, Abs format (unit mm)*
G04 Created by KiCad (PCBNEW (6.0.7)) date 2023-07-12 23:11:50*
%MOMM*%
%LPD*%
G01*
G04 APERTURE LIST*
G04 Aperture macros list*
%AMRoundRect*
0 Rectangle with rounded corners*
0 $1 Rounding radius*
0 $2 $3 $4 $5 $6 $7 $8 $9 X,Y pos of 4 corners*
0 Add a 4 corners polygon primitive as box body*
4,1,4,$2,$3,$4,$5,$6,$7,$8,$9,$2,$3,0*
0 Add four circle primitives for the rounded corners*
1,1,$1+$1,$2,$3*
1,1,$1+$1,$4,$5*
1,1,$1+$1,$6,$7*
1,1,$1+$1,$8,$9*
0 Add four rect primitives between the rounded corners*
20,1,$1+$1,$2,$3,$4,$5,0*
20,1,$1+$1,$4,$5,$6,$7,0*
20,1,$1+$1,$6,$7,$8,$9,0*
20,1,$1+$1,$8,$9,$2,$3,0*%
G04 Aperture macros list end*
%TA.AperFunction,SMDPad,CuDef*%
%ADD10R,2.692400X2.692400*%
%TD*%
%TA.AperFunction,SMDPad,CuDef*%
%ADD11R,0.254000X0.762000*%
%TD*%
%TA.AperFunction,SMDPad,CuDef*%
%ADD12R,0.762000X0.254000*%
%TD*%
%TA.AperFunction,SMDPad,CuDef*%
%ADD13RoundRect,0.225000X-0.225000X-0.250000X0.225000X-0.250000X0.225000X0.250000X-0.225000X0.250000X0*%
%TD*%
%TA.AperFunction,ComponentPad*%
%ADD14R,1.700000X1.700000*%
%TD*%
%TA.AperFunction,ComponentPad*%
%ADD15O,1.700000X1.700000*%
%TD*%
%TA.AperFunction,SMDPad,CuDef*%
%ADD16RoundRect,0.150000X-0.587500X-0.150000X0.587500X-0.150000X0.587500X0.150000X-0.587500X0.150000X0*%
%TD*%
%TA.AperFunction,SMDPad,CuDef*%
%ADD17RoundRect,0.135000X-0.135000X-0.185000X0.135000X-0.185000X0.135000X0.185000X-0.135000X0.185000X0*%
%TD*%
%TA.AperFunction,SMDPad,CuDef*%
%ADD18R,0.500000X0.350000*%
%TD*%
%TA.AperFunction,SMDPad,CuDef*%
%ADD19RoundRect,0.350000X1.450000X-0.349999X1.450000X0.349999X-1.450000X0.349999X-1.450000X-0.349999X0*%
%TD*%
%TA.AperFunction,SMDPad,CuDef*%
%ADD20RoundRect,0.350000X1.450000X-0.350000X1.450000X0.350000X-1.450000X0.350000X-1.450000X-0.350000X0*%
%TD*%
%TA.AperFunction,SMDPad,CuDef*%
%ADD21R,0.300000X0.525000*%
%TD*%
%TA.AperFunction,SMDPad,CuDef*%
%ADD22R,0.425000X0.300000*%
%TD*%
%TA.AperFunction,SMDPad,CuDef*%
%ADD23RoundRect,0.135000X-0.185000X0.135000X-0.185000X-0.135000X0.185000X-0.135000X0.185000X0.135000X0*%
%TD*%
%TA.AperFunction,SMDPad,CuDef*%
%ADD24R,1.000000X1.800000*%
%TD*%
%TA.AperFunction,SMDPad,CuDef*%
%ADD25RoundRect,0.225000X-0.250000X0.225000X-0.250000X-0.225000X0.250000X-0.225000X0.250000X0.225000X0*%
%TD*%
%TA.AperFunction,SMDPad,CuDef*%
%ADD26RoundRect,0.225000X0.225000X0.250000X-0.225000X0.250000X-0.225000X-0.250000X0.225000X-0.250000X0*%
%TD*%
%TA.AperFunction,SMDPad,CuDef*%
%ADD27R,1.020000X0.410000*%
%TD*%
%TA.AperFunction,ViaPad*%
%ADD28C,0.508000*%
%TD*%
%TA.AperFunction,Conductor*%
%ADD29C,0.152400*%
%TD*%
%TA.AperFunction,Conductor*%
%ADD30C,0.228600*%
%TD*%
G04 APERTURE END LIST*
D10*
%TO.P,U5,21,EP*%
%TO.N,GND*%
X128000000Y-111000000D03*
D11*
%TO.P,U5,20,P0.2/I2C1_SCL/SPI1_SCK/32KCAL*%
%TO.N,/SCL*%
X126999999Y-109031500D03*
%TO.P,U5,19,P0.3/I2C1_SDA/SPI1_SSO/TMR0*%
%TO.N,/SDA*%
X127500001Y-109031500D03*
%TO.P,U5,18,P0.4/SPI0_MISO/UART0_TX*%
%TO.N,unconnected-(U5-Pad18)*%
X128000000Y-109031500D03*
%TO.P,U5,17,P0.5/SPI0_MOSI/UART0_RX*%
%TO.N,unconnected-(U5-Pad17)*%
X128499999Y-109031500D03*
%TO.P,U5,16,P0.6/SPI0A_SCK/UART0_CTS/UART1_TX*%
%TO.N,unconnected-(U5-Pad16)*%
X129000001Y-109031500D03*
D12*
%TO.P,U5,15,P0.7/SPI0A_SSO/UART0_RTS/UART1_RX*%
%TO.N,unconnected-(U5-Pad15)*%
X129968500Y-109999999D03*
%TO.P,U5,14,P0.10/SPI1_MISO/UART1_TX*%
%TO.N,unconnected-(U5-Pad14)*%
X129968500Y-110500001D03*
%TO.P,U5,13,P0.11/SPI1_MOSI/UART1_RX*%
%TO.N,/BNO_INTERRUPT*%
X129968500Y-111000000D03*
%TO.P,U5,12,P0.8/I2C0_SCL/SWDIO*%
%TO.N,unconnected-(U5-Pad12)*%
X129968500Y-111499999D03*
%TO.P,U5,11,P0.9/I2C0_SDA/SWDCLK*%
%TO.N,unconnected-(U5-Pad11)*%
X129968500Y-112000001D03*
D11*
%TO.P,U5,10,VCORE*%
%TO.N,Net-(C5-Pad1)*%
X129000001Y-112968500D03*
%TO.P,U5,9,VDD*%
%TO.N,VDD*%
X128499999Y-112968500D03*
%TO.P,U5,8,32KIN*%
%TO.N,Net-(C8-Pad1)*%
X128000000Y-112968500D03*
%TO.P,U5,7,32KOUT*%
%TO.N,Net-(C6-Pad1)*%
X127500001Y-112968500D03*
%TO.P,U5,6,VSS*%
%TO.N,GND*%
X126999999Y-112968500D03*
D12*
%TO.P,U5,5,RSTN*%
%TO.N,/nRESET*%
X126031500Y-112000001D03*
%TO.P,U5,4,P0.12/SPI1_SCK/UART1_CTS*%
%TO.N,unconnected-(U5-Pad4)*%
X126031500Y-111499999D03*
%TO.P,U5,3,P0.13/SPI1_SSO/UART1_RTS*%
%TO.N,unconnected-(U5-Pad3)*%
X126031500Y-111000000D03*
%TO.P,U5,2,P0.0/SWDIO/SPI1_MISO/UART1_TX*%
%TO.N,/TX{slash}SWDIO-VDD*%
X126031500Y-110500001D03*
%TO.P,U5,1,P0.1/SWDCLK/SPI1_MOSI/UART1_RX*%
%TO.N,/RX{slash}SWCLK-VDD*%
X126031500Y-109999999D03*
%TD*%
D13*
%TO.P,C9,1*%
%TO.N,GND*%
X142450000Y-132000000D03*
%TO.P,C9,2*%
%TO.N,Net-(C9-Pad2)*%
X144000000Y-132000000D03*
%TD*%
D14*
%TO.P,J1,1,Pin_1*%
%TO.N,GND*%
X86000000Y-102925000D03*
D15*
%TO.P,J1,2,Pin_2*%
%TO.N,/nRESET*%
X86000000Y-105465000D03*
%TO.P,J1,3,Pin_3*%
%TO.N,VCC*%
X86000000Y-108005000D03*
%TO.P,J1,4,Pin_4*%
%TO.N,/RX{slash}SWCLK-VCC*%
X86000000Y-110545000D03*
%TO.P,J1,5,Pin_5*%
%TO.N,/TX{slash}SWDIO-VCC*%
X86000000Y-113085000D03*
%TD*%
D16*
%TO.P,U1,1,GND*%
%TO.N,GND*%
X101005000Y-118050000D03*
%TO.P,U1,2,VOUT*%
%TO.N,VDD*%
X101005000Y-119950000D03*
%TO.P,U1,3,VIN*%
%TO.N,VCC*%
X102880000Y-119000000D03*
%TD*%
D17*
%TO.P,R4,1*%
%TO.N,VDD*%
X120138000Y-111252000D03*
%TO.P,R4,2*%
%TO.N,/nRESET*%
X121158000Y-111252000D03*
%TD*%
D18*
%TO.P,U4,1,GND*%
%TO.N,GND*%
X125020000Y-130030000D03*
%TO.P,U4,2,CSB*%
%TO.N,VDD*%
X125020000Y-130680000D03*
%TO.P,U4,3,SDI*%
%TO.N,/SDA*%
X125020000Y-131330000D03*
%TO.P,U4,4,SCK*%
%TO.N,/SCL*%
X125020000Y-131980000D03*
%TO.P,U4,5,SDO*%
%TO.N,GND*%
X122970000Y-131980000D03*
%TO.P,U4,6,VDDIO*%
%TO.N,VDD*%
X122970000Y-131330000D03*
%TO.P,U4,7,GND*%
%TO.N,GND*%
X122970000Y-130680000D03*
%TO.P,U4,8,VDD*%
%TO.N,VDD*%
X122970000Y-130030000D03*
%TD*%
D13*
%TO.P,C5,1*%
%TO.N,Net-(C5-Pad1)*%
X136160000Y-114160000D03*
%TO.P,C5,2*%
%TO.N,GND*%
X137710000Y-114160000D03*
%TD*%
D19*
%TO.P,C3,1*%
%TO.N,VDD*%
X98000000Y-130000000D03*
D20*
%TO.P,C3,2*%
%TO.N,GND*%
X104000000Y-130000000D03*
%TD*%
D21*
%TO.P,U3,1,PIN1*%
%TO.N,unconnected-(U3-Pad1)*%
X142750000Y-125437500D03*
D22*
%TO.P,U3,2,GND*%
%TO.N,GND*%
X142687500Y-126250000D03*
%TO.P,U3,3,VDD*%
%TO.N,VDD*%
X142687500Y-126750000D03*
%TO.P,U3,4,nBOOT_LOAD_PIN*%
%TO.N,Net-(R3-Pad2)*%
X142687500Y-127250000D03*
%TO.P,U3,5,PS1*%
%TO.N,GND*%
X142687500Y-127750000D03*
D21*
%TO.P,U3,6,PS0*%
X142750000Y-128562500D03*
%TO.P,U3,7,SWDIO*%
%TO.N,unconnected-(U3-Pad7)*%
X143250000Y-128562500D03*
%TO.P,U3,8,SWCLK*%
%TO.N,unconnected-(U3-Pad8)*%
X143750000Y-128562500D03*
%TO.P,U3,9,CAP*%
%TO.N,Net-(C9-Pad2)*%
X144250000Y-128562500D03*
%TO.P,U3,10,BL_IND*%
%TO.N,unconnected-(U3-Pad10)*%
X144750000Y-128562500D03*
%TO.P,U3,11,nRESET*%
%TO.N,/nRESET*%
X145250000Y-128562500D03*
%TO.P,U3,12,PIN12*%
%TO.N,unconnected-(U3-Pad12)*%
X145750000Y-128562500D03*
%TO.P,U3,13,PIN13*%
%TO.N,unconnected-(U3-Pad13)*%
X146250000Y-128562500D03*
%TO.P,U3,14,INT*%
%TO.N,/BNO_INTERRUPT*%
X146750000Y-128562500D03*
%TO.P,U3,15,PIN15*%
%TO.N,unconnected-(U3-Pad15)*%
X147250000Y-128562500D03*
D22*
%TO.P,U3,16,PIN16*%
%TO.N,unconnected-(U3-Pad16)*%
X147312500Y-127750000D03*
%TO.P,U3,17,COM3*%
%TO.N,GND*%
X147312500Y-127250000D03*
%TO.P,U3,18,COM2*%
X147312500Y-126750000D03*
%TO.P,U3,19,COM1*%
%TO.N,/SCL*%
X147312500Y-126250000D03*
D21*
%TO.P,U3,20,COM0*%
%TO.N,/SDA*%
X147250000Y-125437500D03*
%TO.P,U3,21,PIN21*%
%TO.N,unconnected-(U3-Pad21)*%
X146750000Y-125437500D03*
%TO.P,U3,22,PIN22*%
%TO.N,unconnected-(U3-Pad22)*%
X146250000Y-125437500D03*
%TO.P,U3,23,PIN23*%
%TO.N,unconnected-(U3-Pad23)*%
X145750000Y-125437500D03*
%TO.P,U3,24,PIN24*%
%TO.N,unconnected-(U3-Pad24)*%
X145250000Y-125437500D03*
%TO.P,U3,25,GNDIO*%
%TO.N,GND*%
X144750000Y-125437500D03*
%TO.P,U3,26,XOUT32*%
%TO.N,unconnected-(U3-Pad26)*%
X144250000Y-125437500D03*
%TO.P,U3,27,XIN32*%
%TO.N,unconnected-(U3-Pad27)*%
X143750000Y-125437500D03*
%TO.P,U3,28,VDDIO*%
%TO.N,VDD*%
X143250000Y-125437500D03*
%TD*%
D23*
%TO.P,R2,1*%
%TO.N,VDD*%
X128160000Y-103650000D03*
%TO.P,R2,2*%
%TO.N,/SDA*%
X128160000Y-104670000D03*
%TD*%
D13*
%TO.P,C8,1*%
%TO.N,Net-(C8-Pad1)*%
X132160000Y-118160000D03*
%TO.P,C8,2*%
%TO.N,GND*%
X133710000Y-118160000D03*
%TD*%
D24*
%TO.P,Y1,1,1*%
%TO.N,Net-(C8-Pad1)*%
X128660000Y-118160000D03*
%TO.P,Y1,2,2*%
%TO.N,Net-(C6-Pad1)*%
X126160000Y-118160000D03*
%TD*%
D25*
%TO.P,C7,1*%
%TO.N,VDD*%
X117775000Y-128450000D03*
%TO.P,C7,2*%
%TO.N,GND*%
X117775000Y-130000000D03*
%TD*%
D13*
%TO.P,C2,1*%
%TO.N,VDD*%
X105000000Y-104000000D03*
%TO.P,C2,2*%
%TO.N,GND*%
X106550000Y-104000000D03*
%TD*%
%TO.P,C4,1*%
%TO.N,VDD*%
X143450000Y-121000000D03*
%TO.P,C4,2*%
%TO.N,GND*%
X145000000Y-121000000D03*
%TD*%
D23*
%TO.P,R3,1*%
%TO.N,VDD*%
X138000000Y-126490000D03*
%TO.P,R3,2*%
%TO.N,Net-(R3-Pad2)*%
X138000000Y-127510000D03*
%TD*%
D26*
%TO.P,C6,1*%
%TO.N,Net-(C6-Pad1)*%
X123160000Y-118160000D03*
%TO.P,C6,2*%
%TO.N,GND*%
X121610000Y-118160000D03*
%TD*%
D13*
%TO.P,C1,1*%
%TO.N,GND*%
X97450000Y-104000000D03*
%TO.P,C1,2*%
%TO.N,VCC*%
X99000000Y-104000000D03*
%TD*%
D26*
%TO.P,C10,1*%
%TO.N,/nRESET*%
X121160000Y-113160000D03*
%TO.P,C10,2*%
%TO.N,Net-(C10-Pad2)*%
X119610000Y-113160000D03*
%TD*%
D14*
%TO.P,J2,1,Pin_1*%
%TO.N,/RX{slash}SWCLK-VDD*%
X109728000Y-91186000D03*
D15*
%TO.P,J2,2,Pin_2*%
%TO.N,/TX{slash}SWDIO-VDD*%
X107188000Y-91186000D03*
%TO.P,J2,3,Pin_3*%
%TO.N,/RX{slash}SWCLK-VCC*%
X104648000Y-91186000D03*
%TO.P,J2,4,Pin_4*%
%TO.N,/TX{slash}SWDIO-VCC*%
X102108000Y-91186000D03*
%TO.P,J2,5,Pin_5*%
%TO.N,/SDA*%
X99568000Y-91186000D03*
%TO.P,J2,6,Pin_6*%
%TO.N,/SCL*%
X97028000Y-91186000D03*
%TO.P,J2,7,Pin_7*%
%TO.N,/nRESET*%
X94488000Y-91186000D03*
%TO.P,J2,8,Pin_8*%
%TO.N,/BNO_INTERRUPT*%
X91948000Y-91186000D03*
%TO.P,J2,9,Pin_9*%
%TO.N,VDD*%
X89408000Y-91186000D03*
%TO.P,J2,10,Pin_10*%
%TO.N,VCC*%
X86868000Y-91186000D03*
%TO.P,J2,11,Pin_11*%
%TO.N,GND*%
X84328000Y-91186000D03*
%TD*%
D27*
%TO.P,U2,1,VCCA*%
%TO.N,VCC*%
X99600000Y-109050000D03*
%TO.P,U2,2,A1*%
%TO.N,/TX{slash}SWDIO-VCC*%
X99600000Y-109700000D03*
%TO.P,U2,3,A2*%
%TO.N,/RX{slash}SWCLK-VCC*%
X99600000Y-110350000D03*
%TO.P,U2,4,GND*%
%TO.N,GND*%
X99600000Y-111000000D03*
%TO.P,U2,5,EN*%
%TO.N,VCC*%
X104400000Y-111000000D03*
%TO.P,U2,6,B2*%
%TO.N,/RX{slash}SWCLK-VDD*%
X104400000Y-110350000D03*
%TO.P,U2,7,B1*%
%TO.N,/TX{slash}SWDIO-VDD*%
X104400000Y-109700000D03*
%TO.P,U2,8,VCCB*%
%TO.N,VDD*%
X104400000Y-109050000D03*
%TD*%
D23*
%TO.P,R5,1*%
%TO.N,Net-(C10-Pad2)*%
X117856000Y-115824000D03*
%TO.P,R5,2*%
%TO.N,GND*%
X117856000Y-116844000D03*
%TD*%
%TO.P,R1,1*%
%TO.N,VDD*%
X125160000Y-103650000D03*
%TO.P,R1,2*%
%TO.N,/SCL*%
X125160000Y-104670000D03*
%TD*%
D28*
%TO.N,GND*%
X113284000Y-115570000D03*
X124714000Y-106934000D03*
X88392000Y-122936000D03*
X133604000Y-85598000D03*
X137668000Y-108966000D03*
X111760000Y-131826000D03*
X123190000Y-123698000D03*
X111506000Y-97790000D03*
X146558000Y-104902000D03*
X112268000Y-107696000D03*
X99060000Y-85344000D03*
X93472000Y-99314000D03*
X135128000Y-132588000D03*
%TO.N,VDD*%
X118872000Y-127508000D03*
X122682000Y-111506000D03*
X129286000Y-114808000D03*
X131826000Y-127508000D03*
%TO.N,/nRESET*%
X121412000Y-109474000D03*
X144780000Y-127508000D03*
X89662000Y-105410000D03*
X122682000Y-113284000D03*
X96520000Y-93218000D03*
%TO.N,/RX{slash}SWCLK-VCC*%
X97790000Y-112014000D03*
X93726000Y-106426000D03*
%TO.N,/TX{slash}SWDIO-VCC*%
X89916000Y-108966000D03*
X88900000Y-89662000D03*
%TO.N,/SCL*%
X147320000Y-112014000D03*
X143764000Y-112014000D03*
X126746000Y-104648000D03*
X131064000Y-103886000D03*
%TO.N,/SDA*%
X132842000Y-105664000D03*
X101600000Y-93218000D03*
%TO.N,/RX{slash}SWCLK-VDD*%
X120650000Y-102108000D03*
X105918000Y-112014000D03*
X123952000Y-108966000D03*
%TO.N,/TX{slash}SWDIO-VDD*%
X108966000Y-101600000D03*
X122936000Y-107696000D03*
X106426000Y-109982000D03*
%TO.N,/BNO_INTERRUPT*%
X145796000Y-127000000D03*
X132080000Y-112014000D03*
%TD*%
D29*
%TO.N,GND*%
X128000000Y-111000000D02*
X124714000Y-107714000D01*
D30*
X126999999Y-112000001D02*
X128000000Y-111000000D01*
D29*
X124714000Y-107714000D02*
X124714000Y-106934000D01*
D30*
X126999999Y-112968500D02*
X126999999Y-112000001D01*
%TO.N,VCC*%
X99600000Y-109050000D02*
X99600000Y-104600000D01*
X86000000Y-108005000D02*
X94995000Y-108005000D01*
X99600000Y-104600000D02*
X99000000Y-104000000D01*
X104400000Y-111000000D02*
X103126000Y-111000000D01*
X86868000Y-91186000D02*
X82550000Y-95504000D01*
X102880000Y-119000000D02*
X104400000Y-117480000D01*
X103126000Y-111000000D02*
X101176000Y-109050000D01*
X82550000Y-95504000D02*
X82550000Y-104555000D01*
X104400000Y-117480000D02*
X104400000Y-111000000D01*
X94995000Y-108005000D02*
X99000000Y-104000000D01*
X101176000Y-109050000D02*
X99600000Y-109050000D01*
X82550000Y-104555000D02*
X86000000Y-108005000D01*
%TO.N,VDD*%
X141736000Y-126750000D02*
X142687500Y-126750000D01*
X108712000Y-110998000D02*
X106764000Y-109050000D01*
X117775000Y-128450000D02*
X117775000Y-126157000D01*
X104400000Y-104600000D02*
X105000000Y-104000000D01*
X108712000Y-111252000D02*
X108712000Y-110998000D01*
X122682000Y-108966000D02*
X121263000Y-107547000D01*
X120138000Y-108672000D02*
X121263000Y-107547000D01*
X138000000Y-126490000D02*
X141476000Y-126490000D01*
X89408000Y-91186000D02*
X102222000Y-104000000D01*
X120138000Y-111252000D02*
X108712000Y-111252000D01*
X143250000Y-124720000D02*
X143250000Y-125437500D01*
X122682000Y-111506000D02*
X122682000Y-108966000D01*
X121263000Y-107547000D02*
X125160000Y-103650000D01*
X141476000Y-126490000D02*
X141736000Y-126750000D01*
X128499999Y-114021999D02*
X129286000Y-114808000D01*
X123432000Y-130030000D02*
X124082000Y-130680000D01*
X131826000Y-127508000D02*
X132844000Y-126490000D01*
X108712000Y-117094000D02*
X108712000Y-111252000D01*
X122970000Y-130030000D02*
X123432000Y-130030000D01*
X106764000Y-109050000D02*
X104400000Y-109050000D01*
X142046000Y-123892000D02*
X143450000Y-123892000D01*
X117775000Y-126157000D02*
X108712000Y-117094000D01*
X132844000Y-126490000D02*
X138000000Y-126490000D01*
X128499999Y-112968500D02*
X128499999Y-114021999D01*
X123432000Y-131330000D02*
X124082000Y-130680000D01*
X141476000Y-126490000D02*
X141476000Y-124462000D01*
X125160000Y-103650000D02*
X128160000Y-103650000D01*
X124082000Y-130680000D02*
X125020000Y-130680000D01*
X98000000Y-122955000D02*
X101005000Y-119950000D01*
X117930000Y-128450000D02*
X118872000Y-127508000D01*
X143450000Y-123892000D02*
X143450000Y-124520000D01*
X141476000Y-124462000D02*
X142046000Y-123892000D01*
X120138000Y-111252000D02*
X120138000Y-108672000D01*
X117775000Y-128450000D02*
X117930000Y-128450000D01*
X143450000Y-124520000D02*
X143250000Y-124720000D01*
X119355000Y-130030000D02*
X122970000Y-130030000D01*
X98000000Y-130000000D02*
X98000000Y-122955000D01*
X122970000Y-131330000D02*
X123432000Y-131330000D01*
X143450000Y-121000000D02*
X143450000Y-123892000D01*
X104400000Y-109050000D02*
X104400000Y-104600000D01*
X101005000Y-119950000D02*
X105856000Y-119950000D01*
X117775000Y-128450000D02*
X119355000Y-130030000D01*
X105856000Y-119950000D02*
X108712000Y-117094000D01*
X102222000Y-104000000D02*
X105000000Y-104000000D01*
D29*
%TO.N,Net-(C5-Pad1)*%
X136160000Y-114160000D02*
X134970000Y-112970000D01*
X134970000Y-112970000D02*
X129001501Y-112970000D01*
X129001501Y-112970000D02*
X129000001Y-112968500D01*
%TO.N,/nRESET*%
X89607000Y-105465000D02*
X89662000Y-105410000D01*
X121412000Y-109474000D02*
X121412000Y-110998000D01*
X121158000Y-113158000D02*
X121160000Y-113160000D01*
X122682000Y-113284000D02*
X121284000Y-113284000D01*
X121158000Y-111252000D02*
X121158000Y-113158000D01*
X125731501Y-112300000D02*
X122020000Y-112300000D01*
X126031500Y-112000001D02*
X125731501Y-112300000D01*
X86000000Y-105465000D02*
X89607000Y-105465000D01*
X122020000Y-112300000D02*
X121160000Y-113160000D01*
X145250000Y-128562500D02*
X145250000Y-127978000D01*
X121412000Y-110998000D02*
X121158000Y-111252000D01*
X121284000Y-113284000D02*
X121160000Y-113160000D01*
X94488000Y-91186000D02*
X96520000Y-93218000D01*
X145250000Y-127978000D02*
X144780000Y-127508000D01*
%TO.N,Net-(C6-Pad1)*%
X126160000Y-115902000D02*
X127490000Y-114572000D01*
X127490000Y-114572000D02*
X127490000Y-112978501D01*
X123160000Y-118160000D02*
X126160000Y-118160000D01*
X127490000Y-112978501D02*
X127500001Y-112968500D01*
X126160000Y-118160000D02*
X126160000Y-115902000D01*
%TO.N,Net-(C8-Pad1)*%
X128660000Y-118160000D02*
X132160000Y-118160000D01*
X128000000Y-115046000D02*
X128000000Y-112968500D01*
X128660000Y-115706000D02*
X128000000Y-115046000D01*
X128660000Y-118160000D02*
X128660000Y-115706000D01*
%TO.N,Net-(C9-Pad2)*%
X144000000Y-132000000D02*
X144250000Y-131750000D01*
X144250000Y-131750000D02*
X144250000Y-128562500D01*
%TO.N,Net-(C10-Pad2)*%
X119610000Y-113160000D02*
X117856000Y-114914000D01*
X117856000Y-114914000D02*
X117856000Y-115824000D01*
%TO.N,/RX{slash}SWCLK-VCC*%
X97142000Y-110350000D02*
X86195000Y-110350000D01*
X88138000Y-100838000D02*
X93726000Y-106426000D01*
X86195000Y-110350000D02*
X86000000Y-110545000D01*
X102616000Y-89154000D02*
X88392000Y-89154000D01*
X99600000Y-110350000D02*
X97142000Y-110350000D01*
X88392000Y-89154000D02*
X88138000Y-89408000D01*
X88138000Y-92964000D02*
X88138000Y-100838000D01*
X97790000Y-112014000D02*
X97142000Y-111366000D01*
X104648000Y-91186000D02*
X102616000Y-89154000D01*
X97142000Y-111366000D02*
X97142000Y-110350000D01*
X88138000Y-89408000D02*
X88138000Y-92964000D01*
%TO.N,/TX{slash}SWDIO-VCC*%
X84582000Y-109982000D02*
X84582000Y-111667000D01*
X102108000Y-91186000D02*
X100584000Y-89662000D01*
X99600000Y-109700000D02*
X89888000Y-109700000D01*
X89916000Y-109672000D02*
X89888000Y-109700000D01*
X89380000Y-109700000D02*
X88900000Y-109220000D01*
X85344000Y-109220000D02*
X84582000Y-109982000D01*
X89916000Y-108966000D02*
X89916000Y-109672000D01*
X89888000Y-109700000D02*
X89380000Y-109700000D01*
X88900000Y-109220000D02*
X85344000Y-109220000D01*
X100584000Y-89662000D02*
X88900000Y-89662000D01*
X84582000Y-111667000D02*
X86000000Y-113085000D01*
%TO.N,Net-(R3-Pad2)*%
X138000000Y-127510000D02*
X138260000Y-127250000D01*
X138260000Y-127250000D02*
X142687500Y-127250000D01*
%TO.N,/SCL*%
X125182000Y-104648000D02*
X125160000Y-104670000D01*
X126746000Y-104648000D02*
X125182000Y-104648000D01*
X128016000Y-129540000D02*
X128016000Y-127762000D01*
X128016000Y-127762000D02*
X143764000Y-112014000D01*
X126999999Y-109031500D02*
X127000000Y-106510000D01*
X147816000Y-126250000D02*
X148082000Y-125984000D01*
X125020000Y-131980000D02*
X125576000Y-131980000D01*
X148082000Y-125984000D02*
X148082000Y-114300000D01*
X137668000Y-103886000D02*
X131064000Y-103886000D01*
X148082000Y-114300000D02*
X146558000Y-112776000D01*
X130048000Y-102870000D02*
X131064000Y-103886000D01*
X108712000Y-102870000D02*
X130048000Y-102870000D01*
X147320000Y-112014000D02*
X146558000Y-112776000D01*
X147312500Y-126250000D02*
X147816000Y-126250000D01*
X125576000Y-131980000D02*
X128016000Y-129540000D01*
X127000000Y-106510000D02*
X125160000Y-104670000D01*
X97028000Y-91186000D02*
X108712000Y-102870000D01*
X146558000Y-112776000D02*
X137668000Y-103886000D01*
%TO.N,/SDA*%
X132842000Y-105664000D02*
X129154000Y-105664000D01*
X125422400Y-131330000D02*
X127508000Y-129244400D01*
X127508000Y-127254000D02*
X143764000Y-110998000D01*
X129154000Y-105664000D02*
X128160000Y-104670000D01*
X99568000Y-91186000D02*
X101600000Y-93218000D01*
X147250000Y-114484000D02*
X143764000Y-110998000D01*
X127490000Y-109021499D02*
X127490000Y-105340000D01*
X125020000Y-131330000D02*
X125422400Y-131330000D01*
X143764000Y-110998000D02*
X137436000Y-104670000D01*
X137436000Y-104670000D02*
X128160000Y-104670000D01*
X147250000Y-125437500D02*
X147250000Y-114484000D01*
X127500001Y-109031500D02*
X127490000Y-109021499D01*
X127508000Y-129244400D02*
X127508000Y-127254000D01*
X127490000Y-105340000D02*
X128160000Y-104670000D01*
%TO.N,/RX{slash}SWCLK-VDD*%
X109728000Y-91186000D02*
X120650000Y-102108000D01*
X105918000Y-110744000D02*
X105918000Y-112014000D01*
X123952000Y-108966000D02*
X124997501Y-108966000D01*
X124997501Y-108966000D02*
X126031500Y-109999999D01*
X105664000Y-110490000D02*
X105918000Y-110744000D01*
X105524000Y-110350000D02*
X105664000Y-110490000D01*
X104400000Y-110350000D02*
X105524000Y-110350000D01*
%TO.N,/TX{slash}SWDIO-VDD*%
X122936000Y-107696000D02*
X123190000Y-107696000D01*
X107188000Y-91186000D02*
X107188000Y-99822000D01*
X123444000Y-107950000D02*
X123444000Y-109220000D01*
X124714000Y-110490000D02*
X126021499Y-110490000D01*
X106144000Y-109700000D02*
X106426000Y-109982000D01*
X126021499Y-110490000D02*
X126031500Y-110500001D01*
X104400000Y-109700000D02*
X106144000Y-109700000D01*
X123190000Y-107696000D02*
X123444000Y-107950000D01*
X107188000Y-99822000D02*
X108966000Y-101600000D01*
X123444000Y-109220000D02*
X124714000Y-110490000D01*
%TO.N,/BNO_INTERRUPT*%
X146750000Y-127954000D02*
X145796000Y-127000000D01*
X146750000Y-128562500D02*
X146750000Y-127954000D01*
X131066000Y-111000000D02*
X129968500Y-111000000D01*
X132080000Y-112014000D02*
X131066000Y-111000000D01*
%TD*%
%TA.AperFunction,Conductor*%
%TO.N,GND*%
G36*
X151902121Y-81090002D02*
G01*
X151948614Y-81143658D01*
X151960000Y-81196000D01*
X151960000Y-137133878D01*
X151939998Y-137201999D01*
X151886342Y-137248492D01*
X151833879Y-137259878D01*
X86253660Y-137196305D01*
X79875878Y-137190122D01*
X79807777Y-137170054D01*
X79761336Y-137116353D01*
X79750000Y-137064122D01*
X79750000Y-134089403D01*
X80900187Y-134089403D01*
X80917085Y-134382460D01*
X80917910Y-134386665D01*
X80917911Y-134386673D01*
X80950513Y-134552845D01*
X80973599Y-134670514D01*
X80974986Y-134674565D01*
X80974987Y-134674569D01*
X81067294Y-134944177D01*
X81067298Y-134944186D01*
X81068683Y-134948232D01*
X81200578Y-135210476D01*
X81203004Y-135214005D01*
X81203007Y-135214011D01*
X81242678Y-135271732D01*
X81366844Y-135452394D01*
X81564403Y-135669509D01*
X81567684Y-135672252D01*
X81786308Y-135855051D01*
X81786313Y-135855055D01*
X81789600Y-135857803D01*
X81913934Y-135935798D01*
X82034628Y-136011509D01*
X82034632Y-136011511D01*
X82038268Y-136013792D01*
X82042178Y-136015557D01*
X82042179Y-136015558D01*
X82301894Y-136132824D01*
X82301898Y-136132826D01*
X82305806Y-136134590D01*
X82309925Y-136135810D01*
X82583149Y-136216743D01*
X82583153Y-136216744D01*
X82587262Y-136217961D01*
X82591496Y-136218609D01*
X82591501Y-136218610D01*
X82848363Y-136257915D01*
X82877429Y-136262363D01*
X83026852Y-136264710D01*
X83166646Y-136266907D01*
X83166652Y-136266907D01*
X83170937Y-136266974D01*
X83462356Y-136231708D01*
X83746292Y-136157219D01*
X83750252Y-136155579D01*
X83750257Y-136155577D01*
X83896272Y-136095095D01*
X84017492Y-136044884D01*
X84270937Y-135896783D01*
X84501938Y-135715655D01*
X84543999Y-135672252D01*
X84703236Y-135507931D01*
X84706219Y-135504853D01*
X84708752Y-135501405D01*
X84708756Y-135501400D01*
X84877463Y-135271732D01*
X84880001Y-135268277D01*
X85020069Y-135010305D01*
X85123829Y-134735711D01*
X85189363Y-134449575D01*
X85215458Y-134157192D01*
X85215931Y-134112000D01*
X85214682Y-134093683D01*
X85214390Y-134089403D01*
X146178187Y-134089403D01*
X146195085Y-134382460D01*
X146195910Y-134386665D01*
X146195911Y-134386673D01*
X146228513Y-134552845D01*
X146251599Y-134670514D01*
X146252986Y-134674565D01*
X146252987Y-134674569D01*
X146345294Y-134944177D01*
X146345298Y-134944186D01*
X146346683Y-134948232D01*
X146478578Y-135210476D01*
X146481004Y-135214005D01*
X146481007Y-135214011D01*
X146520678Y-135271732D01*
X146644844Y-135452394D01*
X146842403Y-135669509D01*
X146845684Y-135672252D01*
X147064308Y-135855051D01*
X147064313Y-135855055D01*
X147067600Y-135857803D01*
X147191934Y-135935798D01*
X147312628Y-136011509D01*
X147312632Y-136011511D01*
X147316268Y-136013792D01*
X147320178Y-136015557D01*
X147320179Y-136015558D01*
X147579894Y-136132824D01*
X147579898Y-136132826D01*
X147583806Y-136134590D01*
X147587925Y-136135810D01*
X147861149Y-136216743D01*
X147861153Y-136216744D01*
X147865262Y-136217961D01*
X147869496Y-136218609D01*
X147869501Y-136218610D01*
X148126363Y-136257915D01*
X148155429Y-136262363D01*
X148304852Y-136264710D01*
X148444646Y-136266907D01*
X148444652Y-136266907D01*
X148448937Y-136266974D01*
X148740356Y-136231708D01*
X149024292Y-136157219D01*
X149028252Y-136155579D01*
X149028257Y-136155577D01*
X149174272Y-136095095D01*
X149295492Y-136044884D01*
X149548937Y-135896783D01*
X149779938Y-135715655D01*
X149821999Y-135672252D01*
X149981236Y-135507931D01*
X149984219Y-135504853D01*
X149986752Y-135501405D01*
X149986756Y-135501400D01*
X150155463Y-135271732D01*
X150158001Y-135268277D01*
X150298069Y-135010305D01*
X150401829Y-134735711D01*
X150467363Y-134449575D01*
X150493458Y-134157192D01*
X150493931Y-134112000D01*
X150492682Y-134093683D01*
X150474257Y-133823412D01*
X150474256Y-133823406D01*
X150473965Y-133819135D01*
X150414438Y-133531690D01*
X150408225Y-133514143D01*
X150317882Y-133259023D01*
X150316451Y-133254982D01*
X150181817Y-132994133D01*
X150173756Y-132982663D01*
X150015491Y-132757475D01*
X150015486Y-132757469D01*
X150013027Y-132753970D01*
X149928492Y-132663000D01*
X149816126Y-132542079D01*
X149816123Y-132542076D01*
X149813205Y-132538936D01*
X149809889Y-132536222D01*
X149809886Y-132536219D01*
X149589367Y-132355725D01*
X149589360Y-132355720D01*
X149586049Y-132353010D01*
X149409479Y-132244808D01*
X149339423Y-132201878D01*
X149339422Y-132201878D01*
X149335761Y-132199634D01*
X149322856Y-132193969D01*
X149070901Y-132083368D01*
X149070898Y-132083367D01*
X149066973Y-132081644D01*
X148784659Y-132001225D01*
X148780417Y-132000621D01*
X148780411Y-132000620D01*
X148498294Y-131960469D01*
X148494043Y-131959864D01*
X148339296Y-131959054D01*
X148204788Y-131958349D01*
X148204782Y-131958349D01*
X148200502Y-131958327D01*
X148196258Y-131958886D01*
X148196254Y-131958886D01*
X148068262Y-131975737D01*
X147909469Y-131996642D01*
X147905329Y-131997775D01*
X147905327Y-131997775D01*
X147892716Y-132001225D01*
X147626328Y-132074101D01*
X147356320Y-132189269D01*
X147104440Y-132340017D01*
X147101094Y-132342697D01*
X147101092Y-132342699D01*
X147020262Y-132407456D01*
X146875348Y-132523553D01*
X146673286Y-132736483D01*
X146501990Y-132974866D01*
X146364632Y-133234290D01*
X146263752Y-133509956D01*
X146262839Y-133514142D01*
X146262839Y-133514143D01*
X146202132Y-133792573D01*
X146202131Y-133792581D01*
X146201219Y-133796763D01*
X146178187Y-134089403D01*
X85214390Y-134089403D01*
X85196257Y-133823412D01*
X85196256Y-133823406D01*
X85195965Y-133819135D01*
X85136438Y-133531690D01*
X85130225Y-133514143D01*
X85039882Y-133259023D01*
X85038451Y-133254982D01*
X84903817Y-132994133D01*
X84895756Y-132982663D01*
X84737491Y-132757475D01*
X84737486Y-132757469D01*
X84735027Y-132753970D01*
X84650492Y-132663000D01*
X84538126Y-132542079D01*
X84538123Y-132542076D01*
X84535205Y-132538936D01*
X84531889Y-132536222D01*
X84531886Y-132536219D01*
X84311367Y-132355725D01*
X84311360Y-132355720D01*
X84308049Y-132353010D01*
X84131479Y-132244808D01*
X84061423Y-132201878D01*
X84061422Y-132201878D01*
X84057818Y-132199669D01*
X122212001Y-132199669D01*
X122212371Y-132206490D01*
X122217895Y-132257352D01*
X122221521Y-132272604D01*
X122266676Y-132393054D01*
X122275214Y-132408649D01*
X122351715Y-132510724D01*
X122364276Y-132523285D01*
X122466351Y-132599786D01*
X122481946Y-132608324D01*
X122602394Y-132653478D01*
X122617649Y-132657105D01*
X122668514Y-132662631D01*
X122675328Y-132663000D01*
X122776885Y-132663000D01*
X122792124Y-132658525D01*
X122793329Y-132657135D01*
X122795000Y-132649452D01*
X122795000Y-132644884D01*
X123145000Y-132644884D01*
X123149475Y-132660123D01*
X123150865Y-132661328D01*
X123158548Y-132662999D01*
X123264669Y-132662999D01*
X123271490Y-132662629D01*
X123322352Y-132657105D01*
X123337604Y-132653479D01*
X123458054Y-132608324D01*
X123473649Y-132599786D01*
X123575724Y-132523285D01*
X123588285Y-132510724D01*
X123664786Y-132408649D01*
X123673324Y-132393054D01*
X123718478Y-132272606D01*
X123722105Y-132257351D01*
X123727631Y-132206486D01*
X123728000Y-132199672D01*
X123728000Y-132173115D01*
X123723525Y-132157876D01*
X123722135Y-132156671D01*
X123714452Y-132155000D01*
X123163115Y-132155000D01*
X123147876Y-132159475D01*
X123146671Y-132160865D01*
X123145000Y-132168548D01*
X123145000Y-132644884D01*
X122795000Y-132644884D01*
X122795000Y-132173115D01*
X122790525Y-132157876D01*
X122789135Y-132156671D01*
X122781452Y-132155000D01*
X122230116Y-132155000D01*
X122214877Y-132159475D01*
X122213672Y-132160865D01*
X122212001Y-132168548D01*
X122212001Y-132199669D01*
X84057818Y-132199669D01*
X84057761Y-132199634D01*
X84044856Y-132193969D01*
X83792901Y-132083368D01*
X83792898Y-132083367D01*
X83788973Y-132081644D01*
X83506659Y-132001225D01*
X83502417Y-132000621D01*
X83502411Y-132000620D01*
X83220294Y-131960469D01*
X83216043Y-131959864D01*
X83061296Y-131959054D01*
X82926788Y-131958349D01*
X82926782Y-131958349D01*
X82922502Y-131958327D01*
X82918258Y-131958886D01*
X82918254Y-131958886D01*
X82790262Y-131975737D01*
X82631469Y-131996642D01*
X82627329Y-131997775D01*
X82627327Y-131997775D01*
X82614716Y-132001225D01*
X82348328Y-132074101D01*
X82078320Y-132189269D01*
X81826440Y-132340017D01*
X81823094Y-132342697D01*
X81823092Y-132342699D01*
X81742262Y-132407456D01*
X81597348Y-132523553D01*
X81395286Y-132736483D01*
X81223990Y-132974866D01*
X81086632Y-133234290D01*
X80985752Y-133509956D01*
X80984839Y-133514142D01*
X80984839Y-133514143D01*
X80924132Y-133792573D01*
X80924131Y-133792581D01*
X80923219Y-133796763D01*
X80900187Y-134089403D01*
X79750000Y-134089403D01*
X79750000Y-118315871D01*
X99765956Y-118315871D01*
X99806607Y-118455790D01*
X99812852Y-118470221D01*
X99889411Y-118599678D01*
X99899051Y-118612104D01*
X100005396Y-118718449D01*
X100017822Y-118728089D01*
X100147279Y-118804648D01*
X100161710Y-118810893D01*
X100307565Y-118853269D01*
X100320167Y-118855570D01*
X100348584Y-118857807D01*
X100353514Y-118858000D01*
X100732885Y-118858000D01*
X100748124Y-118853525D01*
X100749329Y-118852135D01*
X100751000Y-118844452D01*
X100751000Y-118322115D01*
X100746525Y-118306876D01*
X100745135Y-118305671D01*
X100737452Y-118304000D01*
X99780622Y-118304000D01*
X99767091Y-118307973D01*
X99765956Y-118315871D01*
X79750000Y-118315871D01*
X79750000Y-117778605D01*
X99767561Y-117778605D01*
X99767601Y-117792706D01*
X99774870Y-117796000D01*
X100732885Y-117796000D01*
X100748124Y-117791525D01*
X100749329Y-117790135D01*
X100751000Y-117782452D01*
X100751000Y-117777885D01*
X101259000Y-117777885D01*
X101263475Y-117793124D01*
X101264865Y-117794329D01*
X101272548Y-117796000D01*
X102229378Y-117796000D01*
X102242909Y-117792027D01*
X102244044Y-117784129D01*
X102203393Y-117644210D01*
X102197148Y-117629779D01*
X102120589Y-117500322D01*
X102110949Y-117487896D01*
X102004604Y-117381551D01*
X101992178Y-117371911D01*
X101862721Y-117295352D01*
X101848290Y-117289107D01*
X101702435Y-117246731D01*
X101689833Y-117244430D01*
X101661416Y-117242193D01*
X101656486Y-117242000D01*
X101277115Y-117242000D01*
X101261876Y-117246475D01*
X101260671Y-117247865D01*
X101259000Y-117255548D01*
X101259000Y-117777885D01*
X100751000Y-117777885D01*
X100751000Y-117260116D01*
X100746525Y-117244877D01*
X100745135Y-117243672D01*
X100737452Y-117242001D01*
X100353517Y-117242001D01*
X100348580Y-117242195D01*
X100320164Y-117244430D01*
X100307569Y-117246730D01*
X100161710Y-117289107D01*
X100147279Y-117295352D01*
X100017822Y-117371911D01*
X100005396Y-117381551D01*
X99899051Y-117487896D01*
X99889411Y-117500322D01*
X99812852Y-117629779D01*
X99806607Y-117644210D01*
X99767561Y-117778605D01*
X79750000Y-117778605D01*
X79750000Y-104555000D01*
X82277564Y-104555000D01*
X82279985Y-104567171D01*
X82294116Y-104638207D01*
X82298303Y-104659257D01*
X82305197Y-104669574D01*
X82305197Y-104669575D01*
X82326302Y-104701160D01*
X82333121Y-104711366D01*
X82357359Y-104747641D01*
X82367674Y-104754533D01*
X82369356Y-104755657D01*
X82388450Y-104771328D01*
X85060547Y-107443425D01*
X85094573Y-107505737D01*
X85089508Y-107576552D01*
X85081866Y-107593221D01*
X85073739Y-107608004D01*
X85071875Y-107613879D01*
X85071874Y-107613882D01*
X85055931Y-107664142D01*
X85014269Y-107795476D01*
X84992345Y-107990930D01*
X84992861Y-107997073D01*
X85007093Y-108166550D01*
X85008803Y-108186919D01*
X85063015Y-108375979D01*
X85065830Y-108381456D01*
X85065831Y-108381459D01*
X85150101Y-108545431D01*
X85152916Y-108550908D01*
X85156739Y-108555732D01*
X85156742Y-108555736D01*
X85248970Y-108672098D01*
X85275083Y-108705044D01*
X85279777Y-108709038D01*
X85279777Y-108709039D01*
X85288941Y-108716838D01*
X85355258Y-108773278D01*
X85394170Y-108832660D01*
X85394801Y-108903653D01*
X85356950Y-108963718D01*
X85306841Y-108987308D01*
X85307362Y-108988666D01*
X85307361Y-108988666D01*
X85287986Y-108996103D01*
X85269038Y-109001715D01*
X85261689Y-109003277D01*
X85261688Y-109003278D01*
X85248735Y-109006031D01*
X85238024Y-109013813D01*
X85233216Y-109015954D01*
X85228799Y-109018823D01*
X85216436Y-109023568D01*
X85201765Y-109038239D01*
X85186731Y-109051080D01*
X85169942Y-109063278D01*
X85163322Y-109074745D01*
X85154459Y-109084588D01*
X85154135Y-109084296D01*
X85148945Y-109091059D01*
X84782776Y-109457227D01*
X84426568Y-109813435D01*
X84421784Y-109817975D01*
X84392514Y-109844330D01*
X84386453Y-109857943D01*
X84384074Y-109863286D01*
X84374642Y-109880658D01*
X84370551Y-109886957D01*
X84370550Y-109886959D01*
X84363339Y-109898064D01*
X84361268Y-109911143D01*
X84359381Y-109916058D01*
X84358287Y-109921204D01*
X84352900Y-109933303D01*
X84352900Y-109954053D01*
X84351349Y-109973764D01*
X84348103Y-109994258D01*
X84351530Y-110007047D01*
X84352223Y-110020275D01*
X84351787Y-110020298D01*
X84352900Y-110028750D01*
X84352900Y-111657718D01*
X84352727Y-111664312D01*
X84351743Y-111683097D01*
X84350666Y-111703639D01*
X84358103Y-111723014D01*
X84363715Y-111741962D01*
X84365031Y-111748151D01*
X84368031Y-111762265D01*
X84375813Y-111772976D01*
X84377954Y-111777784D01*
X84380823Y-111782201D01*
X84385568Y-111794564D01*
X84400239Y-111809235D01*
X84413080Y-111824269D01*
X84425278Y-111841058D01*
X84436745Y-111847678D01*
X84446588Y-111856541D01*
X84446296Y-111856866D01*
X84453060Y-111862056D01*
X85079660Y-112488656D01*
X85113686Y-112550968D01*
X85108621Y-112621783D01*
X85100980Y-112638451D01*
X85076707Y-112682604D01*
X85076705Y-112682609D01*
X85073739Y-112688004D01*
X85071878Y-112693871D01*
X85071877Y-112693873D01*
X85071100Y-112696322D01*
X85014269Y-112875476D01*
X84992345Y-113070930D01*
X84996184Y-113116641D01*
X85006491Y-113239381D01*
X85008803Y-113266919D01*
X85010502Y-113272844D01*
X85061134Y-113449418D01*
X85063015Y-113455979D01*
X85065830Y-113461456D01*
X85065831Y-113461459D01*
X85148916Y-113623125D01*
X85152916Y-113630908D01*
X85156739Y-113635732D01*
X85156742Y-113635736D01*
X85228667Y-113726482D01*
X85275083Y-113785044D01*
X85279777Y-113789038D01*
X85279777Y-113789039D01*
X85417206Y-113906000D01*
X85424862Y-113912516D01*
X85430240Y-113915522D01*
X85430242Y-113915523D01*
X85466656Y-113935874D01*
X85596547Y-114008467D01*
X85783600Y-114069244D01*
X85978895Y-114092532D01*
X85985030Y-114092060D01*
X85985032Y-114092060D01*
X86168852Y-114077916D01*
X86168856Y-114077915D01*
X86174994Y-114077443D01*
X86364428Y-114024552D01*
X86369932Y-114021772D01*
X86369934Y-114021771D01*
X86534480Y-113938653D01*
X86534482Y-113938652D01*
X86539981Y-113935874D01*
X86694966Y-113814786D01*
X86698992Y-113810122D01*
X86698995Y-113810119D01*
X86819451Y-113670569D01*
X86819452Y-113670567D01*
X86823480Y-113665901D01*
X86920628Y-113494890D01*
X86982710Y-113308266D01*
X87007360Y-113113138D01*
X87007753Y-113085000D01*
X86988561Y-112889260D01*
X86931714Y-112700975D01*
X86881136Y-112605851D01*
X86842273Y-112532760D01*
X86842271Y-112532757D01*
X86839379Y-112527318D01*
X86835489Y-112522548D01*
X86835486Y-112522544D01*
X86718967Y-112379678D01*
X86718964Y-112379675D01*
X86715072Y-112374903D01*
X86681696Y-112347292D01*
X86568278Y-112253464D01*
X86568274Y-112253462D01*
X86563528Y-112249535D01*
X86390520Y-112155990D01*
X86202637Y-112097830D01*
X86196519Y-112097187D01*
X86196514Y-112097186D01*
X86013164Y-112077916D01*
X86013162Y-112077916D01*
X86007035Y-112077272D01*
X85924199Y-112084810D01*
X85817305Y-112094538D01*
X85817302Y-112094539D01*
X85811166Y-112095097D01*
X85622489Y-112150628D01*
X85553568Y-112186659D01*
X85551592Y-112187692D01*
X85481957Y-112201526D01*
X85415896Y-112175516D01*
X85404122Y-112165125D01*
X84848005Y-111609008D01*
X84813979Y-111546696D01*
X84811100Y-111519913D01*
X84811100Y-110933983D01*
X84831102Y-110865862D01*
X84884758Y-110819369D01*
X84955032Y-110809265D01*
X85019612Y-110838759D01*
X85058219Y-110899253D01*
X85060987Y-110908905D01*
X85063015Y-110915979D01*
X85065830Y-110921456D01*
X85065831Y-110921459D01*
X85150101Y-111085431D01*
X85152916Y-111090908D01*
X85156739Y-111095732D01*
X85156742Y-111095736D01*
X85240795Y-111201783D01*
X85275083Y-111245044D01*
X85279777Y-111249038D01*
X85279777Y-111249039D01*
X85410169Y-111360011D01*
X85424862Y-111372516D01*
X85430240Y-111375522D01*
X85430242Y-111375523D01*
X85459868Y-111392080D01*
X85596547Y-111468467D01*
X85783600Y-111529244D01*
X85978895Y-111552532D01*
X85985030Y-111552060D01*
X85985032Y-111552060D01*
X86168852Y-111537916D01*
X86168856Y-111537915D01*
X86174994Y-111537443D01*
X86364428Y-111484552D01*
X86369932Y-111481772D01*
X86369934Y-111481771D01*
X86534480Y-111398653D01*
X86534482Y-111398652D01*
X86539981Y-111395874D01*
X86694966Y-111274786D01*
X86698992Y-111270122D01*
X86698995Y-111270119D01*
X86819451Y-111130569D01*
X86819452Y-111130567D01*
X86823480Y-111125901D01*
X86920628Y-110954890D01*
X86982710Y-110768266D01*
X86988733Y-110720587D01*
X86992685Y-110689308D01*
X87021067Y-110624231D01*
X87080127Y-110584830D01*
X87117691Y-110579100D01*
X96786900Y-110579100D01*
X96855021Y-110599102D01*
X96901514Y-110652758D01*
X96912900Y-110705100D01*
X96912900Y-111356718D01*
X96912727Y-111363312D01*
X96910666Y-111402639D01*
X96918103Y-111422014D01*
X96923715Y-111440962D01*
X96928031Y-111461265D01*
X96935813Y-111471976D01*
X96937954Y-111476784D01*
X96940823Y-111481201D01*
X96945568Y-111493564D01*
X96960239Y-111508235D01*
X96973080Y-111523269D01*
X96985278Y-111540058D01*
X96996745Y-111546678D01*
X97006588Y-111555541D01*
X97006296Y-111555866D01*
X97013060Y-111561056D01*
X97344660Y-111892656D01*
X97378686Y-111954968D01*
X97380013Y-112001463D01*
X97379579Y-112004203D01*
X97379579Y-112004207D01*
X97378028Y-112014000D01*
X97398191Y-112141306D01*
X97456708Y-112256151D01*
X97547849Y-112347292D01*
X97662694Y-112405809D01*
X97672487Y-112407360D01*
X97776937Y-112423903D01*
X97790000Y-112425972D01*
X97803064Y-112423903D01*
X97907513Y-112407360D01*
X97917306Y-112405809D01*
X98032151Y-112347292D01*
X98123292Y-112256151D01*
X98181809Y-112141306D01*
X98201972Y-112014000D01*
X98181809Y-111886694D01*
X98123292Y-111771849D01*
X98032151Y-111680708D01*
X97917306Y-111622191D01*
X97790000Y-111602028D01*
X97780208Y-111603579D01*
X97780206Y-111603579D01*
X97777466Y-111604013D01*
X97774107Y-111603579D01*
X97770289Y-111603579D01*
X97770289Y-111603086D01*
X97707055Y-111594916D01*
X97668656Y-111568660D01*
X97540959Y-111440962D01*
X97408004Y-111308007D01*
X97376149Y-111249669D01*
X98582001Y-111249669D01*
X98582371Y-111256490D01*
X98587895Y-111307352D01*
X98591521Y-111322604D01*
X98636676Y-111443054D01*
X98645214Y-111458649D01*
X98721715Y-111560724D01*
X98734276Y-111573285D01*
X98836351Y-111649786D01*
X98851946Y-111658324D01*
X98972394Y-111703478D01*
X98987649Y-111707105D01*
X99038514Y-111712631D01*
X99045328Y-111713000D01*
X99376885Y-111713000D01*
X99392124Y-111708525D01*
X99393329Y-111707135D01*
X99395000Y-111699452D01*
X99395000Y-111694884D01*
X99805000Y-111694884D01*
X99809475Y-111710123D01*
X99810865Y-111711328D01*
X99818548Y-111712999D01*
X100154669Y-111712999D01*
X100161490Y-111712629D01*
X100212352Y-111707105D01*
X100227604Y-111703479D01*
X100348054Y-111658324D01*
X100363649Y-111649786D01*
X100465724Y-111573285D01*
X100478285Y-111560724D01*
X100554786Y-111458649D01*
X100563324Y-111443054D01*
X100608478Y-111322606D01*
X100612105Y-111307351D01*
X100617631Y-111256486D01*
X100618000Y-111249672D01*
X100618000Y-111223115D01*
X100613525Y-111207876D01*
X100612135Y-111206671D01*
X100604452Y-111205000D01*
X99823115Y-111205000D01*
X99807876Y-111209475D01*
X99806671Y-111210865D01*
X99805000Y-111218548D01*
X99805000Y-111694884D01*
X99395000Y-111694884D01*
X99395000Y-111223115D01*
X99390525Y-111207876D01*
X99389135Y-111206671D01*
X99381452Y-111205000D01*
X98600116Y-111205000D01*
X98584877Y-111209475D01*
X98583672Y-111210865D01*
X98582001Y-111218548D01*
X98582001Y-111249669D01*
X97376149Y-111249669D01*
X97373979Y-111245695D01*
X97371100Y-111218912D01*
X97371100Y-110705100D01*
X97391102Y-110636979D01*
X97444758Y-110590486D01*
X97497100Y-110579100D01*
X98459801Y-110579100D01*
X98527922Y-110599102D01*
X98574415Y-110652758D01*
X98585064Y-110718709D01*
X98582369Y-110743517D01*
X98582000Y-110750328D01*
X98582000Y-110776885D01*
X98586475Y-110792124D01*
X98587865Y-110793329D01*
X98595548Y-110795000D01*
X100599884Y-110795000D01*
X100615123Y-110790525D01*
X100616328Y-110789135D01*
X100617999Y-110781452D01*
X100617999Y-110750331D01*
X100617629Y-110743510D01*
X100612105Y-110692648D01*
X100608479Y-110677396D01*
X100563324Y-110556946D01*
X100554786Y-110541351D01*
X100478285Y-110439276D01*
X100465724Y-110426715D01*
X100363644Y-110350210D01*
X100348060Y-110341678D01*
X100344666Y-110340406D01*
X100341792Y-110338247D01*
X100340183Y-110337366D01*
X100340310Y-110337134D01*
X100287903Y-110297763D01*
X100263205Y-110231200D01*
X100262899Y-110222425D01*
X100262899Y-110129944D01*
X100254028Y-110085342D01*
X100247133Y-110075023D01*
X100246385Y-110073217D01*
X100238796Y-110002627D01*
X100246386Y-109976780D01*
X100247133Y-109974978D01*
X100254028Y-109964658D01*
X100262900Y-109920057D01*
X100262899Y-109479944D01*
X100260480Y-109467782D01*
X100266806Y-109397069D01*
X100310360Y-109341001D01*
X100384058Y-109317200D01*
X101013132Y-109317200D01*
X101081253Y-109337202D01*
X101102227Y-109354105D01*
X102909672Y-111161550D01*
X102925343Y-111180644D01*
X102933359Y-111192641D01*
X102943674Y-111199533D01*
X103001025Y-111237853D01*
X103021744Y-111251697D01*
X103099682Y-111267200D01*
X103099683Y-111267200D01*
X103126000Y-111272435D01*
X103140148Y-111269621D01*
X103164728Y-111267200D01*
X103682966Y-111267200D01*
X103751087Y-111287202D01*
X103772063Y-111304106D01*
X103772869Y-111304913D01*
X103779766Y-111315234D01*
X103790085Y-111322129D01*
X103790086Y-111322130D01*
X103820025Y-111342135D01*
X103820028Y-111342136D01*
X103830342Y-111349028D01*
X103842509Y-111351448D01*
X103842511Y-111351449D01*
X103860743Y-111355075D01*
X103874943Y-111357900D01*
X104006800Y-111357900D01*
X104074921Y-111377902D01*
X104121414Y-111431558D01*
X104132800Y-111483900D01*
X104132800Y-117317132D01*
X104112798Y-117385253D01*
X104095895Y-117406227D01*
X102991927Y-118510195D01*
X102929615Y-118544221D01*
X102902832Y-118547100D01*
X102344682Y-118547100D01*
X102276561Y-118527098D01*
X102230068Y-118473442D01*
X102219964Y-118403168D01*
X102223685Y-118385946D01*
X102242439Y-118321395D01*
X102242399Y-118307294D01*
X102235130Y-118304000D01*
X101277115Y-118304000D01*
X101261876Y-118308475D01*
X101260671Y-118309865D01*
X101259000Y-118317548D01*
X101259000Y-118839884D01*
X101263475Y-118855123D01*
X101264865Y-118856328D01*
X101272548Y-118857999D01*
X101656484Y-118857999D01*
X101661420Y-118857805D01*
X101689836Y-118855570D01*
X101702431Y-118853270D01*
X101828446Y-118816658D01*
X101899443Y-118816860D01*
X101959059Y-118855414D01*
X101988368Y-118920079D01*
X101989600Y-118937655D01*
X101989600Y-119195004D01*
X101990039Y-119198691D01*
X101990039Y-119198696D01*
X101991625Y-119212026D01*
X101992742Y-119221412D01*
X102038548Y-119324536D01*
X102118407Y-119404256D01*
X102129045Y-119408959D01*
X102202785Y-119441559D01*
X102257001Y-119487398D01*
X102277829Y-119555270D01*
X102258655Y-119623629D01*
X102205568Y-119670770D01*
X102151838Y-119682800D01*
X101949565Y-119682800D01*
X101881444Y-119662798D01*
X101849111Y-119631450D01*
X101846452Y-119625464D01*
X101766593Y-119545744D01*
X101663389Y-119500118D01*
X101646680Y-119498170D01*
X101641143Y-119497524D01*
X101641138Y-119497524D01*
X101637504Y-119497100D01*
X100372496Y-119497100D01*
X100368809Y-119497539D01*
X100368804Y-119497539D01*
X100355474Y-119499125D01*
X100355472Y-119499125D01*
X100346088Y-119500242D01*
X100242964Y-119546048D01*
X100163244Y-119625907D01*
X100117618Y-119729111D01*
X100114600Y-119754996D01*
X100114600Y-120145004D01*
X100115039Y-120148691D01*
X100115039Y-120148696D01*
X100116625Y-120162026D01*
X100117742Y-120171412D01*
X100163548Y-120274536D01*
X100164455Y-120275442D01*
X100184459Y-120336521D01*
X100166571Y-120405227D01*
X100147614Y-120429508D01*
X97838450Y-122738672D01*
X97819355Y-122754343D01*
X97807359Y-122762359D01*
X97792451Y-122784671D01*
X97748303Y-122850743D01*
X97727564Y-122955000D01*
X97729985Y-122967169D01*
X97730379Y-122969150D01*
X97732800Y-122993733D01*
X97732800Y-129021102D01*
X97712798Y-129089223D01*
X97659142Y-129135716D01*
X97606800Y-129147102D01*
X96502400Y-129147102D01*
X96499005Y-129147471D01*
X96499000Y-129147471D01*
X96448757Y-129152928D01*
X96448753Y-129152929D01*
X96440899Y-129153782D01*
X96306012Y-129204348D01*
X96190740Y-129290741D01*
X96185361Y-129297918D01*
X96169222Y-129319452D01*
X96104347Y-129406013D01*
X96101197Y-129414417D01*
X96101196Y-129414418D01*
X96058714Y-129527742D01*
X96053781Y-129540900D01*
X96047100Y-129602400D01*
X96047101Y-130397599D01*
X96047470Y-130400994D01*
X96047470Y-130400999D01*
X96052287Y-130445342D01*
X96053781Y-130459100D01*
X96070988Y-130505000D01*
X96098601Y-130578658D01*
X96104347Y-130593987D01*
X96190740Y-130709259D01*
X96306012Y-130795652D01*
X96314416Y-130798802D01*
X96314417Y-130798803D01*
X96433504Y-130843446D01*
X96433506Y-130843446D01*
X96440899Y-130846218D01*
X96448747Y-130847071D01*
X96448749Y-130847071D01*
X96498993Y-130852529D01*
X96502399Y-130852899D01*
X97999780Y-130852899D01*
X99497600Y-130852898D01*
X99500995Y-130852529D01*
X99501000Y-130852529D01*
X99551243Y-130847072D01*
X99551247Y-130847071D01*
X99559101Y-130846218D01*
X99663151Y-130807212D01*
X99685583Y-130798803D01*
X99685584Y-130798802D01*
X99693988Y-130795652D01*
X99809260Y-130709259D01*
X99895653Y-130593987D01*
X99898804Y-130585582D01*
X99943447Y-130466495D01*
X99943447Y-130466493D01*
X99946219Y-130459100D01*
X99950243Y-130422062D01*
X101692000Y-130422062D01*
X101692146Y-130426357D01*
X101694548Y-130461582D01*
X101696272Y-130472528D01*
X101738374Y-130641391D01*
X101743058Y-130654123D01*
X101819881Y-130808881D01*
X101827188Y-130820307D01*
X101935454Y-130954963D01*
X101945037Y-130964546D01*
X102079693Y-131072812D01*
X102091119Y-131080119D01*
X102245877Y-131156942D01*
X102258609Y-131161626D01*
X102427472Y-131203728D01*
X102438418Y-131205452D01*
X102473643Y-131207854D01*
X102477938Y-131208000D01*
X103727885Y-131208000D01*
X103743124Y-131203525D01*
X103744329Y-131202135D01*
X103746000Y-131194452D01*
X103746000Y-131189885D01*
X104254000Y-131189885D01*
X104258475Y-131205124D01*
X104259865Y-131206329D01*
X104267548Y-131208000D01*
X105522062Y-131208000D01*
X105526357Y-131207854D01*
X105561582Y-131205452D01*
X105572528Y-131203728D01*
X105741391Y-131161626D01*
X105754123Y-131156942D01*
X105908881Y-131080119D01*
X105920307Y-131072812D01*
X106054963Y-130964546D01*
X106064546Y-130954963D01*
X106172812Y-130820307D01*
X106180119Y-130808881D01*
X106256942Y-130654123D01*
X106261626Y-130641391D01*
X106303728Y-130472528D01*
X106305452Y-130461582D01*
X106307854Y-130426357D01*
X106308000Y-130422062D01*
X106308000Y-130272115D01*
X106307508Y-130270438D01*
X116792000Y-130270438D01*
X116792337Y-130276953D01*
X116801894Y-130369057D01*
X116804788Y-130382456D01*
X116854381Y-130531107D01*
X116860555Y-130544286D01*
X116942788Y-130677173D01*
X116951824Y-130688574D01*
X117062429Y-130798986D01*
X117073840Y-130807998D01*
X117206880Y-130890004D01*
X117220061Y-130896151D01*
X117368814Y-130945491D01*
X117382190Y-130948358D01*
X117473097Y-130957672D01*
X117479513Y-130958000D01*
X117502885Y-130958000D01*
X117518124Y-130953525D01*
X117519329Y-130952135D01*
X117521000Y-130944452D01*
X117521000Y-130272115D01*
X117516525Y-130256876D01*
X117515135Y-130255671D01*
X117507452Y-130254000D01*
X116810115Y-130254000D01*
X116794876Y-130258475D01*
X116793671Y-130259865D01*
X116792000Y-130267548D01*
X116792000Y-130270438D01*
X106307508Y-130270438D01*
X106303525Y-130256876D01*
X106302135Y-130255671D01*
X106294452Y-130254000D01*
X104272115Y-130254000D01*
X104256876Y-130258475D01*
X104255671Y-130259865D01*
X104254000Y-130267548D01*
X104254000Y-131189885D01*
X103746000Y-131189885D01*
X103746000Y-130272115D01*
X103741525Y-130256876D01*
X103740135Y-130255671D01*
X103732452Y-130254000D01*
X101710115Y-130254000D01*
X101694876Y-130258475D01*
X101693671Y-130259865D01*
X101692000Y-130267548D01*
X101692000Y-130422062D01*
X99950243Y-130422062D01*
X99952900Y-130397600D01*
X99952899Y-129727885D01*
X101692000Y-129727885D01*
X101696475Y-129743124D01*
X101697865Y-129744329D01*
X101705548Y-129746000D01*
X103727885Y-129746000D01*
X103743124Y-129741525D01*
X103744329Y-129740135D01*
X103746000Y-129732452D01*
X103746000Y-129727885D01*
X104254000Y-129727885D01*
X104258475Y-129743124D01*
X104259865Y-129744329D01*
X104267548Y-129746000D01*
X106289885Y-129746000D01*
X106305124Y-129741525D01*
X106306329Y-129740135D01*
X106308000Y-129732452D01*
X106308000Y-129577939D01*
X106307854Y-129573643D01*
X106305452Y-129538418D01*
X106303728Y-129527472D01*
X106261626Y-129358609D01*
X106256942Y-129345877D01*
X106180119Y-129191119D01*
X106172812Y-129179693D01*
X106064546Y-129045037D01*
X106054963Y-129035454D01*
X105920307Y-128927188D01*
X105908881Y-128919881D01*
X105754123Y-128843058D01*
X105741391Y-128838374D01*
X105572528Y-128796272D01*
X105561582Y-128794548D01*
X105526357Y-128792146D01*
X105522061Y-128792000D01*
X104272115Y-128792000D01*
X104256876Y-128796475D01*
X104255671Y-128797865D01*
X104254000Y-128805548D01*
X104254000Y-129727885D01*
X103746000Y-129727885D01*
X103746000Y-128810115D01*
X103741525Y-128794876D01*
X103740135Y-128793671D01*
X103732452Y-128792000D01*
X102477939Y-128792000D01*
X102473643Y-128792146D01*
X102438418Y-128794548D01*
X102427472Y-128796272D01*
X102258609Y-128838374D01*
X102245877Y-128843058D01*
X102091119Y-128919881D01*
X102079693Y-128927188D01*
X101945037Y-129035454D01*
X101935454Y-129045037D01*
X101827188Y-129179693D01*
X101819881Y-129191119D01*
X101743058Y-129345877D01*
X101738374Y-129358609D01*
X101696272Y-129527472D01*
X101694548Y-129538418D01*
X101692146Y-129573643D01*
X101692000Y-129577939D01*
X101692000Y-129727885D01*
X99952899Y-129727885D01*
X99952899Y-129602401D01*
X99949972Y-129575453D01*
X99947073Y-129548758D01*
X99947072Y-129548754D01*
X99946219Y-129540900D01*
X99895653Y-129406013D01*
X99830778Y-129319452D01*
X99814639Y-129297918D01*
X99809260Y-129290741D01*
X99693988Y-129204348D01*
X99664477Y-129193285D01*
X99566496Y-129156554D01*
X99566494Y-129156554D01*
X99559101Y-129153782D01*
X99551253Y-129152929D01*
X99551251Y-129152929D01*
X99500998Y-129147470D01*
X99500997Y-129147470D01*
X99497601Y-129147101D01*
X98393200Y-129147101D01*
X98325079Y-129127099D01*
X98278586Y-129073443D01*
X98267200Y-129021101D01*
X98267200Y-123117868D01*
X98287202Y-123049747D01*
X98304105Y-123028773D01*
X100893073Y-120439805D01*
X100955385Y-120405779D01*
X100982168Y-120402900D01*
X101637504Y-120402900D01*
X101641191Y-120402461D01*
X101641196Y-120402461D01*
X101654526Y-120400875D01*
X101654528Y-120400875D01*
X101663912Y-120399758D01*
X101691845Y-120387351D01*
X101756401Y-120358676D01*
X101767036Y-120353952D01*
X101784437Y-120336521D01*
X101838537Y-120282327D01*
X101838538Y-120282325D01*
X101846756Y-120274093D01*
X101848849Y-120269360D01*
X101900586Y-120227108D01*
X101949562Y-120217200D01*
X105817267Y-120217200D01*
X105841847Y-120219621D01*
X105856000Y-120222436D01*
X105868171Y-120220015D01*
X105948088Y-120204118D01*
X105948089Y-120204117D01*
X105960257Y-120201697D01*
X105970575Y-120194803D01*
X106026328Y-120157550D01*
X106026329Y-120157549D01*
X106038326Y-120149533D01*
X106048641Y-120142641D01*
X106056657Y-120130644D01*
X106072328Y-120111550D01*
X108622905Y-117560973D01*
X108685217Y-117526947D01*
X108756032Y-117532012D01*
X108801095Y-117560973D01*
X117470895Y-126230773D01*
X117504921Y-126293085D01*
X117507800Y-126319868D01*
X117507800Y-127737962D01*
X117487798Y-127806083D01*
X117434142Y-127852576D01*
X117422952Y-127856850D01*
X117414905Y-127858034D01*
X117373946Y-127878144D01*
X117311322Y-127908891D01*
X117311321Y-127908892D01*
X117301974Y-127913481D01*
X117294616Y-127920851D01*
X117294617Y-127920851D01*
X117221325Y-127994271D01*
X117213092Y-128002518D01*
X117157843Y-128115546D01*
X117147100Y-128189185D01*
X117147101Y-128710814D01*
X117158034Y-128785095D01*
X117181982Y-128833870D01*
X117206918Y-128884658D01*
X117213481Y-128898026D01*
X117229226Y-128913743D01*
X117263306Y-128976024D01*
X117258304Y-129046844D01*
X117215808Y-129103718D01*
X117206512Y-129110061D01*
X117072827Y-129192788D01*
X117061426Y-129201824D01*
X116951014Y-129312429D01*
X116942002Y-129323840D01*
X116859996Y-129456880D01*
X116853849Y-129470061D01*
X116804509Y-129618814D01*
X116801642Y-129632190D01*
X116792328Y-129723097D01*
X116792071Y-129728126D01*
X116796475Y-129743124D01*
X116797865Y-129744329D01*
X116805548Y-129746000D01*
X117903000Y-129746000D01*
X117971121Y-129766002D01*
X118017614Y-129819658D01*
X118029000Y-129872000D01*
X118029000Y-130939885D01*
X118033475Y-130955124D01*
X118034865Y-130956329D01*
X118042548Y-130958000D01*
X118070438Y-130958000D01*
X118076953Y-130957663D01*
X118169057Y-130948106D01*
X118182456Y-130945212D01*
X118331107Y-130895619D01*
X118344286Y-130889445D01*
X118477173Y-130807212D01*
X118488574Y-130798176D01*
X118598986Y-130687571D01*
X118607998Y-130676160D01*
X118690004Y-130543120D01*
X118696151Y-130529939D01*
X118745491Y-130381186D01*
X118748358Y-130367810D01*
X118757672Y-130276903D01*
X118758000Y-130270487D01*
X118758000Y-130115068D01*
X118778002Y-130046947D01*
X118831658Y-130000454D01*
X118901932Y-129990350D01*
X118966512Y-130019844D01*
X118973095Y-130025973D01*
X119138672Y-130191550D01*
X119154343Y-130210644D01*
X119162359Y-130222641D01*
X119172674Y-130229533D01*
X119236028Y-130271864D01*
X119250744Y-130281697D01*
X119328682Y-130297200D01*
X119328683Y-130297200D01*
X119355000Y-130302435D01*
X119369148Y-130299621D01*
X119393728Y-130297200D01*
X122088921Y-130297200D01*
X122157042Y-130317202D01*
X122203535Y-130370858D01*
X122214184Y-130436809D01*
X122212369Y-130453517D01*
X122212000Y-130460328D01*
X122212000Y-130486885D01*
X122216475Y-130502124D01*
X122217865Y-130503329D01*
X122225548Y-130505000D01*
X123019000Y-130505000D01*
X123087121Y-130525002D01*
X123133614Y-130578658D01*
X123145000Y-130631000D01*
X123145000Y-130876100D01*
X123124998Y-130944221D01*
X123071342Y-130990714D01*
X123019001Y-131002100D01*
X122970001Y-131002100D01*
X122921000Y-131002101D01*
X122852880Y-130982100D01*
X122806387Y-130928444D01*
X122795000Y-130876101D01*
X122795000Y-130873115D01*
X122790525Y-130857876D01*
X122789135Y-130856671D01*
X122781452Y-130855000D01*
X122230116Y-130855000D01*
X122214877Y-130859475D01*
X122213672Y-130860865D01*
X122212001Y-130868548D01*
X122212001Y-130899669D01*
X122212371Y-130906490D01*
X122217895Y-130957352D01*
X122221521Y-130972604D01*
X122266676Y-131093054D01*
X122275214Y-131108649D01*
X122351715Y-131210724D01*
X122364275Y-131223284D01*
X122372133Y-131229173D01*
X122414648Y-131286031D01*
X122419675Y-131356850D01*
X122385616Y-131419144D01*
X122372133Y-131430827D01*
X122364275Y-131436716D01*
X122351715Y-131449276D01*
X122275214Y-131551351D01*
X122266676Y-131566946D01*
X122221522Y-131687394D01*
X122217895Y-131702649D01*
X122212369Y-131753514D01*
X122212000Y-131760328D01*
X122212000Y-131786885D01*
X122216475Y-131802124D01*
X122217865Y-131803329D01*
X122225548Y-131805000D01*
X122776885Y-131805000D01*
X122792124Y-131800525D01*
X122793329Y-131799135D01*
X122795000Y-131791452D01*
X122795000Y-131783900D01*
X122815002Y-131715779D01*
X122868658Y-131669286D01*
X122920999Y-131657900D01*
X122969999Y-131657900D01*
X123019000Y-131657899D01*
X123087120Y-131677900D01*
X123133613Y-131731556D01*
X123145000Y-131783899D01*
X123145000Y-131786885D01*
X123149475Y-131802124D01*
X123150865Y-131803329D01*
X123158548Y-131805000D01*
X123709884Y-131805000D01*
X123725123Y-131800525D01*
X123726328Y-131799135D01*
X123727999Y-131791452D01*
X123727999Y-131760331D01*
X123727629Y-131753510D01*
X123722105Y-131702648D01*
X123718479Y-131687397D01*
X123674427Y-131569889D01*
X123669244Y-131499082D01*
X123703314Y-131436564D01*
X124155773Y-130984105D01*
X124218085Y-130950079D01*
X124244868Y-130947200D01*
X124501908Y-130947200D01*
X124570029Y-130967202D01*
X124616522Y-131020858D01*
X124625487Y-131097781D01*
X124617100Y-131139943D01*
X124617101Y-131520056D01*
X124625972Y-131564658D01*
X124639564Y-131584999D01*
X124660778Y-131652750D01*
X124639564Y-131725001D01*
X124625972Y-131745342D01*
X124617100Y-131789943D01*
X124617101Y-132170056D01*
X124618309Y-132176128D01*
X124622991Y-132199669D01*
X124625972Y-132214658D01*
X124659766Y-132265234D01*
X124670082Y-132272127D01*
X124700025Y-132292135D01*
X124700028Y-132292136D01*
X124710342Y-132299028D01*
X124722509Y-132301448D01*
X124722511Y-132301449D01*
X124740743Y-132305075D01*
X124754943Y-132307900D01*
X125019957Y-132307900D01*
X125285056Y-132307899D01*
X125301710Y-132304587D01*
X125317483Y-132301450D01*
X125317485Y-132301449D01*
X125329658Y-132299028D01*
X125335031Y-132295438D01*
X141492000Y-132295438D01*
X141492337Y-132301953D01*
X141501894Y-132394057D01*
X141504788Y-132407456D01*
X141554381Y-132556107D01*
X141560555Y-132569286D01*
X141642788Y-132702173D01*
X141651824Y-132713574D01*
X141762429Y-132823986D01*
X141773840Y-132832998D01*
X141906880Y-132915004D01*
X141920061Y-132921151D01*
X142068814Y-132970491D01*
X142082190Y-132973358D01*
X142173097Y-132982672D01*
X142178126Y-132982929D01*
X142193124Y-132978525D01*
X142194329Y-132977135D01*
X142196000Y-132969452D01*
X142196000Y-132964885D01*
X142704000Y-132964885D01*
X142708475Y-132980124D01*
X142709865Y-132981329D01*
X142717548Y-132983000D01*
X142720438Y-132983000D01*
X142726953Y-132982663D01*
X142819057Y-132973106D01*
X142832456Y-132970212D01*
X142981107Y-132920619D01*
X142994286Y-132914445D01*
X143127173Y-132832212D01*
X143138574Y-132823176D01*
X143248986Y-132712571D01*
X143257998Y-132701160D01*
X143339761Y-132568515D01*
X143392533Y-132521022D01*
X143462605Y-132509598D01*
X143527728Y-132537872D01*
X143536038Y-132545457D01*
X143552518Y-132561908D01*
X143561874Y-132566481D01*
X143561875Y-132566482D01*
X143598486Y-132584378D01*
X143665546Y-132617157D01*
X143698918Y-132622026D01*
X143734659Y-132627240D01*
X143734663Y-132627240D01*
X143739185Y-132627900D01*
X143999005Y-132627900D01*
X144260814Y-132627899D01*
X144335095Y-132616966D01*
X144432207Y-132569286D01*
X144438678Y-132566109D01*
X144438679Y-132566108D01*
X144448026Y-132561519D01*
X144536908Y-132472482D01*
X144592157Y-132359454D01*
X144599854Y-132306693D01*
X144602240Y-132290341D01*
X144602240Y-132290337D01*
X144602900Y-132285815D01*
X144602899Y-131714186D01*
X144591966Y-131639905D01*
X144560087Y-131574976D01*
X144541109Y-131536322D01*
X144541108Y-131536321D01*
X144536519Y-131526974D01*
X144516083Y-131506573D01*
X144482003Y-131444292D01*
X144479100Y-131417400D01*
X144479100Y-129103900D01*
X144499102Y-129035779D01*
X144552758Y-128989286D01*
X144605100Y-128977900D01*
X144837508Y-128977899D01*
X144915056Y-128977899D01*
X144959658Y-128969028D01*
X144960024Y-128968784D01*
X145022370Y-128962080D01*
X145035882Y-128966048D01*
X145040342Y-128969028D01*
X145084943Y-128977900D01*
X145249973Y-128977900D01*
X145415056Y-128977899D01*
X145459658Y-128969028D01*
X145460024Y-128968784D01*
X145522370Y-128962080D01*
X145535882Y-128966048D01*
X145540342Y-128969028D01*
X145584943Y-128977900D01*
X145749973Y-128977900D01*
X145915056Y-128977899D01*
X145959658Y-128969028D01*
X145960024Y-128968784D01*
X146022370Y-128962080D01*
X146035882Y-128966048D01*
X146040342Y-128969028D01*
X146084943Y-128977900D01*
X146249973Y-128977900D01*
X146415056Y-128977899D01*
X146459658Y-128969028D01*
X146460024Y-128968784D01*
X146522370Y-128962080D01*
X146535882Y-128966048D01*
X146540342Y-128969028D01*
X146584943Y-128977900D01*
X146749973Y-128977900D01*
X146915056Y-128977899D01*
X146959658Y-128969028D01*
X146960024Y-128968784D01*
X147022370Y-128962080D01*
X147035882Y-128966048D01*
X147040342Y-128969028D01*
X147084943Y-128977900D01*
X147249973Y-128977900D01*
X147415056Y-128977899D01*
X147431710Y-128974587D01*
X147447483Y-128971450D01*
X147447485Y-128971449D01*
X147459658Y-128969028D01*
X147470057Y-128962080D01*
X147499918Y-128942127D01*
X147510234Y-128935234D01*
X147535096Y-128898026D01*
X147537135Y-128894975D01*
X147537136Y-128894972D01*
X147544028Y-128884658D01*
X147552900Y-128840057D01*
X147552899Y-128284944D01*
X147544028Y-128240342D01*
X147534023Y-128225369D01*
X147512808Y-128157618D01*
X147531590Y-128089151D01*
X147584599Y-128044040D01*
X147584658Y-128044028D01*
X147618971Y-128021101D01*
X147624918Y-128017127D01*
X147635234Y-128010234D01*
X147645315Y-127995147D01*
X147662135Y-127969975D01*
X147662136Y-127969972D01*
X147669028Y-127959658D01*
X147671448Y-127947490D01*
X147676199Y-127936021D01*
X147678329Y-127936903D01*
X147703528Y-127888723D01*
X147749977Y-127858226D01*
X147763055Y-127853324D01*
X147778649Y-127844786D01*
X147880724Y-127768285D01*
X147893285Y-127755724D01*
X147969786Y-127653649D01*
X147978324Y-127638054D01*
X148023478Y-127517606D01*
X148027105Y-127502351D01*
X148032631Y-127451486D01*
X148033000Y-127444672D01*
X148033000Y-127418115D01*
X148028525Y-127402876D01*
X148027135Y-127401671D01*
X148019452Y-127400000D01*
X147480615Y-127400000D01*
X147464281Y-127404796D01*
X147406395Y-127441996D01*
X147370899Y-127447100D01*
X147313810Y-127447100D01*
X147256059Y-127447101D01*
X147187939Y-127427100D01*
X147173546Y-127416325D01*
X147156635Y-127401671D01*
X147148952Y-127400000D01*
X146592001Y-127400000D01*
X146592001Y-127399394D01*
X146541189Y-127399395D01*
X146487589Y-127367593D01*
X146241340Y-127121344D01*
X146219793Y-127081885D01*
X146592000Y-127081885D01*
X146596475Y-127097124D01*
X146597865Y-127098329D01*
X146605548Y-127100000D01*
X147144385Y-127100000D01*
X147159624Y-127095525D01*
X147160829Y-127094135D01*
X147162500Y-127086452D01*
X147162500Y-127081885D01*
X147462500Y-127081885D01*
X147466975Y-127097124D01*
X147468365Y-127098329D01*
X147476048Y-127100000D01*
X148014884Y-127100000D01*
X148030123Y-127095525D01*
X148031328Y-127094135D01*
X148032999Y-127086452D01*
X148032999Y-127055331D01*
X148032630Y-127048523D01*
X148028838Y-127013603D01*
X148028839Y-126986393D01*
X148032631Y-126951488D01*
X148033000Y-126944671D01*
X148033000Y-126918115D01*
X148028525Y-126902876D01*
X148027135Y-126901671D01*
X148019452Y-126900000D01*
X147480615Y-126900000D01*
X147465376Y-126904475D01*
X147464171Y-126905865D01*
X147462500Y-126913548D01*
X147462500Y-127081885D01*
X147162500Y-127081885D01*
X147162500Y-126918115D01*
X147158025Y-126902876D01*
X147156635Y-126901671D01*
X147148952Y-126900000D01*
X146610116Y-126900000D01*
X146594877Y-126904475D01*
X146593672Y-126905865D01*
X146592001Y-126913548D01*
X146592001Y-126944669D01*
X146592371Y-126951493D01*
X146596161Y-126986393D01*
X146596161Y-127013603D01*
X146592369Y-127048510D01*
X146592000Y-127055329D01*
X146592000Y-127081885D01*
X146219793Y-127081885D01*
X146207314Y-127059032D01*
X146205987Y-127012537D01*
X146206421Y-127009797D01*
X146206421Y-127009792D01*
X146207972Y-127000000D01*
X146187809Y-126872694D01*
X146129292Y-126757849D01*
X146038151Y-126666708D01*
X145923306Y-126608191D01*
X145796000Y-126588028D01*
X145668694Y-126608191D01*
X145553849Y-126666708D01*
X145462708Y-126757849D01*
X145404191Y-126872694D01*
X145384028Y-127000000D01*
X145404191Y-127127306D01*
X145462708Y-127242151D01*
X145553849Y-127333292D01*
X145668694Y-127391809D01*
X145796000Y-127411972D01*
X145805792Y-127410421D01*
X145805794Y-127410421D01*
X145808534Y-127409987D01*
X145811893Y-127410421D01*
X145815711Y-127410421D01*
X145815711Y-127410914D01*
X145878945Y-127419084D01*
X145917344Y-127445340D01*
X146404008Y-127932005D01*
X146438033Y-127994317D01*
X146432968Y-128065133D01*
X146390421Y-128121968D01*
X146323901Y-128146779D01*
X146314913Y-128147100D01*
X146104158Y-128147101D01*
X146084944Y-128147101D01*
X146040342Y-128155972D01*
X146039976Y-128156216D01*
X145977630Y-128162920D01*
X145964118Y-128158952D01*
X145959658Y-128155972D01*
X145915057Y-128147100D01*
X145837526Y-128147100D01*
X145605100Y-128147101D01*
X145536980Y-128127099D01*
X145490487Y-128073444D01*
X145479100Y-128021101D01*
X145479100Y-127987282D01*
X145479273Y-127980688D01*
X145480641Y-127954587D01*
X145480641Y-127954586D01*
X145481334Y-127941360D01*
X145473900Y-127921993D01*
X145468283Y-127903031D01*
X145466723Y-127895691D01*
X145466723Y-127895690D01*
X145463969Y-127882735D01*
X145456185Y-127872022D01*
X145454044Y-127867213D01*
X145451177Y-127862799D01*
X145446432Y-127850436D01*
X145431761Y-127835765D01*
X145418920Y-127820731D01*
X145414505Y-127814654D01*
X145414504Y-127814654D01*
X145406722Y-127803942D01*
X145395255Y-127797322D01*
X145385412Y-127788459D01*
X145385704Y-127788134D01*
X145378940Y-127782944D01*
X145225340Y-127629344D01*
X145191314Y-127567032D01*
X145189987Y-127520537D01*
X145190421Y-127517797D01*
X145190421Y-127517792D01*
X145191972Y-127508000D01*
X145187311Y-127478568D01*
X145173360Y-127390487D01*
X145171809Y-127380694D01*
X145113292Y-127265849D01*
X145022151Y-127174708D01*
X144907306Y-127116191D01*
X144780000Y-127096028D01*
X144652694Y-127116191D01*
X144537849Y-127174708D01*
X144446708Y-127265849D01*
X144388191Y-127380694D01*
X144386640Y-127390487D01*
X144372690Y-127478568D01*
X144368028Y-127508000D01*
X144388191Y-127635306D01*
X144446708Y-127750151D01*
X144537849Y-127841292D01*
X144652694Y-127899809D01*
X144662293Y-127901329D01*
X144720809Y-127941342D01*
X144748446Y-128006738D01*
X144736339Y-128076695D01*
X144688333Y-128129001D01*
X144623267Y-128147101D01*
X144584944Y-128147101D01*
X144540342Y-128155972D01*
X144539976Y-128156216D01*
X144477630Y-128162920D01*
X144464118Y-128158952D01*
X144459658Y-128155972D01*
X144415057Y-128147100D01*
X144250027Y-128147100D01*
X144084944Y-128147101D01*
X144040342Y-128155972D01*
X144039976Y-128156216D01*
X143977630Y-128162920D01*
X143964118Y-128158952D01*
X143959658Y-128155972D01*
X143915057Y-128147100D01*
X143750027Y-128147100D01*
X143584944Y-128147101D01*
X143549484Y-128154154D01*
X143478773Y-128147824D01*
X143422706Y-128104268D01*
X143399088Y-128037315D01*
X143401530Y-128010237D01*
X143401252Y-128010207D01*
X143407631Y-127951486D01*
X143408000Y-127944672D01*
X143408000Y-127918115D01*
X143403525Y-127902876D01*
X143402135Y-127901671D01*
X143394452Y-127900000D01*
X142918115Y-127900000D01*
X142902876Y-127904475D01*
X142901671Y-127905865D01*
X142900000Y-127913548D01*
X142900000Y-129314884D01*
X142904475Y-129330123D01*
X142905865Y-129331328D01*
X142913548Y-129332999D01*
X142944669Y-129332999D01*
X142951490Y-129332629D01*
X143002352Y-129327105D01*
X143017604Y-129323479D01*
X143138054Y-129278324D01*
X143153649Y-129269786D01*
X143255724Y-129193285D01*
X143268285Y-129180724D01*
X143344790Y-129078644D01*
X143353322Y-129063058D01*
X143358227Y-129049975D01*
X143400868Y-128993210D01*
X143436497Y-128977357D01*
X143436018Y-128976199D01*
X143447485Y-128971449D01*
X143459658Y-128969028D01*
X143460024Y-128968784D01*
X143522370Y-128962080D01*
X143535882Y-128966048D01*
X143540342Y-128969028D01*
X143584943Y-128977900D01*
X143662474Y-128977900D01*
X143894900Y-128977899D01*
X143963020Y-128997901D01*
X144009513Y-129051556D01*
X144020900Y-129103899D01*
X144020900Y-131246100D01*
X144000898Y-131314221D01*
X143947242Y-131360714D01*
X143894901Y-131372100D01*
X143749125Y-131372101D01*
X143739186Y-131372101D01*
X143664905Y-131383034D01*
X143609857Y-131410062D01*
X143561322Y-131433891D01*
X143561321Y-131433892D01*
X143551974Y-131438481D01*
X143536257Y-131454226D01*
X143473976Y-131488306D01*
X143403156Y-131483304D01*
X143346282Y-131440808D01*
X143339939Y-131431512D01*
X143257212Y-131297827D01*
X143248176Y-131286426D01*
X143137571Y-131176014D01*
X143126160Y-131167002D01*
X142993120Y-131084996D01*
X142979939Y-131078849D01*
X142831186Y-131029509D01*
X142817810Y-131026642D01*
X142726903Y-131017328D01*
X142721874Y-131017071D01*
X142706876Y-131021475D01*
X142705671Y-131022865D01*
X142704000Y-131030548D01*
X142704000Y-132964885D01*
X142196000Y-132964885D01*
X142196000Y-132272115D01*
X142191525Y-132256876D01*
X142190135Y-132255671D01*
X142182452Y-132254000D01*
X141510115Y-132254000D01*
X141494876Y-132258475D01*
X141493671Y-132259865D01*
X141492000Y-132267548D01*
X141492000Y-132295438D01*
X125335031Y-132295438D01*
X125356277Y-132281242D01*
X125369918Y-132272127D01*
X125380234Y-132265234D01*
X125387127Y-132254918D01*
X125395904Y-132246141D01*
X125399133Y-132249370D01*
X125434877Y-132219538D01*
X125485090Y-132209100D01*
X125566718Y-132209100D01*
X125573312Y-132209273D01*
X125599413Y-132210641D01*
X125599414Y-132210641D01*
X125612639Y-132211334D01*
X125632014Y-132203897D01*
X125650962Y-132198285D01*
X125658311Y-132196723D01*
X125658312Y-132196722D01*
X125671265Y-132193969D01*
X125681976Y-132186187D01*
X125686784Y-132184046D01*
X125691201Y-132181177D01*
X125703564Y-132176432D01*
X125718235Y-132161761D01*
X125733269Y-132148920D01*
X125739346Y-132144505D01*
X125739346Y-132144504D01*
X125750058Y-132136722D01*
X125756678Y-132125255D01*
X125765541Y-132115412D01*
X125765866Y-132115704D01*
X125771056Y-132108940D01*
X126152111Y-131727885D01*
X141492000Y-131727885D01*
X141496475Y-131743124D01*
X141497865Y-131744329D01*
X141505548Y-131746000D01*
X142177885Y-131746000D01*
X142193124Y-131741525D01*
X142194329Y-131740135D01*
X142196000Y-131732452D01*
X142196000Y-131035115D01*
X142191525Y-131019876D01*
X142190135Y-131018671D01*
X142182452Y-131017000D01*
X142179562Y-131017000D01*
X142173047Y-131017337D01*
X142080943Y-131026894D01*
X142067544Y-131029788D01*
X141918893Y-131079381D01*
X141905714Y-131085555D01*
X141772827Y-131167788D01*
X141761426Y-131176824D01*
X141651014Y-131287429D01*
X141642002Y-131298840D01*
X141559996Y-131431880D01*
X141553849Y-131445061D01*
X141504509Y-131593814D01*
X141501642Y-131607190D01*
X141492328Y-131698097D01*
X141492000Y-131704514D01*
X141492000Y-131727885D01*
X126152111Y-131727885D01*
X128171422Y-129708575D01*
X128176206Y-129704034D01*
X128178354Y-129702100D01*
X128205486Y-129677670D01*
X128213926Y-129658714D01*
X128223358Y-129641342D01*
X128227449Y-129635043D01*
X128227450Y-129635041D01*
X128234661Y-129623936D01*
X128236732Y-129610857D01*
X128238619Y-129605942D01*
X128239713Y-129600796D01*
X128245100Y-129588697D01*
X128245100Y-129567947D01*
X128246651Y-129548236D01*
X128247826Y-129540819D01*
X128247826Y-129540818D01*
X128249897Y-129527742D01*
X128246470Y-129514953D01*
X128245777Y-129501725D01*
X128246213Y-129501702D01*
X128245100Y-129493250D01*
X128245100Y-128869669D01*
X142092001Y-128869669D01*
X142092371Y-128876490D01*
X142097895Y-128927352D01*
X142101521Y-128942604D01*
X142146676Y-129063054D01*
X142155214Y-129078649D01*
X142231715Y-129180724D01*
X142244276Y-129193285D01*
X142346351Y-129269786D01*
X142361946Y-129278324D01*
X142482394Y-129323478D01*
X142497649Y-129327105D01*
X142548514Y-129332631D01*
X142555328Y-129333000D01*
X142581885Y-129333000D01*
X142597124Y-129328525D01*
X142598329Y-129327135D01*
X142600000Y-129319452D01*
X142600000Y-128730615D01*
X142595525Y-128715376D01*
X142594135Y-128714171D01*
X142586452Y-128712500D01*
X142110116Y-128712500D01*
X142094877Y-128716975D01*
X142093672Y-128718365D01*
X142092001Y-128726048D01*
X142092001Y-128869669D01*
X128245100Y-128869669D01*
X128245100Y-127944669D01*
X141967001Y-127944669D01*
X141967371Y-127951490D01*
X141972895Y-128002352D01*
X141976521Y-128017604D01*
X142021678Y-128138059D01*
X142030211Y-128153646D01*
X142066827Y-128202503D01*
X142091674Y-128269009D01*
X142092000Y-128278067D01*
X142092000Y-128394385D01*
X142096475Y-128409624D01*
X142097865Y-128410829D01*
X142105548Y-128412500D01*
X142519385Y-128412500D01*
X142534624Y-128408025D01*
X142535829Y-128406635D01*
X142537500Y-128398952D01*
X142537500Y-127918115D01*
X142533025Y-127902876D01*
X142531635Y-127901671D01*
X142523952Y-127900000D01*
X141985116Y-127900000D01*
X141969877Y-127904475D01*
X141968672Y-127905865D01*
X141967001Y-127913548D01*
X141967001Y-127944669D01*
X128245100Y-127944669D01*
X128245100Y-127909086D01*
X128265102Y-127840965D01*
X128282005Y-127819991D01*
X128593996Y-127508000D01*
X131414028Y-127508000D01*
X131434191Y-127635306D01*
X131492708Y-127750151D01*
X131583849Y-127841292D01*
X131698694Y-127899809D01*
X131826000Y-127919972D01*
X131953306Y-127899809D01*
X132068151Y-127841292D01*
X132159292Y-127750151D01*
X132217809Y-127635306D01*
X132237972Y-127508000D01*
X132242002Y-127508638D01*
X132256423Y-127459526D01*
X132273326Y-127438552D01*
X132917773Y-126794105D01*
X132980085Y-126760079D01*
X133006868Y-126757200D01*
X137487745Y-126757200D01*
X137555866Y-126777202D01*
X137576762Y-126794026D01*
X137641297Y-126858448D01*
X137641299Y-126858449D01*
X137649529Y-126866665D01*
X137660167Y-126871368D01*
X137690475Y-126884767D01*
X137744691Y-126930606D01*
X137765519Y-126998479D01*
X137746345Y-127066837D01*
X137690676Y-127115160D01*
X137649107Y-127133624D01*
X137612731Y-127170064D01*
X137581552Y-127201297D01*
X137581551Y-127201299D01*
X137573335Y-127209529D01*
X137529969Y-127307621D01*
X137527100Y-127332228D01*
X137527100Y-127687772D01*
X137530087Y-127712876D01*
X137533924Y-127721515D01*
X137533925Y-127721518D01*
X137559393Y-127778854D01*
X137573624Y-127810893D01*
X137608584Y-127845792D01*
X137641297Y-127878448D01*
X137641299Y-127878449D01*
X137649529Y-127886665D01*
X137747621Y-127930031D01*
X137763611Y-127931895D01*
X137768589Y-127932476D01*
X137768594Y-127932476D01*
X137772228Y-127932900D01*
X138227772Y-127932900D01*
X138236277Y-127931888D01*
X138243484Y-127931031D01*
X138243487Y-127931030D01*
X138252876Y-127929913D01*
X138261515Y-127926076D01*
X138261518Y-127926075D01*
X138340264Y-127891097D01*
X138340263Y-127891097D01*
X138350893Y-127886376D01*
X138396120Y-127841070D01*
X138418448Y-127818703D01*
X138418449Y-127818701D01*
X138426665Y-127810471D01*
X138470031Y-127712379D01*
X138472900Y-127687772D01*
X138472900Y-127605100D01*
X138492902Y-127536979D01*
X138546558Y-127490486D01*
X138598900Y-127479100D01*
X141842497Y-127479100D01*
X141910618Y-127499102D01*
X141957111Y-127552758D01*
X141963393Y-127569601D01*
X141971475Y-127597124D01*
X141972865Y-127598329D01*
X141980548Y-127600000D01*
X143389884Y-127600000D01*
X143405123Y-127595525D01*
X143406328Y-127594135D01*
X143407999Y-127586452D01*
X143407999Y-127555331D01*
X143407629Y-127548510D01*
X143402105Y-127497648D01*
X143398479Y-127482396D01*
X143353324Y-127361946D01*
X143344786Y-127346351D01*
X143268285Y-127244276D01*
X143255724Y-127231715D01*
X143153644Y-127155210D01*
X143138058Y-127146678D01*
X143124975Y-127141773D01*
X143068210Y-127099132D01*
X143052357Y-127063503D01*
X143051199Y-127063982D01*
X143046449Y-127052515D01*
X143044028Y-127040342D01*
X143043784Y-127039976D01*
X143037080Y-126977630D01*
X143041048Y-126964118D01*
X143044028Y-126959658D01*
X143046449Y-126947487D01*
X143051200Y-126936018D01*
X143053330Y-126936901D01*
X143078528Y-126888723D01*
X143124977Y-126858226D01*
X143138055Y-126853324D01*
X143153649Y-126844786D01*
X143255724Y-126768285D01*
X143268285Y-126755724D01*
X143344786Y-126653649D01*
X143353324Y-126638054D01*
X143398478Y-126517606D01*
X143402105Y-126502351D01*
X143407631Y-126451486D01*
X143408000Y-126444672D01*
X143408000Y-126418115D01*
X143403525Y-126402876D01*
X143402135Y-126401671D01*
X143394452Y-126400000D01*
X142663500Y-126400000D01*
X142595379Y-126379998D01*
X142548886Y-126326342D01*
X142537500Y-126274000D01*
X142537500Y-126226000D01*
X142557502Y-126157879D01*
X142611158Y-126111386D01*
X142663500Y-126100000D01*
X143389884Y-126100000D01*
X143405123Y-126095525D01*
X143406328Y-126094135D01*
X143407999Y-126086452D01*
X143407999Y-126055331D01*
X143407629Y-126048510D01*
X143401252Y-125989793D01*
X143402790Y-125989626D01*
X143406031Y-125927664D01*
X143447481Y-125870024D01*
X143513513Y-125843943D01*
X143549489Y-125845848D01*
X143578874Y-125851693D01*
X143578876Y-125851693D01*
X143584943Y-125852900D01*
X143749973Y-125852900D01*
X143915056Y-125852899D01*
X143959658Y-125844028D01*
X143960024Y-125843784D01*
X144022370Y-125837080D01*
X144035882Y-125841048D01*
X144040342Y-125844028D01*
X144052513Y-125846449D01*
X144063982Y-125851200D01*
X144063099Y-125853330D01*
X144111277Y-125878528D01*
X144141774Y-125924977D01*
X144146676Y-125938055D01*
X144155214Y-125953649D01*
X144231715Y-126055724D01*
X144244276Y-126068285D01*
X144346351Y-126144786D01*
X144361946Y-126153324D01*
X144482394Y-126198478D01*
X144497649Y-126202105D01*
X144548514Y-126207631D01*
X144555328Y-126208000D01*
X144581885Y-126208000D01*
X144597124Y-126203525D01*
X144598329Y-126202135D01*
X144600000Y-126194452D01*
X144600000Y-124685116D01*
X144595525Y-124669877D01*
X144594135Y-124668672D01*
X144586452Y-124667001D01*
X144555331Y-124667001D01*
X144548510Y-124667371D01*
X144497648Y-124672895D01*
X144482396Y-124676521D01*
X144361946Y-124721676D01*
X144346351Y-124730214D01*
X144244276Y-124806715D01*
X144231715Y-124819276D01*
X144155210Y-124921356D01*
X144146678Y-124936942D01*
X144141773Y-124950025D01*
X144099132Y-125006790D01*
X144063503Y-125022643D01*
X144063982Y-125023801D01*
X144052515Y-125028551D01*
X144040342Y-125030972D01*
X144039976Y-125031216D01*
X143977630Y-125037920D01*
X143964118Y-125033952D01*
X143959658Y-125030972D01*
X143915057Y-125022100D01*
X143883364Y-125022100D01*
X143643199Y-125022101D01*
X143575080Y-125002099D01*
X143528587Y-124948444D01*
X143517200Y-124896101D01*
X143517200Y-124882868D01*
X143537202Y-124814747D01*
X143554105Y-124793773D01*
X143611550Y-124736328D01*
X143630644Y-124720657D01*
X143632326Y-124719533D01*
X143642641Y-124712641D01*
X143701697Y-124624256D01*
X143713234Y-124566257D01*
X143722436Y-124520000D01*
X143719621Y-124505847D01*
X143717200Y-124481267D01*
X143717200Y-123930728D01*
X143719621Y-123906147D01*
X143720014Y-123904171D01*
X143722435Y-123892000D01*
X143719621Y-123877853D01*
X143717200Y-123853272D01*
X143717200Y-121728805D01*
X143737202Y-121660684D01*
X143787669Y-121615702D01*
X143888678Y-121566109D01*
X143888679Y-121566108D01*
X143898026Y-121561519D01*
X143913743Y-121545774D01*
X143976024Y-121511694D01*
X144046844Y-121516696D01*
X144103718Y-121559192D01*
X144110061Y-121568488D01*
X144192788Y-121702173D01*
X144201824Y-121713574D01*
X144312429Y-121823986D01*
X144323840Y-121832998D01*
X144456880Y-121915004D01*
X144470061Y-121921151D01*
X144618814Y-121970491D01*
X144632190Y-121973358D01*
X144723097Y-121982672D01*
X144728126Y-121982929D01*
X144743124Y-121978525D01*
X144744329Y-121977135D01*
X144746000Y-121969452D01*
X144746000Y-121964885D01*
X145254000Y-121964885D01*
X145258475Y-121980124D01*
X145259865Y-121981329D01*
X145267548Y-121983000D01*
X145270438Y-121983000D01*
X145276953Y-121982663D01*
X145369057Y-121973106D01*
X145382456Y-121970212D01*
X145531107Y-121920619D01*
X145544286Y-121914445D01*
X145677173Y-121832212D01*
X145688574Y-121823176D01*
X145798986Y-121712571D01*
X145807998Y-121701160D01*
X145890004Y-121568120D01*
X145896151Y-121554939D01*
X145945491Y-121406186D01*
X145948358Y-121392810D01*
X145957672Y-121301903D01*
X145958000Y-121295487D01*
X145958000Y-121272115D01*
X145953525Y-121256876D01*
X145952135Y-121255671D01*
X145944452Y-121254000D01*
X145272115Y-121254000D01*
X145256876Y-121258475D01*
X145255671Y-121259865D01*
X145254000Y-121267548D01*
X145254000Y-121964885D01*
X144746000Y-121964885D01*
X144746000Y-120727885D01*
X145254000Y-120727885D01*
X145258475Y-120743124D01*
X145259865Y-120744329D01*
X145267548Y-120746000D01*
X145939885Y-120746000D01*
X145955124Y-120741525D01*
X145956329Y-120740135D01*
X145958000Y-120732452D01*
X145958000Y-120704562D01*
X145957663Y-120698047D01*
X145948106Y-120605943D01*
X145945212Y-120592544D01*
X145895619Y-120443893D01*
X145889445Y-120430714D01*
X145807212Y-120297827D01*
X145798176Y-120286426D01*
X145687571Y-120176014D01*
X145676160Y-120167002D01*
X145543120Y-120084996D01*
X145529939Y-120078849D01*
X145381186Y-120029509D01*
X145367810Y-120026642D01*
X145276903Y-120017328D01*
X145271874Y-120017071D01*
X145256876Y-120021475D01*
X145255671Y-120022865D01*
X145254000Y-120030548D01*
X145254000Y-120727885D01*
X144746000Y-120727885D01*
X144746000Y-120035115D01*
X144741525Y-120019876D01*
X144740135Y-120018671D01*
X144732452Y-120017000D01*
X144729562Y-120017000D01*
X144723047Y-120017337D01*
X144630943Y-120026894D01*
X144617544Y-120029788D01*
X144468893Y-120079381D01*
X144455714Y-120085555D01*
X144322827Y-120167788D01*
X144311426Y-120176824D01*
X144201014Y-120287429D01*
X144192002Y-120298840D01*
X144110239Y-120431485D01*
X144057467Y-120478978D01*
X143987395Y-120490402D01*
X143922272Y-120462128D01*
X143913962Y-120454543D01*
X143904853Y-120445450D01*
X143904852Y-120445450D01*
X143897482Y-120438092D01*
X143883966Y-120431485D01*
X143824588Y-120402461D01*
X143784454Y-120382843D01*
X143751082Y-120377974D01*
X143715341Y-120372760D01*
X143715337Y-120372760D01*
X143710815Y-120372100D01*
X143450995Y-120372100D01*
X143189186Y-120372101D01*
X143114905Y-120383034D01*
X143059857Y-120410062D01*
X143011322Y-120433891D01*
X143011321Y-120433892D01*
X143001974Y-120438481D01*
X142913092Y-120527518D01*
X142857843Y-120640546D01*
X142847100Y-120714185D01*
X142847101Y-121285814D01*
X142858034Y-121360095D01*
X142913481Y-121473026D01*
X143002518Y-121561908D01*
X143011874Y-121566481D01*
X143011875Y-121566482D01*
X143112133Y-121615489D01*
X143164550Y-121663375D01*
X143182800Y-121728689D01*
X143182800Y-123498800D01*
X143162798Y-123566921D01*
X143109142Y-123613414D01*
X143056800Y-123624800D01*
X142084733Y-123624800D01*
X142060153Y-123622379D01*
X142046000Y-123619564D01*
X141941744Y-123640303D01*
X141853359Y-123699359D01*
X141846467Y-123709674D01*
X141845343Y-123711356D01*
X141829672Y-123730450D01*
X141314450Y-124245672D01*
X141295355Y-124261343D01*
X141283359Y-124269359D01*
X141268451Y-124291671D01*
X141224303Y-124357743D01*
X141203564Y-124462000D01*
X141205985Y-124474169D01*
X141206379Y-124476150D01*
X141208800Y-124500733D01*
X141208800Y-126096800D01*
X141188798Y-126164921D01*
X141135142Y-126211414D01*
X141082800Y-126222800D01*
X138512255Y-126222800D01*
X138444134Y-126202798D01*
X138423238Y-126185974D01*
X138358703Y-126121552D01*
X138358701Y-126121551D01*
X138350471Y-126113335D01*
X138252379Y-126069969D01*
X138236389Y-126068105D01*
X138231411Y-126067524D01*
X138231406Y-126067524D01*
X138227772Y-126067100D01*
X137772228Y-126067100D01*
X137763723Y-126068112D01*
X137756516Y-126068969D01*
X137756513Y-126068970D01*
X137747124Y-126070087D01*
X137738485Y-126073924D01*
X137738482Y-126073925D01*
X137679779Y-126100000D01*
X137649107Y-126113624D01*
X137640890Y-126121855D01*
X137640889Y-126121856D01*
X137577039Y-126185818D01*
X137514757Y-126219897D01*
X137487866Y-126222800D01*
X132882728Y-126222800D01*
X132858148Y-126220379D01*
X132844000Y-126217565D01*
X132817683Y-126222800D01*
X132817682Y-126222800D01*
X132739744Y-126238303D01*
X132651359Y-126297359D01*
X132644467Y-126307674D01*
X132643343Y-126309356D01*
X132627672Y-126328450D01*
X131895448Y-127060674D01*
X131833136Y-127094700D01*
X131825913Y-127095476D01*
X131826000Y-127096028D01*
X131698694Y-127116191D01*
X131583849Y-127174708D01*
X131492708Y-127265849D01*
X131434191Y-127380694D01*
X131432640Y-127390487D01*
X131418690Y-127478568D01*
X131414028Y-127508000D01*
X128593996Y-127508000D01*
X143642656Y-112459340D01*
X143704968Y-112425314D01*
X143751463Y-112423987D01*
X143754203Y-112424421D01*
X143754208Y-112424421D01*
X143764000Y-112425972D01*
X143777064Y-112423903D01*
X143881513Y-112407360D01*
X143891306Y-112405809D01*
X144006151Y-112347292D01*
X144097292Y-112256151D01*
X144155809Y-112141306D01*
X144159463Y-112118239D01*
X144175576Y-112016500D01*
X144205988Y-111952347D01*
X144266256Y-111914820D01*
X144337246Y-111915834D01*
X144389120Y-111947116D01*
X146983995Y-114541991D01*
X147018021Y-114604303D01*
X147020900Y-114631086D01*
X147020900Y-124896100D01*
X147000898Y-124964221D01*
X146947242Y-125010714D01*
X146894900Y-125022100D01*
X146662492Y-125022101D01*
X146584944Y-125022101D01*
X146540342Y-125030972D01*
X146539976Y-125031216D01*
X146477630Y-125037920D01*
X146464118Y-125033952D01*
X146459658Y-125030972D01*
X146415057Y-125022100D01*
X146250027Y-125022100D01*
X146084944Y-125022101D01*
X146040342Y-125030972D01*
X146039976Y-125031216D01*
X145977630Y-125037920D01*
X145964118Y-125033952D01*
X145959658Y-125030972D01*
X145915057Y-125022100D01*
X145750027Y-125022100D01*
X145584944Y-125022101D01*
X145540342Y-125030972D01*
X145539976Y-125031216D01*
X145477630Y-125037920D01*
X145464118Y-125033952D01*
X145459658Y-125030972D01*
X145447487Y-125028551D01*
X145436018Y-125023800D01*
X145436901Y-125021670D01*
X145388723Y-124996472D01*
X145358226Y-124950023D01*
X145353324Y-124936945D01*
X145344786Y-124921351D01*
X145268285Y-124819276D01*
X145255724Y-124806715D01*
X145153649Y-124730214D01*
X145138054Y-124721676D01*
X145017606Y-124676522D01*
X145002351Y-124672895D01*
X144951486Y-124667369D01*
X144944672Y-124667000D01*
X144918115Y-124667000D01*
X144902876Y-124671475D01*
X144901671Y-124672865D01*
X144900000Y-124680548D01*
X144900000Y-126189884D01*
X144904475Y-126205123D01*
X144905865Y-126206328D01*
X144913548Y-126207999D01*
X144944669Y-126207999D01*
X144951490Y-126207629D01*
X145002352Y-126202105D01*
X145017604Y-126198479D01*
X145138054Y-126153324D01*
X145153649Y-126144786D01*
X145255724Y-126068285D01*
X145268285Y-126055724D01*
X145344790Y-125953644D01*
X145353322Y-125938058D01*
X145358227Y-125924975D01*
X145400868Y-125868210D01*
X145436497Y-125852357D01*
X145436018Y-125851199D01*
X145447485Y-125846449D01*
X145459658Y-125844028D01*
X145460024Y-125843784D01*
X145522370Y-125837080D01*
X145535882Y-125841048D01*
X145540342Y-125844028D01*
X145584943Y-125852900D01*
X145749973Y-125852900D01*
X145915056Y-125852899D01*
X145959658Y-125844028D01*
X145960024Y-125843784D01*
X146022370Y-125837080D01*
X146035882Y-125841048D01*
X146040342Y-125844028D01*
X146084943Y-125852900D01*
X146249973Y-125852900D01*
X146415056Y-125852899D01*
X146459658Y-125844028D01*
X146460024Y-125843784D01*
X146522370Y-125837080D01*
X146535882Y-125841048D01*
X146540342Y-125844028D01*
X146584943Y-125852900D01*
X146612696Y-125852900D01*
X146847663Y-125852899D01*
X146915782Y-125872901D01*
X146962275Y-125926556D01*
X146972380Y-125996830D01*
X146964070Y-126027119D01*
X146962867Y-126030023D01*
X146955972Y-126040342D01*
X146953551Y-126052513D01*
X146948801Y-126063980D01*
X146946671Y-126063098D01*
X146921472Y-126111277D01*
X146875023Y-126141774D01*
X146861945Y-126146676D01*
X146846351Y-126155214D01*
X146744276Y-126231715D01*
X146731715Y-126244276D01*
X146655214Y-126346351D01*
X146646676Y-126361946D01*
X146601522Y-126482394D01*
X146597895Y-126497649D01*
X146592369Y-126548514D01*
X146592000Y-126555328D01*
X146592000Y-126581885D01*
X146596475Y-126597124D01*
X146597865Y-126598329D01*
X146605548Y-126600000D01*
X147144385Y-126600000D01*
X147160719Y-126595204D01*
X147218605Y-126558004D01*
X147254101Y-126552900D01*
X147311190Y-126552900D01*
X147368941Y-126552899D01*
X147437061Y-126572900D01*
X147451454Y-126583675D01*
X147468365Y-126598329D01*
X147476048Y-126600000D01*
X148014884Y-126600000D01*
X148030123Y-126595525D01*
X148031328Y-126594135D01*
X148032999Y-126586452D01*
X148032999Y-126555331D01*
X148032629Y-126548510D01*
X148027105Y-126497648D01*
X148023479Y-126482394D01*
X148020359Y-126474072D01*
X148015178Y-126403264D01*
X148049247Y-126340749D01*
X148122319Y-126267678D01*
X148237431Y-126152566D01*
X148242215Y-126148026D01*
X148261645Y-126130531D01*
X148271486Y-126121670D01*
X148279927Y-126102712D01*
X148289358Y-126085343D01*
X148293450Y-126079042D01*
X148293450Y-126079041D01*
X148300662Y-126067936D01*
X148302734Y-126054854D01*
X148304620Y-126049939D01*
X148305714Y-126044794D01*
X148311100Y-126032697D01*
X148311100Y-126011947D01*
X148312651Y-125992238D01*
X148313826Y-125984819D01*
X148313826Y-125984818D01*
X148315897Y-125971741D01*
X148312470Y-125958952D01*
X148311777Y-125945724D01*
X148312213Y-125945701D01*
X148311100Y-125937249D01*
X148311100Y-114309282D01*
X148311273Y-114302688D01*
X148312641Y-114276588D01*
X148312641Y-114276587D01*
X148313334Y-114263360D01*
X148305899Y-114243991D01*
X148300286Y-114225040D01*
X148298724Y-114217693D01*
X148298723Y-114217690D01*
X148295969Y-114204735D01*
X148288183Y-114194019D01*
X148286043Y-114189212D01*
X148283179Y-114184802D01*
X148278432Y-114172435D01*
X148263758Y-114157761D01*
X148250917Y-114142727D01*
X148246504Y-114136653D01*
X148238722Y-114125942D01*
X148227257Y-114119323D01*
X148217412Y-114110458D01*
X148217704Y-114110134D01*
X148210941Y-114104944D01*
X146971092Y-112865095D01*
X146937066Y-112802783D01*
X146942131Y-112731968D01*
X146971092Y-112686905D01*
X147198657Y-112459340D01*
X147260969Y-112425314D01*
X147307466Y-112423987D01*
X147310206Y-112424421D01*
X147310208Y-112424421D01*
X147320000Y-112425972D01*
X147333064Y-112423903D01*
X147437513Y-112407360D01*
X147447306Y-112405809D01*
X147562151Y-112347292D01*
X147653292Y-112256151D01*
X147711809Y-112141306D01*
X147731972Y-112014000D01*
X147711809Y-111886694D01*
X147653292Y-111771849D01*
X147562151Y-111680708D01*
X147447306Y-111622191D01*
X147320000Y-111602028D01*
X147192694Y-111622191D01*
X147077849Y-111680708D01*
X146986708Y-111771849D01*
X146928191Y-111886694D01*
X146908028Y-112014000D01*
X146909579Y-112023792D01*
X146909579Y-112023797D01*
X146910013Y-112026537D01*
X146909579Y-112029896D01*
X146909579Y-112033711D01*
X146909086Y-112033711D01*
X146900915Y-112096948D01*
X146874660Y-112135344D01*
X146647095Y-112362909D01*
X146584783Y-112396935D01*
X146513968Y-112391870D01*
X146468905Y-112362909D01*
X142195357Y-108089360D01*
X137836575Y-103730578D01*
X137832034Y-103725794D01*
X137825731Y-103718794D01*
X137805670Y-103696514D01*
X137786714Y-103688074D01*
X137769342Y-103678642D01*
X137763043Y-103674551D01*
X137763041Y-103674550D01*
X137751936Y-103667339D01*
X137738857Y-103665268D01*
X137733942Y-103663381D01*
X137728796Y-103662287D01*
X137716697Y-103656900D01*
X137695947Y-103656900D01*
X137676236Y-103655349D01*
X137668819Y-103654174D01*
X137668818Y-103654174D01*
X137655742Y-103652103D01*
X137642953Y-103655530D01*
X137629725Y-103656223D01*
X137629702Y-103655787D01*
X137621250Y-103656900D01*
X131462533Y-103656900D01*
X131394412Y-103636898D01*
X131373438Y-103619995D01*
X131306151Y-103552708D01*
X131191306Y-103494191D01*
X131076211Y-103475962D01*
X131073793Y-103475579D01*
X131064000Y-103474028D01*
X131054208Y-103475579D01*
X131054206Y-103475579D01*
X131051466Y-103476013D01*
X131048107Y-103475579D01*
X131044289Y-103475579D01*
X131044289Y-103475086D01*
X130981055Y-103466916D01*
X130942656Y-103440660D01*
X130601097Y-103099100D01*
X130216565Y-102714568D01*
X130212025Y-102709784D01*
X130194531Y-102690355D01*
X130185670Y-102680514D01*
X130166714Y-102672074D01*
X130149342Y-102662642D01*
X130143043Y-102658551D01*
X130143041Y-102658550D01*
X130131936Y-102651339D01*
X130118857Y-102649268D01*
X130113942Y-102647381D01*
X130108796Y-102646287D01*
X130096697Y-102640900D01*
X130075947Y-102640900D01*
X130056236Y-102639349D01*
X130048819Y-102638174D01*
X130048818Y-102638174D01*
X130035742Y-102636103D01*
X130022953Y-102639530D01*
X130009725Y-102640223D01*
X130009702Y-102639787D01*
X130001250Y-102640900D01*
X120996733Y-102640900D01*
X120928612Y-102620898D01*
X120882119Y-102567242D01*
X120872015Y-102496968D01*
X120901509Y-102432388D01*
X120907638Y-102425805D01*
X120983292Y-102350151D01*
X121041809Y-102235306D01*
X121061972Y-102108000D01*
X121041809Y-101980694D01*
X120983292Y-101865849D01*
X120892151Y-101774708D01*
X120777306Y-101716191D01*
X120650000Y-101696028D01*
X120640208Y-101697579D01*
X120640203Y-101697579D01*
X120637463Y-101698013D01*
X120634104Y-101697579D01*
X120630289Y-101697579D01*
X120630289Y-101697086D01*
X120567052Y-101688915D01*
X120528656Y-101662660D01*
X110767805Y-91901808D01*
X110733779Y-91839496D01*
X110730900Y-91812713D01*
X110730899Y-90327133D01*
X110730899Y-90320944D01*
X110725219Y-90292384D01*
X110724450Y-90288517D01*
X110724448Y-90288511D01*
X110722028Y-90276342D01*
X110711055Y-90259919D01*
X110695127Y-90236082D01*
X110688234Y-90225766D01*
X110677918Y-90218873D01*
X110647975Y-90198865D01*
X110647972Y-90198864D01*
X110637658Y-90191972D01*
X110625491Y-90189552D01*
X110625489Y-90189551D01*
X110607257Y-90185925D01*
X110593057Y-90183100D01*
X109728140Y-90183100D01*
X108862944Y-90183101D01*
X108847287Y-90186215D01*
X108830517Y-90189550D01*
X108830515Y-90189551D01*
X108818342Y-90191972D01*
X108767766Y-90225766D01*
X108760873Y-90236082D01*
X108740865Y-90266025D01*
X108740864Y-90266028D01*
X108733972Y-90276342D01*
X108725100Y-90320943D01*
X108725101Y-92051056D01*
X108733972Y-92095658D01*
X108740867Y-92105978D01*
X108740868Y-92105979D01*
X108741190Y-92106461D01*
X108767766Y-92146234D01*
X108778082Y-92153127D01*
X108808025Y-92173135D01*
X108808028Y-92173136D01*
X108818342Y-92180028D01*
X108830509Y-92182448D01*
X108830511Y-92182449D01*
X108848743Y-92186075D01*
X108862943Y-92188900D01*
X109026577Y-92188900D01*
X110354713Y-92188899D01*
X110422834Y-92208901D01*
X110443808Y-92225804D01*
X120204660Y-101986656D01*
X120238686Y-102048968D01*
X120240013Y-102095463D01*
X120239579Y-102098203D01*
X120239579Y-102098207D01*
X120238028Y-102108000D01*
X120258191Y-102235306D01*
X120316708Y-102350151D01*
X120392362Y-102425805D01*
X120426388Y-102488117D01*
X120421323Y-102558932D01*
X120378776Y-102615768D01*
X120312256Y-102640579D01*
X120303267Y-102640900D01*
X108859086Y-102640900D01*
X108790965Y-102620898D01*
X108769991Y-102603995D01*
X97948849Y-91782852D01*
X97914823Y-91720540D01*
X97919888Y-91649725D01*
X97928387Y-91631522D01*
X97945581Y-91601255D01*
X97945584Y-91601249D01*
X97948628Y-91595890D01*
X98010710Y-91409266D01*
X98035360Y-91214138D01*
X98035753Y-91186000D01*
X98034373Y-91171930D01*
X98560345Y-91171930D01*
X98576803Y-91367919D01*
X98578502Y-91373844D01*
X98604222Y-91463539D01*
X98631015Y-91556979D01*
X98633830Y-91562456D01*
X98633831Y-91562459D01*
X98718101Y-91726431D01*
X98720916Y-91731908D01*
X98724739Y-91736732D01*
X98724742Y-91736736D01*
X98817543Y-91853821D01*
X98843083Y-91886044D01*
X98992862Y-92013516D01*
X99164547Y-92109467D01*
X99351600Y-92170244D01*
X99546895Y-92193532D01*
X99553030Y-92193060D01*
X99553032Y-92193060D01*
X99736852Y-92178916D01*
X99736856Y-92178915D01*
X99742994Y-92178443D01*
X99932428Y-92125552D01*
X100017866Y-92082394D01*
X100087685Y-92069535D01*
X100153376Y-92096464D01*
X100163769Y-92105766D01*
X101154660Y-93096656D01*
X101188685Y-93158968D01*
X101190013Y-93205463D01*
X101189579Y-93208203D01*
X101189579Y-93208207D01*
X101188028Y-93218000D01*
X101208191Y-93345306D01*
X101266708Y-93460151D01*
X101357849Y-93551292D01*
X101472694Y-93609809D01*
X101600000Y-93629972D01*
X101727306Y-93609809D01*
X101842151Y-93551292D01*
X101933292Y-93460151D01*
X101991809Y-93345306D01*
X102011972Y-93218000D01*
X101991809Y-93090694D01*
X101933292Y-92975849D01*
X101842151Y-92884708D01*
X101727306Y-92826191D01*
X101600000Y-92806028D01*
X101590208Y-92807579D01*
X101590203Y-92807579D01*
X101587463Y-92808013D01*
X101584104Y-92807579D01*
X101580289Y-92807579D01*
X101580289Y-92807086D01*
X101517052Y-92798915D01*
X101478656Y-92772660D01*
X100488849Y-91782852D01*
X100454823Y-91720540D01*
X100459888Y-91649724D01*
X100468387Y-91631522D01*
X100485581Y-91601255D01*
X100485584Y-91601249D01*
X100488628Y-91595890D01*
X100550710Y-91409266D01*
X100575360Y-91214138D01*
X100575753Y-91186000D01*
X100556561Y-90990260D01*
X100499714Y-90801975D01*
X100419954Y-90651968D01*
X100410273Y-90633760D01*
X100410271Y-90633757D01*
X100407379Y-90628318D01*
X100403489Y-90623548D01*
X100403486Y-90623544D01*
X100286967Y-90480678D01*
X100286964Y-90480675D01*
X100283072Y-90475903D01*
X100266422Y-90462129D01*
X100136278Y-90354464D01*
X100136274Y-90354462D01*
X100131528Y-90350535D01*
X99958520Y-90256990D01*
X99770637Y-90198830D01*
X99764519Y-90198187D01*
X99764514Y-90198186D01*
X99581164Y-90178916D01*
X99581162Y-90178916D01*
X99575035Y-90178272D01*
X99508720Y-90184307D01*
X99385305Y-90195538D01*
X99385302Y-90195539D01*
X99379166Y-90196097D01*
X99190489Y-90251628D01*
X99016192Y-90342748D01*
X98862912Y-90465988D01*
X98858954Y-90470705D01*
X98858952Y-90470707D01*
X98827115Y-90508649D01*
X98736489Y-90616653D01*
X98641739Y-90789004D01*
X98639878Y-90794871D01*
X98639877Y-90794873D01*
X98637624Y-90801975D01*
X98582269Y-90976476D01*
X98560345Y-91171930D01*
X98034373Y-91171930D01*
X98016561Y-90990260D01*
X97959714Y-90801975D01*
X97879954Y-90651968D01*
X97870273Y-90633760D01*
X97870271Y-90633757D01*
X97867379Y-90628318D01*
X97863489Y-90623548D01*
X97863486Y-90623544D01*
X97746967Y-90480678D01*
X97746964Y-90480675D01*
X97743072Y-90475903D01*
X97726422Y-90462129D01*
X97596278Y-90354464D01*
X97596274Y-90354462D01*
X97591528Y-90350535D01*
X97418520Y-90256990D01*
X97230637Y-90198830D01*
X97224519Y-90198187D01*
X97224514Y-90198186D01*
X97041164Y-90178916D01*
X97041162Y-90178916D01*
X97035035Y-90178272D01*
X96968720Y-90184307D01*
X96845305Y-90195538D01*
X96845302Y-90195539D01*
X96839166Y-90196097D01*
X96650489Y-90251628D01*
X96476192Y-90342748D01*
X96322912Y-90465988D01*
X96318954Y-90470705D01*
X96318952Y-90470707D01*
X96287115Y-90508649D01*
X96196489Y-90616653D01*
X96101739Y-90789004D01*
X96099878Y-90794871D01*
X96099877Y-90794873D01*
X96097624Y-90801975D01*
X96042269Y-90976476D01*
X96020345Y-91171930D01*
X96036803Y-91367919D01*
X96038502Y-91373844D01*
X96064222Y-91463539D01*
X96091015Y-91556979D01*
X96093830Y-91562456D01*
X96093831Y-91562459D01*
X96178101Y-91726431D01*
X96180916Y-91731908D01*
X96184739Y-91736732D01*
X96184742Y-91736736D01*
X96277543Y-91853821D01*
X96303083Y-91886044D01*
X96452862Y-92013516D01*
X96624547Y-92109467D01*
X96811600Y-92170244D01*
X97006895Y-92193532D01*
X97013030Y-92193060D01*
X97013032Y-92193060D01*
X97196852Y-92178916D01*
X97196856Y-92178915D01*
X97202994Y-92178443D01*
X97392428Y-92125552D01*
X97477864Y-92082395D01*
X97547686Y-92069535D01*
X97613377Y-92096464D01*
X97623770Y-92105766D01*
X108543416Y-103025412D01*
X108547957Y-103030196D01*
X108574330Y-103059486D01*
X108586424Y-103064871D01*
X108586426Y-103064872D01*
X108593287Y-103067926D01*
X108610661Y-103077360D01*
X108628063Y-103088661D01*
X108641147Y-103090733D01*
X108646060Y-103092619D01*
X108651203Y-103093712D01*
X108663303Y-103099100D01*
X108684053Y-103099100D01*
X108703764Y-103100651D01*
X108711181Y-103101826D01*
X108711182Y-103101826D01*
X108724258Y-103103897D01*
X108737047Y-103100470D01*
X108750275Y-103099777D01*
X108750298Y-103100213D01*
X108758750Y-103099100D01*
X124679511Y-103099100D01*
X124747632Y-103119102D01*
X124794125Y-103172758D01*
X124804229Y-103243032D01*
X124774735Y-103307612D01*
X124768684Y-103314117D01*
X124741554Y-103341294D01*
X124741551Y-103341299D01*
X124733335Y-103349529D01*
X124689969Y-103447621D01*
X124687100Y-103472228D01*
X124687100Y-103692833D01*
X124667098Y-103760954D01*
X124650195Y-103781928D01*
X122791345Y-105640777D01*
X121101449Y-107330673D01*
X121082358Y-107346342D01*
X121070359Y-107354359D01*
X121062342Y-107366358D01*
X121046671Y-107385452D01*
X119976449Y-108455673D01*
X119957358Y-108471342D01*
X119945359Y-108479359D01*
X119938467Y-108489674D01*
X119938466Y-108489675D01*
X119930453Y-108501668D01*
X119930451Y-108501671D01*
X119894431Y-108555579D01*
X119886303Y-108567743D01*
X119883883Y-108579911D01*
X119883882Y-108579912D01*
X119874043Y-108629376D01*
X119865564Y-108672000D01*
X119867985Y-108684169D01*
X119868379Y-108686150D01*
X119870800Y-108710733D01*
X119870800Y-110739745D01*
X119850798Y-110807866D01*
X119833974Y-110828762D01*
X119820526Y-110842234D01*
X119761335Y-110901529D01*
X119756631Y-110912170D01*
X119750060Y-110921766D01*
X119748464Y-110920674D01*
X119711859Y-110963966D01*
X119642461Y-110984800D01*
X109082984Y-110984800D01*
X109014863Y-110964798D01*
X108966575Y-110907018D01*
X108966118Y-110905916D01*
X108963697Y-110893743D01*
X108919549Y-110827671D01*
X108904641Y-110805359D01*
X108892645Y-110797343D01*
X108873550Y-110781672D01*
X106980328Y-108888450D01*
X106964657Y-108869356D01*
X106963536Y-108867678D01*
X106963535Y-108867677D01*
X106956641Y-108857359D01*
X106898635Y-108818601D01*
X106868257Y-108798303D01*
X106788251Y-108782388D01*
X106776171Y-108779985D01*
X106764000Y-108777564D01*
X106749847Y-108780379D01*
X106725267Y-108782800D01*
X105117034Y-108782800D01*
X105048913Y-108762798D01*
X105027937Y-108745894D01*
X105027131Y-108745087D01*
X105020234Y-108734766D01*
X105009915Y-108727871D01*
X105009914Y-108727870D01*
X104979975Y-108707865D01*
X104979972Y-108707864D01*
X104969658Y-108700972D01*
X104957491Y-108698552D01*
X104957489Y-108698551D01*
X104939257Y-108694925D01*
X104925057Y-108692100D01*
X104793200Y-108692100D01*
X104725079Y-108672098D01*
X104678586Y-108618442D01*
X104667200Y-108566100D01*
X104667200Y-104762868D01*
X104687202Y-104694747D01*
X104704105Y-104673773D01*
X104713073Y-104664805D01*
X104775385Y-104630779D01*
X104802168Y-104627900D01*
X105219370Y-104627899D01*
X105260814Y-104627899D01*
X105335095Y-104616966D01*
X105432207Y-104569286D01*
X105438678Y-104566109D01*
X105438679Y-104566108D01*
X105448026Y-104561519D01*
X105463743Y-104545774D01*
X105526024Y-104511694D01*
X105596844Y-104516696D01*
X105653718Y-104559192D01*
X105660061Y-104568488D01*
X105742788Y-104702173D01*
X105751824Y-104713574D01*
X105862429Y-104823986D01*
X105873840Y-104832998D01*
X106006880Y-104915004D01*
X106020061Y-104921151D01*
X106168814Y-104970491D01*
X106182190Y-104973358D01*
X106273097Y-104982672D01*
X106278126Y-104982929D01*
X106293124Y-104978525D01*
X106294329Y-104977135D01*
X106296000Y-104969452D01*
X106296000Y-104964885D01*
X106804000Y-104964885D01*
X106808475Y-104980124D01*
X106809865Y-104981329D01*
X106817548Y-104983000D01*
X106820438Y-104983000D01*
X106826953Y-104982663D01*
X106919057Y-104973106D01*
X106932456Y-104970212D01*
X107081107Y-104920619D01*
X107094286Y-104914445D01*
X107227173Y-104832212D01*
X107238574Y-104823176D01*
X107348986Y-104712571D01*
X107357998Y-104701160D01*
X107440004Y-104568120D01*
X107446151Y-104554939D01*
X107495491Y-104406186D01*
X107498358Y-104392810D01*
X107507672Y-104301903D01*
X107508000Y-104295486D01*
X107508000Y-104272115D01*
X107503525Y-104256876D01*
X107502135Y-104255671D01*
X107494452Y-104254000D01*
X106822115Y-104254000D01*
X106806876Y-104258475D01*
X106805671Y-104259865D01*
X106804000Y-104267548D01*
X106804000Y-104964885D01*
X106296000Y-104964885D01*
X106296000Y-103727885D01*
X106804000Y-103727885D01*
X106808475Y-103743124D01*
X106809865Y-103744329D01*
X106817548Y-103746000D01*
X107489885Y-103746000D01*
X107505124Y-103741525D01*
X107506329Y-103740135D01*
X107508000Y-103732452D01*
X107508000Y-103704562D01*
X107507663Y-103698047D01*
X107498106Y-103605943D01*
X107495212Y-103592544D01*
X107445619Y-103443893D01*
X107439445Y-103430714D01*
X107357212Y-103297827D01*
X107348176Y-103286426D01*
X107237571Y-103176014D01*
X107226160Y-103167002D01*
X107093120Y-103084996D01*
X107079939Y-103078849D01*
X106931186Y-103029509D01*
X106917810Y-103026642D01*
X106826903Y-103017328D01*
X106821874Y-103017071D01*
X106806876Y-103021475D01*
X106805671Y-103022865D01*
X106804000Y-103030548D01*
X106804000Y-103727885D01*
X106296000Y-103727885D01*
X106296000Y-103035115D01*
X106291525Y-103019876D01*
X106290135Y-103018671D01*
X106282452Y-103017000D01*
X106279562Y-103017000D01*
X106273047Y-103017337D01*
X106180943Y-103026894D01*
X106167544Y-103029788D01*
X106018893Y-103079381D01*
X106005714Y-103085555D01*
X105872827Y-103167788D01*
X105861426Y-103176824D01*
X105751014Y-103287429D01*
X105742002Y-103298840D01*
X105660239Y-103431485D01*
X105607467Y-103478978D01*
X105537395Y-103490402D01*
X105472272Y-103462128D01*
X105463962Y-103454543D01*
X105454853Y-103445450D01*
X105454852Y-103445450D01*
X105447482Y-103438092D01*
X105433966Y-103431485D01*
X105343676Y-103387351D01*
X105334454Y-103382843D01*
X105301082Y-103377974D01*
X105265341Y-103372760D01*
X105265337Y-103372760D01*
X105260815Y-103372100D01*
X105000995Y-103372100D01*
X104739186Y-103372101D01*
X104664905Y-103383034D01*
X104609857Y-103410062D01*
X104561322Y-103433891D01*
X104561321Y-103433892D01*
X104551974Y-103438481D01*
X104463092Y-103527518D01*
X104458519Y-103536874D01*
X104458518Y-103536875D01*
X104450779Y-103552708D01*
X104407843Y-103640546D01*
X104407052Y-103645968D01*
X104369127Y-103703183D01*
X104304135Y-103731759D01*
X104287971Y-103732800D01*
X102384868Y-103732800D01*
X102316747Y-103712798D01*
X102295773Y-103695895D01*
X90348368Y-91748490D01*
X90314342Y-91686178D01*
X90319407Y-91615363D01*
X90323320Y-91606984D01*
X90323078Y-91606876D01*
X90325583Y-91601250D01*
X90328628Y-91595890D01*
X90331105Y-91588446D01*
X90388763Y-91415118D01*
X90390710Y-91409266D01*
X90415360Y-91214138D01*
X90415753Y-91186000D01*
X90414373Y-91171930D01*
X90940345Y-91171930D01*
X90956803Y-91367919D01*
X90958502Y-91373844D01*
X90984222Y-91463539D01*
X91011015Y-91556979D01*
X91013830Y-91562456D01*
X91013831Y-91562459D01*
X91098101Y-91726431D01*
X91100916Y-91731908D01*
X91104739Y-91736732D01*
X91104742Y-91736736D01*
X91197543Y-91853821D01*
X91223083Y-91886044D01*
X91372862Y-92013516D01*
X91544547Y-92109467D01*
X91731600Y-92170244D01*
X91926895Y-92193532D01*
X91933030Y-92193060D01*
X91933032Y-92193060D01*
X92116852Y-92178916D01*
X92116856Y-92178915D01*
X92122994Y-92178443D01*
X92312428Y-92125552D01*
X92317932Y-92122772D01*
X92317934Y-92122771D01*
X92482480Y-92039653D01*
X92482482Y-92039652D01*
X92487981Y-92036874D01*
X92642966Y-91915786D01*
X92646992Y-91911122D01*
X92646995Y-91911119D01*
X92767451Y-91771569D01*
X92767452Y-91771567D01*
X92771480Y-91766901D01*
X92868628Y-91595890D01*
X92930710Y-91409266D01*
X92955360Y-91214138D01*
X92955753Y-91186000D01*
X92954373Y-91171930D01*
X93480345Y-91171930D01*
X93496803Y-91367919D01*
X93498502Y-91373844D01*
X93524222Y-91463539D01*
X93551015Y-91556979D01*
X93553830Y-91562456D01*
X93553831Y-91562459D01*
X93638101Y-91726431D01*
X93640916Y-91731908D01*
X93644739Y-91736732D01*
X93644742Y-91736736D01*
X93737543Y-91853821D01*
X93763083Y-91886044D01*
X93912862Y-92013516D01*
X94084547Y-92109467D01*
X94271600Y-92170244D01*
X94466895Y-92193532D01*
X94473030Y-92193060D01*
X94473032Y-92193060D01*
X94656852Y-92178916D01*
X94656856Y-92178915D01*
X94662994Y-92178443D01*
X94852428Y-92125552D01*
X94937866Y-92082394D01*
X95007685Y-92069535D01*
X95073376Y-92096464D01*
X95083769Y-92105766D01*
X96074660Y-93096656D01*
X96108685Y-93158968D01*
X96110013Y-93205463D01*
X96109579Y-93208203D01*
X96109579Y-93208207D01*
X96108028Y-93218000D01*
X96128191Y-93345306D01*
X96186708Y-93460151D01*
X96277849Y-93551292D01*
X96392694Y-93609809D01*
X96520000Y-93629972D01*
X96647306Y-93609809D01*
X96762151Y-93551292D01*
X96853292Y-93460151D01*
X96911809Y-93345306D01*
X96931972Y-93218000D01*
X96911809Y-93090694D01*
X96853292Y-92975849D01*
X96762151Y-92884708D01*
X96647306Y-92826191D01*
X96520000Y-92806028D01*
X96510208Y-92807579D01*
X96510203Y-92807579D01*
X96507463Y-92808013D01*
X96504104Y-92807579D01*
X96500289Y-92807579D01*
X96500289Y-92807086D01*
X96437052Y-92798915D01*
X96398656Y-92772660D01*
X95408849Y-91782852D01*
X95374823Y-91720540D01*
X95379888Y-91649724D01*
X95388387Y-91631522D01*
X95405581Y-91601255D01*
X95405584Y-91601249D01*
X95408628Y-91595890D01*
X95470710Y-91409266D01*
X95495360Y-91214138D01*
X95495753Y-91186000D01*
X95476561Y-90990260D01*
X95419714Y-90801975D01*
X95339954Y-90651968D01*
X95330273Y-90633760D01*
X95330271Y-90633757D01*
X95327379Y-90628318D01*
X95323489Y-90623548D01*
X95323486Y-90623544D01*
X95206967Y-90480678D01*
X95206964Y-90480675D01*
X95203072Y-90475903D01*
X95186422Y-90462129D01*
X95056278Y-90354464D01*
X95056274Y-90354462D01*
X95051528Y-90350535D01*
X94878520Y-90256990D01*
X94690637Y-90198830D01*
X94684519Y-90198187D01*
X94684514Y-90198186D01*
X94501164Y-90178916D01*
X94501162Y-90178916D01*
X94495035Y-90178272D01*
X94428720Y-90184307D01*
X94305305Y-90195538D01*
X94305302Y-90195539D01*
X94299166Y-90196097D01*
X94110489Y-90251628D01*
X93936192Y-90342748D01*
X93782912Y-90465988D01*
X93778954Y-90470705D01*
X93778952Y-90470707D01*
X93747115Y-90508649D01*
X93656489Y-90616653D01*
X93561739Y-90789004D01*
X93559878Y-90794871D01*
X93559877Y-90794873D01*
X93557624Y-90801975D01*
X93502269Y-90976476D01*
X93480345Y-91171930D01*
X92954373Y-91171930D01*
X92936561Y-90990260D01*
X92879714Y-90801975D01*
X92799954Y-90651968D01*
X92790273Y-90633760D01*
X92790271Y-90633757D01*
X92787379Y-90628318D01*
X92783489Y-90623548D01*
X92783486Y-90623544D01*
X92666967Y-90480678D01*
X92666964Y-90480675D01*
X92663072Y-90475903D01*
X92646422Y-90462129D01*
X92516278Y-90354464D01*
X92516274Y-90354462D01*
X92511528Y-90350535D01*
X92338520Y-90256990D01*
X92150637Y-90198830D01*
X92144519Y-90198187D01*
X92144514Y-90198186D01*
X91961164Y-90178916D01*
X91961162Y-90178916D01*
X91955035Y-90178272D01*
X91888720Y-90184307D01*
X91765305Y-90195538D01*
X91765302Y-90195539D01*
X91759166Y-90196097D01*
X91570489Y-90251628D01*
X91396192Y-90342748D01*
X91242912Y-90465988D01*
X91238954Y-90470705D01*
X91238952Y-90470707D01*
X91207115Y-90508649D01*
X91116489Y-90616653D01*
X91021739Y-90789004D01*
X91019878Y-90794871D01*
X91019877Y-90794873D01*
X91017624Y-90801975D01*
X90962269Y-90976476D01*
X90940345Y-91171930D01*
X90414373Y-91171930D01*
X90396561Y-90990260D01*
X90339714Y-90801975D01*
X90259954Y-90651968D01*
X90250273Y-90633760D01*
X90250271Y-90633757D01*
X90247379Y-90628318D01*
X90243489Y-90623548D01*
X90243486Y-90623544D01*
X90126967Y-90480678D01*
X90126964Y-90480675D01*
X90123072Y-90475903D01*
X90106422Y-90462129D01*
X89976278Y-90354464D01*
X89976274Y-90354462D01*
X89971528Y-90350535D01*
X89798520Y-90256990D01*
X89610637Y-90198830D01*
X89604519Y-90198187D01*
X89604514Y-90198186D01*
X89421164Y-90178916D01*
X89421162Y-90178916D01*
X89415035Y-90178272D01*
X89260167Y-90192366D01*
X89190514Y-90178621D01*
X89139350Y-90129400D01*
X89122919Y-90060331D01*
X89146437Y-89993343D01*
X89159653Y-89977790D01*
X89209438Y-89928005D01*
X89271750Y-89893979D01*
X89298533Y-89891100D01*
X100436914Y-89891100D01*
X100505035Y-89911102D01*
X100526009Y-89928005D01*
X101187660Y-90589656D01*
X101221686Y-90651968D01*
X101216621Y-90722783D01*
X101208980Y-90739451D01*
X101184707Y-90783604D01*
X101184705Y-90783609D01*
X101181739Y-90789004D01*
X101179878Y-90794871D01*
X101179877Y-90794873D01*
X101177624Y-90801975D01*
X101122269Y-90976476D01*
X101100345Y-91171930D01*
X101116803Y-91367919D01*
X101118502Y-91373844D01*
X101144222Y-91463539D01*
X101171015Y-91556979D01*
X101173830Y-91562456D01*
X101173831Y-91562459D01*
X101258101Y-91726431D01*
X101260916Y-91731908D01*
X101264739Y-91736732D01*
X101264742Y-91736736D01*
X101357543Y-91853821D01*
X101383083Y-91886044D01*
X101532862Y-92013516D01*
X101704547Y-92109467D01*
X101891600Y-92170244D01*
X102086895Y-92193532D01*
X102093030Y-92193060D01*
X102093032Y-92193060D01*
X102276852Y-92178916D01*
X102276856Y-92178915D01*
X102282994Y-92178443D01*
X102472428Y-92125552D01*
X102477932Y-92122772D01*
X102477934Y-92122771D01*
X102642480Y-92039653D01*
X102642482Y-92039652D01*
X102647981Y-92036874D01*
X102802966Y-91915786D01*
X102806992Y-91911122D01*
X102806995Y-91911119D01*
X102927451Y-91771569D01*
X102927452Y-91771567D01*
X102931480Y-91766901D01*
X103028628Y-91595890D01*
X103090710Y-91409266D01*
X103115360Y-91214138D01*
X103115753Y-91186000D01*
X103096561Y-90990260D01*
X103039714Y-90801975D01*
X102959954Y-90651968D01*
X102950273Y-90633760D01*
X102950271Y-90633757D01*
X102947379Y-90628318D01*
X102943489Y-90623548D01*
X102943486Y-90623544D01*
X102826967Y-90480678D01*
X102826964Y-90480675D01*
X102823072Y-90475903D01*
X102806422Y-90462129D01*
X102676278Y-90354464D01*
X102676274Y-90354462D01*
X102671528Y-90350535D01*
X102498520Y-90256990D01*
X102310637Y-90198830D01*
X102304519Y-90198187D01*
X102304514Y-90198186D01*
X102121164Y-90178916D01*
X102121162Y-90178916D01*
X102115035Y-90178272D01*
X102048720Y-90184307D01*
X101925305Y-90195538D01*
X101925302Y-90195539D01*
X101919166Y-90196097D01*
X101730489Y-90251628D01*
X101659927Y-90288517D01*
X101659592Y-90288692D01*
X101589957Y-90302526D01*
X101523896Y-90276516D01*
X101512122Y-90266125D01*
X100844192Y-89598195D01*
X100810166Y-89535883D01*
X100815231Y-89465068D01*
X100857778Y-89408232D01*
X100924298Y-89383421D01*
X100933287Y-89383100D01*
X102468914Y-89383100D01*
X102537035Y-89403102D01*
X102558009Y-89420005D01*
X103727660Y-90589656D01*
X103761686Y-90651968D01*
X103756621Y-90722783D01*
X103748980Y-90739451D01*
X103724707Y-90783604D01*
X103724705Y-90783609D01*
X103721739Y-90789004D01*
X103719878Y-90794871D01*
X103719877Y-90794873D01*
X103717624Y-90801975D01*
X103662269Y-90976476D01*
X103640345Y-91171930D01*
X103656803Y-91367919D01*
X103658502Y-91373844D01*
X103684222Y-91463539D01*
X103711015Y-91556979D01*
X103713830Y-91562456D01*
X103713831Y-91562459D01*
X103798101Y-91726431D01*
X103800916Y-91731908D01*
X103804739Y-91736732D01*
X103804742Y-91736736D01*
X103897543Y-91853821D01*
X103923083Y-91886044D01*
X104072862Y-92013516D01*
X104244547Y-92109467D01*
X104431600Y-92170244D01*
X104626895Y-92193532D01*
X104633030Y-92193060D01*
X104633032Y-92193060D01*
X104816852Y-92178916D01*
X104816856Y-92178915D01*
X104822994Y-92178443D01*
X105012428Y-92125552D01*
X105017932Y-92122772D01*
X105017934Y-92122771D01*
X105182480Y-92039653D01*
X105182482Y-92039652D01*
X105187981Y-92036874D01*
X105342966Y-91915786D01*
X105346992Y-91911122D01*
X105346995Y-91911119D01*
X105467451Y-91771569D01*
X105467452Y-91771567D01*
X105471480Y-91766901D01*
X105568628Y-91595890D01*
X105630710Y-91409266D01*
X105655360Y-91214138D01*
X105655753Y-91186000D01*
X105654373Y-91171930D01*
X106180345Y-91171930D01*
X106196803Y-91367919D01*
X106198502Y-91373844D01*
X106224222Y-91463539D01*
X106251015Y-91556979D01*
X106253830Y-91562456D01*
X106253831Y-91562459D01*
X106338101Y-91726431D01*
X106340916Y-91731908D01*
X106344739Y-91736732D01*
X106344742Y-91736736D01*
X106437543Y-91853821D01*
X106463083Y-91886044D01*
X106612862Y-92013516D01*
X106784547Y-92109467D01*
X106871836Y-92137829D01*
X106930442Y-92177903D01*
X106958079Y-92243299D01*
X106958900Y-92257662D01*
X106958900Y-99812718D01*
X106958727Y-99819312D01*
X106956666Y-99858639D01*
X106964103Y-99878014D01*
X106969715Y-99896962D01*
X106974031Y-99917265D01*
X106981813Y-99927976D01*
X106983954Y-99932784D01*
X106986823Y-99937201D01*
X106991568Y-99949564D01*
X107006239Y-99964235D01*
X107019080Y-99979269D01*
X107031278Y-99996058D01*
X107042745Y-100002678D01*
X107052588Y-100011541D01*
X107052296Y-100011866D01*
X107059060Y-100017056D01*
X108520660Y-101478656D01*
X108554686Y-101540968D01*
X108556013Y-101587463D01*
X108555579Y-101590203D01*
X108555579Y-101590207D01*
X108554028Y-101600000D01*
X108574191Y-101727306D01*
X108632708Y-101842151D01*
X108723849Y-101933292D01*
X108838694Y-101991809D01*
X108966000Y-102011972D01*
X109093306Y-101991809D01*
X109208151Y-101933292D01*
X109299292Y-101842151D01*
X109357809Y-101727306D01*
X109377972Y-101600000D01*
X109357809Y-101472694D01*
X109299292Y-101357849D01*
X109208151Y-101266708D01*
X109093306Y-101208191D01*
X108966000Y-101188028D01*
X108956208Y-101189579D01*
X108956203Y-101189579D01*
X108953463Y-101190013D01*
X108950104Y-101189579D01*
X108946289Y-101189579D01*
X108946289Y-101189086D01*
X108883052Y-101180915D01*
X108844656Y-101154660D01*
X107454005Y-99764008D01*
X107419979Y-99701696D01*
X107417100Y-99674913D01*
X107417100Y-92258976D01*
X107437102Y-92190855D01*
X107490758Y-92144362D01*
X107509216Y-92137618D01*
X107546486Y-92127212D01*
X107546495Y-92127209D01*
X107552428Y-92125552D01*
X107557928Y-92122774D01*
X107722480Y-92039653D01*
X107722482Y-92039652D01*
X107727981Y-92036874D01*
X107882966Y-91915786D01*
X107886992Y-91911122D01*
X107886995Y-91911119D01*
X108007451Y-91771569D01*
X108007452Y-91771567D01*
X108011480Y-91766901D01*
X108108628Y-91595890D01*
X108170710Y-91409266D01*
X108195360Y-91214138D01*
X108195753Y-91186000D01*
X108176561Y-90990260D01*
X108119714Y-90801975D01*
X108039954Y-90651968D01*
X108030273Y-90633760D01*
X108030271Y-90633757D01*
X108027379Y-90628318D01*
X108023489Y-90623548D01*
X108023486Y-90623544D01*
X107906967Y-90480678D01*
X107906964Y-90480675D01*
X107903072Y-90475903D01*
X107886422Y-90462129D01*
X107756278Y-90354464D01*
X107756274Y-90354462D01*
X107751528Y-90350535D01*
X107578520Y-90256990D01*
X107390637Y-90198830D01*
X107384519Y-90198187D01*
X107384514Y-90198186D01*
X107201164Y-90178916D01*
X107201162Y-90178916D01*
X107195035Y-90178272D01*
X107128720Y-90184307D01*
X107005305Y-90195538D01*
X107005302Y-90195539D01*
X106999166Y-90196097D01*
X106810489Y-90251628D01*
X106636192Y-90342748D01*
X106482912Y-90465988D01*
X106478954Y-90470705D01*
X106478952Y-90470707D01*
X106447115Y-90508649D01*
X106356489Y-90616653D01*
X106261739Y-90789004D01*
X106259878Y-90794871D01*
X106259877Y-90794873D01*
X106257624Y-90801975D01*
X106202269Y-90976476D01*
X106180345Y-91171930D01*
X105654373Y-91171930D01*
X105636561Y-90990260D01*
X105579714Y-90801975D01*
X105499954Y-90651968D01*
X105490273Y-90633760D01*
X105490271Y-90633757D01*
X105487379Y-90628318D01*
X105483489Y-90623548D01*
X105483486Y-90623544D01*
X105366967Y-90480678D01*
X105366964Y-90480675D01*
X105363072Y-90475903D01*
X105346422Y-90462129D01*
X105216278Y-90354464D01*
X105216274Y-90354462D01*
X105211528Y-90350535D01*
X105038520Y-90256990D01*
X104850637Y-90198830D01*
X104844519Y-90198187D01*
X104844514Y-90198186D01*
X104661164Y-90178916D01*
X104661162Y-90178916D01*
X104655035Y-90178272D01*
X104588720Y-90184307D01*
X104465305Y-90195538D01*
X104465302Y-90195539D01*
X104459166Y-90196097D01*
X104270489Y-90251628D01*
X104199927Y-90288517D01*
X104199592Y-90288692D01*
X104129957Y-90302526D01*
X104063896Y-90276516D01*
X104052122Y-90266125D01*
X102784575Y-88998578D01*
X102780034Y-88993794D01*
X102776163Y-88989495D01*
X102753670Y-88964514D01*
X102734714Y-88956074D01*
X102717342Y-88946642D01*
X102711043Y-88942551D01*
X102711041Y-88942550D01*
X102699936Y-88935339D01*
X102686857Y-88933268D01*
X102681942Y-88931381D01*
X102676796Y-88930287D01*
X102664697Y-88924900D01*
X102643947Y-88924900D01*
X102624236Y-88923349D01*
X102616819Y-88922174D01*
X102616818Y-88922174D01*
X102603742Y-88920103D01*
X102590953Y-88923530D01*
X102577725Y-88924223D01*
X102577702Y-88923787D01*
X102569250Y-88924900D01*
X88401282Y-88924900D01*
X88394688Y-88924727D01*
X88368587Y-88923359D01*
X88368586Y-88923359D01*
X88355360Y-88922666D01*
X88342994Y-88927413D01*
X88335993Y-88930100D01*
X88317031Y-88935717D01*
X88309691Y-88937277D01*
X88309690Y-88937277D01*
X88296735Y-88940031D01*
X88286022Y-88947815D01*
X88281213Y-88949956D01*
X88276799Y-88952823D01*
X88264436Y-88957568D01*
X88249765Y-88972239D01*
X88234731Y-88985080D01*
X88217942Y-88997278D01*
X88211322Y-89008745D01*
X88202459Y-89018588D01*
X88202135Y-89018296D01*
X88196945Y-89025057D01*
X87982569Y-89239433D01*
X87977785Y-89243974D01*
X87948514Y-89270330D01*
X87940074Y-89289286D01*
X87930642Y-89306658D01*
X87926551Y-89312957D01*
X87926550Y-89312959D01*
X87919339Y-89324064D01*
X87917268Y-89337143D01*
X87915381Y-89342058D01*
X87914287Y-89347204D01*
X87908900Y-89359303D01*
X87908900Y-89380053D01*
X87907349Y-89399764D01*
X87904103Y-89420258D01*
X87907530Y-89433047D01*
X87908223Y-89446275D01*
X87907787Y-89446298D01*
X87908900Y-89454750D01*
X87908900Y-90521558D01*
X87888898Y-90589679D01*
X87835242Y-90636172D01*
X87764968Y-90646276D01*
X87700388Y-90616782D01*
X87685257Y-90601194D01*
X87685101Y-90601002D01*
X87640906Y-90546814D01*
X87586967Y-90480678D01*
X87586964Y-90480675D01*
X87583072Y-90475903D01*
X87566422Y-90462129D01*
X87436278Y-90354464D01*
X87436274Y-90354462D01*
X87431528Y-90350535D01*
X87258520Y-90256990D01*
X87070637Y-90198830D01*
X87064519Y-90198187D01*
X87064514Y-90198186D01*
X86881164Y-90178916D01*
X86881162Y-90178916D01*
X86875035Y-90178272D01*
X86808720Y-90184307D01*
X86685305Y-90195538D01*
X86685302Y-90195539D01*
X86679166Y-90196097D01*
X86490489Y-90251628D01*
X86316192Y-90342748D01*
X86162912Y-90465988D01*
X86158954Y-90470705D01*
X86158952Y-90470707D01*
X86127115Y-90508649D01*
X86036489Y-90616653D01*
X85941739Y-90789004D01*
X85939878Y-90794871D01*
X85939877Y-90794873D01*
X85901137Y-90916997D01*
X85861473Y-90975881D01*
X85796271Y-91003973D01*
X85726232Y-90992355D01*
X85673592Y-90944716D01*
X85658831Y-90909594D01*
X85619214Y-90751875D01*
X85615894Y-90742124D01*
X85530972Y-90546814D01*
X85526105Y-90537739D01*
X85410426Y-90358926D01*
X85404136Y-90350757D01*
X85260806Y-90193240D01*
X85253273Y-90186215D01*
X85086139Y-90054222D01*
X85077552Y-90048517D01*
X84891117Y-89945599D01*
X84881705Y-89941369D01*
X84680959Y-89870280D01*
X84670988Y-89867646D01*
X84599837Y-89854972D01*
X84586540Y-89856432D01*
X84582000Y-89870989D01*
X84582000Y-92504517D01*
X84586064Y-92518359D01*
X84599478Y-92520393D01*
X84606184Y-92519534D01*
X84616262Y-92517392D01*
X84820255Y-92456191D01*
X84829837Y-92452435D01*
X84922125Y-92407224D01*
X84992099Y-92395218D01*
X85057456Y-92422948D01*
X85097446Y-92481611D01*
X85099372Y-92552582D01*
X85066652Y-92609470D01*
X82388450Y-95287672D01*
X82369355Y-95303343D01*
X82357359Y-95311359D01*
X82342451Y-95333671D01*
X82298303Y-95399743D01*
X82277564Y-95504000D01*
X82279985Y-95516169D01*
X82280379Y-95518150D01*
X82282800Y-95542733D01*
X82282800Y-104516267D01*
X82280379Y-104540847D01*
X82277564Y-104555000D01*
X79750000Y-104555000D01*
X79750000Y-91453966D01*
X82996257Y-91453966D01*
X83026565Y-91588446D01*
X83029645Y-91598275D01*
X83109770Y-91795603D01*
X83114413Y-91804794D01*
X83225694Y-91986388D01*
X83231777Y-91994699D01*
X83371213Y-92155667D01*
X83378580Y-92162883D01*
X83542434Y-92298916D01*
X83550881Y-92304831D01*
X83734756Y-92412279D01*
X83744042Y-92416729D01*
X83943001Y-92492703D01*
X83952899Y-92495579D01*
X84056250Y-92516606D01*
X84070299Y-92515410D01*
X84074000Y-92505065D01*
X84074000Y-91458115D01*
X84069525Y-91442876D01*
X84068135Y-91441671D01*
X84060452Y-91440000D01*
X83011225Y-91440000D01*
X82997694Y-91443973D01*
X82996257Y-91453966D01*
X79750000Y-91453966D01*
X79750000Y-90920183D01*
X82992389Y-90920183D01*
X82993912Y-90928607D01*
X83006292Y-90932000D01*
X84055885Y-90932000D01*
X84071124Y-90927525D01*
X84072329Y-90926135D01*
X84074000Y-90918452D01*
X84074000Y-89869102D01*
X84070082Y-89855758D01*
X84055806Y-89853771D01*
X84017324Y-89859660D01*
X84007288Y-89862051D01*
X83804868Y-89928212D01*
X83795359Y-89932209D01*
X83606463Y-90030542D01*
X83597738Y-90036036D01*
X83427433Y-90163905D01*
X83419726Y-90170748D01*
X83272590Y-90324717D01*
X83266104Y-90332727D01*
X83146098Y-90508649D01*
X83141000Y-90517623D01*
X83051338Y-90710783D01*
X83047775Y-90720470D01*
X82992389Y-90920183D01*
X79750000Y-90920183D01*
X79750000Y-85321403D01*
X81662187Y-85321403D01*
X81679085Y-85614460D01*
X81679910Y-85618665D01*
X81679911Y-85618673D01*
X81701809Y-85730287D01*
X81735599Y-85902514D01*
X81736986Y-85906565D01*
X81736987Y-85906569D01*
X81829294Y-86176177D01*
X81829298Y-86176186D01*
X81830683Y-86180232D01*
X81863801Y-86246080D01*
X81959611Y-86436576D01*
X81962578Y-86442476D01*
X81965004Y-86446005D01*
X81965007Y-86446011D01*
X82058335Y-86581803D01*
X82128844Y-86684394D01*
X82131731Y-86687567D01*
X82131732Y-86687568D01*
X82308931Y-86882308D01*
X82326403Y-86901509D01*
X82374783Y-86941961D01*
X82548308Y-87087051D01*
X82548313Y-87087055D01*
X82551600Y-87089803D01*
X82675934Y-87167798D01*
X82796628Y-87243509D01*
X82796632Y-87243511D01*
X82800268Y-87245792D01*
X82804178Y-87247557D01*
X82804179Y-87247558D01*
X83063894Y-87364824D01*
X83063898Y-87364826D01*
X83067806Y-87366590D01*
X83071925Y-87367810D01*
X83345149Y-87448743D01*
X83345153Y-87448744D01*
X83349262Y-87449961D01*
X83353496Y-87450609D01*
X83353501Y-87450610D01*
X83610363Y-87489915D01*
X83639429Y-87494363D01*
X83788852Y-87496710D01*
X83928646Y-87498907D01*
X83928652Y-87498907D01*
X83932937Y-87498974D01*
X84224356Y-87463708D01*
X84508292Y-87389219D01*
X84512252Y-87387579D01*
X84512257Y-87387577D01*
X84658272Y-87327095D01*
X84779492Y-87276884D01*
X85032937Y-87128783D01*
X85255057Y-86954619D01*
X85260566Y-86950299D01*
X85263938Y-86947655D01*
X85305999Y-86904252D01*
X85372716Y-86835404D01*
X85468219Y-86736853D01*
X85470752Y-86733405D01*
X85470756Y-86733400D01*
X85639463Y-86503732D01*
X85642001Y-86500277D01*
X85782069Y-86242305D01*
X85885829Y-85967711D01*
X85939286Y-85734305D01*
X85950406Y-85685755D01*
X85950407Y-85685750D01*
X85951363Y-85681575D01*
X85977458Y-85389192D01*
X85977931Y-85344000D01*
X85976682Y-85325683D01*
X85958257Y-85055412D01*
X85958256Y-85055406D01*
X85957965Y-85051135D01*
X85922772Y-84881192D01*
X85908733Y-84813403D01*
X145924187Y-84813403D01*
X145941085Y-85106460D01*
X145941910Y-85110665D01*
X145941911Y-85110673D01*
X145974513Y-85276845D01*
X145997599Y-85394514D01*
X145998986Y-85398565D01*
X145998987Y-85398569D01*
X146091294Y-85668177D01*
X146091298Y-85668186D01*
X146092683Y-85672232D01*
X146224578Y-85934476D01*
X146227004Y-85938005D01*
X146227007Y-85938011D01*
X146266678Y-85995732D01*
X146390844Y-86176394D01*
X146588403Y-86393509D01*
X146591684Y-86396252D01*
X146810308Y-86579051D01*
X146810313Y-86579055D01*
X146813600Y-86581803D01*
X146937934Y-86659798D01*
X147058628Y-86735509D01*
X147058632Y-86735511D01*
X147062268Y-86737792D01*
X147066178Y-86739557D01*
X147066179Y-86739558D01*
X147325894Y-86856824D01*
X147325898Y-86856826D01*
X147329806Y-86858590D01*
X147333925Y-86859810D01*
X147607149Y-86940743D01*
X147607153Y-86940744D01*
X147611262Y-86941961D01*
X147615496Y-86942609D01*
X147615501Y-86942610D01*
X147872363Y-86981915D01*
X147901429Y-86986363D01*
X148050852Y-86988710D01*
X148190646Y-86990907D01*
X148190652Y-86990907D01*
X148194937Y-86990974D01*
X148486356Y-86955708D01*
X148770292Y-86881219D01*
X148774252Y-86879579D01*
X148774257Y-86879577D01*
X148920272Y-86819095D01*
X149041492Y-86768884D01*
X149091040Y-86739931D01*
X149291239Y-86622944D01*
X149291240Y-86622944D01*
X149294937Y-86620783D01*
X149525938Y-86439655D01*
X149567999Y-86396252D01*
X149727236Y-86231931D01*
X149730219Y-86228853D01*
X149732752Y-86225405D01*
X149732756Y-86225400D01*
X149901463Y-85995732D01*
X149904001Y-85992277D01*
X150044069Y-85734305D01*
X150147829Y-85459711D01*
X150213363Y-85173575D01*
X150239458Y-84881192D01*
X150239931Y-84836000D01*
X150238682Y-84817683D01*
X150220257Y-84547412D01*
X150220256Y-84547406D01*
X150219965Y-84543135D01*
X150160438Y-84255690D01*
X150154225Y-84238143D01*
X150063882Y-83983023D01*
X150062451Y-83978982D01*
X149927817Y-83718133D01*
X149911824Y-83695377D01*
X149761491Y-83481475D01*
X149761486Y-83481469D01*
X149759027Y-83477970D01*
X149600882Y-83307786D01*
X149562126Y-83266079D01*
X149562123Y-83266076D01*
X149559205Y-83262936D01*
X149555889Y-83260222D01*
X149555886Y-83260219D01*
X149335367Y-83079725D01*
X149335360Y-83079720D01*
X149332049Y-83077010D01*
X149081761Y-82923634D01*
X149077825Y-82921906D01*
X148816901Y-82807368D01*
X148816898Y-82807367D01*
X148812973Y-82805644D01*
X148530659Y-82725225D01*
X148526417Y-82724621D01*
X148526411Y-82724620D01*
X148244294Y-82684469D01*
X148240043Y-82683864D01*
X148085296Y-82683054D01*
X147950788Y-82682349D01*
X147950782Y-82682349D01*
X147946502Y-82682327D01*
X147942258Y-82682886D01*
X147942254Y-82682886D01*
X147814262Y-82699737D01*
X147655469Y-82720642D01*
X147651329Y-82721775D01*
X147651327Y-82721775D01*
X147638716Y-82725225D01*
X147372328Y-82798101D01*
X147102320Y-82913269D01*
X146850440Y-83064017D01*
X146847094Y-83066697D01*
X146847092Y-83066699D01*
X146834222Y-83077010D01*
X146621348Y-83247553D01*
X146419286Y-83460483D01*
X146247990Y-83698866D01*
X146110632Y-83958290D01*
X146009752Y-84233956D01*
X146008839Y-84238142D01*
X146008839Y-84238143D01*
X145948132Y-84516573D01*
X145948131Y-84516581D01*
X145947219Y-84520763D01*
X145924187Y-84813403D01*
X85908733Y-84813403D01*
X85899309Y-84767896D01*
X85898438Y-84763690D01*
X85892225Y-84746143D01*
X85801882Y-84491023D01*
X85800451Y-84486982D01*
X85683243Y-84259896D01*
X85667782Y-84229940D01*
X85667782Y-84229939D01*
X85665817Y-84226133D01*
X85649824Y-84203377D01*
X85499491Y-83989475D01*
X85499486Y-83989469D01*
X85497027Y-83985970D01*
X85297205Y-83770936D01*
X85293889Y-83768222D01*
X85293886Y-83768219D01*
X85073367Y-83587725D01*
X85073360Y-83587720D01*
X85070049Y-83585010D01*
X84872547Y-83463981D01*
X84823423Y-83433878D01*
X84823422Y-83433878D01*
X84819761Y-83431634D01*
X84815825Y-83429906D01*
X84554901Y-83315368D01*
X84554898Y-83315367D01*
X84550973Y-83313644D01*
X84268659Y-83233225D01*
X84264417Y-83232621D01*
X84264411Y-83232620D01*
X83982294Y-83192469D01*
X83978043Y-83191864D01*
X83823296Y-83191054D01*
X83688788Y-83190349D01*
X83688782Y-83190349D01*
X83684502Y-83190327D01*
X83680258Y-83190886D01*
X83680254Y-83190886D01*
X83552262Y-83207737D01*
X83393469Y-83228642D01*
X83389329Y-83229775D01*
X83389327Y-83229775D01*
X83268112Y-83262936D01*
X83110328Y-83306101D01*
X82840320Y-83421269D01*
X82588440Y-83572017D01*
X82585094Y-83574697D01*
X82585092Y-83574699D01*
X82572222Y-83585010D01*
X82359348Y-83755553D01*
X82157286Y-83968483D01*
X81985990Y-84206866D01*
X81848632Y-84466290D01*
X81747752Y-84741956D01*
X81746839Y-84746142D01*
X81746839Y-84746143D01*
X81686132Y-85024573D01*
X81686131Y-85024581D01*
X81685219Y-85028763D01*
X81662187Y-85321403D01*
X79750000Y-85321403D01*
X79750000Y-81196000D01*
X79770002Y-81127879D01*
X79823658Y-81081386D01*
X79876000Y-81070000D01*
X151834000Y-81070000D01*
X151902121Y-81090002D01*
G37*
%TD.AperFunction*%
%TA.AperFunction,Conductor*%
G36*
X137357035Y-104919102D02*
G01*
X137378009Y-104936005D01*
X143350909Y-110908905D01*
X143384935Y-110971217D01*
X143379870Y-111042032D01*
X143350909Y-111087095D01*
X135330520Y-119107483D01*
X127352578Y-127085425D01*
X127347794Y-127089966D01*
X127318514Y-127116330D01*
X127312916Y-127128903D01*
X127310074Y-127135286D01*
X127300642Y-127152658D01*
X127296551Y-127158957D01*
X127296550Y-127158959D01*
X127289339Y-127170064D01*
X127287268Y-127183143D01*
X127285381Y-127188058D01*
X127284287Y-127193204D01*
X127278900Y-127205303D01*
X127278900Y-127226053D01*
X127277349Y-127245764D01*
X127274103Y-127266258D01*
X127277530Y-127279047D01*
X127278223Y-127292275D01*
X127277787Y-127292298D01*
X127278900Y-127300750D01*
X127278900Y-129097314D01*
X127258898Y-129165435D01*
X127241995Y-129186409D01*
X125977404Y-130450999D01*
X125915092Y-130485025D01*
X125844276Y-130479960D01*
X125787441Y-130437413D01*
X125762630Y-130370893D01*
X125768442Y-130330717D01*
X125766651Y-130330291D01*
X125772105Y-130307351D01*
X125777631Y-130256486D01*
X125778000Y-130249672D01*
X125778000Y-130223115D01*
X125773525Y-130207876D01*
X125772135Y-130206671D01*
X125764452Y-130205000D01*
X124280116Y-130205000D01*
X124264877Y-130209475D01*
X124262505Y-130212212D01*
X124229933Y-130271864D01*
X124167621Y-130305889D01*
X124096805Y-130300825D01*
X124051742Y-130271864D01*
X123648326Y-129868448D01*
X123632654Y-129849352D01*
X123631536Y-129847679D01*
X123624641Y-129837359D01*
X123623932Y-129836885D01*
X124262000Y-129836885D01*
X124266475Y-129852124D01*
X124267865Y-129853329D01*
X124275548Y-129855000D01*
X124826885Y-129855000D01*
X124842124Y-129850525D01*
X124843329Y-129849135D01*
X124845000Y-129841452D01*
X124845000Y-129836885D01*
X125195000Y-129836885D01*
X125199475Y-129852124D01*
X125200865Y-129853329D01*
X125208548Y-129855000D01*
X125759884Y-129855000D01*
X125775123Y-129850525D01*
X125776328Y-129849135D01*
X125777999Y-129841452D01*
X125777999Y-129810331D01*
X125777629Y-129803510D01*
X125772105Y-129752648D01*
X125768479Y-129737396D01*
X125723324Y-129616946D01*
X125714786Y-129601351D01*
X125638285Y-129499276D01*
X125625724Y-129486715D01*
X125523649Y-129410214D01*
X125508054Y-129401676D01*
X125387606Y-129356522D01*
X125372351Y-129352895D01*
X125321486Y-129347369D01*
X125314672Y-129347000D01*
X125213115Y-129347000D01*
X125197876Y-129351475D01*
X125196671Y-129352865D01*
X125195000Y-129360548D01*
X125195000Y-129836885D01*
X124845000Y-129836885D01*
X124845000Y-129365116D01*
X124840525Y-129349877D01*
X124839135Y-129348672D01*
X124831452Y-129347001D01*
X124725331Y-129347001D01*
X124718510Y-129347371D01*
X124667648Y-129352895D01*
X124652396Y-129356521D01*
X124531946Y-129401676D01*
X124516351Y-129410214D01*
X124414276Y-129486715D01*
X124401715Y-129499276D01*
X124325214Y-129601351D01*
X124316676Y-129616946D01*
X124271522Y-129737394D01*
X124267895Y-129752649D01*
X124262369Y-129803514D01*
X124262000Y-129810328D01*
X124262000Y-129836885D01*
X123623932Y-129836885D01*
X123589746Y-129814044D01*
X123589746Y-129814043D01*
X123589743Y-129814042D01*
X123546578Y-129785199D01*
X123546576Y-129785198D01*
X123536257Y-129778303D01*
X123458322Y-129762800D01*
X123444171Y-129759985D01*
X123432000Y-129757564D01*
X123419528Y-129760045D01*
X123418858Y-129759985D01*
X123407418Y-129759985D01*
X123407418Y-129758961D01*
X123348815Y-129753718D01*
X123324944Y-129741231D01*
X123289975Y-129717865D01*
X123289972Y-129717864D01*
X123279658Y-129710972D01*
X123267491Y-129708552D01*
X123267489Y-129708551D01*
X123249257Y-129704925D01*
X123235057Y-129702100D01*
X122970043Y-129702100D01*
X122704944Y-129702101D01*
X122688290Y-129705413D01*
X122672517Y-129708550D01*
X122672515Y-129708551D01*
X122660342Y-129710972D01*
X122614555Y-129741566D01*
X122544555Y-129762800D01*
X119517868Y-129762800D01*
X119449747Y-129742798D01*
X119428773Y-129725895D01*
X118439805Y-128736927D01*
X118405779Y-128674615D01*
X118402900Y-128647833D01*
X118402899Y-128407169D01*
X118422901Y-128339048D01*
X118439804Y-128318073D01*
X118802551Y-127955326D01*
X118864863Y-127921300D01*
X118872087Y-127920523D01*
X118872000Y-127919972D01*
X118999306Y-127899809D01*
X119114151Y-127841292D01*
X119205292Y-127750151D01*
X119263809Y-127635306D01*
X119283972Y-127508000D01*
X119279311Y-127478568D01*
X119265360Y-127390487D01*
X119263809Y-127380694D01*
X119205292Y-127265849D01*
X119114151Y-127174708D01*
X118999306Y-127116191D01*
X118872000Y-127096028D01*
X118744694Y-127116191D01*
X118629849Y-127174708D01*
X118538708Y-127265849D01*
X118480191Y-127380694D01*
X118460028Y-127508000D01*
X118455998Y-127507362D01*
X118441577Y-127556475D01*
X118424674Y-127577449D01*
X118257295Y-127744828D01*
X118194983Y-127778854D01*
X118124168Y-127773789D01*
X118067332Y-127731242D01*
X118042521Y-127664722D01*
X118042200Y-127655733D01*
X118042200Y-126195733D01*
X118044621Y-126171150D01*
X118045015Y-126169169D01*
X118047436Y-126157000D01*
X118026697Y-126052744D01*
X117982549Y-125986671D01*
X117967641Y-125964359D01*
X117955645Y-125956343D01*
X117936550Y-125940672D01*
X110451316Y-118455438D01*
X120652000Y-118455438D01*
X120652337Y-118461953D01*
X120661894Y-118554057D01*
X120664788Y-118567456D01*
X120714381Y-118716107D01*
X120720555Y-118729286D01*
X120802788Y-118862173D01*
X120811824Y-118873574D01*
X120922429Y-118983986D01*
X120933840Y-118992998D01*
X121066880Y-119075004D01*
X121080061Y-119081151D01*
X121228814Y-119130491D01*
X121242190Y-119133358D01*
X121333097Y-119142672D01*
X121338126Y-119142929D01*
X121353124Y-119138525D01*
X121354329Y-119137135D01*
X121356000Y-119129452D01*
X121356000Y-118432115D01*
X121351525Y-118416876D01*
X121350135Y-118415671D01*
X121342452Y-118414000D01*
X120670115Y-118414000D01*
X120654876Y-118418475D01*
X120653671Y-118419865D01*
X120652000Y-118427548D01*
X120652000Y-118455438D01*
X110451316Y-118455438D01*
X109883763Y-117887885D01*
X120652000Y-117887885D01*
X120656475Y-117903124D01*
X120657865Y-117904329D01*
X120665548Y-117906000D01*
X121337885Y-117906000D01*
X121353124Y-117901525D01*
X121354329Y-117900135D01*
X121356000Y-117892452D01*
X121356000Y-117195115D01*
X121351525Y-117179876D01*
X121350135Y-117178671D01*
X121342452Y-117177000D01*
X121339562Y-117177000D01*
X121333047Y-117177337D01*
X121240943Y-117186894D01*
X121227544Y-117189788D01*
X121078893Y-117239381D01*
X121065714Y-117245555D01*
X120932827Y-117327788D01*
X120921426Y-117336824D01*
X120811014Y-117447429D01*
X120802002Y-117458840D01*
X120719996Y-117591880D01*
X120713849Y-117605061D01*
X120664509Y-117753814D01*
X120661642Y-117767190D01*
X120652328Y-117858097D01*
X120652000Y-117864514D01*
X120652000Y-117887885D01*
X109883763Y-117887885D01*
X109105749Y-117109871D01*
X117039434Y-117109871D01*
X117073981Y-117228783D01*
X117080230Y-117243222D01*
X117154854Y-117369405D01*
X117164501Y-117381841D01*
X117268159Y-117485499D01*
X117280595Y-117495146D01*
X117406778Y-117569770D01*
X117421217Y-117576019D01*
X117563436Y-117617338D01*
X117576023Y-117619637D01*
X117583943Y-117620260D01*
X117599030Y-117617090D01*
X117602000Y-117605626D01*
X117602000Y-117603566D01*
X118110000Y-117603566D01*
X118114344Y-117618361D01*
X118126003Y-117620421D01*
X118135977Y-117619637D01*
X118148564Y-117617338D01*
X118290783Y-117576019D01*
X118305222Y-117569770D01*
X118431405Y-117495146D01*
X118443841Y-117485499D01*
X118547499Y-117381841D01*
X118557146Y-117369405D01*
X118631770Y-117243222D01*
X118638019Y-117228783D01*
X118670961Y-117115395D01*
X118670921Y-117101295D01*
X118663651Y-117098000D01*
X118128115Y-117098000D01*
X118112876Y-117102475D01*
X118111671Y-117103865D01*
X118110000Y-117111548D01*
X118110000Y-117603566D01*
X117602000Y-117603566D01*
X117602000Y-117116115D01*
X117597525Y-117100876D01*
X117596135Y-117099671D01*
X117588452Y-117098000D01*
X117054100Y-117098000D01*
X117040569Y-117101973D01*
X117039434Y-117109871D01*
X109105749Y-117109871D01*
X109016105Y-117020227D01*
X108982079Y-116957915D01*
X108979200Y-116931132D01*
X108979200Y-116572605D01*
X117041039Y-116572605D01*
X117041079Y-116586705D01*
X117048349Y-116590000D01*
X118657900Y-116590000D01*
X118671431Y-116586027D01*
X118672566Y-116578129D01*
X118638019Y-116459217D01*
X118631770Y-116444778D01*
X118557146Y-116318595D01*
X118547499Y-116306159D01*
X118443841Y-116202501D01*
X118431405Y-116192854D01*
X118383007Y-116164232D01*
X118334554Y-116112340D01*
X118321849Y-116042489D01*
X118324026Y-116030913D01*
X118326031Y-116026379D01*
X118328900Y-116001772D01*
X118328900Y-115646228D01*
X118325913Y-115621124D01*
X118322076Y-115612485D01*
X118322075Y-115612482D01*
X118291058Y-115542654D01*
X118282376Y-115523107D01*
X118244423Y-115485221D01*
X118214703Y-115455552D01*
X118214701Y-115455551D01*
X118206471Y-115447335D01*
X118195834Y-115442632D01*
X118195829Y-115442629D01*
X118160153Y-115426857D01*
X118105937Y-115381019D01*
X118085100Y-115311617D01*
X118085100Y-115061086D01*
X118105102Y-114992965D01*
X118122005Y-114971991D01*
X119269191Y-113824805D01*
X119331503Y-113790779D01*
X119358286Y-113787900D01*
X119695479Y-113787899D01*
X119870814Y-113787899D01*
X119945095Y-113776966D01*
X120047918Y-113726482D01*
X120048678Y-113726109D01*
X120048679Y-113726108D01*
X120058026Y-113721519D01*
X120146908Y-113632482D01*
X120152134Y-113621792D01*
X120195456Y-113533162D01*
X120202157Y-113519454D01*
X120209864Y-113466627D01*
X120212240Y-113450341D01*
X120212240Y-113450337D01*
X120212900Y-113445815D01*
X120212899Y-112874186D01*
X120201966Y-112799905D01*
X120163175Y-112720898D01*
X120151109Y-112696322D01*
X120151108Y-112696321D01*
X120146519Y-112686974D01*
X120057482Y-112598092D01*
X120029173Y-112584254D01*
X120011514Y-112575622D01*
X119944454Y-112542843D01*
X119908419Y-112537586D01*
X119875341Y-112532760D01*
X119875337Y-112532760D01*
X119870815Y-112532100D01*
X119610995Y-112532100D01*
X119349186Y-112532101D01*
X119274905Y-112543034D01*
X119228119Y-112566005D01*
X119171322Y-112593891D01*
X119171321Y-112593892D01*
X119161974Y-112598481D01*
X119073092Y-112687518D01*
X119017843Y-112800546D01*
X119007100Y-112874185D01*
X119007101Y-113147861D01*
X119007101Y-113386713D01*
X118987099Y-113454834D01*
X118970196Y-113475808D01*
X118329327Y-114116676D01*
X117700578Y-114745425D01*
X117695794Y-114749966D01*
X117666514Y-114776330D01*
X117658074Y-114795286D01*
X117648642Y-114812658D01*
X117644551Y-114818957D01*
X117644550Y-114818959D01*
X117637339Y-114830064D01*
X117635268Y-114843143D01*
X117633381Y-114848058D01*
X117632287Y-114853204D01*
X117626900Y-114865303D01*
X117626900Y-114886053D01*
X117625349Y-114905764D01*
X117622103Y-114926258D01*
X117625530Y-114939047D01*
X117626223Y-114952275D01*
X117625787Y-114952298D01*
X117626900Y-114960750D01*
X117626900Y-115311622D01*
X117606898Y-115379743D01*
X117552047Y-115426774D01*
X117521825Y-115440198D01*
X117505107Y-115447624D01*
X117467221Y-115485577D01*
X117437552Y-115515297D01*
X117437551Y-115515299D01*
X117429335Y-115523529D01*
X117385969Y-115621621D01*
X117384872Y-115631033D01*
X117383741Y-115640734D01*
X117383100Y-115646228D01*
X117383100Y-116001772D01*
X117386087Y-116026876D01*
X117386238Y-116027216D01*
X117385085Y-116093394D01*
X117345667Y-116152442D01*
X117328966Y-116164248D01*
X117280592Y-116192857D01*
X117268159Y-116202501D01*
X117164501Y-116306159D01*
X117154854Y-116318595D01*
X117080230Y-116444778D01*
X117073981Y-116459217D01*
X117041039Y-116572605D01*
X108979200Y-116572605D01*
X108979200Y-111645200D01*
X108999202Y-111577079D01*
X109052858Y-111530586D01*
X109105200Y-111519200D01*
X119642546Y-111519200D01*
X119710667Y-111539202D01*
X119748822Y-111583700D01*
X119750314Y-111582675D01*
X119756900Y-111592257D01*
X119761624Y-111602893D01*
X119794655Y-111635866D01*
X119829297Y-111670448D01*
X119829299Y-111670449D01*
X119837529Y-111678665D01*
X119935621Y-111722031D01*
X119951611Y-111723895D01*
X119956589Y-111724476D01*
X119956594Y-111724476D01*
X119960228Y-111724900D01*
X120315772Y-111724900D01*
X120324277Y-111723888D01*
X120331484Y-111723031D01*
X120331487Y-111723030D01*
X120340876Y-111721913D01*
X120349515Y-111718076D01*
X120349518Y-111718075D01*
X120410694Y-111690901D01*
X120438893Y-111678376D01*
X120483884Y-111633306D01*
X120506448Y-111610703D01*
X120506449Y-111610701D01*
X120514665Y-111602471D01*
X120532767Y-111561525D01*
X120578606Y-111507309D01*
X120646479Y-111486481D01*
X120714837Y-111505655D01*
X120763160Y-111561324D01*
X120781624Y-111602893D01*
X120857529Y-111678665D01*
X120868167Y-111683368D01*
X120874086Y-111687421D01*
X120918993Y-111742411D01*
X120928900Y-111791385D01*
X120928900Y-112419513D01*
X120908898Y-112487634D01*
X120855242Y-112534127D01*
X120840290Y-112539837D01*
X120834588Y-112541609D01*
X120824905Y-112543034D01*
X120816119Y-112547348D01*
X120816118Y-112547348D01*
X120721322Y-112593891D01*
X120721321Y-112593892D01*
X120711974Y-112598481D01*
X120623092Y-112687518D01*
X120567843Y-112800546D01*
X120557100Y-112874185D01*
X120557101Y-113445814D01*
X120568034Y-113520095D01*
X120574420Y-113533102D01*
X120618620Y-113623125D01*
X120623481Y-113633026D01*
X120712518Y-113721908D01*
X120825546Y-113777157D01*
X120846494Y-113780213D01*
X120894659Y-113787240D01*
X120894663Y-113787240D01*
X120899185Y-113787900D01*
X121159005Y-113787900D01*
X121420814Y-113787899D01*
X121495095Y-113776966D01*
X121597918Y-113726482D01*
X121598678Y-113726109D01*
X121598679Y-113726108D01*
X121608026Y-113721519D01*
X121696908Y-113632482D01*
X121702134Y-113621792D01*
X121715954Y-113593518D01*
X121720721Y-113583766D01*
X121768605Y-113531351D01*
X121833920Y-113513100D01*
X122283467Y-113513100D01*
X122351588Y-113533102D01*
X122372562Y-113550005D01*
X122439849Y-113617292D01*
X122554694Y-113675809D01*
X122682000Y-113695972D01*
X122809306Y-113675809D01*
X122924151Y-113617292D01*
X123015292Y-113526151D01*
X123073809Y-113411306D01*
X123076523Y-113394169D01*
X126365000Y-113394169D01*
X126365370Y-113400990D01*
X126370894Y-113451852D01*
X126374520Y-113467104D01*
X126419675Y-113587554D01*
X126428213Y-113603149D01*
X126504714Y-113705224D01*
X126517275Y-113717785D01*
X126619350Y-113794286D01*
X126634945Y-113802824D01*
X126755393Y-113847978D01*
X126770648Y-113851605D01*
X126821513Y-113857131D01*
X126828327Y-113857500D01*
X126854884Y-113857500D01*
X126870123Y-113853025D01*
X126871328Y-113851635D01*
X126872999Y-113843952D01*
X126872999Y-113113615D01*
X126868524Y-113098376D01*
X126867134Y-113097171D01*
X126859451Y-113095500D01*
X126383115Y-113095500D01*
X126367876Y-113099975D01*
X126366671Y-113101365D01*
X126365000Y-113109048D01*
X126365000Y-113394169D01*
X123076523Y-113394169D01*
X123087161Y-113327002D01*
X123092421Y-113293793D01*
X123093972Y-113284000D01*
X123073809Y-113156694D01*
X123015292Y-113041849D01*
X122924151Y-112950708D01*
X122809306Y-112892191D01*
X122739267Y-112881098D01*
X122691793Y-112873579D01*
X122682000Y-112872028D01*
X122672207Y-112873579D01*
X122624733Y-112881098D01*
X122554694Y-112892191D01*
X122439849Y-112950708D01*
X122372562Y-113017995D01*
X122310250Y-113052021D01*
X122283467Y-113054900D01*
X121893287Y-113054900D01*
X121825166Y-113034898D01*
X121778673Y-112981242D01*
X121768569Y-112910968D01*
X121798063Y-112846388D01*
X121804192Y-112839805D01*
X122077992Y-112566005D01*
X122140304Y-112531979D01*
X122167087Y-112529100D01*
X125722219Y-112529100D01*
X125728813Y-112529273D01*
X125754914Y-112530641D01*
X125754915Y-112530641D01*
X125768140Y-112531334D01*
X125787515Y-112523897D01*
X125806463Y-112518285D01*
X125813812Y-112516723D01*
X125813813Y-112516722D01*
X125826766Y-112513969D01*
X125837477Y-112506187D01*
X125842285Y-112504046D01*
X125846702Y-112501177D01*
X125859065Y-112496432D01*
X125873736Y-112481761D01*
X125888770Y-112468920D01*
X125894847Y-112464505D01*
X125894847Y-112464504D01*
X125905559Y-112456722D01*
X125912179Y-112445255D01*
X125921042Y-112435412D01*
X125921367Y-112435704D01*
X125926557Y-112428940D01*
X125945180Y-112410317D01*
X126007492Y-112376291D01*
X126078307Y-112381356D01*
X126135143Y-112423903D01*
X126150689Y-112457104D01*
X126152548Y-112456407D01*
X126200476Y-112584254D01*
X126209014Y-112599849D01*
X126285515Y-112701924D01*
X126298072Y-112714481D01*
X126314564Y-112726841D01*
X126357079Y-112783701D01*
X126363003Y-112816586D01*
X126369474Y-112838624D01*
X126370864Y-112839829D01*
X126378547Y-112841500D01*
X127000999Y-112841500D01*
X127069120Y-112861502D01*
X127115613Y-112915158D01*
X127126999Y-112967500D01*
X127126999Y-113839384D01*
X127131474Y-113854623D01*
X127132864Y-113855828D01*
X127153782Y-113860378D01*
X127153237Y-113862883D01*
X127203021Y-113877501D01*
X127249514Y-113931157D01*
X127260900Y-113983499D01*
X127260900Y-114424914D01*
X127240898Y-114493035D01*
X127223995Y-114514009D01*
X126613118Y-115124885D01*
X126004578Y-115733425D01*
X125999794Y-115737966D01*
X125970514Y-115764330D01*
X125962074Y-115783286D01*
X125952642Y-115800658D01*
X125948551Y-115806957D01*
X125948550Y-115806959D01*
X125941339Y-115818064D01*
X125939268Y-115831143D01*
X125937381Y-115836058D01*
X125936287Y-115841204D01*
X125930900Y-115853303D01*
X125930900Y-115874053D01*
X125929349Y-115893764D01*
X125926103Y-115914258D01*
X125929530Y-115927047D01*
X125930223Y-115940275D01*
X125929787Y-115940298D01*
X125930900Y-115948750D01*
X125930900Y-116981101D01*
X125910898Y-117049222D01*
X125857242Y-117095715D01*
X125804900Y-117107101D01*
X125644944Y-117107101D01*
X125631017Y-117109871D01*
X125612517Y-117113550D01*
X125612515Y-117113551D01*
X125600342Y-117115972D01*
X125549766Y-117149766D01*
X125542873Y-117160082D01*
X125522865Y-117190025D01*
X125522864Y-117190028D01*
X125515972Y-117200342D01*
X125513552Y-117212509D01*
X125513551Y-117212511D01*
X125509925Y-117230743D01*
X125507100Y-117244943D01*
X125507100Y-117804900D01*
X125487098Y-117873021D01*
X125433442Y-117919514D01*
X125381100Y-117930900D01*
X123880059Y-117930900D01*
X123811938Y-117910898D01*
X123765445Y-117857242D01*
X123755402Y-117823249D01*
X123753392Y-117809594D01*
X123751966Y-117799905D01*
X123724938Y-117744857D01*
X123701109Y-117696322D01*
X123701108Y-117696321D01*
X123696519Y-117686974D01*
X123607482Y-117598092D01*
X123593966Y-117591485D01*
X123503676Y-117547351D01*
X123494454Y-117542843D01*
X123461082Y-117537974D01*
X123425341Y-117532760D01*
X123425337Y-117532760D01*
X123420815Y-117532100D01*
X123160995Y-117532100D01*
X122899186Y-117532101D01*
X122824905Y-117543034D01*
X122788368Y-117560973D01*
X122721322Y-117593891D01*
X122721321Y-117593892D01*
X122711974Y-117598481D01*
X122696257Y-117614226D01*
X122633976Y-117648306D01*
X122563156Y-117643304D01*
X122506282Y-117600808D01*
X122499939Y-117591512D01*
X122417212Y-117457827D01*
X122408176Y-117446426D01*
X122297571Y-117336014D01*
X122286160Y-117327002D01*
X122153120Y-117244996D01*
X122139939Y-117238849D01*
X121991186Y-117189509D01*
X121977810Y-117186642D01*
X121886903Y-117177328D01*
X121881874Y-117177071D01*
X121866876Y-117181475D01*
X121865672Y-117182864D01*
X121864000Y-117190548D01*
X121864000Y-119124885D01*
X121868475Y-119140124D01*
X121869865Y-119141329D01*
X121877548Y-119143000D01*
X121880438Y-119143000D01*
X121886953Y-119142663D01*
X121979057Y-119133106D01*
X121992456Y-119130212D01*
X122141107Y-119080619D01*
X122154286Y-119074445D01*
X122287173Y-118992212D01*
X122298574Y-118983176D01*
X122408986Y-118872571D01*
X122417998Y-118861160D01*
X122499761Y-118728515D01*
X122552533Y-118681022D01*
X122622605Y-118669598D01*
X122687728Y-118697872D01*
X122696038Y-118705457D01*
X122712518Y-118721908D01*
X122721874Y-118726481D01*
X122721875Y-118726482D01*
X122758486Y-118744378D01*
X122825546Y-118777157D01*
X122858918Y-118782026D01*
X122894659Y-118787240D01*
X122894663Y-118787240D01*
X122899185Y-118787900D01*
X123159005Y-118787900D01*
X123420814Y-118787899D01*
X123495095Y-118776966D01*
X123592207Y-118729286D01*
X123598678Y-118726109D01*
X123598679Y-118726108D01*
X123608026Y-118721519D01*
X123696908Y-118632482D01*
X123752157Y-118519454D01*
X123755446Y-118496909D01*
X123785073Y-118432390D01*
X123844879Y-118394130D01*
X123880126Y-118389100D01*
X125381101Y-118389100D01*
X125449222Y-118409102D01*
X125495715Y-118462758D01*
X125507101Y-118515100D01*
X125507101Y-119075056D01*
X125515972Y-119119658D01*
X125522866Y-119129975D01*
X125522868Y-119129979D01*
X125531521Y-119142929D01*
X125549766Y-119170234D01*
X125560082Y-119177127D01*
X125590025Y-119197135D01*
X125590028Y-119197136D01*
X125600342Y-119204028D01*
X125612509Y-119206448D01*
X125612511Y-119206449D01*
X125630743Y-119210075D01*
X125644943Y-119212900D01*
X126159916Y-119212900D01*
X126675056Y-119212899D01*
X126691710Y-119209587D01*
X126707483Y-119206450D01*
X126707485Y-119206449D01*
X126719658Y-119204028D01*
X126733164Y-119195004D01*
X126759918Y-119177127D01*
X126770234Y-119170234D01*
X126777127Y-119159918D01*
X126797135Y-119129975D01*
X126797136Y-119129972D01*
X126804028Y-119119658D01*
X126812900Y-119075057D01*
X126812899Y-117244944D01*
X126804028Y-117200342D01*
X126795043Y-117186894D01*
X126777127Y-117160082D01*
X126770234Y-117149766D01*
X126729979Y-117122868D01*
X126729975Y-117122865D01*
X126729972Y-117122864D01*
X126719658Y-117115972D01*
X126707491Y-117113552D01*
X126707489Y-117113551D01*
X126688987Y-117109871D01*
X126675057Y-117107100D01*
X126515100Y-117107100D01*
X126446979Y-117087098D01*
X126400486Y-117033442D01*
X126389100Y-116981100D01*
X126389100Y-116049086D01*
X126409102Y-115980965D01*
X126426005Y-115959991D01*
X127555805Y-114830192D01*
X127618117Y-114796166D01*
X127688933Y-114801231D01*
X127745768Y-114843778D01*
X127770579Y-114910298D01*
X127770900Y-114919287D01*
X127770900Y-115036718D01*
X127770727Y-115043312D01*
X127769796Y-115061086D01*
X127768666Y-115082639D01*
X127776103Y-115102014D01*
X127781715Y-115120962D01*
X127786031Y-115141265D01*
X127793813Y-115151976D01*
X127795954Y-115156784D01*
X127798823Y-115161201D01*
X127803568Y-115173564D01*
X127818239Y-115188235D01*
X127831080Y-115203269D01*
X127843278Y-115220058D01*
X127854745Y-115226678D01*
X127864588Y-115235541D01*
X127864296Y-115235865D01*
X127871059Y-115241055D01*
X128393996Y-115763993D01*
X128428021Y-115826305D01*
X128430900Y-115853088D01*
X128430900Y-116981101D01*
X128410898Y-117049222D01*
X128357242Y-117095715D01*
X128304900Y-117107101D01*
X128144944Y-117107101D01*
X128131017Y-117109871D01*
X128112517Y-117113550D01*
X128112515Y-117113551D01*
X128100342Y-117115972D01*
X128049766Y-117149766D01*
X128042873Y-117160082D01*
X128022865Y-117190025D01*
X128022864Y-117190028D01*
X128015972Y-117200342D01*
X128013552Y-117212509D01*
X128013551Y-117212511D01*
X128009925Y-117230743D01*
X128007100Y-117244943D01*
X128007101Y-119075056D01*
X128015972Y-119119658D01*
X128022866Y-119129975D01*
X128022868Y-119129979D01*
X128031521Y-119142929D01*
X128049766Y-119170234D01*
X128060082Y-119177127D01*
X128090025Y-119197135D01*
X128090028Y-119197136D01*
X128100342Y-119204028D01*
X128112509Y-119206448D01*
X128112511Y-119206449D01*
X128130743Y-119210075D01*
X128144943Y-119212900D01*
X128659916Y-119212900D01*
X129175056Y-119212899D01*
X129191710Y-119209587D01*
X129207483Y-119206450D01*
X129207485Y-119206449D01*
X129219658Y-119204028D01*
X129233164Y-119195004D01*
X129259918Y-119177127D01*
X129270234Y-119170234D01*
X129277127Y-119159918D01*
X129297135Y-119129975D01*
X129297136Y-119129972D01*
X129304028Y-119119658D01*
X129312900Y-119075057D01*
X129312900Y-118515100D01*
X129332902Y-118446979D01*
X129386558Y-118400486D01*
X129438900Y-118389100D01*
X131439941Y-118389100D01*
X131508062Y-118409102D01*
X131554555Y-118462758D01*
X131564598Y-118496751D01*
X131568034Y-118520095D01*
X131584709Y-118554057D01*
X131618620Y-118623125D01*
X131623481Y-118633026D01*
X131712518Y-118721908D01*
X131721874Y-118726481D01*
X131721875Y-118726482D01*
X131758486Y-118744378D01*
X131825546Y-118777157D01*
X131858918Y-118782026D01*
X131894659Y-118787240D01*
X131894663Y-118787240D01*
X131899185Y-118787900D01*
X132159005Y-118787900D01*
X132420814Y-118787899D01*
X132495095Y-118776966D01*
X132592207Y-118729286D01*
X132598678Y-118726109D01*
X132598679Y-118726108D01*
X132608026Y-118721519D01*
X132623743Y-118705774D01*
X132686024Y-118671694D01*
X132756844Y-118676696D01*
X132813718Y-118719192D01*
X132820061Y-118728488D01*
X132902788Y-118862173D01*
X132911824Y-118873574D01*
X133022429Y-118983986D01*
X133033840Y-118992998D01*
X133166880Y-119075004D01*
X133180061Y-119081151D01*
X133328814Y-119130491D01*
X133342190Y-119133358D01*
X133433097Y-119142672D01*
X133438126Y-119142929D01*
X133453124Y-119138525D01*
X133454329Y-119137135D01*
X133456000Y-119129452D01*
X133456000Y-119124885D01*
X133964000Y-119124885D01*
X133968475Y-119140124D01*
X133969865Y-119141329D01*
X133977548Y-119143000D01*
X133980438Y-119143000D01*
X133986953Y-119142663D01*
X134079057Y-119133106D01*
X134092456Y-119130212D01*
X134241107Y-119080619D01*
X134254286Y-119074445D01*
X134387173Y-118992212D01*
X134398574Y-118983176D01*
X134508986Y-118872571D01*
X134517998Y-118861160D01*
X134600004Y-118728120D01*
X134606151Y-118714939D01*
X134655491Y-118566186D01*
X134658358Y-118552810D01*
X134667672Y-118461903D01*
X134668000Y-118455487D01*
X134668000Y-118432115D01*
X134663525Y-118416876D01*
X134662135Y-118415671D01*
X134654452Y-118414000D01*
X133982115Y-118414000D01*
X133966876Y-118418475D01*
X133965671Y-118419865D01*
X133964000Y-118427548D01*
X133964000Y-119124885D01*
X133456000Y-119124885D01*
X133456000Y-117887885D01*
X133964000Y-117887885D01*
X133968475Y-117903124D01*
X133969865Y-117904329D01*
X133977548Y-117906000D01*
X134649885Y-117906000D01*
X134665124Y-117901525D01*
X134666329Y-117900135D01*
X134668000Y-117892452D01*
X134668000Y-117864562D01*
X134667663Y-117858047D01*
X134658106Y-117765943D01*
X134655212Y-117752544D01*
X134605619Y-117603893D01*
X134599445Y-117590714D01*
X134517212Y-117457827D01*
X134508176Y-117446426D01*
X134397571Y-117336014D01*
X134386160Y-117327002D01*
X134253120Y-117244996D01*
X134239939Y-117238849D01*
X134091186Y-117189509D01*
X134077810Y-117186642D01*
X133986903Y-117177328D01*
X133981874Y-117177071D01*
X133966876Y-117181475D01*
X133965672Y-117182864D01*
X133964000Y-117190548D01*
X133964000Y-117887885D01*
X133456000Y-117887885D01*
X133456000Y-117195115D01*
X133451525Y-117179876D01*
X133450135Y-117178671D01*
X133442452Y-117177000D01*
X133439562Y-117177000D01*
X133433047Y-117177337D01*
X133340943Y-117186894D01*
X133327544Y-117189788D01*
X133178893Y-117239381D01*
X133165714Y-117245555D01*
X133032827Y-117327788D01*
X133021426Y-117336824D01*
X132911014Y-117447429D01*
X132902002Y-117458840D01*
X132820239Y-117591485D01*
X132767467Y-117638978D01*
X132697395Y-117650402D01*
X132632272Y-117622128D01*
X132623962Y-117614543D01*
X132614853Y-117605450D01*
X132614852Y-117605450D01*
X132607482Y-117598092D01*
X132593966Y-117591485D01*
X132503676Y-117547351D01*
X132494454Y-117542843D01*
X132461082Y-117537974D01*
X132425341Y-117532760D01*
X132425337Y-117532760D01*
X132420815Y-117532100D01*
X132160995Y-117532100D01*
X131899186Y-117532101D01*
X131824905Y-117543034D01*
X131788368Y-117560973D01*
X131721322Y-117593891D01*
X131721321Y-117593892D01*
X131711974Y-117598481D01*
X131623092Y-117687518D01*
X131567843Y-117800546D01*
X131566431Y-117810225D01*
X131564554Y-117823091D01*
X131534927Y-117887610D01*
X131475121Y-117925870D01*
X131439874Y-117930900D01*
X129438899Y-117930900D01*
X129370778Y-117910898D01*
X129324285Y-117857242D01*
X129312899Y-117804900D01*
X129312899Y-117244944D01*
X129304028Y-117200342D01*
X129295043Y-117186894D01*
X129277127Y-117160082D01*
X129270234Y-117149766D01*
X129229979Y-117122868D01*
X129229975Y-117122865D01*
X129229972Y-117122864D01*
X129219658Y-117115972D01*
X129207491Y-117113552D01*
X129207489Y-117113551D01*
X129188987Y-117109871D01*
X129175057Y-117107100D01*
X129015100Y-117107100D01*
X128946979Y-117087098D01*
X128900486Y-117033442D01*
X128889100Y-116981100D01*
X128889100Y-115715282D01*
X128889273Y-115708688D01*
X128890641Y-115682587D01*
X128890641Y-115682586D01*
X128891334Y-115669361D01*
X128883897Y-115649986D01*
X128878285Y-115631038D01*
X128876723Y-115623689D01*
X128876722Y-115623688D01*
X128873969Y-115610735D01*
X128866187Y-115600024D01*
X128864046Y-115595216D01*
X128861177Y-115590799D01*
X128856432Y-115578436D01*
X128841761Y-115563765D01*
X128828920Y-115548731D01*
X128824505Y-115542654D01*
X128824504Y-115542654D01*
X128816722Y-115531942D01*
X128805255Y-115525322D01*
X128795412Y-115516459D01*
X128795704Y-115516135D01*
X128788941Y-115510945D01*
X128266004Y-114988007D01*
X128231979Y-114925695D01*
X128229100Y-114898912D01*
X128229100Y-114433169D01*
X128249102Y-114365048D01*
X128302758Y-114318555D01*
X128373032Y-114308451D01*
X128437612Y-114337945D01*
X128444195Y-114344073D01*
X128838674Y-114738551D01*
X128872699Y-114800864D01*
X128873476Y-114808087D01*
X128874028Y-114808000D01*
X128894191Y-114935306D01*
X128952708Y-115050151D01*
X129043849Y-115141292D01*
X129158694Y-115199809D01*
X129286000Y-115219972D01*
X129413306Y-115199809D01*
X129528151Y-115141292D01*
X129619292Y-115050151D01*
X129677809Y-114935306D01*
X129697972Y-114808000D01*
X129677809Y-114680694D01*
X129619292Y-114565849D01*
X129528151Y-114474708D01*
X129413306Y-114416191D01*
X129286000Y-114396028D01*
X129286638Y-114391998D01*
X129237526Y-114377577D01*
X129216551Y-114360674D01*
X128804103Y-113948225D01*
X128770078Y-113885913D01*
X128767199Y-113859130D01*
X128767199Y-113628400D01*
X128787201Y-113560279D01*
X128840857Y-113513786D01*
X128893198Y-113502400D01*
X129099628Y-113502399D01*
X129142057Y-113502399D01*
X129158711Y-113499087D01*
X129174484Y-113495950D01*
X129174486Y-113495949D01*
X129186659Y-113493528D01*
X129237235Y-113459734D01*
X129246127Y-113446426D01*
X129264136Y-113419475D01*
X129264137Y-113419472D01*
X129271029Y-113409158D01*
X129279901Y-113364557D01*
X129279901Y-113325100D01*
X129299903Y-113256979D01*
X129353559Y-113210486D01*
X129405901Y-113199100D01*
X134822914Y-113199100D01*
X134891035Y-113219102D01*
X134912009Y-113236005D01*
X135520195Y-113844191D01*
X135554221Y-113906503D01*
X135557100Y-113933286D01*
X135557101Y-114189212D01*
X135557101Y-114445814D01*
X135568034Y-114520095D01*
X135587056Y-114558838D01*
X135617428Y-114620697D01*
X135623481Y-114633026D01*
X135712518Y-114721908D01*
X135825546Y-114777157D01*
X135858918Y-114782026D01*
X135894659Y-114787240D01*
X135894663Y-114787240D01*
X135899185Y-114787900D01*
X136159005Y-114787900D01*
X136420814Y-114787899D01*
X136495095Y-114776966D01*
X136559336Y-114745425D01*
X136598678Y-114726109D01*
X136598679Y-114726108D01*
X136608026Y-114721519D01*
X136623743Y-114705774D01*
X136686024Y-114671694D01*
X136756844Y-114676696D01*
X136813718Y-114719192D01*
X136820061Y-114728488D01*
X136902788Y-114862173D01*
X136911824Y-114873574D01*
X137022429Y-114983986D01*
X137033840Y-114992998D01*
X137166880Y-115075004D01*
X137180061Y-115081151D01*
X137328814Y-115130491D01*
X137342190Y-115133358D01*
X137433097Y-115142672D01*
X137438126Y-115142929D01*
X137453124Y-115138525D01*
X137454329Y-115137135D01*
X137456000Y-115129452D01*
X137456000Y-115124885D01*
X137964000Y-115124885D01*
X137968475Y-115140124D01*
X137969865Y-115141329D01*
X137977548Y-115143000D01*
X137980438Y-115143000D01*
X137986953Y-115142663D01*
X138079057Y-115133106D01*
X138092456Y-115130212D01*
X138241107Y-115080619D01*
X138254286Y-115074445D01*
X138387173Y-114992212D01*
X138398574Y-114983176D01*
X138508986Y-114872571D01*
X138517998Y-114861160D01*
X138600004Y-114728120D01*
X138606151Y-114714939D01*
X138655491Y-114566186D01*
X138658358Y-114552810D01*
X138667672Y-114461903D01*
X138668000Y-114455487D01*
X138668000Y-114432115D01*
X138663525Y-114416876D01*
X138662135Y-114415671D01*
X138654452Y-114414000D01*
X137982115Y-114414000D01*
X137966876Y-114418475D01*
X137965671Y-114419865D01*
X137964000Y-114427548D01*
X137964000Y-115124885D01*
X137456000Y-115124885D01*
X137456000Y-113887885D01*
X137964000Y-113887885D01*
X137968475Y-113903124D01*
X137969865Y-113904329D01*
X137977548Y-113906000D01*
X138649885Y-113906000D01*
X138665124Y-113901525D01*
X138666329Y-113900135D01*
X138668000Y-113892452D01*
X138668000Y-113864562D01*
X138667663Y-113858047D01*
X138658106Y-113765943D01*
X138655212Y-113752544D01*
X138605619Y-113603893D01*
X138599445Y-113590714D01*
X138517212Y-113457827D01*
X138508176Y-113446426D01*
X138397571Y-113336014D01*
X138386160Y-113327002D01*
X138253120Y-113244996D01*
X138239939Y-113238849D01*
X138091186Y-113189509D01*
X138077810Y-113186642D01*
X137986903Y-113177328D01*
X137981874Y-113177071D01*
X137966876Y-113181475D01*
X137965671Y-113182865D01*
X137964000Y-113190548D01*
X137964000Y-113887885D01*
X137456000Y-113887885D01*
X137456000Y-113195115D01*
X137451525Y-113179876D01*
X137450135Y-113178671D01*
X137442452Y-113177000D01*
X137439562Y-113177000D01*
X137433047Y-113177337D01*
X137340943Y-113186894D01*
X137327544Y-113189788D01*
X137178893Y-113239381D01*
X137165714Y-113245555D01*
X137032827Y-113327788D01*
X137021426Y-113336824D01*
X136911014Y-113447429D01*
X136902002Y-113458840D01*
X136820239Y-113591485D01*
X136767467Y-113638978D01*
X136697395Y-113650402D01*
X136632272Y-113622128D01*
X136623962Y-113614543D01*
X136614853Y-113605450D01*
X136614852Y-113605450D01*
X136607482Y-113598092D01*
X136593966Y-113591485D01*
X136530124Y-113560279D01*
X136494454Y-113542843D01*
X136458714Y-113537629D01*
X136425341Y-113532760D01*
X136425337Y-113532760D01*
X136420815Y-113532100D01*
X136246379Y-113532100D01*
X135908288Y-113532101D01*
X135840167Y-113512099D01*
X135819193Y-113495196D01*
X135138575Y-112814578D01*
X135134034Y-112809794D01*
X135125707Y-112800546D01*
X135107670Y-112780514D01*
X135088714Y-112772074D01*
X135071342Y-112762642D01*
X135065043Y-112758551D01*
X135065041Y-112758550D01*
X135053936Y-112751339D01*
X135040857Y-112749268D01*
X135035942Y-112747381D01*
X135030796Y-112746287D01*
X135018697Y-112740900D01*
X134997947Y-112740900D01*
X134978236Y-112739349D01*
X134970819Y-112738174D01*
X134970818Y-112738174D01*
X134957742Y-112736103D01*
X134944953Y-112739530D01*
X134931725Y-112740223D01*
X134931702Y-112739787D01*
X134923250Y-112740900D01*
X129922598Y-112740900D01*
X129854477Y-112720898D01*
X129807984Y-112667242D01*
X129797880Y-112596968D01*
X129804616Y-112570670D01*
X129844678Y-112463805D01*
X129848305Y-112448551D01*
X129854200Y-112394289D01*
X129855406Y-112394420D01*
X129877408Y-112332153D01*
X129933498Y-112288627D01*
X129979571Y-112279901D01*
X130352695Y-112279900D01*
X130364556Y-112279900D01*
X130381210Y-112276588D01*
X130396983Y-112273451D01*
X130396985Y-112273450D01*
X130409158Y-112271029D01*
X130431425Y-112256151D01*
X130449418Y-112244128D01*
X130459734Y-112237235D01*
X130466627Y-112226919D01*
X130486635Y-112196976D01*
X130486636Y-112196973D01*
X130493528Y-112186659D01*
X130497919Y-112164588D01*
X130499991Y-112154169D01*
X130502400Y-112142058D01*
X130502399Y-111857945D01*
X130493528Y-111813343D01*
X130486633Y-111803024D01*
X130484642Y-111798217D01*
X130477053Y-111727627D01*
X130484643Y-111701780D01*
X130486633Y-111696976D01*
X130493528Y-111686657D01*
X130502400Y-111642056D01*
X130502399Y-111357943D01*
X130504529Y-111357943D01*
X130515955Y-111297696D01*
X130564795Y-111246168D01*
X130628119Y-111229100D01*
X130918914Y-111229100D01*
X130987035Y-111249102D01*
X131008009Y-111266005D01*
X131634660Y-111892656D01*
X131668686Y-111954968D01*
X131670013Y-112001463D01*
X131669579Y-112004203D01*
X131669579Y-112004207D01*
X131668028Y-112014000D01*
X131688191Y-112141306D01*
X131746708Y-112256151D01*
X131837849Y-112347292D01*
X131952694Y-112405809D01*
X131962487Y-112407360D01*
X132066937Y-112423903D01*
X132080000Y-112425972D01*
X132093064Y-112423903D01*
X132197513Y-112407360D01*
X132207306Y-112405809D01*
X132322151Y-112347292D01*
X132413292Y-112256151D01*
X132471809Y-112141306D01*
X132491972Y-112014000D01*
X132471809Y-111886694D01*
X132413292Y-111771849D01*
X132322151Y-111680708D01*
X132207306Y-111622191D01*
X132080000Y-111602028D01*
X132070208Y-111603579D01*
X132070206Y-111603579D01*
X132067466Y-111604013D01*
X132064107Y-111603579D01*
X132060289Y-111603579D01*
X132060289Y-111603086D01*
X131997055Y-111594916D01*
X131958656Y-111568660D01*
X131616121Y-111226124D01*
X131234565Y-110844568D01*
X131230025Y-110839784D01*
X131212531Y-110820355D01*
X131203670Y-110810514D01*
X131184714Y-110802074D01*
X131167342Y-110792642D01*
X131161043Y-110788551D01*
X131161041Y-110788550D01*
X131149936Y-110781339D01*
X131136857Y-110779268D01*
X131131942Y-110777381D01*
X131126796Y-110776287D01*
X131114697Y-110770900D01*
X131093947Y-110770900D01*
X131074236Y-110769349D01*
X131066819Y-110768174D01*
X131066818Y-110768174D01*
X131053742Y-110766103D01*
X131040953Y-110769530D01*
X131027725Y-110770223D01*
X131027702Y-110769787D01*
X131019250Y-110770900D01*
X130628120Y-110770900D01*
X130559999Y-110750898D01*
X130513506Y-110697242D01*
X130504312Y-110642058D01*
X130502400Y-110642058D01*
X130502399Y-110364134D01*
X130502399Y-110357945D01*
X130493528Y-110313343D01*
X130486633Y-110303024D01*
X130484642Y-110298217D01*
X130477053Y-110227627D01*
X130484643Y-110201780D01*
X130486633Y-110196976D01*
X130493528Y-110186657D01*
X130502400Y-110142056D01*
X130502399Y-109857943D01*
X130493528Y-109813341D01*
X130486629Y-109803015D01*
X130466627Y-109773081D01*
X130459734Y-109762765D01*
X130447505Y-109754594D01*
X130419475Y-109735864D01*
X130419472Y-109735863D01*
X130409158Y-109728971D01*
X130396991Y-109726551D01*
X130396989Y-109726550D01*
X130378757Y-109722924D01*
X130364557Y-109720099D01*
X129979568Y-109720099D01*
X129911450Y-109700098D01*
X129864957Y-109646443D01*
X129854915Y-109605634D01*
X129854199Y-109605712D01*
X129848305Y-109551448D01*
X129844679Y-109536196D01*
X129799524Y-109415746D01*
X129790986Y-109400151D01*
X129714485Y-109298076D01*
X129701924Y-109285515D01*
X129599849Y-109209014D01*
X129584254Y-109200476D01*
X129463806Y-109155322D01*
X129448551Y-109151695D01*
X129394289Y-109145800D01*
X129394420Y-109144594D01*
X129332153Y-109122592D01*
X129288627Y-109066502D01*
X129279901Y-109020429D01*
X129279900Y-108641633D01*
X129279900Y-108635444D01*
X129271029Y-108590842D01*
X129259452Y-108573515D01*
X129244128Y-108550582D01*
X129237235Y-108540266D01*
X129219101Y-108528149D01*
X129196976Y-108513365D01*
X129196973Y-108513364D01*
X129186659Y-108506472D01*
X129174492Y-108504052D01*
X129174490Y-108504051D01*
X129156258Y-108500425D01*
X129142058Y-108497600D01*
X129000024Y-108497600D01*
X128857945Y-108497601D01*
X128813343Y-108506472D01*
X128803024Y-108513367D01*
X128798217Y-108515358D01*
X128727627Y-108522947D01*
X128701780Y-108515357D01*
X128696976Y-108513367D01*
X128686657Y-108506472D01*
X128642056Y-108497600D01*
X128500022Y-108497600D01*
X128357943Y-108497601D01*
X128341289Y-108500913D01*
X128325516Y-108504050D01*
X128325514Y-108504051D01*
X128313341Y-108506472D01*
X128303021Y-108513368D01*
X128298216Y-108515358D01*
X128227626Y-108522946D01*
X128201782Y-108515357D01*
X128196976Y-108513366D01*
X128186658Y-108506472D01*
X128142057Y-108497600D01*
X128135870Y-108497600D01*
X128000001Y-108497601D01*
X127857944Y-108497601D01*
X127856009Y-108497986D01*
X127787697Y-108485030D01*
X127736169Y-108436190D01*
X127719100Y-108372866D01*
X127719100Y-105487087D01*
X127739102Y-105418966D01*
X127756005Y-105397991D01*
X128024193Y-105129804D01*
X128086505Y-105095779D01*
X128113288Y-105092900D01*
X128206714Y-105092900D01*
X128274835Y-105112902D01*
X128295809Y-105129805D01*
X128985416Y-105819412D01*
X128989957Y-105824196D01*
X129016330Y-105853486D01*
X129028424Y-105858871D01*
X129028426Y-105858872D01*
X129035287Y-105861926D01*
X129052661Y-105871360D01*
X129070063Y-105882661D01*
X129083147Y-105884733D01*
X129088060Y-105886619D01*
X129093203Y-105887712D01*
X129105303Y-105893100D01*
X129126053Y-105893100D01*
X129145764Y-105894651D01*
X129153181Y-105895826D01*
X129153182Y-105895826D01*
X129166258Y-105897897D01*
X129179047Y-105894470D01*
X129192275Y-105893777D01*
X129192298Y-105894213D01*
X129200750Y-105893100D01*
X132443467Y-105893100D01*
X132511588Y-105913102D01*
X132532562Y-105930005D01*
X132599849Y-105997292D01*
X132714694Y-106055809D01*
X132842000Y-106075972D01*
X132969306Y-106055809D01*
X133084151Y-105997292D01*
X133175292Y-105906151D01*
X133233809Y-105791306D01*
X133253972Y-105664000D01*
X133233809Y-105536694D01*
X133175292Y-105421849D01*
X133084151Y-105330708D01*
X132969306Y-105272191D01*
X132842000Y-105252028D01*
X132714694Y-105272191D01*
X132599849Y-105330708D01*
X132532562Y-105397995D01*
X132470250Y-105432021D01*
X132443467Y-105434900D01*
X129301087Y-105434900D01*
X129232966Y-105414898D01*
X129211991Y-105397995D01*
X128928192Y-105114195D01*
X128894167Y-105051883D01*
X128899232Y-104981067D01*
X128941779Y-104924232D01*
X129008299Y-104899421D01*
X129017288Y-104899100D01*
X137288914Y-104899100D01*
X137357035Y-104919102D01*
G37*
%TD.AperFunction*%
%TA.AperFunction,Conductor*%
G36*
X124605132Y-104686911D02*
G01*
X124661968Y-104729458D01*
X124686779Y-104795978D01*
X124687100Y-104804967D01*
X124687100Y-104847772D01*
X124690087Y-104872876D01*
X124693924Y-104881515D01*
X124693925Y-104881518D01*
X124721099Y-104942694D01*
X124733624Y-104970893D01*
X124765789Y-105003002D01*
X124801297Y-105038448D01*
X124801299Y-105038449D01*
X124809529Y-105046665D01*
X124907621Y-105090031D01*
X124923611Y-105091895D01*
X124928589Y-105092476D01*
X124928594Y-105092476D01*
X124932228Y-105092900D01*
X125206714Y-105092900D01*
X125274835Y-105112902D01*
X125295809Y-105129805D01*
X126733995Y-106567992D01*
X126768021Y-106630304D01*
X126770900Y-106657087D01*
X126770899Y-108489871D01*
X126749664Y-108559873D01*
X126728971Y-108590842D01*
X126720099Y-108635443D01*
X126720099Y-109020432D01*
X126700098Y-109088550D01*
X126646443Y-109135043D01*
X126605634Y-109145085D01*
X126605712Y-109145801D01*
X126551448Y-109151695D01*
X126536196Y-109155321D01*
X126415746Y-109200476D01*
X126400151Y-109209014D01*
X126298076Y-109285515D01*
X126285515Y-109298076D01*
X126209014Y-109400151D01*
X126200476Y-109415746D01*
X126152548Y-109543593D01*
X126149576Y-109542479D01*
X126121642Y-109591378D01*
X126058688Y-109624199D01*
X125987983Y-109617775D01*
X125945180Y-109589682D01*
X125166076Y-108810578D01*
X125161535Y-108805794D01*
X125152417Y-108795668D01*
X125135171Y-108776514D01*
X125116215Y-108768074D01*
X125098843Y-108758642D01*
X125092544Y-108754551D01*
X125092542Y-108754550D01*
X125081437Y-108747339D01*
X125068358Y-108745268D01*
X125063443Y-108743381D01*
X125058297Y-108742287D01*
X125046198Y-108736900D01*
X125025448Y-108736900D01*
X125005737Y-108735349D01*
X124998320Y-108734174D01*
X124998319Y-108734174D01*
X124985243Y-108732103D01*
X124972454Y-108735530D01*
X124959226Y-108736223D01*
X124959203Y-108735787D01*
X124950751Y-108736900D01*
X124350533Y-108736900D01*
X124282412Y-108716898D01*
X124261438Y-108699995D01*
X124194151Y-108632708D01*
X124079306Y-108574191D01*
X124015653Y-108564109D01*
X123961793Y-108555579D01*
X123952000Y-108554028D01*
X123942207Y-108555579D01*
X123875779Y-108566100D01*
X123824694Y-108574191D01*
X123824328Y-108571878D01*
X123767072Y-108573515D01*
X123706273Y-108536854D01*
X123674946Y-108473143D01*
X123673100Y-108451654D01*
X123673100Y-107959282D01*
X123673273Y-107952688D01*
X123674641Y-107926587D01*
X123674641Y-107926586D01*
X123675334Y-107913360D01*
X123667900Y-107893993D01*
X123662283Y-107875031D01*
X123660723Y-107867691D01*
X123660723Y-107867690D01*
X123657969Y-107854735D01*
X123650185Y-107844022D01*
X123648044Y-107839213D01*
X123645177Y-107834799D01*
X123640432Y-107822436D01*
X123625761Y-107807765D01*
X123612920Y-107792731D01*
X123608505Y-107786654D01*
X123608504Y-107786654D01*
X123600722Y-107775942D01*
X123589255Y-107769322D01*
X123579412Y-107760459D01*
X123579704Y-107760135D01*
X123572943Y-107754945D01*
X123358567Y-107540569D01*
X123354026Y-107535785D01*
X123336531Y-107516355D01*
X123327670Y-107506514D01*
X123315572Y-107501128D01*
X123304859Y-107493344D01*
X123306997Y-107490402D01*
X123275260Y-107464703D01*
X123273795Y-107462687D01*
X123269292Y-107453849D01*
X123178151Y-107362708D01*
X123063306Y-107304191D01*
X122936000Y-107284028D01*
X122808694Y-107304191D01*
X122693849Y-107362708D01*
X122602708Y-107453849D01*
X122544191Y-107568694D01*
X122524028Y-107696000D01*
X122544191Y-107823306D01*
X122602708Y-107938151D01*
X122693849Y-108029292D01*
X122808694Y-108087809D01*
X122936000Y-108107972D01*
X123063306Y-108087809D01*
X123063672Y-108090122D01*
X123120928Y-108088485D01*
X123181727Y-108125146D01*
X123213054Y-108188857D01*
X123214900Y-108210346D01*
X123214900Y-109210718D01*
X123214727Y-109217312D01*
X123212666Y-109256639D01*
X123220103Y-109276014D01*
X123225715Y-109294962D01*
X123226636Y-109299292D01*
X123230031Y-109315265D01*
X123237813Y-109325976D01*
X123239954Y-109330784D01*
X123242823Y-109335201D01*
X123247568Y-109347564D01*
X123262239Y-109362235D01*
X123275080Y-109377269D01*
X123287278Y-109394058D01*
X123298745Y-109400678D01*
X123308588Y-109409541D01*
X123308296Y-109409866D01*
X123315060Y-109415056D01*
X124545416Y-110645412D01*
X124549957Y-110650196D01*
X124576330Y-110679486D01*
X124588424Y-110684871D01*
X124588426Y-110684872D01*
X124595287Y-110687926D01*
X124612661Y-110697360D01*
X124630063Y-110708661D01*
X124643147Y-110710733D01*
X124648060Y-110712619D01*
X124653203Y-110713712D01*
X124665303Y-110719100D01*
X124686053Y-110719100D01*
X124705764Y-110720651D01*
X124713181Y-110721826D01*
X124713182Y-110721826D01*
X124726258Y-110723897D01*
X124739047Y-110720470D01*
X124752275Y-110719777D01*
X124752298Y-110720213D01*
X124760750Y-110719100D01*
X125372865Y-110719100D01*
X125440986Y-110739102D01*
X125487479Y-110792758D01*
X125498003Y-110855919D01*
X125497600Y-110857943D01*
X125497601Y-111142056D01*
X125498809Y-111148128D01*
X125501343Y-111160868D01*
X125506472Y-111186658D01*
X125513368Y-111196978D01*
X125515358Y-111201783D01*
X125522946Y-111272373D01*
X125515357Y-111298217D01*
X125513366Y-111303023D01*
X125506472Y-111313341D01*
X125497600Y-111357942D01*
X125497601Y-111642055D01*
X125506472Y-111686657D01*
X125513367Y-111696976D01*
X125515358Y-111701783D01*
X125522947Y-111772373D01*
X125515357Y-111798220D01*
X125513367Y-111803024D01*
X125506472Y-111813343D01*
X125497600Y-111857944D01*
X125497600Y-111944900D01*
X125477598Y-112013021D01*
X125423942Y-112059514D01*
X125371600Y-112070900D01*
X122990519Y-112070900D01*
X122922398Y-112050898D01*
X122875905Y-111997242D01*
X122865801Y-111926968D01*
X122895295Y-111862388D01*
X122915851Y-111843521D01*
X122924151Y-111839292D01*
X123015292Y-111748151D01*
X123073809Y-111633306D01*
X123093972Y-111506000D01*
X123073809Y-111378694D01*
X123015292Y-111263849D01*
X122986105Y-111234662D01*
X122952079Y-111172350D01*
X122949200Y-111145567D01*
X122949200Y-109004728D01*
X122951621Y-108980147D01*
X122952014Y-108978171D01*
X122954435Y-108966000D01*
X122933697Y-108861743D01*
X122889549Y-108795671D01*
X122889547Y-108795668D01*
X122881534Y-108783675D01*
X122881533Y-108783674D01*
X122874641Y-108773359D01*
X122862645Y-108765343D01*
X122843550Y-108749672D01*
X121729973Y-107636095D01*
X121695947Y-107573783D01*
X121701012Y-107502968D01*
X121729973Y-107457905D01*
X123099670Y-106088208D01*
X124472005Y-104715872D01*
X124534317Y-104681846D01*
X124605132Y-104686911D01*
G37*
%TD.AperFunction*%
%TA.AperFunction,Conductor*%
G36*
X88575612Y-91753972D02*
G01*
X88591845Y-91770931D01*
X88657543Y-91853821D01*
X88683083Y-91886044D01*
X88832862Y-92013516D01*
X89004547Y-92109467D01*
X89191600Y-92170244D01*
X89386895Y-92193532D01*
X89393030Y-92193060D01*
X89393032Y-92193060D01*
X89576852Y-92178916D01*
X89576856Y-92178915D01*
X89582994Y-92178443D01*
X89772428Y-92125552D01*
X89822067Y-92100478D01*
X89891887Y-92087618D01*
X89957578Y-92114547D01*
X89967971Y-92123849D01*
X102005672Y-104161550D01*
X102021343Y-104180644D01*
X102029359Y-104192641D01*
X102051671Y-104207549D01*
X102117744Y-104251697D01*
X102222000Y-104272436D01*
X102236153Y-104269621D01*
X102260733Y-104267200D01*
X104065281Y-104267200D01*
X104133402Y-104287202D01*
X104179895Y-104340858D01*
X104189999Y-104411132D01*
X104170046Y-104463201D01*
X104155198Y-104485422D01*
X104155196Y-104485427D01*
X104148303Y-104495743D01*
X104145883Y-104507911D01*
X104145882Y-104507912D01*
X104133832Y-104568488D01*
X104127564Y-104600000D01*
X104129985Y-104612169D01*
X104130379Y-104614150D01*
X104132800Y-104638733D01*
X104132800Y-108566101D01*
X104112798Y-108634222D01*
X104059142Y-108680715D01*
X104006800Y-108692101D01*
X103874944Y-108692101D01*
X103858290Y-108695413D01*
X103842517Y-108698550D01*
X103842515Y-108698551D01*
X103830342Y-108700972D01*
X103820022Y-108707867D01*
X103820021Y-108707868D01*
X103790082Y-108727873D01*
X103779766Y-108734766D01*
X103772873Y-108745082D01*
X103752865Y-108775025D01*
X103752864Y-108775028D01*
X103745972Y-108785342D01*
X103743552Y-108797509D01*
X103743551Y-108797511D01*
X103742022Y-108805199D01*
X103737100Y-108829943D01*
X103737101Y-109270056D01*
X103745972Y-109314658D01*
X103752867Y-109324977D01*
X103753615Y-109326783D01*
X103761204Y-109397373D01*
X103753614Y-109423220D01*
X103752867Y-109425022D01*
X103745972Y-109435342D01*
X103737100Y-109479943D01*
X103737101Y-109920056D01*
X103745972Y-109964658D01*
X103752867Y-109974977D01*
X103753615Y-109976783D01*
X103761204Y-110047373D01*
X103753614Y-110073220D01*
X103752867Y-110075022D01*
X103745972Y-110085342D01*
X103737100Y-110129943D01*
X103737101Y-110570056D01*
X103738308Y-110576124D01*
X103738308Y-110576125D01*
X103739520Y-110582216D01*
X103733194Y-110652931D01*
X103689640Y-110708999D01*
X103615942Y-110732800D01*
X103288868Y-110732800D01*
X103220747Y-110712798D01*
X103199773Y-110695895D01*
X101392328Y-108888450D01*
X101376657Y-108869356D01*
X101375536Y-108867678D01*
X101375535Y-108867677D01*
X101368641Y-108857359D01*
X101310635Y-108818601D01*
X101280257Y-108798303D01*
X101200251Y-108782388D01*
X101188171Y-108779985D01*
X101176000Y-108777564D01*
X101161847Y-108780379D01*
X101137267Y-108782800D01*
X100317034Y-108782800D01*
X100248913Y-108762798D01*
X100227937Y-108745894D01*
X100227131Y-108745087D01*
X100220234Y-108734766D01*
X100209915Y-108727871D01*
X100209914Y-108727870D01*
X100179975Y-108707865D01*
X100179972Y-108707864D01*
X100169658Y-108700972D01*
X100157491Y-108698552D01*
X100157489Y-108698551D01*
X100139257Y-108694925D01*
X100125057Y-108692100D01*
X99993200Y-108692100D01*
X99925079Y-108672098D01*
X99878586Y-108618442D01*
X99867200Y-108566100D01*
X99867200Y-104638728D01*
X99869621Y-104614147D01*
X99870014Y-104612171D01*
X99870014Y-104612169D01*
X99872435Y-104600000D01*
X99851697Y-104495743D01*
X99825162Y-104456031D01*
X99820090Y-104448440D01*
X99799535Y-104417676D01*
X99799533Y-104417674D01*
X99792641Y-104407359D01*
X99780641Y-104399341D01*
X99761547Y-104383670D01*
X99639805Y-104261928D01*
X99605779Y-104199616D01*
X99602900Y-104172833D01*
X99602899Y-103718794D01*
X99602899Y-103714186D01*
X99591966Y-103639905D01*
X99549154Y-103552708D01*
X99541109Y-103536322D01*
X99541108Y-103536321D01*
X99536519Y-103526974D01*
X99447482Y-103438092D01*
X99433966Y-103431485D01*
X99343676Y-103387351D01*
X99334454Y-103382843D01*
X99301082Y-103377974D01*
X99265341Y-103372760D01*
X99265337Y-103372760D01*
X99260815Y-103372100D01*
X99000995Y-103372100D01*
X98739186Y-103372101D01*
X98664905Y-103383034D01*
X98609857Y-103410062D01*
X98561322Y-103433891D01*
X98561321Y-103433892D01*
X98551974Y-103438481D01*
X98536257Y-103454226D01*
X98473976Y-103488306D01*
X98403156Y-103483304D01*
X98346282Y-103440808D01*
X98339939Y-103431512D01*
X98257212Y-103297827D01*
X98248176Y-103286426D01*
X98137571Y-103176014D01*
X98126160Y-103167002D01*
X97993120Y-103084996D01*
X97979939Y-103078849D01*
X97831186Y-103029509D01*
X97817810Y-103026642D01*
X97726903Y-103017328D01*
X97721874Y-103017071D01*
X97706876Y-103021475D01*
X97705671Y-103022865D01*
X97704000Y-103030548D01*
X97704000Y-104128000D01*
X97683998Y-104196121D01*
X97630342Y-104242614D01*
X97578000Y-104254000D01*
X96510115Y-104254000D01*
X96494876Y-104258475D01*
X96493671Y-104259865D01*
X96492000Y-104267548D01*
X96492000Y-104295438D01*
X96492337Y-104301953D01*
X96501894Y-104394057D01*
X96504788Y-104407456D01*
X96554381Y-104556107D01*
X96560555Y-104569286D01*
X96642788Y-104702173D01*
X96651824Y-104713574D01*
X96762429Y-104823986D01*
X96773840Y-104832998D01*
X96906880Y-104915004D01*
X96920061Y-104921151D01*
X97068814Y-104970491D01*
X97082190Y-104973358D01*
X97173097Y-104982672D01*
X97179513Y-104983000D01*
X97334932Y-104983000D01*
X97403053Y-105003002D01*
X97449546Y-105056658D01*
X97459650Y-105126932D01*
X97430156Y-105191512D01*
X97424027Y-105198095D01*
X94921227Y-107700895D01*
X94858915Y-107734921D01*
X94832132Y-107737800D01*
X87060561Y-107737800D01*
X86992440Y-107717798D01*
X86945947Y-107664142D01*
X86939939Y-107648217D01*
X86933496Y-107626877D01*
X86933496Y-107626876D01*
X86931714Y-107620975D01*
X86864222Y-107494041D01*
X86842273Y-107452760D01*
X86842271Y-107452757D01*
X86839379Y-107447318D01*
X86835489Y-107442548D01*
X86835486Y-107442544D01*
X86718967Y-107299678D01*
X86718964Y-107299675D01*
X86715072Y-107294903D01*
X86710323Y-107290974D01*
X86568278Y-107173464D01*
X86568274Y-107173462D01*
X86563528Y-107169535D01*
X86390520Y-107075990D01*
X86202637Y-107017830D01*
X86196519Y-107017187D01*
X86196514Y-107017186D01*
X86013164Y-106997916D01*
X86013162Y-106997916D01*
X86007035Y-106997272D01*
X85924199Y-107004810D01*
X85817305Y-107014538D01*
X85817302Y-107014539D01*
X85811166Y-107015097D01*
X85622489Y-107070628D01*
X85617032Y-107073481D01*
X85617029Y-107073482D01*
X85586975Y-107089194D01*
X85517339Y-107103028D01*
X85451278Y-107077018D01*
X85439505Y-107066627D01*
X82854105Y-104481227D01*
X82820079Y-104418915D01*
X82817200Y-104392132D01*
X82817200Y-103819669D01*
X84642001Y-103819669D01*
X84642371Y-103826490D01*
X84647895Y-103877352D01*
X84651521Y-103892604D01*
X84696676Y-104013054D01*
X84705214Y-104028649D01*
X84781715Y-104130724D01*
X84794276Y-104143285D01*
X84896351Y-104219786D01*
X84911946Y-104228324D01*
X85032394Y-104273478D01*
X85047649Y-104277105D01*
X85098514Y-104282631D01*
X85105328Y-104283000D01*
X85589477Y-104283000D01*
X85657598Y-104303002D01*
X85704091Y-104356658D01*
X85714195Y-104426932D01*
X85684701Y-104491512D01*
X85633301Y-104524564D01*
X85634115Y-104526579D01*
X85628398Y-104528889D01*
X85622489Y-104530628D01*
X85448192Y-104621748D01*
X85294912Y-104744988D01*
X85290954Y-104749705D01*
X85290952Y-104749707D01*
X85232889Y-104818904D01*
X85168489Y-104895653D01*
X85073739Y-105068004D01*
X85071878Y-105073871D01*
X85071877Y-105073873D01*
X85066065Y-105092195D01*
X85014269Y-105255476D01*
X84992345Y-105450930D01*
X85008803Y-105646919D01*
X85010502Y-105652844D01*
X85058999Y-105821972D01*
X85063015Y-105835979D01*
X85065830Y-105841456D01*
X85065831Y-105841459D01*
X85142315Y-105990281D01*
X85152916Y-106010908D01*
X85156739Y-106015732D01*
X85156742Y-106015736D01*
X85188504Y-106055809D01*
X85275083Y-106165044D01*
X85279777Y-106169038D01*
X85279777Y-106169039D01*
X85353532Y-106231809D01*
X85424862Y-106292516D01*
X85596547Y-106388467D01*
X85783600Y-106449244D01*
X85978895Y-106472532D01*
X85985030Y-106472060D01*
X85985032Y-106472060D01*
X86168852Y-106457916D01*
X86168856Y-106457915D01*
X86174994Y-106457443D01*
X86364428Y-106404552D01*
X86369932Y-106401772D01*
X86369934Y-106401771D01*
X86534480Y-106318653D01*
X86534482Y-106318652D01*
X86539981Y-106315874D01*
X86694966Y-106194786D01*
X86698992Y-106190122D01*
X86698995Y-106190119D01*
X86819451Y-106050569D01*
X86819452Y-106050567D01*
X86823480Y-106045901D01*
X86920628Y-105874890D01*
X86938232Y-105821972D01*
X86952085Y-105780328D01*
X86992567Y-105722003D01*
X87058155Y-105694824D01*
X87071643Y-105694100D01*
X89318467Y-105694100D01*
X89386588Y-105714102D01*
X89407562Y-105731005D01*
X89419849Y-105743292D01*
X89534694Y-105801809D01*
X89544487Y-105803360D01*
X89645837Y-105819412D01*
X89662000Y-105821972D01*
X89678164Y-105819412D01*
X89779513Y-105803360D01*
X89789306Y-105801809D01*
X89904151Y-105743292D01*
X89995292Y-105652151D01*
X90053809Y-105537306D01*
X90073972Y-105410000D01*
X90053809Y-105282694D01*
X89995292Y-105167849D01*
X89904151Y-105076708D01*
X89789306Y-105018191D01*
X89662000Y-104998028D01*
X89534694Y-105018191D01*
X89419849Y-105076708D01*
X89328708Y-105167849D01*
X89324208Y-105176681D01*
X89318917Y-105183963D01*
X89262694Y-105227316D01*
X89216983Y-105235900D01*
X87072064Y-105235900D01*
X87003943Y-105215898D01*
X86957450Y-105162242D01*
X86951442Y-105146318D01*
X86946457Y-105129805D01*
X86931714Y-105080975D01*
X86878091Y-104980124D01*
X86842273Y-104912760D01*
X86842271Y-104912757D01*
X86839379Y-104907318D01*
X86835489Y-104902548D01*
X86835486Y-104902544D01*
X86718967Y-104759678D01*
X86718964Y-104759675D01*
X86715072Y-104754903D01*
X86692324Y-104736084D01*
X86568278Y-104633464D01*
X86568274Y-104633462D01*
X86563528Y-104629535D01*
X86390520Y-104535990D01*
X86369115Y-104529364D01*
X86309956Y-104490111D01*
X86281410Y-104425106D01*
X86292539Y-104354988D01*
X86339811Y-104302017D01*
X86406376Y-104282999D01*
X86894669Y-104282999D01*
X86901490Y-104282629D01*
X86952352Y-104277105D01*
X86967604Y-104273479D01*
X87088054Y-104228324D01*
X87103649Y-104219786D01*
X87205724Y-104143285D01*
X87218285Y-104130724D01*
X87294786Y-104028649D01*
X87303324Y-104013054D01*
X87348478Y-103892606D01*
X87352105Y-103877351D01*
X87357631Y-103826486D01*
X87358000Y-103819672D01*
X87358000Y-103197115D01*
X87353525Y-103181876D01*
X87352135Y-103180671D01*
X87344452Y-103179000D01*
X84660116Y-103179000D01*
X84644877Y-103183475D01*
X84643672Y-103184865D01*
X84642001Y-103192548D01*
X84642001Y-103819669D01*
X82817200Y-103819669D01*
X82817200Y-102652885D01*
X84642000Y-102652885D01*
X84646475Y-102668124D01*
X84647865Y-102669329D01*
X84655548Y-102671000D01*
X85727885Y-102671000D01*
X85743124Y-102666525D01*
X85744329Y-102665135D01*
X85746000Y-102657452D01*
X85746000Y-102652885D01*
X86254000Y-102652885D01*
X86258475Y-102668124D01*
X86259865Y-102669329D01*
X86267548Y-102671000D01*
X87339884Y-102671000D01*
X87355123Y-102666525D01*
X87356328Y-102665135D01*
X87357999Y-102657452D01*
X87357999Y-102030331D01*
X87357629Y-102023510D01*
X87352105Y-101972648D01*
X87348479Y-101957396D01*
X87303324Y-101836946D01*
X87294786Y-101821351D01*
X87218285Y-101719276D01*
X87205724Y-101706715D01*
X87103649Y-101630214D01*
X87088054Y-101621676D01*
X86967606Y-101576522D01*
X86952351Y-101572895D01*
X86901486Y-101567369D01*
X86894672Y-101567000D01*
X86272115Y-101567000D01*
X86256876Y-101571475D01*
X86255671Y-101572865D01*
X86254000Y-101580548D01*
X86254000Y-102652885D01*
X85746000Y-102652885D01*
X85746000Y-101585116D01*
X85741525Y-101569877D01*
X85740135Y-101568672D01*
X85732452Y-101567001D01*
X85105331Y-101567001D01*
X85098510Y-101567371D01*
X85047648Y-101572895D01*
X85032396Y-101576521D01*
X84911946Y-101621676D01*
X84896351Y-101630214D01*
X84794276Y-101706715D01*
X84781715Y-101719276D01*
X84705214Y-101821351D01*
X84696676Y-101836946D01*
X84651522Y-101957394D01*
X84647895Y-101972649D01*
X84642369Y-102023514D01*
X84642000Y-102030328D01*
X84642000Y-102652885D01*
X82817200Y-102652885D01*
X82817200Y-95666868D01*
X82837202Y-95598747D01*
X82854105Y-95577773D01*
X86305986Y-92125891D01*
X86368298Y-92091865D01*
X86439113Y-92096930D01*
X86456550Y-92104997D01*
X86464547Y-92109467D01*
X86651600Y-92170244D01*
X86846895Y-92193532D01*
X86853030Y-92193060D01*
X86853032Y-92193060D01*
X87036852Y-92178916D01*
X87036856Y-92178915D01*
X87042994Y-92178443D01*
X87232428Y-92125552D01*
X87237932Y-92122772D01*
X87237934Y-92122771D01*
X87402480Y-92039653D01*
X87402482Y-92039652D01*
X87407981Y-92036874D01*
X87562966Y-91915786D01*
X87566992Y-91911122D01*
X87566995Y-91911119D01*
X87687519Y-91771490D01*
X87747172Y-91732993D01*
X87818168Y-91732858D01*
X87877967Y-91771127D01*
X87907583Y-91835652D01*
X87908900Y-91853821D01*
X87908900Y-100828718D01*
X87908727Y-100835312D01*
X87906666Y-100874639D01*
X87914103Y-100894014D01*
X87919715Y-100912962D01*
X87924031Y-100933265D01*
X87931813Y-100943976D01*
X87933954Y-100948784D01*
X87936823Y-100953201D01*
X87941568Y-100965564D01*
X87956239Y-100980235D01*
X87969080Y-100995269D01*
X87981278Y-101012058D01*
X87992745Y-101018678D01*
X88002588Y-101027541D01*
X88002296Y-101027866D01*
X88009060Y-101033056D01*
X93280660Y-106304656D01*
X93314686Y-106366968D01*
X93316013Y-106413463D01*
X93315579Y-106416203D01*
X93315579Y-106416207D01*
X93314028Y-106426000D01*
X93334191Y-106553306D01*
X93392708Y-106668151D01*
X93483849Y-106759292D01*
X93598694Y-106817809D01*
X93726000Y-106837972D01*
X93853306Y-106817809D01*
X93968151Y-106759292D01*
X94059292Y-106668151D01*
X94117809Y-106553306D01*
X94137972Y-106426000D01*
X94117809Y-106298694D01*
X94059292Y-106183849D01*
X93968151Y-106092708D01*
X93853306Y-106034191D01*
X93726000Y-106014028D01*
X93716208Y-106015579D01*
X93716203Y-106015579D01*
X93713463Y-106016013D01*
X93710104Y-106015579D01*
X93706289Y-106015579D01*
X93706289Y-106015086D01*
X93643052Y-106006915D01*
X93604656Y-105980660D01*
X91351882Y-103727885D01*
X96492000Y-103727885D01*
X96496475Y-103743124D01*
X96497865Y-103744329D01*
X96505548Y-103746000D01*
X97177885Y-103746000D01*
X97193124Y-103741525D01*
X97194329Y-103740135D01*
X97196000Y-103732452D01*
X97196000Y-103035115D01*
X97191525Y-103019876D01*
X97190135Y-103018671D01*
X97182452Y-103017000D01*
X97179562Y-103017000D01*
X97173047Y-103017337D01*
X97080943Y-103026894D01*
X97067544Y-103029788D01*
X96918893Y-103079381D01*
X96905714Y-103085555D01*
X96772827Y-103167788D01*
X96761426Y-103176824D01*
X96651014Y-103287429D01*
X96642002Y-103298840D01*
X96559996Y-103431880D01*
X96553849Y-103445061D01*
X96504509Y-103593814D01*
X96501642Y-103607190D01*
X96492328Y-103698097D01*
X96492000Y-103704514D01*
X96492000Y-103727885D01*
X91351882Y-103727885D01*
X91007031Y-103383034D01*
X88404005Y-100780008D01*
X88369979Y-100717696D01*
X88367100Y-100690913D01*
X88367100Y-91849196D01*
X88387102Y-91781075D01*
X88440758Y-91734582D01*
X88511032Y-91724478D01*
X88575612Y-91753972D01*
G37*
%TD.AperFunction*%
%TD*%
M02*
